<svg xmlns="http://www.w3.org/2000/svg" width="349" height="349" viewBox="0 0 349 349"><g transform="translate(-17644 19282)"><rect width="349" height="349" transform="translate(17644 -19282)" fill="none"/><g transform="translate(17661 -19240.143)"><path d="M49,263c1.705,6.821,6.821,11.084,17.052,14.494h52.86c8.526-3.41,14.494-7.673,17.052-14.494Z" transform="translate(0 -34.039)" fill="none" stroke="#756f86" stroke-width="6" fill-rule="evenodd"/><path d="M65.936,222.853H57.41c-2.558.853-3.41,1.705-3.41,4.263v17.052c0,3.41.853,5.115,5.115,5.115h6.821c.853,2.558.853,4.263,2.558,6.821h51.155c5.115-9.378,2.558-23.872,2.558-34.1H65.936v.853Z" transform="translate(-0.737 -27.995)" fill="none" stroke="#756f86" stroke-width="6"/><path d="M159.975,55.888l81.848,36.661c21.314,9.378,42.629,15.346,27.283,47.744-6.821,16.2-19.609,28.135-36.661,21.314l-92.078-41.776L102,135.177l14.494-31.545c-13.641-11.936,6.821-55.418,23.02-52.007,0,0-2.609.025-2.679,0-.335.021,2.5-1.991,4.7-3.41,1.858-1.207,5.9-1.784,9.914,0,5.968-10.231,12.789-18.757,20.462-15.346,59.68,27.282,38.366,27.282-5.115,7.673ZM152.3,96.267l75.879,32.942a40.152,40.152,0,0,0,4.263,1.334c2.007.506,5.669-.959,6.921-4.084a20.013,20.013,0,0,0,.645-2.914c.394-2.36-.01-5.438-4.873-7.648L158.4,82.1l-9.534,3.878Z" transform="translate(-7.813 0)" fill="none" stroke="#756f86" stroke-linecap="round" stroke-linejoin="round" stroke-width="6" fill-rule="evenodd"/><path d="M102.148,165s-11.084,29.84,0,29.84S102.148,165,102.148,165Z" transform="translate(-7.109 -19.592)" fill="none" stroke="#756f86" stroke-width="6" fill-rule="evenodd"/></g></g></svg>