<svg xmlns="http://www.w3.org/2000/svg" width="349" height="349" viewBox="0 0 349 349"><g transform="translate(-17644 19661)"><rect width="349" height="349" transform="translate(17644 -19661)" fill="none"/><g transform="translate(17722.004 -19582.996)"><path d="M191.5,59.813H172.229v-6.1L194.39,6.7a3.212,3.212,0,0,0-2.891-4.58,25.374,25.374,0,0,0-22.091,14.405L152.8,46.966H127.263a18.269,18.269,0,0,0-15.581,12.847h-3.69a3.212,3.212,0,0,0-3.212,3.212v35.33a9.636,9.636,0,0,0-9.636-9.636H33.155A58.729,58.729,0,0,0,34.119,75.7L30.907,14.677C30.306,2.922,22.633,2.016,14.847,2,10.405,2,2,5.356,2,18.23L5.212,79.085A40.681,40.681,0,0,0,8.539,97.2a9.736,9.736,0,0,0-.116,1.153v3.212a9.636,9.636,0,0,0,9.636,9.636H31.5a9.526,9.526,0,0,0-.591,3.212v3.212a9.636,9.636,0,0,0,9.636,9.636h6.424V165.8H24.483a3.212,3.212,0,0,0-3.212,3.212v.456a12.822,12.822,0,1,0,15.6,15.6H76.329a12.822,12.822,0,1,0,15.6-15.6v-.456A3.212,3.212,0,0,0,88.72,165.8H66.237V127.263h6.424a9.636,9.636,0,0,0,9.636-9.636v-3.212a9.526,9.526,0,0,0-.591-3.212H95.144a9.636,9.636,0,0,0,9.636-9.636V191.5a3.212,3.212,0,0,0,3.212,3.212h12.944a3.212,3.212,0,0,0,3.212-3.212V146.534H175.44V191.5a3.212,3.212,0,0,0,3.212,3.212H191.5a3.212,3.212,0,0,0,3.212-3.212V63.025A3.212,3.212,0,0,0,191.5,59.813ZM175.44,127.263H124.147V79.085H175.44Z" transform="translate(-2 -2)" fill="none" stroke="#756f86" stroke-width="7"/></g></g></svg>