<svg xmlns="http://www.w3.org/2000/svg" width="349" height="349" viewBox="0 0 349 349"><g transform="translate(-16865 19661)"><rect width="349" height="349" transform="translate(16865 -19661)" fill="none"/><g transform="translate(16929.617 -19590.797)"><path d="M205.153,50.135a22.053,22.053,0,1,0-22.053,0V67.851H168.4a18.4,18.4,0,0,0-18.377-18.377H69.16A18.4,18.4,0,0,0,50.783,67.851h-14.7V50.139a22.053,22.053,0,1,0-22.053,0V78.176a2.274,2.274,0,0,0,.048.228c0,.158-.048.3-.048.459A11.026,11.026,0,0,0,25.054,89.889H50.783v36.77A18.4,18.4,0,0,0,69.16,145.036h3.675v51.457a3.675,3.675,0,0,0,3.675,3.675h88.212a3.676,3.676,0,0,0,3.676-3.675V89.9h25.728a11.026,11.026,0,0,0,11.026-11.026,10.376,10.376,0,0,0-.125-1.224,3.433,3.433,0,0,0,.125-.614ZM14.028,31.1v9.681a14.7,14.7,0,1,1,22.053.029V31.1a3.675,3.675,0,0,0-3.675-3.675H17.7A3.675,3.675,0,0,0,14.028,31.1Zm14.7,3.675V67.851H25.054a10.9,10.9,0,0,0-3.675.676V34.772Zm44.106,95.563v7.351H69.16a11.026,11.026,0,0,1-11.026-11.026V89.9H72.145a3.34,3.34,0,0,0,.691-.14Zm0-62.483h-14.7A11.026,11.026,0,0,1,69.16,56.825h3.675Zm88.212,124.967H153.7v-14.7h-7.351v14.7h-7.351v-14.7h-7.351v14.7h-7.351v-14.7h-7.351v14.7h-7.351v-14.7H102.24v14.7H94.889v-14.7H87.538v14.7H80.187V156.063h80.861ZM197.8,68.527a10.9,10.9,0,0,0-3.675-.676h-3.675V34.772H197.8Zm3.675-41.107h-14.7A3.675,3.675,0,0,0,183.1,31.1v9.711a14.7,14.7,0,1,1,22.053,0V31.1A3.675,3.675,0,0,0,201.478,27.421Z" fill="none" stroke="#756f86" stroke-width="6"/></g></g></svg>