<svg xmlns="http://www.w3.org/2000/svg" width="349" height="349" viewBox="0 0 349 349"><g transform="translate(-18429 18523)"><rect width="349" height="349" transform="translate(18429 -18523)" fill="none"/><g transform="translate(18480.514 -18471.486)"><g transform="translate(33.402 33.4)"><g transform="translate(-33.839 -33.838)" fill="none"><path d="M151.291,111.4a2.921,2.921,0,0,0,3.137-.644,46.03,46.03,0,0,1,39.388-12.893l13.438,2.063a2.909,2.909,0,0,0,1.973-5.349l-83.06-51.554V35.91h-5.827v7.115L37.279,94.579a2.914,2.914,0,0,0,1.973,5.357l13.438-2.063a46.062,46.062,0,0,1,39.388,12.893,2.894,2.894,0,0,0,3.137.644,75.67,75.67,0,0,1,19.3-4.895V193.14h-8.733a8.733,8.733,0,0,0,0,17.465h34.939a8.733,8.733,0,0,0,0-17.465h-8.733V106.506A75.643,75.643,0,0,1,151.291,111.4Zm-4.366-7.627a79.235,79.235,0,0,0-47.361,0l23.689-52.1Zm6.43.066L129.88,52.179l64.167,39.834a51.882,51.882,0,0,0-40.684,11.836ZM52.458,92.012l64.167-39.834L93.142,103.84A51.876,51.876,0,0,0,52.458,92.012ZM143.64,201.873a2.913,2.913,0,0,1-2.914,2.914H105.787a2.914,2.914,0,1,1,0-5.827h34.939A2.913,2.913,0,0,1,143.64,201.873Zm-17.474-8.741h-5.827V106.044q2.91-.111,5.827,0Z" stroke="none"/><path d="M 122.3387756347656 37.91000366210938 L 122.3387756347656 43.02494812011719 L 122.3387756347656 44.13749694824219 L 121.3934860229492 44.7242431640625 L 38.33326721191406 96.27883911132812 C 37.90878295898438 96.54222106933594 37.77723693847656 97.10533142089844 38.03788757324219 97.53727722167969 C 38.20982360839844 97.80764770507812 38.5 97.96882629394531 38.81562805175781 97.96882629394531 C 38.86018371582031 97.96882629394531 38.90553283691406 97.96553039550781 38.95048522949219 97.95901489257812 L 52.38922119140625 95.89535522460938 C 54.76454162597656 95.53526306152344 57.18667602539062 95.35260009765625 59.58839416503906 95.35247802734375 C 65.88581848144531 95.35211181640625 72.03482055664062 96.56739807128906 77.86457824707031 98.96456909179688 C 83.73318481445312 101.377685546875 88.98960876464844 104.8711395263672 93.49130249023438 109.3512878417969 C 93.66482543945312 109.5248107910156 93.89222717285156 109.6203765869141 94.13157653808594 109.6203765869141 C 94.24508666992188 109.6203765869141 94.35678100585938 109.5984802246094 94.46356201171875 109.5552825927734 L 94.46717834472656 109.5538024902344 L 94.4708251953125 109.5523529052734 C 100.8119354248047 107.0159301757812 107.4762573242188 105.3255767822266 114.2786102294922 104.5282897949219 L 116.5114440917969 104.2665863037109 L 116.5114440917969 106.5146942138672 L 116.5114440917969 193.140380859375 L 116.5114440917969 195.140380859375 L 114.5114440917969 195.140380859375 L 105.7787322998047 195.140380859375 C 102.0662689208984 195.140380859375 99.04598999023438 198.1606597900391 99.04598999023438 201.8730926513672 C 99.04598999023438 205.5855407714844 102.0662689208984 208.6058502197266 105.7787322998047 208.6058502197266 L 140.7178649902344 208.6058502197266 C 144.4303283691406 208.6058502197266 147.4506072998047 205.5855407714844 147.4506072998047 201.8730926513672 C 147.4506072998047 198.1606597900391 144.4303283691406 195.140380859375 140.7178649902344 195.140380859375 L 131.9851531982422 195.140380859375 L 129.9851531982422 195.140380859375 L 129.9851531982422 193.140380859375 L 129.9851531982422 106.5064239501953 L 129.9851531982422 104.2586364746094 L 132.2177124023438 104.5200042724609 C 139.0232849121094 105.3166656494141 145.6896820068359 107.0067138671875 152.0309753417969 109.5428924560547 C 152.1383361816406 109.5852508544922 152.2515258789062 109.6067199707031 152.367431640625 109.6067199707031 C 152.6104888916016 109.6067199707031 152.8459777832031 109.5105895996094 153.0163879394531 109.3401947021484 C 157.5126800537109 104.8618316650391 162.7675170898438 101.3676910400391 168.6349182128906 98.954833984375 C 174.4612121582031 96.55885314941406 180.6088714599609 95.34390258789062 186.9071044921875 95.34368896484375 C 189.3100128173828 95.34361267089844 191.7352447509766 95.52642822265625 194.1194152832031 95.88766479492188 L 207.5604248046875 97.95170593261719 C 207.6081085205078 97.95912170410156 207.6560821533203 97.96287536621094 207.7029876708984 97.96287536621094 C 208.1446990966797 97.96287536621094 208.5277252197266 97.63249206542969 208.5935821533203 97.19639587402344 C 208.6484222412109 96.83090209960938 208.4846343994141 96.47190856933594 208.1763305664062 96.28178405761719 L 208.173828125 96.28025817871094 L 208.1713409423828 96.27871704101562 L 125.1113662719727 44.7242431640625 L 124.1660842895508 44.13749694824219 L 124.1660842895508 43.02494812011719 L 124.1660842895508 37.91000366210938 L 122.3387756347656 37.91000366210938 M 150.5963745117188 107.0199432373047 L 146.3271789550781 105.6829681396484 C 138.84765625 103.3406219482422 131.0814208984375 102.1529235839844 123.2441787719727 102.1529235839844 C 115.4069366455078 102.1529235839844 107.6407012939453 103.3406219482422 100.1611785888672 105.6829681396484 L 95.89048767089844 107.0204315185547 L 97.74282836914062 102.9465484619141 L 121.431770324707 50.8472900390625 L 123.253059387207 46.84176635742188 L 125.0732727050781 50.8477783203125 L 148.7457580566406 102.9470520019531 L 150.5963745117188 107.0199432373047 M 93.8670654296875 107.0781707763672 L 91.84811401367188 105.3656005859375 C 82.84312438964844 97.72721862792969 71.38458251953125 93.52035522460938 59.58172607421875 93.52000427246094 C 57.29994201660156 93.52000427246094 54.99565124511719 93.67929077148438 52.73291015625 93.993408203125 L 51.40306091308594 90.31318664550781 L 115.5696258544922 50.47943115234375 L 121.1756286621094 46.99931335449219 L 118.4452056884766 53.00624084472656 L 94.96258544921875 104.6679992675781 L 93.8670654296875 107.0781707763672 M 193.7730407714844 93.99357604980469 C 191.5139465332031 93.68121337890625 189.2132720947266 93.52285766601562 186.9349365234375 93.52285766601562 C 175.1217651367188 93.52285766601562 163.65869140625 97.73143005371094 154.6573791503906 105.373291015625 L 153.2521820068359 106.5662536621094 L 151.9487762451172 105.2628479003906 L 151.9405364990234 105.2546234130859 L 151.6839904785156 104.9980773925781 L 151.5339202880859 104.6677551269531 L 128.0595703125 53.00599670410156 L 125.3305587768555 47.0001220703125 L 130.9352264404297 50.47943115234375 L 195.1017761230469 90.31318664550781 L 193.7730407714844 93.99357604980469 M 128.1660766601562 195.1321411132812 L 126.1660842895508 195.1321411132812 L 120.3387756347656 195.1321411132812 L 118.3387756347656 195.1321411132812 L 118.3387756347656 193.1321411132812 L 118.3387756347656 106.0442199707031 L 118.3387756347656 104.1193389892578 L 120.2622222900391 104.0456848144531 C 121.2529144287109 104.0077362060547 122.2579193115234 103.9884948730469 123.2493209838867 103.9884948730469 C 124.240608215332 103.9884948730469 125.2476043701172 104.0077362060547 126.2422943115234 104.0456695556641 L 128.1660766601562 104.1190185546875 L 128.1660766601562 106.0442199707031 L 128.1660766601562 193.1321411132812 L 128.1660766601562 195.1321411132812 M 140.7261352539062 206.7867584228516 L 105.7869567871094 206.7867584228516 C 103.0775604248047 206.7867584228516 100.873291015625 204.5824890136719 100.873291015625 201.8730926513672 C 100.873291015625 199.1637115478516 103.0775604248047 196.9594421386719 105.7869567871094 196.9594421386719 L 140.7261352539062 196.9594421386719 C 143.4355163574219 196.9594421386719 145.6397705078125 199.1637115478516 145.6397705078125 201.8730926513672 C 145.6397705078125 204.5824890136719 143.4355163574219 206.7867584228516 140.7261352539062 206.7867584228516 M 120.3387756347656 35.91000366210938 L 126.1660842895508 35.91000366210938 L 126.1660842895508 43.02494812011719 L 209.2260589599609 94.57942199707031 C 210.2165374755859 95.190185546875 210.7447967529297 96.33749389648438 210.5714721679688 97.49307250976562 C 210.3547973632812 98.92752075195312 209.1172027587891 99.96287536621094 207.7029876708984 99.96287536621094 C 207.5547943115234 99.96287536621094 207.4044342041016 99.95149230957031 207.2533416748047 99.92799377441406 L 193.8158416748047 97.864501953125 C 191.5108337402344 97.5152587890625 189.2029418945312 97.34361267089844 186.9071807861328 97.34368896484375 C 174.8245544433594 97.34408569335938 163.1186828613281 102.1009979248047 154.4277648925781 110.7572326660156 C 153.874267578125 111.3107452392578 153.1276702880859 111.6067047119141 152.3674468994141 111.6067047119141 C 152.0053405761719 111.6067047119141 151.6401062011719 111.5395355224609 151.291259765625 111.4010772705078 C 145.1007385253906 108.9248504638672 138.6130981445312 107.2823028564453 131.9851531982422 106.5064239501953 L 131.9851531982422 193.140380859375 L 140.7178649902344 193.140380859375 C 145.5382080078125 193.140380859375 149.4506072998047 197.0527801513672 149.4506072998047 201.8730926513672 C 149.4506072998047 206.6934509277344 145.5382080078125 210.6058502197266 140.7178649902344 210.6058502197266 L 105.7787322998047 210.6058502197266 C 100.9583740234375 210.6058502197266 97.04598999023438 206.6934509277344 97.04598999023438 201.8730926513672 C 97.04598999023438 197.0527801513672 100.9583892822266 193.140380859375 105.7787322998047 193.140380859375 L 114.5114440917969 193.140380859375 L 114.5114440917969 106.5146942138672 C 107.8917541503906 107.2905731201172 101.4041137695312 108.9331207275391 95.21360778808594 111.4093017578125 C 94.86224365234375 111.5514526367188 94.49534606933594 111.6203765869141 94.131591796875 111.6203765869141 C 93.37591552734375 111.6203765869141 92.63427734375 111.3226928710938 92.07708740234375 110.7655029296875 C 83.38362121582031 102.1136627197266 71.67182922363281 97.35177612304688 59.58851623535156 97.35247802734375 C 57.29679870605469 97.35260009765625 54.98918151855469 97.5240478515625 52.68901062011719 97.87275695800781 L 39.25149536132812 99.93623352050781 C 39.10556030273438 99.9581298828125 38.96000671386719 99.96882629394531 38.81562805175781 99.96882629394531 C 37.816650390625 99.96882629394531 36.87872314453125 99.45625305175781 36.33784484863281 98.59085083007812 C 35.49594116210938 97.22068786621094 35.90863037109375 95.4295654296875 37.27879333496094 94.57940673828125 L 120.3387756347656 43.02494812011719 L 120.3387756347656 35.91000366210938 Z M 146.9248962402344 103.7743835449219 L 123.2524185180664 51.67510986328125 L 99.56346130371094 103.7743835449219 C 107.272705078125 101.3600769042969 115.2584533691406 100.1529388427734 123.2441864013672 100.1529388427734 C 131.2299194335938 100.1529388427734 139.2156677246094 101.3600769042969 146.9248962402344 103.7743835449219 Z M 93.141845703125 103.8404083251953 L 116.6244659423828 52.17863464355469 L 52.4578857421875 92.01240539550781 C 54.83427429199219 91.6824951171875 57.21369934082031 91.51994323730469 59.58329772949219 91.52000427246094 C 71.79806518554688 91.52037048339844 83.71261596679688 95.84214782714844 93.141845703125 103.8404083251953 Z M 129.8804016113281 52.17863464355469 L 153.3547515869141 103.8404083251953 L 153.3629913330078 103.8486480712891 C 162.7963562011719 95.83998107910156 174.7145843505859 91.52287292480469 186.9349365234375 91.52287292480469 C 189.2992553710938 91.52287292480469 191.6759185791016 91.68458557128906 194.0469360351562 92.01240539550781 L 129.8804016113281 52.17863464355469 Z M 126.1660842895508 193.1321411132812 L 126.1660842895508 106.0442199707031 C 125.1921081542969 106.0070648193359 124.2201995849609 105.9884948730469 123.2493286132812 105.9884948730469 C 122.2784576416016 105.9884948730469 121.3086166381836 106.0070648193359 120.3387756347656 106.0442199707031 L 120.3387756347656 193.1321411132812 L 126.1660842895508 193.1321411132812 Z M 140.7261352539062 204.7867584228516 C 142.3356628417969 204.7867584228516 143.6397705078125 203.4826354980469 143.6397705078125 201.8730926513672 C 143.6397705078125 200.2635650634766 142.3356628417969 198.9594421386719 140.7261352539062 198.9594421386719 L 105.7869567871094 198.9594421386719 C 104.1774139404297 198.9594421386719 102.873291015625 200.2635650634766 102.873291015625 201.8730926513672 C 102.873291015625 203.4826354980469 104.1774139404297 204.7867584228516 105.7869567871094 204.7867584228516 L 140.7261352539062 204.7867584228516 Z" stroke="none" fill="#756f86"/></g><g transform="translate(-33.402 -33.4)" fill="none"><path d="M140.29,212.231H105.351a10.8,10.8,0,1,1,0-21.592h6.669v-82.21a73.74,73.74,0,0,0-16.475,4.457,4.962,4.962,0,0,1-5.365-1.106A44.148,44.148,0,0,0,52.566,99.465l-13.429,2.063a4.976,4.976,0,0,1-3.384-9.145l82.086-50.952V35.464A2.064,2.064,0,0,1,119.9,33.4h5.827a2.064,2.064,0,0,1,2.063,2.063v5.968l82.086,50.952a4.971,4.971,0,0,1-3.376,9.137l-13.437-2.063a44.148,44.148,0,0,0-37.613,12.315,4.958,4.958,0,0,1-5.357,1.1h0a73.5,73.5,0,0,0-16.475-4.457v82.21h6.669a10.8,10.8,0,0,1,0,21.609Zm-34.939-17.474a6.669,6.669,0,1,0,0,13.338H140.29a6.669,6.669,0,0,0,0-13.338h-8.733a2.064,2.064,0,0,1-2.064-2.063V106.068a2.071,2.071,0,0,1,2.3-2.055,77.564,77.564,0,0,1,19.826,5.027.86.86,0,0,0,.916-.19,48.3,48.3,0,0,1,41.154-13.479l13.438,2.072a.81.81,0,0,0,.627-.157.874.874,0,0,0,.338-.553.85.85,0,0,0-.388-.85L124.64,44.337a2.075,2.075,0,0,1-.974-1.75V37.535h-1.7v5.051a2.064,2.064,0,0,1-.974,1.75L37.932,95.891a.876.876,0,0,0-.38.528.827.827,0,0,0,.107.644.836.836,0,0,0,.85.388l13.429-2.063a48.305,48.305,0,0,1,41.154,13.471.83.83,0,0,0,.916.19,77.564,77.564,0,0,1,19.826-5.027,2.071,2.071,0,0,1,2.3,2.055V192.7a2.064,2.064,0,0,1-2.063,2.064h-8.724ZM140.29,206.4H105.351a4.977,4.977,0,1,1,0-9.954H140.29a4.977,4.977,0,0,1,0,9.954Zm-34.939-5.819a.846.846,0,1,0,0,1.692H140.29a.85.85,0,0,0,0-1.7H105.351Zm20.379-5.827H119.9a2.064,2.064,0,0,1-2.063-2.063V105.606a2.064,2.064,0,0,1,1.981-2.063c1.989-.074,3.995-.074,5.984,0a2.064,2.064,0,0,1,1.981,2.063v87.088A2.052,2.052,0,0,1,125.73,194.757Zm-3.764-4.127h1.7V107.62c-.57-.008-1.131-.008-1.7,0Zm-29.26-85.165a2.1,2.1,0,0,1-1.337-.487A49.876,49.876,0,0,0,52.31,93.613a2.064,2.064,0,0,1-1.37-3.8l64.167-39.834a2.068,2.068,0,0,1,2.971,2.608L94.6,104.252a2.079,2.079,0,0,1-1.428,1.164A2.2,2.2,0,0,1,92.705,105.466ZM60.036,89.032a54.03,54.03,0,0,1,31.893,11.1L111.5,57.089Zm92.89,16.434a2.077,2.077,0,0,1-1.89-1.213L127.562,52.591a2.068,2.068,0,0,1,2.971-2.608L194.7,89.816a2.064,2.064,0,0,1-1.37,3.8,49.854,49.854,0,0,0-39.066,11.366A2.082,2.082,0,0,1,152.927,105.466ZM134.132,57.081l19.562,43.053a54.062,54.062,0,0,1,31.9-11.11ZM146.488,105.4a2.293,2.293,0,0,1-.619-.091,76.768,76.768,0,0,0-46.132,0,2.062,2.062,0,0,1-2.493-2.823l23.689-52.1a2.079,2.079,0,0,1,1.882-1.213h0a2.066,2.066,0,0,1,1.882,1.213l23.672,52.1a2.064,2.064,0,0,1-.33,2.22A2.105,2.105,0,0,1,146.488,105.4Zm-23.681-7.767a81.079,81.079,0,0,1,19.958,2.5l-19.95-43.911L102.85,100.134A81.079,81.079,0,0,1,122.808,97.633Z" stroke="none"/><path d="M 140.2896881103516 210.2311096191406 C 145.1399230957031 210.2311096191406 149.0859069824219 206.2777252197266 149.0859069824219 201.4183654785156 C 149.0859069824219 196.568115234375 145.1399230957031 192.6221313476562 140.2896728515625 192.6221313476562 L 133.6204223632812 192.6221313476562 L 131.6204223632812 192.6221313476562 L 131.6204223632812 190.6221313476562 L 131.6204223632812 108.4123229980469 L 131.6204223632812 106.0919647216797 L 133.9154357910156 106.4342041015625 C 139.7165985107422 107.2993011474609 145.410400390625 108.8397521972656 150.8410797119141 111.0136795043945 C 151.1936187744141 111.1553192138672 151.5639801025391 111.2271575927734 151.9418334960938 111.2271347045898 C 152.7328643798828 111.2270812988281 153.4772796630859 110.9182510375977 154.0410308837891 110.3545150756836 C 158.33056640625 106.0829620361328 163.3674774169922 102.7433700561523 169.0118103027344 100.428466796875 C 171.7747192382812 99.29531860351562 174.6601409912109 98.42649078369141 177.5879516601562 97.84608459472656 C 180.5350952148438 97.26184844970703 183.5469970703125 96.96560668945312 186.5400543212891 96.96560668945312 C 188.8207855224609 96.96560668945312 191.1172180175781 97.13846588134766 193.3693084716797 97.47991943359375 L 206.8068084716797 99.54339599609375 L 206.8068084716797 99.54339599609375 C 206.957275390625 99.56584167480469 207.1095733642578 99.57722473144531 207.259521484375 99.57722473144531 C 207.8928985595703 99.57720184326172 208.5020294189453 99.37674713134766 209.0209808349609 98.99751281738281 C 209.6609497070312 98.52984619140625 210.0782928466797 97.84236907958984 210.1961212158203 97.06175231933594 L 210.1966705322266 97.05799102783203 L 210.197265625 97.05425262451172 C 210.3790435791016 95.88005828857422 209.8398284912109 94.71329498291016 208.8243560791016 94.08232116699219 L 126.7383575439453 43.13039398193359 L 125.7931213378906 42.54365539550781 L 125.7931213378906 41.43113327026367 L 125.7931213378906 35.4635124206543 C 125.7931213378906 35.42908477783203 125.764045715332 35.4000129699707 125.729621887207 35.4000129699707 L 119.9023132324219 35.4000129699707 C 119.8678817749023 35.4000129699707 119.8388137817383 35.42908477783203 119.8388137817383 35.4635124206543 L 119.8388137817383 41.43113327026367 L 119.8388137817383 42.54365539550781 L 118.8935699462891 43.13039398193359 L 36.8072395324707 94.08251190185547 C 36.13590621948242 94.49903869628906 35.6649169921875 95.15552520751953 35.48051071166992 95.93144226074219 C 35.30081939697266 96.72191619873047 35.42889404296875 97.49909210205078 35.85033416748047 98.1783447265625 C 36.3985481262207 99.06065368652344 37.34164428710938 99.58741760253906 38.37314224243164 99.58739471435547 C 38.52535629272461 99.58739471435547 38.67940521240234 99.57548522949219 38.83321380615234 99.55168151855469 L 52.26638031005859 97.48758697509766 C 54.51461791992188 97.14670562744141 56.8110466003418 96.97384643554688 59.09185791015625 96.97384643554688 C 62.08466720581055 96.97384643554688 65.09650421142578 97.27011108398438 68.04369354248047 97.85441589355469 C 70.97150421142578 98.43486785888672 73.85700225830078 99.30374908447266 76.62002563476562 100.4369430541992 C 82.26473999023438 102.7520141601562 87.30166625976562 106.0915374755859 91.59385681152344 110.3657302856445 C 92.15981292724609 110.9316787719727 92.90785980224609 111.2433471679688 93.70018768310547 111.2433471679688 C 94.07735443115234 111.2433471679688 94.44709777832031 111.171630859375 94.80249786376953 111.0288467407227 C 100.2385482788086 108.856086730957 105.931884765625 107.3157958984375 111.7243576049805 106.4507522583008 L 114.0197601318359 106.1079635620117 L 114.0197601318359 108.428825378418 L 114.0197601318359 190.6386566162109 L 114.0197601318359 192.6386566162109 L 112.0197601318359 192.6386566162109 L 105.3505249023438 192.6386566162109 C 100.5002593994141 192.6386566162109 96.55428314208984 196.5846252441406 96.55428314208984 201.4348754882812 C 96.55428314208984 206.2851257324219 100.5002593994141 210.2311096191406 105.3505249023438 210.2311096191406 L 140.2896881103516 210.2311096191406 M 105.3505249023438 192.7574005126953 L 107.3505249023438 192.7574005126953 L 107.3505249023438 192.7656555175781 L 114.0749969482422 192.7656555175781 C 114.1094284057617 192.7656555175781 114.1385040283203 192.7365875244141 114.1385040283203 192.7021484375 L 114.1385040283203 106.0764617919922 C 114.1385040283203 106.0549926757812 114.1279754638672 106.0380096435547 114.1181411743164 106.0292739868164 L 114.1103134155273 106.0223236083984 L 114.1025466918945 106.0152969360352 C 114.0976638793945 106.0108947753906 114.085334777832 106.0079193115234 114.0718078613281 106.0079193115234 C 114.0684814453125 106.0079193115234 114.0650024414062 106.0080871582031 114.0614700317383 106.008430480957 C 107.4460067749023 106.7796859741211 100.9529571533203 108.4256286621094 94.76277923583984 110.9006729125977 C 94.42093658447266 111.0411758422852 94.06088256835938 111.1123962402344 93.69221496582031 111.1123962402344 C 92.93583679199219 111.1123962402344 92.22090911865234 110.8140335083008 91.68238067626953 110.2755126953125 C 87.38200378417969 105.9949417114258 82.33138275146484 102.6472473144531 76.67076110839844 100.3254623413086 C 73.89747619628906 99.18794250488281 71.00142669677734 98.31575012207031 68.06304931640625 97.73310852050781 C 65.10607147216797 97.14677429199219 62.08464431762695 96.84946441650391 59.08273696899414 96.84946441650391 C 56.79559707641602 96.84946441650391 54.49302291870117 97.02287292480469 52.24264526367188 97.36431884765625 L 38.82274627685547 99.42638397216797 C 38.67327117919922 99.45061492919922 38.5211296081543 99.462890625 38.37009429931641 99.462890625 C 37.39052581787109 99.462890625 36.49188232421875 98.96365356445312 35.96623992919922 98.12746429443359 L 35.96485900878906 98.12522888183594 L 35.96345138549805 98.12298583984375 C 35.54983520507812 97.46116638183594 35.4233512878418 96.65935516357422 35.61539459228516 95.92041778564453 C 35.79568862915039 95.21385955810547 36.23289489746094 94.60700225830078 36.84769058227539 94.21037292480469 L 36.86233520507812 94.20092010498047 L 36.87716674804688 94.19172668457031 L 119.937141418457 42.63727569580078 L 119.9397354125977 42.63565444946289 L 119.9423828125 42.63403701782227 C 119.9515991210938 42.62834548950195 119.9658355712891 42.60546493530273 119.9658355712891 42.58670425415039 L 119.9658355712891 37.53525161743164 L 119.9658355712891 35.53525161743164 L 121.9658355712891 35.53525161743164 L 123.666145324707 35.53525161743164 L 125.666145324707 35.53525161743164 L 125.666145324707 37.53525161743164 L 125.666145324707 42.58670425415039 C 125.666145324707 42.60235595703125 125.6791610717773 42.62639999389648 125.7040939331055 42.64302062988281 L 208.7628631591797 94.183349609375 L 208.7678070068359 94.18641662597656 L 208.7727355957031 94.18951416015625 C 209.7279052734375 94.78996276855469 210.2391662597656 95.90196228027344 210.0751953125 97.02251434326172 L 210.0723114013672 97.04212951660156 L 210.0690460205078 97.06172943115234 C 209.9494934082031 97.77896881103516 209.561767578125 98.42158508300781 208.9773559570312 98.87110900878906 C 208.4886932373047 99.24703979492188 207.8809051513672 99.45408630371094 207.2659759521484 99.45408630371094 C 207.1171722412109 99.45408630371094 206.9668273925781 99.44205474853516 206.8188171386719 99.41831970214844 L 193.3928527832031 97.34834289550781 C 191.1402587890625 97.00639343261719 188.8390502929688 96.83299255371094 186.5531158447266 96.83299255371094 C 183.5525970458984 96.83299255371094 180.5321502685547 97.13041687011719 177.57568359375 97.71698760986328 C 174.6375885009766 98.29991912841797 171.7415008544922 99.17253875732422 168.9678649902344 100.3106307983398 C 163.3056182861328 102.6339645385742 158.2527160644531 105.9838714599609 153.9495544433594 110.2672500610352 L 153.9391937255859 110.2775573730469 L 153.9286651611328 110.2877044677734 C 153.3876953125 110.810676574707 152.6787414550781 111.0987014770508 151.9323883056641 111.0987014770508 C 151.5736236572266 111.0987014770508 151.2223358154297 111.0318450927734 150.8882141113281 110.8999862670898 L 150.8839263916016 110.8983001708984 L 150.879638671875 110.8965835571289 C 144.6863861083984 108.4192657470703 138.1904449462891 106.7719497680664 131.5713195800781 106.0002670288086 C 131.5696716308594 106.000114440918 131.5680541992188 106.0000381469727 131.56640625 106.0000381469727 C 131.5515594482422 106.0000381469727 131.5344848632812 106.0059356689453 131.5208587646484 106.0154800415039 C 131.5003662109375 106.0375823974609 131.4934539794922 106.059928894043 131.4934539794922 106.0682067871094 L 131.4934539794922 192.6938934326172 C 131.4934539794922 192.7283172607422 131.5225219726562 192.7574005126953 131.5569458007812 192.7574005126953 L 140.2896881103516 192.7574005126953 C 145.0699005126953 192.7574005126953 148.9589080810547 196.6463928222656 148.9589080810547 201.4266357421875 C 148.9589080810547 206.2068481445312 145.0699005126953 210.0958404541016 140.2896881103516 210.0958404541016 L 105.3505249023438 210.0958404541016 C 100.5702896118164 210.0958404541016 96.68128967285156 206.2068481445312 96.68128967285156 201.4266357421875 C 96.68128967285156 196.6463928222656 100.5702896118164 192.7574005126953 105.3505249023438 192.7574005126953 M 140.2896881103516 204.4037780761719 C 141.9313049316406 204.4037780761719 143.2668609619141 203.0682220458984 143.2668609619141 201.4266357421875 C 143.2668609619141 199.7850189208984 141.9313049316406 198.449462890625 140.2896881103516 198.449462890625 L 105.3505249023438 198.449462890625 C 105.051139831543 198.449462890625 104.7619857788086 198.4938659667969 104.4892044067383 198.5764617919922 L 105.3505249023438 198.5764617919922 L 140.2896881103516 198.5764617919922 C 141.8612823486328 198.5764617919922 143.1398620605469 199.8550415039062 143.1398620605469 201.4266357421875 C 143.1398620605469 202.9981994628906 141.8612823486328 204.2767791748047 140.2896881103516 204.2767791748047 L 105.3505249023438 204.2767791748047 C 103.7789306640625 204.2767791748047 102.500358581543 203.0018920898438 102.500358581543 201.4348754882812 C 102.500358581543 200.6417846679688 102.8259735107422 199.9232940673828 103.3505249023438 199.4061126708984 L 103.3505249023438 199.2231292724609 C 102.7505416870117 199.7681579589844 102.3733596801758 200.5541229248047 102.3733596801758 201.4266357421875 C 102.3733596801758 203.0682220458984 103.7089080810547 204.4037780761719 105.3505249023438 204.4037780761719 L 140.2896881103516 204.4037780761719 M 125.7296447753906 192.7574005126953 C 125.7383575439453 192.7574005126953 125.7545928955078 192.7574005126953 125.7714309692383 192.7404174804688 C 125.7850723266602 192.7266998291016 125.7850036621094 192.716552734375 125.7849273681641 192.7083892822266 L 125.7848815917969 192.7011566162109 L 125.7848815917969 192.6938934326172 L 125.7848815917969 105.6059646606445 C 125.7848815917969 105.5705871582031 125.7550506591797 105.5420379638672 125.7292861938477 105.5410614013672 C 124.7640991210938 105.5050354003906 123.7825241088867 105.4867477416992 122.8118591308594 105.4867477416992 C 121.8412170410156 105.4867477416992 120.8596420288086 105.5050354003906 119.8943557739258 105.5410842895508 C 119.8686676025391 105.5420379638672 119.8388137817383 105.5705871582031 119.8388137817383 105.6059646606445 L 119.8388137817383 192.6938934326172 C 119.8388137817383 192.7283172607422 119.8678817749023 192.7574005126953 119.9023132324219 192.7574005126953 L 125.7296447753906 192.7574005126953 M 122.8159790039062 105.6137542724609 C 123.105712890625 105.6137542724609 123.401496887207 105.6158905029297 123.695068359375 105.6201553344727 L 125.666145324707 105.6486587524414 L 125.666145324707 107.6199417114258 L 125.666145324707 190.6303863525391 L 125.666145324707 192.6303863525391 L 123.666145324707 192.6303863525391 L 121.9658126831055 192.6303863525391 L 119.9658126831055 192.6303863525391 L 119.9658126831055 190.6303863525391 L 119.9658126831055 107.6199417114258 L 119.9658126831055 105.6486587524414 L 121.936882019043 105.6201553344727 C 122.2304763793945 105.6158905029297 122.5262603759766 105.6137542724609 122.8159790039062 105.6137542724609 M 152.9265747070312 103.4656524658203 C 152.9451446533203 103.4656524658203 152.9658966064453 103.4568252563477 152.9732666015625 103.4506607055664 C 162.3184661865234 95.51506042480469 174.23046875 91.14411163330078 186.5142822265625 91.14411163330078 C 188.8777618408203 91.14411163330078 191.2630310058594 91.30818176269531 193.6007385253906 91.63134765625 C 193.6043853759766 91.63184356689453 193.6076965332031 91.63208770751953 193.6106872558594 91.63208770751953 C 193.6254272460938 91.63208770751953 193.656494140625 91.62317657470703 193.6686401367188 91.58951568603516 C 193.6796417236328 91.55896759033203 193.6658325195312 91.52806091308594 193.6451873779297 91.51527404785156 L 129.4823303222656 51.68378829956055 C 129.4698638916016 51.67626953125 129.4583435058594 51.67275238037109 129.4461364746094 51.67275238037109 C 129.4253845214844 51.67275238037109 129.4115447998047 51.68280029296875 129.4029541015625 51.69036865234375 L 129.3977813720703 51.69489288330078 L 129.3926239013672 51.69939422607422 C 129.3780059814453 51.71205902099609 129.3715209960938 51.73846435546875 129.3790283203125 51.7547492980957 L 129.3809814453125 51.75896453857422 L 129.3828887939453 51.76320266723633 L 152.8564605712891 103.4232025146484 C 152.8697357177734 103.4523696899414 152.9021148681641 103.4656524658203 152.9265747070312 103.4656524658203 M 129.5828399658203 51.90303802490234 L 135.1869049072266 55.38144302368164 L 186.6505889892578 87.32439422607422 L 192.4214477539062 90.90629577636719 L 185.6303558349609 91.02339172363281 C 180.1114807128906 91.11853790283203 174.6645660400391 92.08699035644531 169.4409332275391 93.90187072753906 C 164.1950531005859 95.7244873046875 159.3061676025391 98.35539245605469 154.9100952148438 101.7215118408203 L 152.91357421875 103.2502746582031 L 151.8733367919922 100.9608917236328 L 132.3113403320312 57.90806198120117 L 129.5828399658203 51.90303802490234 M 92.70540618896484 103.4656524658203 C 92.71055603027344 103.4656524658203 92.71647644042969 103.4656524658203 92.72766876220703 103.4640960693359 C 92.75173950195312 103.4553298950195 92.76732635498047 103.4413681030273 92.772216796875 103.430534362793 L 92.77352142333984 103.4276351928711 L 92.77483367919922 103.4247283935547 L 116.2546539306641 51.76913070678711 C 116.2639541625977 51.7477912902832 116.2649307250977 51.71466827392578 116.2373352050781 51.69039535522461 C 116.2287139892578 51.68282318115234 116.2148590087891 51.67275238037109 116.1940994262695 51.67275238037109 C 116.1819076538086 51.67275238037109 116.1703796386719 51.67627334594727 116.1578674316406 51.6838264465332 L 51.99409484863281 91.51584625244141 C 51.97438049316406 91.52806091308594 51.9605712890625 91.55894470214844 51.97159576416016 91.58948516845703 C 51.98371505737305 91.62310791015625 52.01359558105469 91.63208770751953 52.02940368652344 91.63208770751953 C 52.03250122070312 91.63208770751953 52.03583526611328 91.63184356689453 52.03631210327148 91.63177490234375 C 54.37326431274414 91.30853271484375 56.75500106811523 91.14463043212891 59.11533355712891 91.14463043212891 C 71.38813781738281 91.14463043212891 83.29528045654297 95.51094818115234 92.64652252197266 103.4403381347656 C 92.66735076904297 103.4564819335938 92.68857574462891 103.4656524658203 92.70540618896484 103.4656524658203 M 116.0514297485352 51.90987014770508 L 113.3204040527344 57.91675186157227 L 93.75019073486328 100.9613189697266 L 92.70969390869141 103.2499160766602 L 90.713623046875 101.7215118408203 C 86.31866455078125 98.35625457763672 81.43133544921875 95.72679901123047 76.18730926513672 93.90615844726562 C 70.96759796142578 92.09394073486328 65.52192687988281 91.12682342529297 60.00159454345703 91.03165435791016 L 53.21049880981445 90.91455841064453 L 58.98135757446289 87.33265686035156 L 110.4450225830078 55.38970184326172 L 116.0514297485352 51.90987014770508 M 99.12211608886719 103.4017028808594 C 99.13080596923828 103.4017028808594 99.13955688476562 103.4003524780273 99.14817047119141 103.397705078125 C 106.8483276367188 100.9849624633789 114.8070526123047 99.76165771484375 122.8036193847656 99.76165771484375 C 130.7899627685547 99.76165771484375 138.7382202148438 100.9817352294922 146.4291381835938 103.3883438110352 C 146.4705810546875 103.3987655639648 146.4893798828125 103.3996047973633 146.4884490966797 103.3996047973633 C 146.4971008300781 103.3996047973633 146.5217895507812 103.3948135375977 146.5460052490234 103.3747940063477 C 146.5542144775391 103.3610763549805 146.5613861083984 103.3393859863281 146.5494995117188 103.3133010864258 L 122.8778305053711 51.21584701538086 C 122.8653564453125 51.1884651184082 122.8434066772461 51.17339324951172 122.8159790039062 51.17339324951172 C 122.7959518432617 51.17339324951172 122.7669677734375 51.19016647338867 122.7516555786133 51.22129058837891 L 99.06513977050781 103.3150634765625 C 99.04975891113281 103.3488235473633 99.06893157958984 103.3762054443359 99.07790374755859 103.3863906860352 C 99.08783721923828 103.397705078125 99.10787963867188 103.4017028808594 99.12204742431641 103.4017028808594 L 99.12211608886719 103.4017028808594 M 122.8167419433594 51.38877487182617 L 124.6368560791016 55.39503479003906 L 144.5867614746094 99.30629730224609 L 146.3085021972656 103.0959396362305 L 142.2739562988281 102.0721054077148 C 135.8950653076172 100.453369140625 129.3457183837891 99.63260650634766 122.8077392578125 99.63260650634766 C 116.2697601318359 99.63260650634766 109.7203826904297 100.453369140625 103.3414764404297 102.0721054077148 L 99.30533599853516 103.0963439941406 L 101.0289306640625 99.30572509765625 L 120.995361328125 55.39446640014648 L 122.8167419433594 51.38877487182617 M 140.2896881103516 212.2311096191406 L 105.3505249023438 212.2311096191406 C 99.39938354492188 212.2311096191406 94.55428314208984 207.3860168457031 94.55428314208984 201.4348754882812 C 94.55428314208984 195.4837341308594 99.39938354492188 190.6386566162109 105.3505249023438 190.6386566162109 L 112.0197601318359 190.6386566162109 L 112.0197601318359 108.428825378418 C 106.3822631835938 109.2707290649414 100.8520965576172 110.7647018432617 95.54478454589844 112.885986328125 C 94.94601440429688 113.1265640258789 94.32039642333984 113.2433471679688 93.7001953125 113.2433547973633 C 92.40531921386719 113.2433547973633 91.13401794433594 112.7342987060547 90.17966461181641 111.7799682617188 C 81.90618133544922 103.5412063598633 70.63292694091797 98.97384643554688 59.09184646606445 98.97384643554688 C 56.91989135742188 98.97384643554688 54.73897933959961 99.13554382324219 52.56621551513672 99.46498870849609 L 39.1369514465332 101.5284881591797 C 38.8814582824707 101.5680465698242 38.62616348266602 101.5873870849609 38.37313842773438 101.5873870849609 C 36.67255401611328 101.5874099731445 35.07121276855469 100.713981628418 34.15154647827148 99.23387145996094 C 33.449951171875 98.10308074951172 33.23535919189453 96.77417755126953 33.53250122070312 95.47832489013672 C 33.83790588378906 94.18244171142578 34.62202453613281 93.08465576171875 35.75281143188477 92.383056640625 L 117.8388137817383 41.43113327026367 L 117.8388137817383 35.4635124206543 C 117.8388137817383 34.32444000244141 118.7632598876953 33.4000129699707 119.9023132324219 33.4000129699707 L 125.729621887207 33.4000129699707 C 126.8686904907227 33.4000129699707 127.7931213378906 34.32444000244141 127.7931213378906 35.4635124206543 L 127.7931213378906 41.43113327026367 L 209.8791198730469 92.383056640625 C 211.5794219970703 93.43958282470703 212.4791259765625 95.38751220703125 212.1737213134766 97.3602294921875 C 211.9756469726562 98.672607421875 211.2740478515625 99.82815551757812 210.2010192871094 100.6122970581055 C 209.3346252441406 101.2454223632812 208.3120727539062 101.5772094726562 207.2595672607422 101.5772323608398 C 207.0085601806641 101.5772399902344 206.7559661865234 101.5583724975586 206.5032348632812 101.5202255249023 L 193.0657348632812 99.45674896240234 C 190.8938140869141 99.12743377685547 188.711181640625 98.96559906005859 186.5400543212891 98.96559906005859 C 174.9980926513672 98.96559906005859 163.7263641357422 103.5323486328125 155.4522552490234 111.7717056274414 C 154.5041198730469 112.7198486328125 153.2353973388672 113.2270660400391 151.9419555664062 113.2271270751953 C 151.3212280273438 113.2271575927734 150.6949920654297 113.1103820800781 150.0954284667969 112.8694915771484 C 144.7963562011719 110.7482299804688 139.2661895751953 109.2542495727539 133.6204223632812 108.4123229980469 L 133.6204223632812 190.6221313476562 L 140.2896728515625 190.6221313476562 C 146.2408142089844 190.6221313476562 151.0859069824219 195.4672241210938 151.0859069824219 201.4183654785156 C 151.0859069824219 207.3695068359375 146.2408142089844 212.2311096191406 140.2896881103516 212.2311096191406 Z M 105.3505249023438 194.7574005126953 C 101.6692352294922 194.7574005126953 98.68128967285156 197.7535858154297 98.68128967285156 201.4266357421875 C 98.68128967285156 205.0996246337891 101.6774978637695 208.0958404541016 105.3505249023438 208.0958404541016 L 140.2896881103516 208.0958404541016 C 143.9709777832031 208.0958404541016 146.9589080810547 205.0996246337891 146.9589080810547 201.4266357421875 C 146.9589080810547 197.7535858154297 143.9627075195312 194.7574005126953 140.2896881103516 194.7574005126953 L 131.5569458007812 194.7574005126953 C 130.4179077148438 194.7574005126953 129.4934539794922 193.8329467773438 129.4934539794922 192.6938934326172 L 129.4934539794922 106.0682067871094 C 129.4934539794922 105.4821548461914 129.7493286132812 104.9208908081055 130.1867828369141 104.5246810913086 C 130.5669555664062 104.1875610351562 131.0593566894531 104.0000381469727 131.56640625 104.0000381469727 C 131.6428375244141 104.0000381469727 131.7195587158203 104.0042953491211 131.7963104248047 104.012939453125 C 138.5976257324219 104.8053207397461 145.2668609619141 106.4973907470703 151.6224365234375 109.0396347045898 C 151.7231292724609 109.0793838500977 151.8280944824219 109.0987091064453 151.932373046875 109.0987091064453 C 152.1529083251953 109.0987091064453 152.3704681396484 109.0122909545898 152.5385894775391 108.8497772216797 C 161.5964050292969 99.83364105224609 173.9293975830078 94.83297729492188 186.5531311035156 94.83297729492188 C 188.9299163818359 94.83297729492188 191.3154296875 95.01004791259766 193.6930541992188 95.37100982666016 L 207.1305541992188 97.4427490234375 C 207.1775970458984 97.45059204101562 207.2228240966797 97.45409393310547 207.2659912109375 97.45409393310547 C 207.4954223632812 97.45409393310547 207.6675567626953 97.35539245605469 207.7578582763672 97.28591918945312 C 207.8651428222656 97.20339202880859 208.0467376708984 97.03005981445312 208.0962677001953 96.73291778564453 C 208.1457824707031 96.39448547363281 207.9972076416016 96.06434631347656 207.7083282470703 95.88275146484375 L 124.6401214599609 44.3365592956543 C 124.0375747680664 43.95687103271484 123.666145324707 43.29653549194336 123.666145324707 42.58670425415039 L 123.666145324707 37.53525161743164 L 121.9658355712891 37.53525161743164 L 121.9658355712891 42.58670425415039 C 121.9658355712891 43.29653549194336 121.5944061279297 43.96512985229492 120.9918594360352 44.3365592956543 L 37.93188095092773 95.89101409912109 C 37.67600250244141 96.05608367919922 37.5852165222168 96.28720092773438 37.55219268798828 96.41927337646484 C 37.51919174194336 96.54308319091797 37.49443054199219 96.79894256591797 37.65950012207031 97.06308746337891 C 37.81597900390625 97.31201171875 38.08275985717773 97.462890625 38.37009811401367 97.462890625 C 38.41621398925781 97.462890625 38.46286010742188 97.45900726318359 38.50966644287109 97.45101165771484 L 51.93890380859375 95.38751220703125 C 54.31692123413086 95.02669525146484 56.70595169067383 94.84945678710938 59.08272552490234 94.84945678710938 C 71.71215057373047 94.84945678710938 84.04181671142578 99.84819793701172 93.09333038330078 108.858039855957 C 93.25958251953125 109.0242691040039 93.47422027587891 109.1123962402344 93.69222259521484 109.1123962402344 C 93.79895782470703 109.1123962402344 93.90645599365234 109.0912933349609 94.00955200195312 109.0478973388672 C 100.365119934082 106.5056533813477 107.0343322753906 104.8135833740234 113.8356399536133 104.0212020874023 C 113.9144744873047 104.012321472168 113.9933319091797 104.0079193115234 114.0718078613281 104.0079193115234 C 114.5766754150391 104.0079193115234 115.0665588378906 104.1900482177734 115.4451675415039 104.5329437255859 C 115.8826217651367 104.9208908081055 116.1385040283203 105.4821548461914 116.1385040283203 106.0764617919922 L 116.1385040283203 192.7021484375 C 116.1385040283203 193.8412017822266 115.2140502929688 194.7656555175781 114.0749969482422 194.7656555175781 L 105.3505249023438 194.7656555175781 L 105.3505249023438 194.7574005126953 Z M 140.2896881103516 206.4037780761719 L 105.3505249023438 206.4037780761719 C 102.6101913452148 206.4037780761719 100.3733596801758 204.1752014160156 100.3733596801758 201.4266357421875 C 100.3733596801758 198.6780395507812 102.6019287109375 196.449462890625 105.3505249023438 196.449462890625 L 140.2896881103516 196.449462890625 C 143.030029296875 196.449462890625 145.2668609619141 198.6780395507812 145.2668609619141 201.4266357421875 C 145.2668609619141 204.1752014160156 143.030029296875 206.4037780761719 140.2896881103516 206.4037780761719 Z M 105.3505249023438 200.5764617919922 L 105.3505249023438 200.5847015380859 C 104.8800506591797 200.5847015380859 104.500358581543 200.9644012451172 104.500358581543 201.4348754882812 C 104.500358581543 201.9053497314453 104.8800506591797 202.2767791748047 105.3505249023438 202.2767791748047 L 140.2896881103516 202.2767791748047 C 140.7601623535156 202.2767791748047 141.1398620605469 201.8971099853516 141.1398620605469 201.4266357421875 C 141.1398620605469 200.9561614990234 140.7601470947266 200.5764617919922 140.2896881103516 200.5764617919922 L 105.3505249023438 200.5764617919922 Z M 125.7296447753906 194.7574005126953 L 119.9023132324219 194.7574005126953 C 118.7632598876953 194.7574005126953 117.8388137817383 193.8329467773438 117.8388137817383 192.6938934326172 L 117.8388137817383 105.6059646606445 C 117.8388137817383 104.4999389648438 118.713737487793 103.5837249755859 119.8197860717773 103.5424652099609 C 120.8143920898438 103.5053253173828 121.8131256103516 103.4867477416992 122.8118591308594 103.4867477416992 C 123.8105926513672 103.4867477416992 124.8093185424805 103.5053253173828 125.8039321899414 103.5424652099609 C 126.9099502563477 103.5837249755859 127.7848815917969 104.4999389648438 127.7848815917969 105.6059646606445 L 127.7848815917969 192.6938934326172 C 127.7931442260742 193.8329467773438 126.8686904907227 194.7574005126953 125.7296447753906 194.7574005126953 Z M 122.8159866333008 107.6137466430664 C 122.5332870483398 107.6137466430664 122.2505874633789 107.6158065795898 121.9658126831055 107.6199417114258 L 121.9658126831055 190.6303863525391 L 123.666145324707 190.6303863525391 L 123.666145324707 107.6199417114258 C 123.3813781738281 107.6158065795898 123.0986862182617 107.6137466430664 122.8159866333008 107.6137466430664 Z M 152.9265747070312 105.4656524658203 C 152.1176605224609 105.4656524658203 151.3748168945312 104.9951782226562 151.0364074707031 104.2522964477539 L 127.5620498657227 52.59056091308594 C 127.1823577880859 51.76513290405273 127.3969802856445 50.78291702270508 128.0820465087891 50.18863296508789 C 128.4701995849609 49.84723281860352 128.9564971923828 49.67274475097656 129.4461517333984 49.67274475097656 C 129.8207092285156 49.67274475097656 130.1972045898438 49.77478408813477 130.5334777832031 49.98227310180664 L 194.7000427246094 89.81606292724609 C 195.5254364013672 90.32781982421875 195.8803558349609 91.35132598876953 195.5502166748047 92.26750946044922 C 195.2522735595703 93.09428405761719 194.4702606201172 93.63203430175781 193.6108093261719 93.632080078125 C 193.5178680419922 93.63208770751953 193.4241333007812 93.62580108642578 193.3298797607422 93.6129150390625 C 191.0586242675781 93.2989501953125 188.7808837890625 93.14409637451172 186.5142822265625 93.14409637451172 C 174.7778625488281 93.14409637451172 163.3123931884766 97.29280090332031 154.2637176513672 104.9786529541016 C 153.8922576904297 105.2923202514648 153.4135437011719 105.4656524658203 152.9265747070312 105.4656524658203 Z M 134.1321868896484 57.08072662353516 L 153.6941986083984 100.1335601806641 C 162.8891143798828 93.0928955078125 174.1063079833984 89.22177124023438 185.5958862304688 89.023681640625 L 134.1321868896484 57.08072662353516 Z M 92.70540618896484 105.4656524658203 C 92.21842956542969 105.4656524658203 91.74793243408203 105.2923202514648 91.36826324462891 104.9786529541016 C 82.31824493408203 97.29860687255859 70.84867858886719 93.14463806152344 59.11533737182617 93.14463806152344 C 56.85136795043945 93.14463806152344 54.57854843139648 93.29918670654297 52.31033325195312 93.6129150390625 C 52.21614456176758 93.62579345703125 52.12229537963867 93.632080078125 52.02940368652344 93.632080078125 C 51.16989135742188 93.63210296630859 50.38796615600586 93.09434509277344 50.09002304077148 92.26750946044922 C 49.75985717773438 91.35132598876953 50.11478805541992 90.32781982421875 50.94018936157227 89.81606292724609 L 115.1067657470703 49.9822998046875 C 115.4429779052734 49.77483749389648 115.8195953369141 49.67276000976562 116.1941070556641 49.67276000976562 C 116.6838150024414 49.67276000976562 117.1699981689453 49.84719848632812 117.5581893920898 50.18863296508789 C 118.2432632446289 50.79117965698242 118.4496231079102 51.76515579223633 118.0781936645508 52.59056091308594 L 94.59557342529297 104.2523193359375 C 94.33145141601562 104.8383483886719 93.80319213867188 105.2675628662109 93.16764068603516 105.416130065918 C 93.01081085205078 105.4491348266602 92.86223602294922 105.4656524658203 92.70540618896484 105.4656524658203 Z M 111.4997406005859 57.0889892578125 L 60.03607177734375 89.03194427490234 C 71.52564239501953 89.23003387451172 82.73457336425781 93.0928955078125 91.92952728271484 100.1335601806641 L 111.4997406005859 57.0889892578125 Z M 99.12210845947266 105.4017105102539 C 98.53955078125 105.4017333984375 97.97177886962891 105.1577072143555 97.57526397705078 104.7062759399414 C 97.03876495361328 104.0954895019531 96.90669250488281 103.2287979125977 97.24509429931641 102.4859390258789 L 120.9340744018555 50.38672637939453 C 121.2724761962891 49.65210723876953 122.0070953369141 49.17339324951172 122.8159790039062 49.17339324951172 C 123.6248779296875 49.17339324951172 124.3594741821289 49.64387130737305 124.697883605957 50.38672637939453 L 148.370361328125 102.4859390258789 C 148.7087554931641 103.2287979125977 148.5767211914062 104.0954666137695 148.0401916503906 104.7062759399414 C 147.6357421875 105.1520156860352 147.0662078857422 105.3996047973633 146.4884490966797 105.3996047973633 C 146.2820892333984 105.3996047973633 146.0757446289062 105.366584777832 145.8694000244141 105.3088226318359 C 138.3252563476562 102.9440460205078 130.5644226074219 101.7616577148438 122.8036041259766 101.7616577148438 C 115.0427856445312 101.7616577148438 107.2819671630859 102.9440460205078 99.73780822753906 105.3088226318359 C 99.53536224365234 105.3712768554688 99.32778167724609 105.4017028808594 99.12210845947266 105.4017105102539 Z M 142.7658843994141 100.1335601806641 L 122.8159790039062 56.22229766845703 L 102.8495483398438 100.1335601806641 C 109.4197387695312 98.46627807617188 116.1137390136719 97.63260650634766 122.8077392578125 97.63260650634766 C 129.501708984375 97.63260650634766 136.1957092285156 98.46627807617188 142.7658843994141 100.1335601806641 Z" stroke="none" fill="#756f86"/></g></g><g transform="translate(33.4 146.95)"><g transform="translate(-33.837 -171.408)" fill="none"><path d="M91.227,199.686H82.494V176.394a2.913,2.913,0,0,0-2.914-2.914H50.46a2.913,2.913,0,0,0-2.914,2.914v23.293H38.814A2.913,2.913,0,0,0,35.9,202.6v17.474a2.913,2.913,0,0,0,2.914,2.914h2.914v8.733a2.913,2.913,0,0,0,2.914,2.914H85.407a2.913,2.913,0,0,0,2.914-2.914v-8.733h2.914a2.913,2.913,0,0,0,2.914-2.914V202.6A2.926,2.926,0,0,0,91.227,199.686ZM53.374,217.152v-2.914H76.666v2.914Zm0-37.845H76.666v29.12H53.374Zm-11.646,26.2h5.827v11.646H41.727ZM82.494,228.8H47.555v-5.827H82.494V228.8Zm5.819-11.646H82.486V205.506h5.827Z" stroke="none"/><path d="M 50.46005249023438 175.4799957275391 C 49.95626068115234 175.4799957275391 49.54639434814453 175.8898620605469 49.54639434814453 176.3936462402344 L 49.54639434814453 199.6864318847656 L 49.54639434814453 201.6864318847656 L 47.54639434814453 201.6864318847656 L 38.81365966796875 201.6864318847656 C 38.30986785888672 201.6864318847656 37.90000152587891 202.0962982177734 37.90000152587891 202.60009765625 L 37.90000152587891 220.0738067626953 C 37.90000152587891 220.5775909423828 38.30986785888672 220.9874572753906 38.81365966796875 220.9874572753906 L 41.72731781005859 220.9874572753906 L 43.72731781005859 220.9874572753906 L 43.72731781005859 222.9874572753906 L 43.72731781005859 231.7201995849609 C 43.72731781005859 232.2239837646484 44.13718414306641 232.6338500976562 44.64096832275391 232.6338500976562 L 85.407470703125 232.6338500976562 C 85.91126251220703 232.6338500976562 86.32113647460938 232.2239837646484 86.32113647460938 231.7201995849609 L 86.32113647460938 222.9874572753906 L 86.32113647460938 220.9874572753906 L 88.32113647460938 220.9874572753906 L 91.23478698730469 220.9874572753906 C 91.73858642578125 220.9874572753906 92.14845275878906 220.5775909423828 92.14845275878906 220.0738067626953 L 92.14845275878906 202.6063537597656 C 92.14369201660156 202.0987396240234 91.73096466064453 201.6864318847656 91.22653961181641 201.6864318847656 L 82.49381256103516 201.6864318847656 L 80.49381256103516 201.6864318847656 L 80.49381256103516 199.6864318847656 L 80.49381256103516 176.3936462402344 C 80.49381256103516 175.8898620605469 80.08393859863281 175.4799957275391 79.58015441894531 175.4799957275391 L 50.46005249023438 175.4799957275391 M 78.66648864746094 210.4274139404297 L 76.66648864746094 210.4274139404297 L 53.37371063232422 210.4274139404297 L 51.37371063232422 210.4274139404297 L 51.37371063232422 208.4274139404297 L 51.37371063232422 179.3073120117188 L 51.37371063232422 177.3073120117188 L 53.37371063232422 177.3073120117188 L 76.66648864746094 177.3073120117188 L 78.66648864746094 177.3073120117188 L 78.66648864746094 179.3073120117188 L 78.66648864746094 208.4274139404297 L 78.66648864746094 210.4274139404297 M 49.55464172363281 219.1519012451172 L 47.55464172363281 219.1519012451172 L 41.72731781005859 219.1519012451172 L 39.72731781005859 219.1519012451172 L 39.72731781005859 217.1519012451172 L 39.72731781005859 205.5055084228516 L 39.72731781005859 203.5055084228516 L 41.72731781005859 203.5055084228516 L 47.55464172363281 203.5055084228516 L 49.55464172363281 203.5055084228516 L 49.55464172363281 205.5055084228516 L 49.55464172363281 217.1519012451172 L 49.55464172363281 219.1519012451172 M 90.31288146972656 219.1519012451172 L 88.31288146972656 219.1519012451172 L 82.48556518554688 219.1519012451172 L 80.48556518554688 219.1519012451172 L 80.48556518554688 217.1519012451172 L 80.48556518554688 205.5055084228516 L 80.48556518554688 203.5055084228516 L 82.48556518554688 203.5055084228516 L 88.31288146972656 203.5055084228516 L 90.31288146972656 203.5055084228516 L 90.31288146972656 205.5055084228516 L 90.31288146972656 217.1519012451172 L 90.31288146972656 219.1519012451172 M 78.66648864746094 219.1519012451172 L 76.66648864746094 219.1519012451172 L 53.37371063232422 219.1519012451172 L 51.37371063232422 219.1519012451172 L 51.37371063232422 217.1519012451172 L 51.37371063232422 214.2382354736328 L 51.37371063232422 212.2382354736328 L 53.37371063232422 212.2382354736328 L 76.66648864746094 212.2382354736328 L 78.66648864746094 212.2382354736328 L 78.66648864746094 214.2382354736328 L 78.66648864746094 217.1519012451172 L 78.66648864746094 219.1519012451172 M 84.49381256103516 230.7982788085938 L 82.49381256103516 230.7982788085938 L 47.55464172363281 230.7982788085938 L 45.55464172363281 230.7982788085938 L 45.55464172363281 228.7982788085938 L 45.55464172363281 222.9709625244141 L 45.55464172363281 220.9709625244141 L 47.55464172363281 220.9709625244141 L 82.49382019042969 220.9709625244141 L 84.49382019042969 220.9709625244141 L 84.49382019042969 222.9709625244141 L 84.49382019042969 228.7982788085938 L 84.49381256103516 230.7982788085938 M 50.46005249023438 173.4799957275391 L 79.58015441894531 173.4799957275391 C 81.18966674804688 173.4799957275391 82.49381256103516 174.7841339111328 82.49381256103516 176.3936462402344 L 82.49381256103516 199.6864318847656 L 91.22653961181641 199.6864318847656 C 92.8360595703125 199.6864318847656 94.14019775390625 200.9905700683594 94.14845275878906 202.60009765625 L 94.14845275878906 220.0738067626953 C 94.14845275878906 221.6833343505859 92.84431457519531 222.9874572753906 91.23478698730469 222.9874572753906 L 88.32113647460938 222.9874572753906 L 88.32113647460938 231.7201995849609 C 88.32113647460938 233.3297271728516 87.01699829101562 234.6338500976562 85.407470703125 234.6338500976562 L 44.64096832275391 234.6338500976562 C 43.03144836425781 234.6338500976562 41.72731781005859 233.3297271728516 41.72731781005859 231.7201995849609 L 41.72731781005859 222.9874572753906 L 38.81365966796875 222.9874572753906 C 37.20413208007812 222.9874572753906 35.90000152587891 221.6833343505859 35.90000152587891 220.0738067626953 L 35.90000152587891 202.60009765625 C 35.90000152587891 200.9905700683594 37.20413208007812 199.6864318847656 38.81365966796875 199.6864318847656 L 47.54639434814453 199.6864318847656 L 47.54639434814453 176.3936462402344 C 47.54639434814453 174.7841339111328 48.85051727294922 173.4799957275391 50.46005249023438 173.4799957275391 Z M 76.66648864746094 208.4274139404297 L 76.66648864746094 179.3073120117188 L 53.37371063232422 179.3073120117188 L 53.37371063232422 208.4274139404297 L 76.66648864746094 208.4274139404297 Z M 47.55464172363281 217.1519012451172 L 47.55464172363281 205.5055084228516 L 41.72731781005859 205.5055084228516 L 41.72731781005859 217.1519012451172 L 47.55464172363281 217.1519012451172 Z M 88.31288146972656 217.1519012451172 L 88.31288146972656 205.5055084228516 L 82.48556518554688 205.5055084228516 L 82.48556518554688 217.1519012451172 L 88.31288146972656 217.1519012451172 Z M 76.66648864746094 217.1519012451172 L 76.66648864746094 214.2382354736328 L 53.37371063232422 214.2382354736328 L 53.37371063232422 217.1519012451172 L 76.66648864746094 217.1519012451172 Z M 82.49382019042969 228.7982788085938 L 82.49382019042969 222.9709625244141 L 47.55464172363281 222.9709625244141 L 47.55464172363281 228.7982788085938 L 82.49381256103516 228.7982788085938 L 82.49382019042969 228.7982788085938 Z" stroke="none" fill="#756f86"/></g><g transform="translate(-33.4 -170.97)" fill="none"><path d="M84.963,236.251H44.2a4.983,4.983,0,0,1-4.977-4.977V224.6h-.85a4.983,4.983,0,0,1-4.977-4.977V202.154a4.983,4.983,0,0,1,4.977-4.977h6.669V175.947a4.983,4.983,0,0,1,4.977-4.977h29.12a4.983,4.983,0,0,1,4.977,4.977v21.229H90.79a4.983,4.983,0,0,1,4.977,4.977v17.474A4.983,4.983,0,0,1,90.79,224.6h-.85v6.669A4.977,4.977,0,0,1,84.963,236.251ZM38.377,201.312a.849.849,0,0,0-.85.85v17.474a.849.849,0,0,0,.85.85h2.914a2.064,2.064,0,0,1,2.063,2.063v8.733a.849.849,0,0,0,.85.85H84.971a.849.849,0,0,0,.85-.85v-8.733a2.064,2.064,0,0,1,2.063-2.063H90.8a.849.849,0,0,0,.85-.85V202.162a.849.849,0,0,0-.85-.85H82.057a2.064,2.064,0,0,1-2.063-2.064V175.955a.849.849,0,0,0-.85-.85H50.024a.849.849,0,0,0-.85.85v23.293a2.064,2.064,0,0,1-2.063,2.064Zm43.68,29.112H47.118a2.064,2.064,0,0,1-2.063-2.064v-5.827a2.064,2.064,0,0,1,2.063-2.063H82.057a2.064,2.064,0,0,1,2.063,2.063v5.827A2.064,2.064,0,0,1,82.057,230.424ZM49.182,226.3H79.994v-1.7H49.182Zm38.695-7.519H82.049a2.064,2.064,0,0,1-2.063-2.063V205.067A2.064,2.064,0,0,1,82.049,203h5.827a2.064,2.064,0,0,1,2.063,2.064v11.646A2.064,2.064,0,0,1,87.876,218.777Zm-3.756-4.127h1.7v-7.519h-1.7Zm-7.891,4.127H52.937a2.064,2.064,0,0,1-2.063-2.063V213.8a2.064,2.064,0,0,1,2.063-2.064H76.23a2.064,2.064,0,0,1,2.063,2.064v2.914A2.064,2.064,0,0,1,76.23,218.777Zm-29.112,0H41.291a2.064,2.064,0,0,1-2.063-2.063V205.067A2.064,2.064,0,0,1,41.291,203h5.827a2.064,2.064,0,0,1,2.063,2.064v11.646A2.064,2.064,0,0,1,47.118,218.777Zm-3.764-4.127h1.7v-7.519h-1.7Zm32.876-4.606H52.937a2.064,2.064,0,0,1-2.063-2.064v-29.12a2.064,2.064,0,0,1,2.063-2.063H76.23a2.064,2.064,0,0,1,2.063,2.063v29.12A2.064,2.064,0,0,1,76.23,210.044ZM55,205.917H74.166V180.924H55Z" stroke="none"/><path d="M 84.96272277832031 234.2508544921875 C 86.60433197021484 234.2508544921875 87.93988037109375 232.9153137207031 87.93988037109375 231.2736968994141 L 87.93988037109375 224.6044616699219 L 87.93988037109375 222.6044616699219 L 89.93988037109375 222.6044616699219 L 90.79004669189453 222.6044616699219 C 92.43165588378906 222.6044616699219 93.76720428466797 221.2689208984375 93.76720428466797 219.6273040771484 L 93.76720428466797 202.1535949707031 C 93.76720428466797 200.5119934082031 92.43165588378906 199.1764373779297 90.79004669189453 199.1764373779297 L 84.12081146240234 199.1764373779297 L 82.12081146240234 199.1764373779297 L 82.12081146240234 197.1764373779297 L 82.12081146240234 175.9471588134766 C 82.12081146240234 174.3055419921875 80.78526306152344 172.9700012207031 79.14365386962891 172.9700012207031 L 50.02355194091797 172.9700012207031 C 48.38194274902344 172.9700012207031 47.04639434814453 174.3055419921875 47.04639434814453 175.9471588134766 L 47.04639434814453 197.1764373779297 L 47.04639434814453 199.1764373779297 L 45.04639434814453 199.1764373779297 L 38.37716293334961 199.1764373779297 C 36.73555374145508 199.1764373779297 35.40000152587891 200.5119934082031 35.40000152587891 202.1535949707031 L 35.40000152587891 219.6273040771484 C 35.40000152587891 221.2689208984375 36.73555374145508 222.6044616699219 38.37716293334961 222.6044616699219 L 39.22732162475586 222.6044616699219 L 41.22732162475586 222.6044616699219 L 41.22732162475586 224.6044616699219 L 41.22732162475586 231.2736968994141 C 41.22732162475586 232.9153137207031 42.56287384033203 234.2508544921875 44.20448303222656 234.2508544921875 L 84.96272277832031 234.2508544921875 M 38.37716293334961 199.3116912841797 L 47.10989379882812 199.3116912841797 C 47.14431381225586 199.3116912841797 47.17339324951172 199.2826080322266 47.17339324951172 199.2481842041016 L 47.17339324951172 175.9553985595703 C 47.17339324951172 174.3838195800781 48.45197296142578 173.1052398681641 50.02355194091797 173.1052398681641 L 79.14365386962891 173.1052398681641 C 80.71523284912109 173.1052398681641 81.99381256103516 174.3838195800781 81.99381256103516 175.9553985595703 L 81.99381256103516 199.2481842041016 C 81.99381256103516 199.2826080322266 82.02289581298828 199.3116912841797 82.05731201171875 199.3116912841797 L 90.79829406738281 199.3116912841797 C 92.369873046875 199.3116912841797 93.64845275878906 200.5902709960938 93.64845275878906 202.1618499755859 L 93.64845275878906 219.6355590820312 C 93.64845275878906 221.2071380615234 92.369873046875 222.4857177734375 90.79829406738281 222.4857177734375 L 87.88463592529297 222.4857177734375 C 87.85021209716797 222.4857177734375 87.82113647460938 222.5147857666016 87.82113647460938 222.5492095947266 L 87.82113647460938 231.2819519042969 C 87.82113647460938 232.8535308837891 86.54254913330078 234.1321105957031 84.97097015380859 234.1321105957031 L 44.20448303222656 234.1321105957031 C 42.63290405273438 234.1321105957031 41.35432434082031 232.8535308837891 41.35432434082031 231.2819519042969 L 41.35432434082031 222.5492095947266 C 41.35432434082031 222.5147857666016 41.32524108886719 222.4857177734375 41.29082107543945 222.4857177734375 L 38.37716293334961 222.4857177734375 C 36.80558395385742 222.4857177734375 35.52700424194336 221.2071380615234 35.52700424194336 219.6355590820312 L 35.52700424194336 202.1618499755859 C 35.52700424194336 200.5902709960938 36.80558395385742 199.3116912841797 38.37716293334961 199.3116912841797 M 82.05731201171875 228.4235382080078 C 82.09174346923828 228.4235382080078 82.12081909179688 228.3944549560547 82.12081909179688 228.3600311279297 L 82.12081909179688 222.53271484375 C 82.12081909179688 222.498291015625 82.09174346923828 222.4692230224609 82.05731964111328 222.4692230224609 L 47.11814117431641 222.4692230224609 C 47.08372116088867 222.4692230224609 47.05464172363281 222.498291015625 47.05464172363281 222.53271484375 L 47.05464172363281 228.3600311279297 C 47.05464172363281 228.3944549560547 47.08372116088867 228.4235382080078 47.11814117431641 228.4235382080078 L 82.05731201171875 228.4235382080078 M 47.18164443969727 222.5962219238281 L 49.18164443969727 222.5962219238281 L 79.99382019042969 222.5962219238281 L 81.99382019042969 222.5962219238281 L 81.99382019042969 224.5962219238281 L 81.99382019042969 226.2965393066406 L 81.99382019042969 228.2965393066406 L 79.99382019042969 228.2965393066406 L 49.18164443969727 228.2965393066406 L 47.18164443969727 228.2965393066406 L 47.18164443969727 226.2965393066406 L 47.18164443969727 224.5962219238281 L 47.18164443969727 222.5962219238281 M 87.87638092041016 216.7771453857422 C 87.91080474853516 216.7771453857422 87.93988037109375 216.7480773925781 87.93988037109375 216.7136535644531 L 87.93988037109375 205.0672607421875 C 87.93988037109375 205.0328369140625 87.91080474853516 205.0037536621094 87.87638092041016 205.0037536621094 L 82.04906463623047 205.0037536621094 C 82.01464080810547 205.0037536621094 81.98556518554688 205.0328369140625 81.98556518554688 205.0672607421875 L 81.98556518554688 216.7136535644531 C 81.98556518554688 216.7480773925781 82.01464080810547 216.7771453857422 82.04906463623047 216.7771453857422 L 87.87638092041016 216.7771453857422 M 82.12081146240234 205.1307525634766 L 84.12081146240234 205.1307525634766 L 85.82113647460938 205.1307525634766 L 87.82113647460938 205.1307525634766 L 87.82113647460938 207.1307525634766 L 87.82113647460938 214.650146484375 L 87.82113647460938 216.650146484375 L 85.82113647460938 216.650146484375 L 84.12081146240234 216.650146484375 L 82.12081146240234 216.650146484375 L 82.12081146240234 214.650146484375 L 82.12081146240234 207.1307525634766 L 82.12081146240234 205.1307525634766 M 76.22999572753906 216.7771453857422 C 76.26441192626953 216.7771453857422 76.29349517822266 216.7480773925781 76.29349517822266 216.7136535644531 L 76.29349517822266 213.7999877929688 C 76.29349517822266 213.7655639648438 76.26441192626953 213.7364807128906 76.22999572753906 213.7364807128906 L 52.93721389770508 213.7364807128906 C 52.90279388427734 213.7364807128906 52.87371444702148 213.7655639648438 52.87371444702148 213.7999877929688 L 52.87371444702148 216.7136535644531 C 52.87371444702148 216.7480773925781 52.90279388427734 216.7771453857422 52.93721389770508 216.7771453857422 L 76.22999572753906 216.7771453857422 M 47.11814117431641 216.7771453857422 C 47.15256118774414 216.7771453857422 47.18164443969727 216.7480773925781 47.18164443969727 216.7136535644531 L 47.18164443969727 205.0672607421875 C 47.18164443969727 205.0328369140625 47.15256118774414 205.0037536621094 47.11814117431641 205.0037536621094 L 41.29082107543945 205.0037536621094 C 41.25640106201172 205.0037536621094 41.22732162475586 205.0328369140625 41.22732162475586 205.0672607421875 L 41.22732162475586 216.7136535644531 C 41.22732162475586 216.7480773925781 41.25640106201172 216.7771453857422 41.29082107543945 216.7771453857422 L 47.11814117431641 216.7771453857422 M 41.35432434082031 205.1307525634766 L 43.35432434082031 205.1307525634766 L 45.05464172363281 205.1307525634766 L 47.05464172363281 205.1307525634766 L 47.05464172363281 207.1307525634766 L 47.05464172363281 214.650146484375 L 47.05464172363281 216.650146484375 L 45.05464172363281 216.650146484375 L 43.35432434082031 216.650146484375 L 41.35432434082031 216.650146484375 L 41.35432434082031 214.650146484375 L 41.35432434082031 207.1307525634766 L 41.35432434082031 205.1307525634766 M 76.22999572753906 208.0444183349609 C 76.26441192626953 208.0444183349609 76.29349517822266 208.0153350830078 76.29349517822266 207.9809112548828 L 76.29349517822266 178.8608093261719 C 76.29349517822266 178.8263854980469 76.26441192626953 178.7973175048828 76.22999572753906 178.7973175048828 L 52.93721389770508 178.7973175048828 C 52.90279388427734 178.7973175048828 52.87371444702148 178.8263854980469 52.87371444702148 178.8608093261719 L 52.87371444702148 207.9809112548828 C 52.87371444702148 208.0153350830078 52.90279388427734 208.0444183349609 52.93721389770508 208.0444183349609 L 76.22999572753906 208.0444183349609 M 53.00071334838867 178.92431640625 L 55.00071334838867 178.92431640625 L 74.16649627685547 178.92431640625 L 76.16649627685547 178.92431640625 L 76.16649627685547 180.92431640625 L 76.16649627685547 205.9174194335938 L 76.16649627685547 207.9174194335938 L 74.16649627685547 207.9174194335938 L 55.00071334838867 207.9174194335938 L 53.00071334838867 207.9174194335938 L 53.00071334838867 205.9174194335938 L 53.00071334838867 180.92431640625 L 53.00071334838867 178.92431640625 M 84.96272277832031 236.2508544921875 L 44.20448303222656 236.2508544921875 C 41.46416473388672 236.2508544921875 39.22732162475586 234.0222778320312 39.22732162475586 231.2736968994141 L 39.22732162475586 224.6044616699219 L 38.37716293334961 224.6044616699219 C 35.63684463500977 224.6044616699219 33.40000152587891 222.3758850097656 33.40000152587891 219.6273040771484 L 33.40000152587891 202.1535949707031 C 33.40000152587891 199.4132690429688 35.62858200073242 197.1764373779297 38.37716293334961 197.1764373779297 L 45.04639434814453 197.1764373779297 L 45.04639434814453 175.9471588134766 C 45.04639434814453 173.2068176269531 47.27497100830078 170.9700012207031 50.02355194091797 170.9700012207031 L 79.14365386962891 170.9700012207031 C 81.88397979736328 170.9700012207031 84.12081146240234 173.1985778808594 84.12081146240234 175.9471588134766 L 84.12081146240234 197.1764373779297 L 90.79004669189453 197.1764373779297 C 93.53036499023438 197.1764373779297 95.76720428466797 199.4050140380859 95.76720428466797 202.1535949707031 L 95.76720428466797 219.6273040771484 C 95.76720428466797 222.3676452636719 93.53861999511719 224.6044616699219 90.79004669189453 224.6044616699219 L 89.93988037109375 224.6044616699219 L 89.93988037109375 231.2736968994141 C 89.93988037109375 234.0222778320312 87.71129608154297 236.2508544921875 84.96272277832031 236.2508544921875 Z M 38.37716293334961 201.3116912841797 C 37.90668106079102 201.3116912841797 37.52700424194336 201.6913757324219 37.52700424194336 202.1618499755859 L 37.52700424194336 219.6355590820312 C 37.52700424194336 220.1060333251953 37.90668106079102 220.4857177734375 38.37716293334961 220.4857177734375 L 41.29082107543945 220.4857177734375 C 42.42987442016602 220.4857177734375 43.35432434082031 221.41015625 43.35432434082031 222.5492095947266 L 43.35432434082031 231.2819519042969 C 43.35432434082031 231.7524261474609 43.73400115966797 232.1321105957031 44.20448303222656 232.1321105957031 L 84.97097015380859 232.1321105957031 C 85.44144439697266 232.1321105957031 85.82113647460938 231.7524108886719 85.82113647460938 231.2819519042969 L 85.82113647460938 222.5492095947266 C 85.82113647460938 221.41015625 86.74558258056641 220.4857177734375 87.88463592529297 220.4857177734375 L 90.79829406738281 220.4857177734375 C 91.26877593994141 220.4857177734375 91.64845275878906 220.1060333251953 91.64845275878906 219.6355590820312 L 91.64845275878906 202.1618499755859 C 91.64845275878906 201.6913604736328 91.26877593994141 201.3116912841797 90.79829406738281 201.3116912841797 L 82.05731201171875 201.3116912841797 C 80.91826629638672 201.3116912841797 79.99381256103516 200.3872375488281 79.99381256103516 199.2481842041016 L 79.99381256103516 175.9553985595703 C 79.99381256103516 175.4849243164062 79.6141357421875 175.1052398681641 79.14365386962891 175.1052398681641 L 50.02355194091797 175.1052398681641 C 49.55307388305664 175.1052398681641 49.17339324951172 175.4849395751953 49.17339324951172 175.9553985595703 L 49.17339324951172 199.2481842041016 C 49.17339324951172 200.3872375488281 48.24894332885742 201.3116912841797 47.10989379882812 201.3116912841797 L 38.37716293334961 201.3116912841797 Z M 82.05731201171875 230.4235382080078 L 47.11814117431641 230.4235382080078 C 45.97909164428711 230.4235382080078 45.05464172363281 229.4990997314453 45.05464172363281 228.3600311279297 L 45.05464172363281 222.53271484375 C 45.05464172363281 221.3936614990234 45.97909164428711 220.4692230224609 47.11814117431641 220.4692230224609 L 82.05731964111328 220.4692230224609 C 83.19636535644531 220.4692230224609 84.12081909179688 221.3936614990234 84.12081909179688 222.53271484375 L 84.12081909179688 228.3600311279297 C 84.12081146240234 229.4990997314453 83.19636535644531 230.4235382080078 82.05731201171875 230.4235382080078 Z M 49.18164443969727 224.5962219238281 L 49.18164443969727 226.2965393066406 L 79.99382019042969 226.2965393066406 L 79.99382019042969 224.5962219238281 L 49.18164443969727 224.5962219238281 Z M 87.87638092041016 218.7771453857422 L 82.04906463623047 218.7771453857422 C 80.91001129150391 218.7771453857422 79.98556518554688 217.8527069091797 79.98556518554688 216.7136535644531 L 79.98556518554688 205.0672607421875 C 79.98556518554688 203.9282073974609 80.91001129150391 203.0037536621094 82.04906463623047 203.0037536621094 L 87.87638092041016 203.0037536621094 C 89.01542663574219 203.0037536621094 89.93988037109375 203.9282073974609 89.93988037109375 205.0672607421875 L 89.93988037109375 216.7136535644531 C 89.93988037109375 217.8527069091797 89.01542663574219 218.7771453857422 87.87638092041016 218.7771453857422 Z M 84.12081146240234 207.1307525634766 L 84.12081146240234 214.650146484375 L 85.82113647460938 214.650146484375 L 85.82113647460938 207.1307525634766 L 84.12081146240234 207.1307525634766 Z M 76.22999572753906 218.7771453857422 L 52.93721389770508 218.7771453857422 C 51.79815292358398 218.7771453857422 50.87371444702148 217.8527069091797 50.87371444702148 216.7136535644531 L 50.87371444702148 213.7999877929688 C 50.87371444702148 212.6609344482422 51.79815292358398 211.7364807128906 52.93721389770508 211.7364807128906 L 76.22999572753906 211.7364807128906 C 77.36904144287109 211.7364807128906 78.29349517822266 212.6609344482422 78.29349517822266 213.7999877929688 L 78.29349517822266 216.7136535644531 C 78.29349517822266 217.8527069091797 77.36904144287109 218.7771453857422 76.22999572753906 218.7771453857422 Z M 47.11814117431641 218.7771453857422 L 41.29082107543945 218.7771453857422 C 40.15177154541016 218.7771453857422 39.22732162475586 217.8527069091797 39.22732162475586 216.7136535644531 L 39.22732162475586 205.0672607421875 C 39.22732162475586 203.9282073974609 40.15177154541016 203.0037536621094 41.29082107543945 203.0037536621094 L 47.11814117431641 203.0037536621094 C 48.25719451904297 203.0037536621094 49.18164443969727 203.9282073974609 49.18164443969727 205.0672607421875 L 49.18164443969727 216.7136535644531 C 49.18164443969727 217.8527069091797 48.25719451904297 218.7771453857422 47.11814117431641 218.7771453857422 Z M 43.35432434082031 207.1307525634766 L 43.35432434082031 214.650146484375 L 45.05464172363281 214.650146484375 L 45.05464172363281 207.1307525634766 L 43.35432434082031 207.1307525634766 Z M 76.22999572753906 210.0444183349609 L 52.93721389770508 210.0444183349609 C 51.79815292358398 210.0444183349609 50.87371444702148 209.1199645996094 50.87371444702148 207.9809112548828 L 50.87371444702148 178.8608093261719 C 50.87371444702148 177.7217559814453 51.79815292358398 176.7973175048828 52.93721389770508 176.7973175048828 L 76.22999572753906 176.7973175048828 C 77.36904144287109 176.7973175048828 78.29349517822266 177.7217559814453 78.29349517822266 178.8608093261719 L 78.29349517822266 207.9809112548828 C 78.29349517822266 209.1199645996094 77.36904144287109 210.0444183349609 76.22999572753906 210.0444183349609 Z M 55.00071334838867 180.92431640625 L 55.00071334838867 205.9174194335938 L 74.16649627685547 205.9174194335938 L 74.16649627685547 180.92431640625 L 55.00071334838867 180.92431640625 Z" stroke="none" fill="#756f86"/></g></g><g transform="translate(149.864 146.95)"><g transform="translate(-174.937 -171.408)" fill="none"><path d="M232.327,199.686h-8.733V176.394a2.913,2.913,0,0,0-2.914-2.914H191.56a2.913,2.913,0,0,0-2.914,2.914v23.293h-8.733A2.913,2.913,0,0,0,177,202.6v17.474a2.913,2.913,0,0,0,2.914,2.914h2.914v8.733a2.913,2.913,0,0,0,2.914,2.914h40.766a2.913,2.913,0,0,0,2.914-2.914v-8.733h2.914a2.913,2.913,0,0,0,2.914-2.914V202.6A2.926,2.926,0,0,0,232.327,199.686Zm-37.853,17.465v-2.914h23.293v2.914Zm0-37.845h23.293v29.12H194.474Zm-11.646,26.2h5.827v11.646h-5.827ZM223.594,228.8H188.655v-5.827h34.939Zm5.819-11.646h-5.827V205.506h5.827Z" stroke="none"/><path d="M 191.5600433349609 175.4799957275391 C 191.0562591552734 175.4799957275391 190.6463928222656 175.8898620605469 190.6463928222656 176.3936462402344 L 190.6463928222656 199.6864318847656 L 190.6463928222656 201.6864318847656 L 188.6463928222656 201.6864318847656 L 179.9136505126953 201.6864318847656 C 179.4098663330078 201.6864318847656 179 202.0962982177734 179 202.60009765625 L 179 220.0738067626953 C 179 220.5775909423828 179.4098663330078 220.9874572753906 179.9136505126953 220.9874572753906 L 182.8273162841797 220.9874572753906 L 184.8273162841797 220.9874572753906 L 184.8273162841797 222.9874572753906 L 184.8273162841797 231.7201995849609 C 184.8273162841797 232.2239837646484 185.2371826171875 232.6338500976562 185.7409820556641 232.6338500976562 L 226.5074615478516 232.6338500976562 C 227.0112457275391 232.6338500976562 227.4211273193359 232.2239837646484 227.4211273193359 231.7201995849609 L 227.4211273193359 222.9874572753906 L 227.4211273193359 220.9874572753906 L 229.4211273193359 220.9874572753906 L 232.3347930908203 220.9874572753906 C 232.8385772705078 220.9874572753906 233.2484436035156 220.5775909423828 233.2484436035156 220.0738067626953 L 233.2484436035156 202.6063385009766 C 233.2436828613281 202.0987396240234 232.8309478759766 201.6864318847656 232.3265380859375 201.6864318847656 L 223.5938110351562 201.6864318847656 L 221.5938110351562 201.6864318847656 L 221.5938110351562 199.6864318847656 L 221.5938110351562 176.3936462402344 C 221.5938110351562 175.8898620605469 221.1839447021484 175.4799957275391 220.6801452636719 175.4799957275391 L 191.5600433349609 175.4799957275391 M 219.7664947509766 210.4274139404297 L 217.7664947509766 210.4274139404297 L 194.4737091064453 210.4274139404297 L 192.4737091064453 210.4274139404297 L 192.4737091064453 208.4274139404297 L 192.4737091064453 179.3073120117188 L 192.4737091064453 177.3073120117188 L 194.4737091064453 177.3073120117188 L 217.7664947509766 177.3073120117188 L 219.7664947509766 177.3073120117188 L 219.7664947509766 179.3073120117188 L 219.7664947509766 208.4274139404297 L 219.7664947509766 210.4274139404297 M 190.6546325683594 219.1519012451172 L 188.6546325683594 219.1519012451172 L 182.8273162841797 219.1519012451172 L 180.8273162841797 219.1519012451172 L 180.8273162841797 217.1519012451172 L 180.8273162841797 205.5055084228516 L 180.8273162841797 203.5055084228516 L 182.8273162841797 203.5055084228516 L 188.6546325683594 203.5055084228516 L 190.6546325683594 203.5055084228516 L 190.6546325683594 205.5055084228516 L 190.6546325683594 217.1519012451172 L 190.6546325683594 219.1519012451172 M 231.4128723144531 219.1519012451172 L 229.4128723144531 219.1519012451172 L 223.5855560302734 219.1519012451172 L 221.5855560302734 219.1519012451172 L 221.5855560302734 217.1519012451172 L 221.5855560302734 205.5055084228516 L 221.5855560302734 203.5055084228516 L 223.5855560302734 203.5055084228516 L 229.4128723144531 203.5055084228516 L 231.4128723144531 203.5055084228516 L 231.4128723144531 205.5055084228516 L 231.4128723144531 217.1519012451172 L 231.4128723144531 219.1519012451172 M 219.7664947509766 219.1519012451172 L 217.7664947509766 219.1519012451172 L 194.4737091064453 219.1519012451172 L 192.4737091064453 219.1519012451172 L 192.4737091064453 217.1519012451172 L 192.4737091064453 214.2382354736328 L 192.4737091064453 212.2382354736328 L 194.4737091064453 212.2382354736328 L 217.7664947509766 212.2382354736328 L 219.7664947509766 212.2382354736328 L 219.7664947509766 214.2382354736328 L 219.7664947509766 217.1519012451172 L 219.7664947509766 219.1519012451172 M 225.5938110351562 230.7982788085938 L 223.5938110351562 230.7982788085938 L 188.6546325683594 230.7982788085938 L 186.6546325683594 230.7982788085938 L 186.6546325683594 228.7982788085938 L 186.6546325683594 222.9709625244141 L 186.6546325683594 220.9709625244141 L 188.6546325683594 220.9709625244141 L 223.5938110351562 220.9709625244141 L 225.5938110351562 220.9709625244141 L 225.5938110351562 222.9709625244141 L 225.5938110351562 228.7982788085938 L 225.5938110351562 230.7982788085938 M 191.5600433349609 173.4799957275391 L 220.6801452636719 173.4799957275391 C 222.2896728515625 173.4799957275391 223.5938110351562 174.7841339111328 223.5938110351562 176.3936462402344 L 223.5938110351562 199.6864318847656 L 232.3265380859375 199.6864318847656 C 233.9360656738281 199.6864318847656 235.2402038574219 200.9905700683594 235.2484436035156 202.60009765625 L 235.2484436035156 220.0738067626953 C 235.2484436035156 221.6833343505859 233.9443206787109 222.9874572753906 232.3347930908203 222.9874572753906 L 229.4211273193359 222.9874572753906 L 229.4211273193359 231.7201995849609 C 229.4211273193359 233.3297271728516 228.1169891357422 234.6338500976562 226.5074615478516 234.6338500976562 L 185.7409820556641 234.6338500976562 C 184.1314544677734 234.6338500976562 182.8273162841797 233.3297271728516 182.8273162841797 231.7201995849609 L 182.8273162841797 222.9874572753906 L 179.9136505126953 222.9874572753906 C 178.3041229248047 222.9874572753906 177 221.6833343505859 177 220.0738067626953 L 177 202.60009765625 C 177 200.9905700683594 178.3041229248047 199.6864318847656 179.9136505126953 199.6864318847656 L 188.6463928222656 199.6864318847656 L 188.6463928222656 176.3936462402344 C 188.6463928222656 174.7841339111328 189.9505157470703 173.4799957275391 191.5600433349609 173.4799957275391 Z M 217.7664947509766 208.4274139404297 L 217.7664947509766 179.3073120117188 L 194.4737091064453 179.3073120117188 L 194.4737091064453 208.4274139404297 L 217.7664947509766 208.4274139404297 Z M 188.6546325683594 217.1519012451172 L 188.6546325683594 205.5055084228516 L 182.8273162841797 205.5055084228516 L 182.8273162841797 217.1519012451172 L 188.6546325683594 217.1519012451172 Z M 229.4128723144531 217.1519012451172 L 229.4128723144531 205.5055084228516 L 223.5855560302734 205.5055084228516 L 223.5855560302734 217.1519012451172 L 229.4128723144531 217.1519012451172 Z M 217.7664947509766 217.1519012451172 L 217.7664947509766 214.2382354736328 L 194.4737091064453 214.2382354736328 L 194.4737091064453 217.1519012451172 L 217.7664947509766 217.1519012451172 Z M 223.5938110351562 228.7982788085938 L 223.5938110351562 222.9709625244141 L 188.6546325683594 222.9709625244141 L 188.6546325683594 228.7982788085938 L 223.5938110351562 228.7982788085938 Z" stroke="none" fill="#756f86"/></g><g transform="translate(-174.5 -170.97)" fill="none"><path d="M226.071,236.251H185.3a4.983,4.983,0,0,1-4.977-4.977V224.6h-.85a4.983,4.983,0,0,1-4.977-4.977V202.154a4.983,4.983,0,0,1,4.977-4.977h6.669V175.947a4.983,4.983,0,0,1,4.977-4.977h29.12a4.983,4.983,0,0,1,4.977,4.977v21.229h6.669a4.983,4.983,0,0,1,4.977,4.977v17.474a4.983,4.983,0,0,1-4.977,4.977h-.85v6.669A4.976,4.976,0,0,1,226.071,236.251Zm-46.586-34.939a.849.849,0,0,0-.85.85v17.474a.849.849,0,0,0,.85.85H182.4a2.064,2.064,0,0,1,2.063,2.063v8.733a.849.849,0,0,0,.85.85h40.766a.849.849,0,0,0,.85-.85v-8.733a2.064,2.064,0,0,1,2.064-2.063h2.914a.849.849,0,0,0,.85-.85V202.162a.849.849,0,0,0-.85-.85h-8.733a2.064,2.064,0,0,1-2.063-2.064V175.955a.849.849,0,0,0-.85-.85H191.14a.849.849,0,0,0-.85.85v23.293a2.064,2.064,0,0,1-2.063,2.064Zm43.672,29.112H188.218a2.064,2.064,0,0,1-2.063-2.064v-5.827a2.064,2.064,0,0,1,2.063-2.063h34.939a2.064,2.064,0,0,1,2.063,2.063v5.827A2.064,2.064,0,0,1,223.157,230.424ZM190.282,226.3h30.812v-1.7H190.282Zm38.695-7.519h-5.827a2.064,2.064,0,0,1-2.063-2.063V205.067A2.064,2.064,0,0,1,223.149,203h5.827a2.064,2.064,0,0,1,2.064,2.064v11.646A2.064,2.064,0,0,1,228.976,218.777Zm-3.756-4.127h1.692v-7.519h-1.7v7.519Zm-7.891,4.127H194.037a2.064,2.064,0,0,1-2.064-2.063V213.8a2.064,2.064,0,0,1,2.064-2.064H217.33a2.064,2.064,0,0,1,2.063,2.064v2.914A2.064,2.064,0,0,1,217.33,218.777Zm-29.112,0h-5.827a2.064,2.064,0,0,1-2.063-2.063V205.067A2.064,2.064,0,0,1,182.391,203h5.827a2.064,2.064,0,0,1,2.064,2.064v11.646A2.064,2.064,0,0,1,188.218,218.777Zm-3.764-4.127h1.7v-7.519h-1.7Zm32.876-4.606H194.037a2.064,2.064,0,0,1-2.064-2.064v-29.12a2.064,2.064,0,0,1,2.064-2.063H217.33a2.064,2.064,0,0,1,2.063,2.063v29.12A2.064,2.064,0,0,1,217.33,210.044ZM196.1,205.917h19.166V180.924H196.1Z" stroke="none"/><path d="M 226.0709686279297 234.2508544921875 C 227.7080383300781 234.2508544921875 229.0398864746094 232.9153137207031 229.0398864746094 231.2736968994141 L 229.0398864746094 224.6044616699219 L 229.0398864746094 222.6044616699219 L 231.0398864746094 222.6044616699219 L 231.8900451660156 222.6044616699219 C 233.5316467285156 222.6044616699219 234.8672027587891 221.2689208984375 234.8672027587891 219.6273040771484 L 234.8672027587891 202.1535949707031 C 234.8672027587891 200.5119934082031 233.5316467285156 199.1764373779297 231.8900451660156 199.1764373779297 L 225.2208099365234 199.1764373779297 L 223.2208099365234 199.1764373779297 L 223.2208099365234 197.1764373779297 L 223.2208099365234 175.9471588134766 C 223.2208099365234 174.3055419921875 221.8852691650391 172.9700012207031 220.24365234375 172.9700012207031 L 191.1235504150391 172.9700012207031 C 189.4819488525391 172.9700012207031 188.1463928222656 174.3055419921875 188.1463928222656 175.9471588134766 L 188.1463928222656 197.1764373779297 L 188.1463928222656 199.1764373779297 L 186.1463928222656 199.1764373779297 L 179.4771575927734 199.1764373779297 C 177.8355560302734 199.1764373779297 176.5 200.5119934082031 176.5 202.1535949707031 L 176.5 219.6273040771484 C 176.5 221.2689208984375 177.8355560302734 222.6044616699219 179.4771575927734 222.6044616699219 L 180.3273315429688 222.6044616699219 L 182.3273315429688 222.6044616699219 L 182.3273315429688 224.6044616699219 L 182.3273315429688 231.2736968994141 C 182.3273315429688 232.9153137207031 183.6628875732422 234.2508544921875 185.3044891357422 234.2508544921875 L 226.0709686279297 234.2508544921875 M 179.4854125976562 199.3116912841797 L 188.2263946533203 199.3116912841797 C 188.2608184814453 199.3116912841797 188.2898864746094 199.2826080322266 188.2898864746094 199.2481842041016 L 188.2898864746094 175.9553985595703 C 188.2898864746094 174.3838195800781 189.5684661865234 173.1052398681641 191.1400604248047 173.1052398681641 L 220.2601470947266 173.1052398681641 C 221.8317413330078 173.1052398681641 223.1103210449219 174.3838195800781 223.1103210449219 175.9553985595703 L 223.1103210449219 199.2481842041016 C 223.1103210449219 199.2826080322266 223.1393890380859 199.3116912841797 223.1738128662109 199.3116912841797 L 231.9065399169922 199.3116912841797 C 233.4781188964844 199.3116912841797 234.7566986083984 200.5902709960938 234.7566986083984 202.1618499755859 L 234.7566986083984 219.6355590820312 C 234.7566986083984 221.2071380615234 233.4781188964844 222.4857177734375 231.9065399169922 222.4857177734375 L 228.9928894042969 222.4857177734375 C 228.9584655761719 222.4857177734375 228.9293823242188 222.5147857666016 228.9293823242188 222.5492095947266 L 228.9293823242188 231.2819519042969 C 228.9293823242188 232.8535308837891 227.6508026123047 234.1321105957031 226.0792236328125 234.1321105957031 L 185.3127288818359 234.1321105957031 C 183.7411499023438 234.1321105957031 182.4625701904297 232.8535308837891 182.4625701904297 231.2819519042969 L 182.4625701904297 222.5492095947266 C 182.4625701904297 222.5147857666016 182.4335021972656 222.4857177734375 182.3990783691406 222.4857177734375 L 179.4854125976562 222.4857177734375 C 177.9138336181641 222.4857177734375 176.63525390625 221.2071380615234 176.63525390625 219.6355590820312 L 176.63525390625 202.1618499755859 C 176.63525390625 200.5902709960938 177.9138336181641 199.3116912841797 179.4854125976562 199.3116912841797 M 223.1573181152344 228.4235382080078 C 223.1917266845703 228.4235382080078 223.2208099365234 228.3944549560547 223.2208099365234 228.3600311279297 L 223.2208099365234 222.53271484375 C 223.2208099365234 222.498291015625 223.1917266845703 222.4692230224609 223.1573181152344 222.4692230224609 L 188.2181396484375 222.4692230224609 C 188.1837310791016 222.4692230224609 188.1546478271484 222.498291015625 188.1546478271484 222.53271484375 L 188.1546478271484 228.3600311279297 C 188.1546478271484 228.3944549560547 188.1837310791016 228.4235382080078 188.2181396484375 228.4235382080078 L 223.1573181152344 228.4235382080078 M 188.2816467285156 222.5962219238281 L 190.2816467285156 222.5962219238281 L 221.0938110351562 222.5962219238281 L 223.0938110351562 222.5962219238281 L 223.0938110351562 224.5962219238281 L 223.0938110351562 226.2965393066406 L 223.0938110351562 228.2965393066406 L 221.0938110351562 228.2965393066406 L 190.2816467285156 228.2965393066406 L 188.2816467285156 228.2965393066406 L 188.2816467285156 226.2965393066406 L 188.2816467285156 224.5962219238281 L 188.2816467285156 222.5962219238281 M 228.9763793945312 216.7771453857422 C 229.0108032226562 216.7771453857422 229.0398864746094 216.7480773925781 229.0398864746094 216.7136535644531 L 229.0398864746094 205.0672607421875 C 229.0398864746094 205.0328369140625 229.0108032226562 205.0037536621094 228.9763793945312 205.0037536621094 L 223.1490631103516 205.0037536621094 C 223.1146392822266 205.0037536621094 223.0855712890625 205.0328369140625 223.0855712890625 205.0672607421875 L 223.0855712890625 216.7136535644531 C 223.0855712890625 216.7480773925781 223.1146392822266 216.7771453857422 223.1490631103516 216.7771453857422 L 228.9763793945312 216.7771453857422 M 223.2125701904297 205.1307525634766 L 225.2125701904297 205.1307525634766 L 226.9128875732422 205.1307525634766 L 228.9128875732422 205.1307525634766 L 228.9128875732422 207.1307525634766 L 228.9128875732422 214.650146484375 L 228.9128875732422 216.650146484375 L 226.9128875732422 216.650146484375 L 225.2208099365234 216.650146484375 L 225.2125701904297 216.650146484375 L 223.2125701904297 216.650146484375 L 223.2125701904297 214.650146484375 L 223.2125701904297 207.1307525634766 L 223.2125701904297 205.1307525634766 M 217.3300018310547 216.7771453857422 C 217.3644256591797 216.7771453857422 217.3934936523438 216.7480773925781 217.3934936523438 216.7136535644531 L 217.3934936523438 213.7999877929688 C 217.3934936523438 213.7655639648438 217.3644256591797 213.7364807128906 217.3300018310547 213.7364807128906 L 194.0372161865234 213.7364807128906 C 194.0027923583984 213.7364807128906 193.9737091064453 213.7655639648438 193.9737091064453 213.7999877929688 L 193.9737091064453 216.7136535644531 C 193.9737091064453 216.7480773925781 194.0027923583984 216.7771453857422 194.0372161865234 216.7771453857422 L 217.3300018310547 216.7771453857422 M 188.2181396484375 216.7771453857422 C 188.2525634765625 216.7771453857422 188.2816467285156 216.7480773925781 188.2816467285156 216.7136535644531 L 188.2816467285156 205.0672607421875 C 188.2816467285156 205.0328369140625 188.2525634765625 205.0037536621094 188.2181396484375 205.0037536621094 L 182.3908233642578 205.0037536621094 C 182.3563995361328 205.0037536621094 182.3273315429688 205.0328369140625 182.3273315429688 205.0672607421875 L 182.3273315429688 216.7136535644531 C 182.3273315429688 216.7480773925781 182.3563995361328 216.7771453857422 182.3908233642578 216.7771453857422 L 188.2181396484375 216.7771453857422 M 182.4543304443359 205.1307525634766 L 184.4543304443359 205.1307525634766 L 186.1546478271484 205.1307525634766 L 188.1546478271484 205.1307525634766 L 188.1546478271484 207.1307525634766 L 188.1546478271484 214.650146484375 L 188.1546478271484 216.650146484375 L 186.1546478271484 216.650146484375 L 184.4543304443359 216.650146484375 L 182.4543304443359 216.650146484375 L 182.4543304443359 214.650146484375 L 182.4543304443359 207.1307525634766 L 182.4543304443359 205.1307525634766 M 217.3300018310547 208.0444183349609 C 217.3644256591797 208.0444183349609 217.3934936523438 208.0153350830078 217.3934936523438 207.9809112548828 L 217.3934936523438 178.8608093261719 C 217.3934936523438 178.8263854980469 217.3644256591797 178.7973175048828 217.3300018310547 178.7973175048828 L 194.0372161865234 178.7973175048828 C 194.0027923583984 178.7973175048828 193.9737091064453 178.8263854980469 193.9737091064453 178.8608093261719 L 193.9737091064453 207.9809112548828 C 193.9737091064453 208.0153350830078 194.0027923583984 208.0444183349609 194.0372161865234 208.0444183349609 L 217.3300018310547 208.0444183349609 M 194.1007080078125 178.92431640625 L 196.1007080078125 178.92431640625 L 215.2664947509766 178.92431640625 L 217.2664947509766 178.92431640625 L 217.2664947509766 180.92431640625 L 217.2664947509766 205.9174194335938 L 217.2664947509766 207.9174194335938 L 215.2664947509766 207.9174194335938 L 196.1007080078125 207.9174194335938 L 194.1007080078125 207.9174194335938 L 194.1007080078125 205.9174194335938 L 194.1007080078125 180.92431640625 L 194.1007080078125 178.92431640625 M 226.0709686279297 236.2508544921875 L 185.3044891357422 236.2508544921875 C 182.5641479492188 236.2508544921875 180.3273315429688 234.0222778320312 180.3273315429688 231.2736968994141 L 180.3273315429688 224.6044616699219 L 179.4771575927734 224.6044616699219 C 176.7368316650391 224.6044616699219 174.5 222.3758850097656 174.5 219.6273040771484 L 174.5 202.1535949707031 C 174.5 199.4132690429688 176.7285766601562 197.1764373779297 179.4771575927734 197.1764373779297 L 186.1463928222656 197.1764373779297 L 186.1463928222656 175.9471588134766 C 186.1463928222656 173.2068176269531 188.3749694824219 170.9700012207031 191.1235504150391 170.9700012207031 L 220.24365234375 170.9700012207031 C 222.9839935302734 170.9700012207031 225.2208099365234 173.1985778808594 225.2208099365234 175.9471588134766 L 225.2208099365234 197.1764373779297 L 231.8900451660156 197.1764373779297 C 234.63037109375 197.1764373779297 236.8672027587891 199.4050140380859 236.8672027587891 202.1535949707031 L 236.8672027587891 219.6273040771484 C 236.8672027587891 222.3676452636719 234.6386260986328 224.6044616699219 231.8900451660156 224.6044616699219 L 231.0398864746094 224.6044616699219 L 231.0398864746094 231.2736968994141 C 231.0398864746094 234.0222778320312 228.8113098144531 236.2508544921875 226.0709686279297 236.2508544921875 Z M 179.4854125976562 201.3116912841797 C 179.0149230957031 201.3116912841797 178.63525390625 201.6913757324219 178.63525390625 202.1618499755859 L 178.63525390625 219.6355590820312 C 178.63525390625 220.1060333251953 179.0149383544922 220.4857177734375 179.4854125976562 220.4857177734375 L 182.3990783691406 220.4857177734375 C 183.5381317138672 220.4857177734375 184.4625701904297 221.41015625 184.4625701904297 222.5492095947266 L 184.4625701904297 231.2819519042969 C 184.4625701904297 231.7524261474609 184.8422698974609 232.1321105957031 185.3127288818359 232.1321105957031 L 226.0792236328125 232.1321105957031 C 226.5497131347656 232.1321105957031 226.9293823242188 231.7524108886719 226.9293823242188 231.2819519042969 L 226.9293823242188 222.5492095947266 C 226.9293823242188 221.41015625 227.8538360595703 220.4857177734375 228.9928894042969 220.4857177734375 L 231.9065399169922 220.4857177734375 C 232.3770294189453 220.4857177734375 232.7566986083984 220.1060333251953 232.7566986083984 219.6355590820312 L 232.7566986083984 202.1618499755859 C 232.7566986083984 201.6913604736328 232.3770141601562 201.3116912841797 231.9065399169922 201.3116912841797 L 223.1738128662109 201.3116912841797 C 222.0347595214844 201.3116912841797 221.1103210449219 200.3872375488281 221.1103210449219 199.2481842041016 L 221.1103210449219 175.9553985595703 C 221.1103210449219 175.4849243164062 220.7306213378906 175.1052398681641 220.2601470947266 175.1052398681641 L 191.1400604248047 175.1052398681641 C 190.6695709228516 175.1052398681641 190.2898864746094 175.4849395751953 190.2898864746094 175.9553985595703 L 190.2898864746094 199.2481842041016 C 190.2898864746094 200.3872375488281 189.3654479980469 201.3116912841797 188.2263946533203 201.3116912841797 L 179.4854125976562 201.3116912841797 Z M 223.1573181152344 230.4235382080078 L 188.2181396484375 230.4235382080078 C 187.0790863037109 230.4235382080078 186.1546478271484 229.4990997314453 186.1546478271484 228.3600311279297 L 186.1546478271484 222.53271484375 C 186.1546478271484 221.3936614990234 187.0790863037109 220.4692230224609 188.2181396484375 220.4692230224609 L 223.1573181152344 220.4692230224609 C 224.2963714599609 220.4692230224609 225.2208099365234 221.3936614990234 225.2208099365234 222.53271484375 L 225.2208099365234 228.3600311279297 C 225.2208099365234 229.4990997314453 224.2963714599609 230.4235382080078 223.1573181152344 230.4235382080078 Z M 190.2816467285156 224.5962219238281 L 190.2816467285156 226.2965393066406 L 221.0938110351562 226.2965393066406 L 221.0938110351562 224.5962219238281 L 190.2816467285156 224.5962219238281 Z M 228.9763793945312 218.7771453857422 L 223.1490631103516 218.7771453857422 C 222.010009765625 218.7771453857422 221.0855712890625 217.8527069091797 221.0855712890625 216.7136535644531 L 221.0855712890625 205.0672607421875 C 221.0855712890625 203.9282073974609 222.010009765625 203.0037536621094 223.1490631103516 203.0037536621094 L 228.9763793945312 203.0037536621094 C 230.1154479980469 203.0037536621094 231.0398864746094 203.9282073974609 231.0398864746094 205.0672607421875 L 231.0398864746094 216.7136535644531 C 231.0398864746094 217.8527069091797 230.1154479980469 218.7771453857422 228.9763793945312 218.7771453857422 Z M 225.2125701904297 207.1307525634766 L 225.2125701904297 214.650146484375 L 225.2208099365234 214.650146484375 L 226.9128875732422 214.650146484375 L 226.9128875732422 207.1307525634766 L 225.2125701904297 207.1307525634766 Z M 217.3300018310547 218.7771453857422 L 194.0372161865234 218.7771453857422 C 192.8981628417969 218.7771453857422 191.9737091064453 217.8527069091797 191.9737091064453 216.7136535644531 L 191.9737091064453 213.7999877929688 C 191.9737091064453 212.6609344482422 192.8981628417969 211.7364807128906 194.0372161865234 211.7364807128906 L 217.3300018310547 211.7364807128906 C 218.4690551757812 211.7364807128906 219.3934936523438 212.6609344482422 219.3934936523438 213.7999877929688 L 219.3934936523438 216.7136535644531 C 219.3934936523438 217.8527069091797 218.4690551757812 218.7771453857422 217.3300018310547 218.7771453857422 Z M 188.2181396484375 218.7771453857422 L 182.3908233642578 218.7771453857422 C 181.2517700195312 218.7771453857422 180.3273315429688 217.8527069091797 180.3273315429688 216.7136535644531 L 180.3273315429688 205.0672607421875 C 180.3273315429688 203.9282073974609 181.2517700195312 203.0037536621094 182.3908233642578 203.0037536621094 L 188.2181396484375 203.0037536621094 C 189.3571929931641 203.0037536621094 190.2816467285156 203.9282073974609 190.2816467285156 205.0672607421875 L 190.2816467285156 216.7136535644531 C 190.2816467285156 217.8527069091797 189.3571929931641 218.7771453857422 188.2181396484375 218.7771453857422 Z M 184.4543304443359 207.1307525634766 L 184.4543304443359 214.650146484375 L 186.1546478271484 214.650146484375 L 186.1546478271484 207.1307525634766 L 184.4543304443359 207.1307525634766 Z M 217.3300018310547 210.0444183349609 L 194.0372161865234 210.0444183349609 C 192.8981628417969 210.0444183349609 191.9737091064453 209.1199645996094 191.9737091064453 207.9809112548828 L 191.9737091064453 178.8608093261719 C 191.9737091064453 177.7217559814453 192.8981628417969 176.7973175048828 194.0372161865234 176.7973175048828 L 217.3300018310547 176.7973175048828 C 218.4690551757812 176.7973175048828 219.3934936523438 177.7217559814453 219.3934936523438 178.8608093261719 L 219.3934936523438 207.9809112548828 C 219.3934936523438 209.1199645996094 218.4690551757812 210.0444183349609 217.3300018310547 210.0444183349609 Z M 196.1007080078125 180.92431640625 L 196.1007080078125 205.9174194335938 L 215.2664947509766 205.9174194335938 L 215.2664947509766 180.92431640625 L 196.1007080078125 180.92431640625 Z" stroke="none" fill="#756f86"/></g></g></g></g></svg>