<svg xmlns="http://www.w3.org/2000/svg" width="349" height="349" viewBox="0 0 349 349"><g transform="translate(-18429 19282)"><rect width="349" height="349" transform="translate(18429 -19282)" fill="none"/><g transform="translate(18514.063 -19201)"><path d="M82.847,19a20.847,20.847,0,1,0,20.847,20.847A20.847,20.847,0,0,0,82.847,19Zm0,27.8A6.949,6.949,0,1,1,89.8,39.847,6.949,6.949,0,0,1,82.847,46.8Z" transform="translate(55.285)" fill="none" stroke="#756f86" stroke-linecap="round" stroke-linejoin="round" stroke-width="7"/><circle cx="9.245" cy="9.245" r="9.245" transform="translate(87.302 49.323)" fill="none" stroke="#756f86" stroke-linecap="round" stroke-linejoin="round" stroke-width="7"/><path d="M145.081,80.224H33.9V45.479a11.582,11.582,0,0,1,23.163,0v6.949h13.9V45.479a25.479,25.479,0,1,0-50.959,0V105.7a44.01,44.01,0,0,0,20.592,37.2L31,165.928H46.059l7.32-17.558a43.8,43.8,0,0,0,10.632,1.343h50.959A43.8,43.8,0,0,0,125.6,148.37l7.32,17.558h15.056l-9.59-23.024a44.01,44.01,0,0,0,20.592-37.2V94.122A13.9,13.9,0,0,0,145.081,80.224Zm0,25.479a30.112,30.112,0,0,1-30.112,30.112H64.01A30.112,30.112,0,0,1,33.9,105.7V94.122H145.081Z" transform="translate(0 1.316)" fill="none" stroke="#756f86" stroke-linecap="round" stroke-linejoin="round" stroke-width="7"/></g></g></svg>