<svg xmlns="http://www.w3.org/2000/svg" width="349" height="349" viewBox="0 0 349 349"><g transform="translate(-19653 18523)"><rect width="349" height="349" transform="translate(19653 -18523)" fill="none"/><g transform="translate(19702.158 -18480.549)"><g transform="translate(111.807 137.058)"><path d="M134.6,159.646c.094.009.172.009.266.009a9.307,9.307,0,0,0,6.577-2.713l-.79-.8.79.8a2.475,2.475,0,0,1,1.906-.764,2.656,2.656,0,0,1,2.009,1,9.316,9.316,0,0,0,7.126,3.572,2.011,2.011,0,0,0,.223.009,9.309,9.309,0,0,0,6.6-2.722l-.79-.8.8.807a2.815,2.815,0,0,1,1.906-.764,2.625,2.625,0,0,1,2,1l5.306-4.164a9.383,9.383,0,0,0-7.135-3.58,9.5,9.5,0,0,0-6.817,2.7l-.009-.009a2.5,2.5,0,0,1-1.923.773,2.578,2.578,0,0,1-1.983-1l-2.653,2.078L150.663,153a9.33,9.33,0,0,0-7.126-3.572,9.234,9.234,0,0,0-6.826,2.713l-.009-.009a2.622,2.622,0,0,1-3.924-.232l-5.289,4.164a9.318,9.318,0,0,0,7.109,3.58" transform="translate(-125.762 -147.707)" fill="none" stroke="#756f86" stroke-width="3" fill-rule="evenodd"/><g transform="translate(-125.477 -147.425)" fill="none"><path d="M152.422,162.189c-.112,0-.215,0-.326-.009a11.026,11.026,0,0,1-8.38-4.224A.943.943,0,0,0,143,157.6a.705.705,0,0,0-.644.266h0l-.009.009a11.009,11.009,0,0,1-7.779,3.2c-.112,0-.215,0-.326-.009a11.038,11.038,0,0,1-8.4-4.216,1.712,1.712,0,0,1,.283-2.413l5.289-4.164a1.716,1.716,0,0,1,2.4.275.925.925,0,0,0,.661.352.867.867,0,0,0,.713-.275,1.5,1.5,0,0,1,.12-.1,10.821,10.821,0,0,1,8-3.091,11.041,11.041,0,0,1,8.4,4.233l.026.026a.913.913,0,0,0,.661.326.778.778,0,0,0,.67-.275c.052-.052.1-.094.155-.137a11.078,11.078,0,0,1,16.365,1.168,1.72,1.72,0,0,1-.292,2.413L164,159.355a1.694,1.694,0,0,1-1.271.352,1.668,1.668,0,0,1-1.142-.644.9.9,0,0,0-.7-.343,1.142,1.142,0,0,0-.644.266.919.919,0,0,1-.137.12A11.03,11.03,0,0,1,152.422,162.189Zm-5.658-5.941a7.631,7.631,0,0,0,5.469,2.507h.18a7.628,7.628,0,0,0,4.181-1.245,1.719,1.719,0,0,1,2.687-1.906,4.218,4.218,0,0,1,3.658.215l2.73-2.138a7.726,7.726,0,0,0-4.619-1.691A7.615,7.615,0,0,0,155.5,154.2c-.052.052-.1.094-.163.146a4.2,4.2,0,0,1-2.962,1.125,4.4,4.4,0,0,1-2.009-.532l-1.58,1.236A1.758,1.758,0,0,1,146.764,156.247Zm-17-.283a7.649,7.649,0,0,0,4.593,1.683h.223a7.535,7.535,0,0,0,4.156-1.236,1.718,1.718,0,0,1,2.644-1.932,4.508,4.508,0,0,1,1.674-.3,4.384,4.384,0,0,1,3.108,1.365,1.723,1.723,0,0,1,.5-2.069l1.151-.9a7.632,7.632,0,0,0-4.611-1.691,7.531,7.531,0,0,0-5.564,2.215,1.721,1.721,0,0,1-.137.12,4.3,4.3,0,0,1-2.945,1.133h-.094a4.333,4.333,0,0,1-1.966-.524Z" stroke="none"/><path d="M 152.4221801757812 162.1885070800781 C 152.3105621337891 162.1885070800781 152.2075347900391 162.1885070800781 152.0959167480469 162.179931640625 C 148.8418579101562 162.1026611328125 145.7680969238281 160.5571899414062 143.716064453125 157.9556579589844 C 143.5443420410156 157.7410125732422 143.2867736816406 157.6122283935547 143.0034332275391 157.6036376953125 C 142.6342468261719 157.6036376953125 142.5312042236328 157.6894989013672 142.3594970703125 157.8697967529297 L 142.3509063720703 157.8783874511719 C 140.2559509277344 159.9475860595703 137.4912719726562 161.0809173583984 134.5720672607422 161.0809173583984 C 134.46044921875 161.0809173583984 134.357421875 161.0809173583984 134.2458038330078 161.0723419189453 C 130.9573974609375 160.9864807128906 127.8922271728516 159.4496002197266 125.8487930297852 156.8566589355469 C 125.5654525756836 156.4960479736328 125.436653137207 156.0410003662109 125.4881744384766 155.5945281982422 C 125.5397033691406 155.1480560302734 125.7715225219727 154.7273559570312 126.1321182250977 154.4440155029297 L 131.4210510253906 150.2798461914062 C 131.7353515625 150.0313262939453 132.1119537353516 149.9103698730469 132.4858093261719 149.9103698730469 C 132.9902496337891 149.9103698730469 133.4897766113281 150.1305084228516 133.8251037597656 150.5545959472656 C 133.9882354736328 150.7606658935547 134.2286376953125 150.8894500732422 134.4862213134766 150.9066314697266 C 134.9155120849609 150.8894500732422 135.0442962646484 150.7864227294922 135.1988525390625 150.6318664550781 C 135.2332000732422 150.5975341796875 135.276123046875 150.5631866455078 135.3190612792969 150.5288391113281 C 137.3817901611328 148.5389099121094 140.0851593017578 147.4252777099609 142.8179016113281 147.4252777099609 C 142.9857330322266 147.4252777099609 143.1532135009766 147.4294738769531 143.3211212158203 147.4379119873047 C 146.6009521484375 147.5237731933594 149.6746978759766 149.0692291259766 151.7181396484375 151.6707611083984 C 151.7267303466797 151.6793365478516 151.7353210449219 151.6879272460938 151.743896484375 151.6965179443359 C 151.9156188964844 151.8939819335938 152.1474456787109 152.0141906738281 152.4050140380859 152.0227813720703 C 152.7570495605469 152.0227813720703 152.8858337402344 151.9369201660156 153.0747222900391 151.7480316162109 C 153.1262359619141 151.6965179443359 153.1777496337891 151.6535797119141 153.2292633056641 151.6106567382812 C 155.2999267578125 149.6333312988281 158.0671997070312 148.5450286865234 161.0162506103516 148.5450286865234 C 161.0508422851562 148.5450286865234 161.0850677490234 148.5451812744141 161.1197204589844 148.5454711914062 C 164.476806640625 148.6399230957031 167.5505676269531 150.1853942871094 169.5940093994141 152.7783203125 C 170.1778411865234 153.5252990722656 170.0490570068359 154.6071319580078 169.3020935058594 155.1909637451172 L 163.9960021972656 159.3551330566406 C 163.6936340332031 159.5927124023438 163.3248138427734 159.7216339111328 162.9453277587891 159.7216339111328 C 162.8722381591797 159.7216339111328 162.7987823486328 159.7168579101562 162.7252960205078 159.7071533203125 C 162.2702331542969 159.6556396484375 161.8581237792969 159.423828125 161.5833587646484 159.0632171630859 C 161.4202270507812 158.8485717773438 161.1626434326172 158.7283630371094 160.8793182373047 158.7197875976562 C 160.7247772216797 158.7197875976562 160.4070892333984 158.8228149414062 160.2353668212891 158.9859466552734 C 160.1924285888672 159.0288848876953 160.1495056152344 159.0718078613281 160.0979919433594 159.1061553955078 C 158.0202026367188 161.0981140136719 155.2984619140625 162.1885070800781 152.4221801757812 162.1885070800781 Z M 146.7640686035156 156.2470703125 C 148.1721649169922 157.7925262451172 150.1297454833984 158.70263671875 152.2332916259766 158.754150390625 L 152.4136047363281 158.754150390625 C 153.9161376953125 158.754150390625 155.3585662841797 158.3162689208984 156.5949401855469 157.5092010498047 C 156.3888702392578 156.9081878662109 156.5262451171875 156.2041320800781 157.0156555175781 155.7319030761719 C 157.3468170166016 155.4007415771484 157.7815551757812 155.2371063232422 158.2167358398438 155.2371063232422 C 158.5939178466797 155.2371063232422 158.9713897705078 155.3599395751953 159.2823333740234 155.6031188964844 C 159.8060760498047 155.3970489501953 160.3727416992188 155.2854461669922 160.9222412109375 155.2854461669922 C 161.6520538330078 155.3112030029297 162.3389129638672 155.4915161132812 162.93994140625 155.8177642822266 L 165.6702575683594 153.6798706054688 C 164.373779296875 152.6409759521484 162.7682037353516 152.0399627685547 161.051025390625 151.9884490966797 C 161.0273590087891 151.9882507324219 161.0036163330078 151.9881591796875 160.9799957275391 151.9881591796875 C 158.8536834716797 151.9881591796875 156.9564971923828 152.7515411376953 155.4959411621094 154.20361328125 C 155.4444274902344 154.255126953125 155.3929138183594 154.2980651855469 155.3328094482422 154.3495788574219 C 154.5085601806641 155.1051330566406 153.5555114746094 155.4657440185547 152.3706665039062 155.4743194580078 C 151.640869140625 155.4571533203125 150.9625854492188 155.2682647705078 150.361572265625 154.9420013427734 L 148.7817687988281 156.1783752441406 C 148.4676055908203 156.4162292480469 148.0946807861328 156.5321350097656 147.7245483398438 156.5321350097656 C 147.3865661621094 156.5321350097656 147.0509338378906 156.4355773925781 146.7640686035156 156.2470703125 Z M 132.4942932128906 153.8258361816406 L 129.7639617919922 155.9637298583984 C 131.0604248046875 157.0026245117188 132.6660003662109 157.6036376953125 134.357421875 157.6465759277344 C 134.3746032714844 157.6465759277344 134.3831787109375 157.6465759277344 134.4003601074219 157.6465759277344 C 134.4604644775391 157.6465759277344 134.5205688476562 157.6465759277344 134.5806732177734 157.6465759277344 C 136.0746154785156 157.6465759277344 137.5084686279297 157.2172698974609 138.7362518310547 156.4102020263672 C 138.5301818847656 155.8091888427734 138.6761322021484 155.1137237548828 139.1569671630859 154.6415100097656 C 139.4926910400391 154.3105163574219 139.9300384521484 154.1435546875 140.3670349121094 154.1435546875 C 140.7235565185547 154.1435546875 141.079833984375 154.2546234130859 141.3807067871094 154.4783630371094 C 141.8786926269531 154.2808990478516 142.436767578125 154.1778564453125 143.0549621582031 154.1778564453125 C 144.2741546630859 154.2121887207031 145.3731536865234 154.7015991210938 146.1630554199219 155.5430145263672 C 145.8367919921875 154.8389587402344 146.0256805419922 153.9803771972656 146.6610412597656 153.4738006591797 L 147.8115539550781 152.5722808837891 C 146.5150909423828 151.5247955322266 144.9009246826172 150.9237823486328 143.2009124755859 150.880859375 C 143.0973663330078 150.8759765625 142.9934844970703 150.8735504150391 142.8896636962891 150.8735504150391 C 140.9875793457031 150.8735504150391 139.0538635253906 151.6875305175781 137.6372528076172 153.0960235595703 C 137.5943145751953 153.1389617919922 137.5428009033203 153.181884765625 137.4998779296875 153.2162322998047 C 136.6927947998047 153.9546203613281 135.7569274902344 154.3152160644531 134.5549163818359 154.3495788574219 C 134.5205688476562 154.3495788574219 134.4862213134766 154.3495788574219 134.4604644775391 154.3495788574219 C 133.7650146484375 154.3323974609375 133.0953063964844 154.152099609375 132.4942932128906 153.8258361816406 Z" stroke="none" fill="#756f86"/></g></g><g transform="translate(152.943 148.561)"><path d="M182.088,172.076a8.666,8.666,0,0,0,1.245.086,9.421,9.421,0,0,0,5.83-2.035l.009.009a2.622,2.622,0,0,1,3.864.661l5.727-3.555a9.357,9.357,0,0,0-13.78-2.378l.635.8-.644-.807A2.615,2.615,0,0,1,183,165.4a2.585,2.585,0,0,1-1.872-1.211L175.4,167.74a9.273,9.273,0,0,0,6.688,4.336" transform="translate(-173.673 -161.106)" fill="none" stroke="#756f86" stroke-width="3" fill-rule="evenodd"/><g transform="translate(-173.388 -160.823)" fill="none"><path d="M183.049,173.6a10.7,10.7,0,0,1-1.485-.1,11.01,11.01,0,0,1-7.916-5.126,1.712,1.712,0,0,1,.549-2.361l5.727-3.546a1.712,1.712,0,0,1,2.361.549.9.9,0,0,0,.653.412.88.88,0,0,0,.67-.189l.18-.129a11.073,11.073,0,0,1,16.142,2.936,1.712,1.712,0,0,1-.549,2.361l-5.727,3.555a1.723,1.723,0,0,1-1.3.215,1.682,1.682,0,0,1-1.065-.773.855.855,0,0,0-.635-.412.879.879,0,0,0-.7.2,1.743,1.743,0,0,1-.155.112A11.111,11.111,0,0,1,183.049,173.6Zm-5.409-5.692a7.644,7.644,0,0,0,4.387,2.181h.017a7.605,7.605,0,0,0,5.77-1.6,1.23,1.23,0,0,1,.189-.129,4.357,4.357,0,0,1,5-.034l2.945-1.829a7.653,7.653,0,0,0-8.921-1.4,1.72,1.72,0,0,1-2.8,1.6,4.3,4.3,0,0,1-3.64-.61Z" stroke="none"/><path d="M 183.0488891601562 173.6048889160156 C 182.5509033203125 173.6048889160156 182.0529174804688 173.570556640625 181.5635223388672 173.5018615722656 C 178.2751159667969 173.0553894042969 175.3902587890625 171.1922454833984 173.6473083496094 168.3760681152344 C 173.4069061279297 167.9897155761719 173.3296356201172 167.5260620117188 173.4326629638672 167.0796051025391 C 173.5356903076172 166.6331329345703 173.8104400634766 166.2553558349609 174.1968078613281 166.0149536132812 L 179.9236145019531 162.4689636230469 C 180.1980438232422 162.2982177734375 180.511474609375 162.2097625732422 180.8300170898438 162.2097625732422 C 180.9599609375 162.2097625732422 181.0907287597656 162.2244720458984 181.2200775146484 162.2543182373047 C 181.6665496826172 162.3573455810547 182.0443267822266 162.6320953369141 182.2847442626953 163.0184631347656 C 182.422119140625 163.2416839599609 182.6539306640625 163.3876495361328 182.937255859375 163.4305877685547 C 182.9764404296875 163.4363861083984 183.015869140625 163.4392547607422 183.0552825927734 163.4392547607422 C 183.2491149902344 163.4392547607422 183.4428558349609 163.3701171875 183.6069641113281 163.2416839599609 C 183.6670684814453 163.1987609863281 183.7271575927734 163.1558227539062 183.7872772216797 163.1128997802734 C 185.7403564453125 161.6160125732422 188.0723724365234 160.8232879638672 190.4979858398438 160.8232879638672 C 190.9940795898438 160.8232879638672 191.493896484375 160.8564300537109 191.9954071044922 160.9234924316406 C 195.2838134765625 161.3699645996094 198.1772613525391 163.2331085205078 199.9287872314453 166.0492858886719 C 200.169189453125 166.4356536865234 200.2464599609375 166.8992919921875 200.1434326171875 167.3457489013672 C 200.0404052734375 167.7922210693359 199.7656555175781 168.1700134277344 199.3792877197266 168.4104156494141 L 193.6524963378906 171.9649810791016 C 193.3780670166016 172.1357269287109 193.0602874755859 172.2241821289062 192.7423095703125 172.2241973876953 C 192.6125946044922 172.2241973876953 192.4828796386719 172.20947265625 192.3560180664062 172.1796264648438 C 191.9095458984375 172.0765991210938 191.5317687988281 171.8018493652344 191.2913665771484 171.4069061279297 C 191.1539916992188 171.1750793457031 190.9221801757812 171.0291137695312 190.656005859375 170.9947814941406 C 190.6084136962891 170.9886474609375 190.5621490478516 170.9855194091797 190.51708984375 170.9855194091797 C 190.3102416992188 170.9855194091797 190.1282043457031 171.0512542724609 189.9519500732422 171.1922454833984 C 189.9004364013672 171.2351837158203 189.8489227294922 171.2695159912109 189.7974090576172 171.3038787841797 C 187.8655853271484 172.7892150878906 185.4786987304688 173.6048889160156 183.0488891601562 173.6048889160156 Z M 180.5847320556641 166.0922241210938 L 177.6397552490234 167.9124298095703 C 178.8074340820312 169.0886993408203 180.3443145751953 169.8614349365234 182.0271606445312 170.0932464599609 C 182.0357360839844 170.0932464599609 182.0357360839844 170.0932464599609 182.0443267822266 170.0932464599609 C 182.37060546875 170.1361694335938 182.7054443359375 170.1619262695312 183.0488891601562 170.1619262695312 C 184.7660675048828 170.1619262695312 186.4574890136719 169.5695037841797 187.8140716552734 168.4962615966797 C 187.8741760253906 168.4447479248047 187.9428558349609 168.4018249511719 188.0029602050781 168.3674774169922 C 188.7515869140625 167.8357543945312 189.6143798828125 167.5605316162109 190.5074310302734 167.5605316162109 C 190.7102966308594 167.5605316162109 190.9146118164062 167.5747222900391 191.1196441650391 167.6033325195312 C 191.8065185546875 167.6977844238281 192.4504699707031 167.9467620849609 192.9999694824219 168.3331451416016 L 195.9449310302734 166.5043334960938 C 194.7686614990234 165.3194732666016 193.2317810058594 164.5467529296875 191.5403442382812 164.3235168457031 C 191.1946716308594 164.2765502929688 190.8497772216797 164.2534332275391 190.5075378417969 164.2534332275391 C 189.2857055664062 164.2534332275391 188.0973205566406 164.5481414794922 187.024169921875 165.1048431396484 C 187.1186065673828 165.6972808837891 186.9039611816406 166.3240356445312 186.3973999023438 166.7275848388672 C 186.0792999267578 166.9787139892578 185.6999359130859 167.1013031005859 185.3240661621094 167.101318359375 C 184.9288940429688 167.101318359375 184.5375823974609 166.9658508300781 184.2251586914062 166.7018280029297 C 183.8398742675781 166.8085174560547 183.4381561279297 166.8661193847656 183.0342559814453 166.8661193847656 C 182.8531036376953 166.8661193847656 182.6715698242188 166.8545379638672 182.4907989501953 166.8306121826172 C 181.7867584228516 166.7361602783203 181.1428070068359 166.4785766601562 180.5847320556641 166.0922241210938 Z" stroke="none" fill="#756f86"/></g></g><g transform="translate(40.203 74.11)"><g transform="translate(-42.366 -74.393)" fill="none" fill-rule="evenodd"><path d="M66.518,92.964A15.7,15.7,0,0,1,82.2,108.651v24.521c-13.446,2.267-24.65,5.615-31.339,10.02V108.651h-.034A15.692,15.692,0,0,1,66.518,92.964Zm61.406,43.453c47.042,0,77.059,9.771,77.059,16.5,0,5.761-26.47,16.511-77.059,16.511s-77.067-10.75-77.067-16.511c0-4.156,11.488-9.47,31.339-12.93v8.071a9.283,9.283,0,0,0-4.757,2.842l-.009-.009a2.626,2.626,0,0,1-1.872.876,2.833,2.833,0,0,1-2.052-.884l-2.533,2.224,2.524-2.232A9.36,9.36,0,0,0,59.52,150.8l5.006,4.525a2.626,2.626,0,0,1,1.872-.876,2.484,2.484,0,0,1,2.052.893v-.009a9.343,9.343,0,0,0,7.032,3.168c.094,0,.189,0,.283-.009a9.3,9.3,0,0,0,6.663-3.1l.009.009a2.645,2.645,0,0,1,1.88-.876,2.52,2.52,0,0,1,2.052.893,9.351,9.351,0,0,0,7.032,3.177c.094,0,.189-.009.292-.009a9.324,9.324,0,0,0,6.654-3.091l-.833-.756.833.747a2.584,2.584,0,0,1,1.872-.867,2.631,2.631,0,0,1,2.052.884,9.329,9.329,0,0,0,7.015,3.177c.094,0,.2,0,.3-.009a9.5,9.5,0,0,0,6.663-3.082l-4.988-4.533a2.673,2.673,0,0,1-1.889.884,2.523,2.523,0,0,1-2.052-.884A9.158,9.158,0,0,0,102,147.888a9.46,9.46,0,0,0-6.663,3.091l-.009-.009a2.616,2.616,0,0,1-3.924-.017l-2.533,2.224,2.524-2.232A9.367,9.367,0,0,0,88.91,149V138.907A290.507,290.507,0,0,1,127.924,136.417Zm-83.8,16.5c0,15.257,42.157,23.251,83.807,23.251s83.8-7.985,83.8-23.251-42.157-23.242-83.8-23.242c-8.629,0-17.266.352-25.56,1.022V98.536A22.447,22.447,0,0,0,79.955,76.11v6.74A15.709,15.709,0,0,1,95.641,98.536v32.8c-2.267.24-4.5.515-6.688.807v-23.5a22.426,22.426,0,1,0-44.853,0h.034l-.009,44.278Z" stroke="none"/><path d="M 82.95474243164062 79.34147644042969 L 82.95474243164062 80.09054565429688 C 91.8377685546875 81.52967834472656 98.64118957519531 89.25332641601562 98.64118957519531 98.53639221191406 L 98.64118957519531 131.3345947265625 L 98.64118957519531 134.0332641601562 L 95.95758056640625 134.3178405761719 C 93.89483642578125 134.53662109375 91.73326110839844 134.7974700927734 89.34928894042969 135.1153564453125 L 85.95278930664062 135.5682373046875 L 85.95278930664062 132.1416625976562 L 85.95278930664062 108.6420135498047 C 85.95278930664062 97.93025207519531 77.23814392089844 89.21560668945312 66.52638244628906 89.21560668945312 C 56.20625305175781 89.21560668945312 47.73983764648438 97.30534362792969 47.13456726074219 107.4761352539062 L 47.13433837890625 108.6425933837891 L 47.12576293945312 152.9195556640625 C 47.12576293945312 155.4810638427734 49.08892822265625 158.0145416259766 52.96072387695312 160.4495849609375 C 57.13764953613281 163.0765686035156 63.25157165527344 165.3997344970703 71.1326904296875 167.3545684814453 C 78.70500183105469 169.2328033447266 87.59890747070312 170.6941375732422 97.56736755371094 171.6979370117188 C 107.2688903808594 172.6748657226562 117.4853210449219 173.1702270507812 127.9328384399414 173.1702270507812 C 138.3796234130859 173.1702270507812 148.5944366455078 172.6752777099609 158.2935333251953 171.6991271972656 C 168.2616577148438 170.6959228515625 177.1546630859375 169.2352905273438 184.7256011962891 167.3577575683594 C 192.6064147949219 165.4033966064453 198.7199096679688 163.0804138183594 202.8963165283203 160.4533538818359 C 206.7681579589844 158.0178527832031 208.7313232421875 155.4831237792969 208.7313232421875 152.9195556640625 C 208.7313232421875 150.3583068847656 206.7682952880859 147.8253173828125 202.8967895507812 145.3910675048828 C 198.72021484375 142.7649688720703 192.6065979003906 140.4427490234375 184.7257995605469 138.4889526367188 C 177.154541015625 136.6118774414062 168.2614593505859 135.1515197753906 158.2935485839844 134.1484375 C 148.5940093994141 133.1723937988281 138.3791961669922 132.677490234375 127.9328384399414 132.677490234375 C 119.4488372802734 132.677490234375 110.9303436279297 133.0179748535156 102.614013671875 133.6894836425781 L 99.37255859375 133.9512329101562 L 99.37255859375 130.6992340087891 L 99.37255859375 98.53639221191406 C 99.37255859375 88.84521484375 92.24235534667969 80.78868103027344 82.95474243164062 79.34147644042969 M 47.86569213867188 148.7594451904297 L 47.86569213867188 143.1917419433594 L 47.86569213867188 111.6505889892578 L 47.83432006835938 111.6505889892578 L 47.83134460449219 108.653564453125 C 47.82884216308594 106.133544921875 48.32260131835938 103.6860961914062 49.29890441894531 101.3791809082031 C 50.24050903320312 99.15432739257812 51.58833312988281 97.15615844726562 53.30497741699219 95.44015502929688 C 55.02101135253906 93.72480773925781 57.01953125 92.37739562988281 59.24505615234375 91.43537902832031 C 61.551513671875 90.45913696289062 63.9984130859375 89.96414184570312 66.517822265625 89.96414184570312 C 76.82154846191406 89.96414184570312 85.20426940917969 98.34684753417969 85.20426940917969 108.6505889892578 L 85.20426940917969 133.1719665527344 L 85.20426940917969 135.7085571289062 L 82.70298767089844 136.1302337646484 C 68.93341064453125 138.4515075683594 58.49481201171875 141.7597351074219 52.51567077636719 145.6972351074219 L 47.86569213867188 148.7594451904297 M 127.9242477416992 172.4302825927734 C 115.9236907958984 172.4302825927734 104.5771026611328 171.8283538818359 94.19964599609375 170.6412048339844 C 85.03224182128906 169.5924987792969 76.77470397949219 168.1105194091797 69.65631103515625 166.2364959716797 C 63.31980895996094 164.5682983398438 58.0194091796875 162.602783203125 54.32815551757812 160.5524291992188 C 52.46188354492188 159.5158081054688 50.98686218261719 158.4469909667969 49.94398498535156 157.3756713867188 C 48.55924987792969 155.953125 47.85710144042969 154.4538726806641 47.85710144042969 152.9195556640625 C 47.85710144042969 149.4173736572266 51.14431762695312 146.3144836425781 57.90660095214844 143.4336242675781 C 63.76960754394531 140.9358215332031 71.990478515625 138.7228088378906 81.68051147460938 137.0337524414062 L 85.1956787109375 136.4210205078125 L 85.1956787109375 139.9891815185547 L 85.1956787109375 148.0599365234375 L 85.1956787109375 150.423828125 L 82.89736938476562 150.9767303466797 C 82.72648620605469 151.0178375244141 82.55812072753906 151.0658416748047 82.39244079589844 151.12060546875 L 82.97869873046875 151.7052307128906 C 83.35162353515625 151.6086730957031 83.73745727539062 151.5496826171875 84.13140869140625 151.5303497314453 C 84.25299072265625 151.5214538574219 84.37591552734375 151.5169372558594 84.49783325195312 151.5169372558594 C 86.03955078125 151.5169067382812 87.54057312011719 152.2145385742188 88.61904907226562 153.4344482421875 C 89.09771728515625 153.9775543212891 89.65982055664062 154.4290771484375 90.27751159667969 154.7764434814453 L 87.53663635253906 151.6658935546875 C 87.50563049316406 151.6480712890625 87.4742431640625 151.6302490234375 87.44253540039062 151.6124725341797 L 85.90986633300781 150.7530212402344 L 85.90986633300781 148.9958038330078 L 85.90986633300781 138.9073486328125 L 85.90986633300781 136.2891387939453 L 88.50401306152344 135.9349212646484 C 100.7383880615234 134.2644500732422 114.0012664794922 133.4174499511719 127.9242477416992 133.4174499511719 C 139.1914672851562 133.4174499511719 150.0282440185547 133.9723510742188 160.1335754394531 135.0667572021484 C 169.2864685058594 136.0579833984375 177.5885620117188 137.4589538574219 184.8092346191406 139.2306518554688 C 191.4991760253906 140.8721923828125 197.0811767578125 142.8135375976562 200.9518127441406 144.8449249267578 C 202.9859619140625 145.9124755859375 204.5905303955078 147.0261535644531 205.7210083007812 148.1550598144531 C 207.2218170166016 149.65380859375 207.9827880859375 151.2568359375 207.9827880859375 152.9195556640625 C 207.9827880859375 154.4537048339844 207.2808837890625 155.9528503417969 205.8965759277344 157.3753509521484 C 204.8539428710938 158.4467468261719 203.3792114257812 159.515625 201.5133666992188 160.5522766113281 C 197.8228454589844 162.6027221679688 192.5234069824219 164.5682830810547 186.18798828125 166.2364807128906 C 179.0707244873047 168.1105194091797 170.8141174316406 169.5924987792969 161.6475219726562 170.6412048339844 C 151.2709045410156 171.8283538818359 139.9247741699219 172.4302825927734 127.9242477416992 172.4302825927734 M 65.44963073730469 150.7869873046875 C 65.061279296875 150.8511047363281 64.68034362792969 150.9514617919922 64.31143188476562 151.0857849121094 L 64.94636535644531 151.6597290039062 C 65.11163330078125 151.6129608154297 65.279541015625 151.5736694335938 65.44963073730469 151.5420837402344 L 65.44963073730469 150.7869873046875 M 102.3536224365234 150.8819274902344 C 102.2735137939453 150.8819274902344 102.1916961669922 150.8833923339844 102.1105346679688 150.8863067626953 L 102.1077728271484 150.8863983154297 L 102.1050262451172 150.8865051269531 C 100.3767242431641 150.945068359375 98.72233581542969 151.712158203125 97.56607055664062 152.9910888671875 L 95.5587158203125 155.2113647460938 C 96.52890014648438 154.8602142333984 97.40577697753906 154.2733306884766 98.12240600585938 153.4818267822266 L 99.50640869140625 154.7348937988281 L 99.51040649414062 154.7304534912109 L 98.1217041015625 153.4740295410156 C 99.16981506347656 152.3155517578125 100.5992431640625 151.6572570800781 102.1466522216797 151.6204223632812 L 102.1492919921875 151.620361328125 L 102.1519165039062 151.6203002929688 C 102.1945037841797 151.6193542480469 102.2371673583984 151.618896484375 102.2794647216797 151.618896484375 C 103.9086303710938 151.6188507080078 105.4541015625 152.3114471435547 106.5206756591797 153.5202941894531 C 107.7307434082031 154.8932495117188 109.4671936035156 155.6806945800781 111.2847747802734 155.6806945800781 C 111.2985687255859 155.6806945800781 111.312744140625 155.6808013916016 111.3272094726562 155.6808013916016 C 111.3379516601562 155.6808013916016 111.3488464355469 155.6807403564453 111.3598327636719 155.6805114746094 L 111.4098205566406 155.6763610839844 L 111.4832916259766 155.6738586425781 C 112.1592102050781 155.6508483886719 112.8253936767578 155.5184936523438 113.4560089111328 155.2887420654297 L 112.8349456787109 154.7243347167969 C 112.4269714355469 154.8412170410156 112.0039215087891 154.9122924804688 111.5717620849609 154.9347381591797 C 111.4401702880859 154.9453735351562 111.3071746826172 154.9507598876953 111.1750793457031 154.9507598876953 C 109.6541748046875 154.9507598876953 108.1635589599609 154.2615051269531 107.0854644775391 153.0597229003906 L 107.0745086669922 153.0475158691406 L 107.0636901855469 153.0351867675781 C 105.8274993896484 151.6265258789062 104.1987915039062 150.8819274902344 102.3536224365234 150.8819274902344 M 68.73880004882812 151.1231231689453 L 70.70024108886719 153.3486175537109 C 71.17744445800781 153.8900451660156 71.739013671875 154.3401184082031 72.35697937011719 154.6862182617188 L 69.5496826171875 151.5002746582031 C 69.28834533691406 151.3557434082031 69.01722717285156 151.2296447753906 68.73880004882812 151.1231231689453 M 82.16929626464844 151.1990203857422 C 81.21687316894531 151.5540313720703 80.36349487304688 152.1355590820312 79.67092895507812 152.9065856933594 L 77.71125793457031 155.0883026123047 C 78.65283203125 154.7336730957031 79.50302124023438 154.1556854248047 80.19960021972656 153.3832397460938 L 82.16929626464844 151.1990203857422 M 73.90548706054688 154.5267639160156 L 73.25239562988281 155.1001586914062 C 73.95736694335938 155.3620300292969 74.71144104003906 155.5003967285156 75.48150634765625 155.5003967285156 C 75.49378967285156 155.5003967285156 75.50607299804688 155.50048828125 75.51837158203125 155.50048828125 C 75.52371215820312 155.50048828125 75.52906799316406 155.5004577636719 75.534423828125 155.5004272460938 L 75.5789794921875 155.4963684082031 L 75.66455078125 155.4934997558594 C 76.28974914550781 155.4725952148438 76.89703369140625 155.3635406494141 77.47309875488281 155.1725769042969 L 76.88890075683594 154.5899963378906 C 76.49359130859375 154.6923522949219 76.08416748046875 154.7522277832031 75.66586303710938 154.7671508789062 L 75.63160705566406 154.7683715820312 L 75.59732055664062 154.7688293457031 C 75.57527160644531 154.7691040039062 75.55302429199219 154.7692260742188 75.53086853027344 154.7692260742188 C 74.98471069335938 154.7692260742188 74.43455505371094 154.6846923828125 73.90548706054688 154.5267639160156 M 91.78547668457031 154.614501953125 L 91.14097595214844 155.1803283691406 C 91.84898376464844 155.4490509033203 92.60638427734375 155.5923004150391 93.37948608398438 155.5948181152344 L 93.4068603515625 155.5936584472656 C 93.46029663085938 155.5912780761719 93.53579711914062 155.5879211425781 93.62564086914062 155.5867309570312 C 94.23435974121094 155.563232421875 94.82647705078125 155.4557037353516 95.38897705078125 155.2700653076172 L 94.78466796875 154.6657409667969 C 94.38948059082031 154.7687835693359 93.9818115234375 154.8294677734375 93.56877136230469 154.8443908691406 L 93.54595947265625 154.84521484375 L 93.52317810058594 154.8456878662109 C 93.48176574707031 154.8465576171875 93.44017028808594 154.8470153808594 93.39895629882812 154.8470153808594 C 92.84587097167969 154.8470153808594 92.30300903320312 154.7672271728516 91.78547668457031 154.614501953125 M 79.95474243164062 76.11000061035156 C 92.31846618652344 76.11000061035156 102.37255859375 86.17268371582031 102.37255859375 98.53639221191406 L 102.37255859375 130.6992340087891 C 110.6665496826172 130.0295104980469 119.3039855957031 129.677490234375 127.9328384399414 129.677490234375 C 169.5744934082031 129.677490234375 211.7313232421875 137.6623992919922 211.7313232421875 152.9195556640625 C 211.7313232421875 168.1853332519531 169.5745086669922 176.1702270507812 127.9328384399414 176.1702270507812 C 86.28257751464844 176.1702270507812 44.12576293945312 168.1767272949219 44.12576293945312 152.9195556640625 L 44.13433837890625 108.6420135498047 L 44.0999755859375 108.6420135498047 C 44.0999755859375 96.27830505371094 54.16267395019531 86.21560668945312 66.52638244628906 86.21560668945312 C 78.89010620117188 86.21560668945312 88.95278930664062 96.27830505371094 88.95278930664062 108.6420135498047 L 88.95278930664062 132.1416625976562 C 91.14219665527344 131.8497314453125 93.37452697753906 131.5749816894531 95.64118957519531 131.3345947265625 L 95.64118957519531 98.53639221191406 C 95.64118957519531 89.890380859375 88.60076904296875 82.84992980957031 79.95474243164062 82.84992980957031 L 79.95474243164062 76.11000061035156 Z M 50.86569213867188 143.1917419433594 C 57.55412292480469 138.7871398925781 68.75872802734375 135.4386291503906 82.20426940917969 133.1719665527344 L 82.20426940917969 108.6505889892578 C 82.20426940917969 100.0045928955078 75.17240905761719 92.96414184570312 66.517822265625 92.96414184570312 C 57.86322021484375 92.96414184570312 50.82276916503906 99.99600219726562 50.83134460449219 108.6505889892578 L 50.86569213867188 108.6505889892578 L 50.86569213867188 143.1917419433594 Z M 127.9242477416992 169.4302825927734 C 178.5124359130859 169.4302825927734 204.9827880859375 158.6807250976562 204.9827880859375 152.9195556640625 C 204.9827880859375 146.1882019042969 174.9664306640625 136.4174499511719 127.9242477416992 136.4174499511719 C 113.10498046875 136.4174499511719 99.97709655761719 137.396240234375 88.90986633300781 138.9073486328125 L 88.90986633300781 148.9958038330078 C 89.82855224609375 149.5109710693359 90.67855834960938 150.129150390625 91.39976501464844 150.9447937011719 L 88.87550354003906 153.1771545410156 L 91.40837097167969 150.9534301757812 C 91.91032409667969 151.5306396484375 92.62403869628906 151.8470153808594 93.39897155761719 151.8470153808594 C 93.41935729980469 151.8470153808594 93.43991088867188 151.8468017578125 93.46038818359375 151.8463439941406 C 94.17303466796875 151.8205871582031 94.851318359375 151.5115051269531 95.33212280273438 150.9705657958984 L 95.34071350097656 150.9791564941406 C 97.04072570800781 149.0988311767578 99.47053527832031 147.9740600585938 102.0033874511719 147.8882141113281 C 102.1206512451172 147.8840026855469 102.2373352050781 147.8819274902344 102.3536224365234 147.8819274902344 C 105.0897369384766 147.8819274902344 107.5478668212891 149.0386352539062 109.3185729980469 151.0564270019531 C 109.7967681884766 151.5894775390625 110.4896392822266 151.9507598876953 111.1750793457031 151.9507598876953 C 111.2403869628906 151.9507598876953 111.3056335449219 151.9474792480469 111.37060546875 151.9407653808594 C 112.1004180908203 151.9150085449219 112.7615356445312 151.5973205566406 113.2595062255859 151.0564270019531 L 118.2479400634766 155.5897827148438 C 116.5307159423828 157.4700927734375 114.1095275878906 158.5862579345703 111.5852661132812 158.672119140625 C 111.4822387695312 158.6806945800781 111.3791961669922 158.6806945800781 111.2847747802734 158.6806945800781 C 108.5973663330078 158.6806945800781 106.0559387207031 157.5301818847656 104.2700500488281 155.5039215087891 C 103.7681427001953 154.93505859375 103.0544281005859 154.6188812255859 102.2795562744141 154.618896484375 C 102.2591247558594 154.618896484375 102.2385559082031 154.6191253662109 102.2180328369141 154.6195678710938 C 101.4968109130859 154.6367340087891 100.835693359375 154.9458312988281 100.3463134765625 155.4867248535156 L 99.51348876953125 154.7397766113281 L 100.3463134765625 155.4953308105469 C 98.62055969238281 157.4014282226562 96.25938415527344 158.5003967285156 93.69221496582031 158.5862731933594 C 93.58920288085938 158.5862731933594 93.4947509765625 158.5948486328125 93.40029907226562 158.5948486328125 C 90.704345703125 158.5948486328125 88.15431213378906 157.4443359375 86.36843872070312 155.4180603027344 C 85.88656616210938 154.8730163574219 85.19403076171875 154.5169067382812 84.49794006347656 154.5169525146484 C 84.43743896484375 154.5169525146484 84.37681579589844 154.5196533203125 84.31640625 154.525146484375 C 83.59516906738281 154.5508728027344 82.92547607421875 154.8599853515625 82.43609619140625 155.4009094238281 L 82.42750549316406 155.392333984375 C 80.69314575195312 157.3155670166016 78.33203125 158.4059753417969 75.76484680175781 158.4918212890625 C 75.67039489746094 158.5003967285156 75.575927734375 158.5003967285156 75.48150634765625 158.5003967285156 C 72.78553771972656 158.5003967285156 70.23550415039062 157.3584899902344 68.44963073730469 155.3322143554688 L 68.44963073730469 155.3407897949219 C 67.97140502929688 154.7998352050781 67.29275512695312 154.4378356933594 66.59663391113281 154.4378662109375 C 66.53042602539062 154.4378662109375 66.46397399902344 154.4411315917969 66.39759826660156 154.4478454589844 C 65.6763916015625 154.4736175537109 65.01524353027344 154.78271484375 64.52589416503906 155.3236389160156 L 59.52029418945312 150.7988586425781 C 61.22029113769531 148.9185485839844 63.65010070800781 147.7851867675781 66.18295288085938 147.7079162597656 C 66.27978515625 147.7049255371094 66.37605285644531 147.7034301757812 66.47261047363281 147.7034301757812 C 69.14181518554688 147.7034301757812 71.70005798339844 148.8460388183594 73.49815368652344 150.8761291503906 L 70.97390747070312 153.1084442138672 L 73.50674438476562 150.8847045898438 C 74.01493835449219 151.4606628417969 74.84898376464844 151.7692413330078 75.53085327148438 151.7692413330078 C 75.54017639160156 151.7692413330078 75.54949951171875 151.7691802978516 75.55876159667969 151.7690734863281 C 76.28001403808594 151.7433013916016 76.94110107421875 151.4342041015625 77.43048095703125 150.893310546875 L 77.43907165527344 150.9018859863281 C 78.72698974609375 149.4680480957031 80.37545776367188 148.4978332519531 82.1956787109375 148.0599365234375 L 82.1956787109375 139.9891815185547 C 62.34504699707031 143.4493103027344 50.85710144042969 148.7639923095703 50.85710144042969 152.9195556640625 C 50.85710144042969 158.6807098388672 77.3360595703125 169.4302825927734 127.9242477416992 169.4302825927734 Z" stroke="none" fill="#756f86"/></g><g transform="translate(-42.08 -74.11)" fill="none"><path d="M127.639,177.6c-41.187,0-85.524-7.813-85.524-24.968V108.694a1.384,1.384,0,0,1-.034-.335,24.144,24.144,0,0,1,48.287,0V129.9c1.065-.137,2.146-.266,3.254-.386V98.254A13.987,13.987,0,0,0,79.652,84.284a1.722,1.722,0,0,1-1.717-1.717v-6.74a1.722,1.722,0,0,1,1.717-1.717,24.164,24.164,0,0,1,24.135,24.144v30.308c7.8-.584,15.807-.884,23.843-.884,41.187,0,85.516,7.813,85.516,24.959S168.825,177.6,127.639,177.6ZM45.557,152.714c.155,12.235,35.391,21.456,82.09,21.456,46.793,0,82.081-9.256,82.081-21.533s-35.288-21.525-82.081-21.525c-8.577,0-17.137.343-25.423,1.022a1.7,1.7,0,0,1-1.305-.446,1.715,1.715,0,0,1-.549-1.262V98.262A20.733,20.733,0,0,0,81.386,77.63v3.314A17.43,17.43,0,0,1,97.073,98.262v32.8a1.72,1.72,0,0,1-1.537,1.709c-2.3.249-4.533.515-6.637.8a1.7,1.7,0,0,1-1.357-.412,1.732,1.732,0,0,1-.584-1.3v-23.5a20.706,20.706,0,0,0-41.41-.318,1.894,1.894,0,0,1,.034.318v44.269A.123.123,0,0,0,45.557,152.714Zm82.081,18.151c-28.582,0-47.283-3.348-57.946-6.156-6.268-1.648-20.838-6.13-20.838-12.08,0-8.268,25.079-13.282,32.764-14.622a1.714,1.714,0,0,1,2.009,1.691v8.071a1.709,1.709,0,0,1-1.314,1.666,7.493,7.493,0,0,0-3.872,2.318c-.043.052-.094.094-.146.146a4.33,4.33,0,0,1-2.954,1.3,4.607,4.607,0,0,1-1.983-.429l-1.52,1.339a1.713,1.713,0,0,1-2,.189,7.684,7.684,0,0,0,5.426,2.2h.146a7.642,7.642,0,0,0,5.469-2.533,1.038,1.038,0,0,1,.137-.137,4.364,4.364,0,0,1,2.919-1.3,4.17,4.17,0,0,1,3.16,1.185,1.712,1.712,0,0,1,.378-2.095l1.065-.944c-.232-.155-.472-.309-.738-.455a1.711,1.711,0,0,1-.876-1.494V138.633a1.72,1.72,0,0,1,1.477-1.7,286.85,286.85,0,0,1,39.22-2.524c41.968,0,78.776,8.517,78.776,18.219,0,5.95-14.57,10.423-20.838,12.08C174.921,167.525,156.221,170.865,127.639,170.865ZM80.2,141.758c-20.829,3.872-27.9,9.05-27.9,10.878,0,1.236,4.6,5.152,18.279,8.758,10.466,2.756,28.857,6.036,57.071,6.036s46.6-3.28,57.062-6.036c13.677-3.6,18.279-7.521,18.279-8.758,0-1.666-5.315-5.607-19.584-9.1-14.922-3.658-34.73-5.675-55.765-5.675a287.7,287.7,0,0,0-37.271,2.284v7.624a10.423,10.423,0,0,1,2.061,1.777l.034.034a.888.888,0,0,0,.687.275.908.908,0,0,0,.635-.3.8.8,0,0,1,.12-.12,11.144,11.144,0,0,1,7.77-3.537,10.835,10.835,0,0,1,8.663,3.752.817.817,0,0,0,.592.309c.034,0,.069-.009.112-.009a.947.947,0,0,0,.678-.326,1.7,1.7,0,0,1,2.421-.112l4.988,4.533a1.722,1.722,0,0,1,.112,2.43,11.208,11.208,0,0,1-7.873,3.64c-.1.009-.232.009-.352.009a11.028,11.028,0,0,1-8.3-3.761.883.883,0,0,0-.713-.3.847.847,0,0,0-.6.266c-.017.017-.026.034-.043.043a11.042,11.042,0,0,1-7.873,3.658l-.343.009a11.086,11.086,0,0,1-8.32-3.752.827.827,0,0,0-.61-.318c-.034,0-.06.009-.094.009a.961.961,0,0,0-.67.309l-.1.1a11,11,0,0,1-7.77,3.546c-.094.009-.215.009-.343.009a11.092,11.092,0,0,1-8.242-3.666l-.077-.077a.808.808,0,0,0-.6-.318c-.034,0-.077.009-.112.009a.891.891,0,0,0-.653.309,1.746,1.746,0,0,1-1.185.567,1.715,1.715,0,0,1-1.236-.438L58.119,151.8a1.746,1.746,0,0,1-.567-1.185A1.686,1.686,0,0,1,58,149.383a11.086,11.086,0,0,1,16.536.094.118.118,0,0,1,.026.034,1.179,1.179,0,0,0,.73.283.908.908,0,0,0,.61-.318l.1-.1a11.018,11.018,0,0,1,4.207-2.842v-4.774Zm21.8,10.87a4.346,4.346,0,0,1,3.28,1.468,7.643,7.643,0,0,0,5.778,2.593h.163a7.782,7.782,0,0,0,4.164-1.382l-2.55-2.318a4.333,4.333,0,0,1-5.083-1.056,7.491,7.491,0,0,0-5.967-2.593,7.692,7.692,0,0,0-5.443,2.524l-.129.129a4.312,4.312,0,0,1-4.963.893l-1.5,1.322a1.726,1.726,0,0,1-2.018.189,7.644,7.644,0,0,0,5.383,2.215l.249-.009a7.547,7.547,0,0,0,4.276-1.485,1.714,1.714,0,0,1,2.541-2.069,4.3,4.3,0,0,1,1.709-.4A.253.253,0,0,1,102,152.628Zm-35.683-.189a4.215,4.215,0,0,1,2.876,1.193,1.712,1.712,0,0,1,.378-2.095l1.09-.962a7.537,7.537,0,0,0-4.688-1.425,7.631,7.631,0,0,0-4.147,1.382l2.567,2.318a4.423,4.423,0,0,1,1.64-.395A1.524,1.524,0,0,1,66.318,152.439ZM50.58,144.626a1.717,1.717,0,0,1-1.717-1.717V108.694a1.384,1.384,0,0,1-.034-.335,17.4,17.4,0,0,1,34.807,0v24.521a1.715,1.715,0,0,1-1.434,1.691c-13.926,2.344-24.539,5.718-30.686,9.762A1.629,1.629,0,0,1,50.58,144.626Zm1.683-36.576a1.9,1.9,0,0,1,.026.318V139.9c6.439-3.46,15.978-6.354,27.9-8.457v-23.07a13.967,13.967,0,0,0-27.93-.318Zm29.656,24.839h0Z" stroke="none"/><path d="M 127.6386032104492 177.6045837402344 C 86.45198059082031 177.6045837402344 42.11434173583984 169.7913818359375 42.11434173583984 152.6367492675781 C 42.11434173583984 152.6109771728516 42.11434173583984 152.5766296386719 42.11434173583984 152.5508575439453 L 42.11434173583984 108.6940307617188 C 42.08857727050781 108.5910110473633 42.08000564575195 108.4793853759766 42.08000564575195 108.3591995239258 C 42.08000564575195 95.04243469238281 52.90684127807617 84.21559906005859 66.22357940673828 84.21559906005859 C 79.54034423828125 84.21559906005859 90.36717224121094 95.05103302001953 90.36717224121094 108.3591995239258 L 90.36717224121094 129.9012145996094 C 91.43181610107422 129.7638702392578 92.51364898681641 129.6350860595703 93.62122344970703 129.514892578125 L 93.62122344970703 98.25357818603516 C 93.62122344970703 90.55200958251953 87.35350799560547 84.28429412841797 79.65196228027344 84.28429412841797 C 78.70750427246094 84.28429412841797 77.93476867675781 83.51155853271484 77.93476867675781 82.56710052490234 L 77.93476867675781 75.82717132568359 C 77.93476867675781 74.88269805908203 78.70750427246094 74.1099853515625 79.65196228027344 74.1099853515625 C 92.96010589599609 74.1099853515625 103.7869338989258 84.93681335449219 103.7869338989258 98.25357818603516 L 103.7869338989258 128.5618133544922 C 111.5829620361328 127.9780044555664 119.5936050415039 127.6774826049805 127.6300277709961 127.6774826049805 C 168.8166198730469 127.6774826049805 213.1456909179688 135.4906768798828 213.1456909179688 152.6367492675781 C 213.154296875 169.7913818359375 168.8252258300781 177.6045837402344 127.6386032104492 177.6045837402344 Z M 66.24931335449219 87.64998626708984 C 54.94167327880859 87.64998626708984 45.72041320800781 96.76821899414062 45.54869842529297 108.0415344238281 C 45.56586456298828 108.1445541381836 45.58303070068359 108.2475814819336 45.58303070068359 108.3591995239258 L 45.58303070068359 152.628173828125 C 45.55729293823242 152.6625061035156 45.55729293823242 152.6882629394531 45.55729293823242 152.7140350341797 C 45.71184158325195 164.9489288330078 80.94843292236328 174.1702270507812 127.6472015380859 174.1702270507812 C 174.4404144287109 174.1702270507812 209.7285003662109 164.9145965576172 209.7285003662109 152.6367492675781 C 209.7285003662109 140.3674774169922 174.4404144287109 131.1118621826172 127.6472015380859 131.1118621826172 C 119.0698623657227 131.1118621826172 110.5096969604492 131.4552917480469 102.2243194580078 132.1336059570312 C 102.1736907958984 132.1381225585938 102.1231231689453 132.1403503417969 102.0728149414062 132.1403656005859 C 101.6453399658203 132.1403656005859 101.2342071533203 131.9790344238281 100.9192428588867 131.6871337890625 C 100.5672225952148 131.3608703613281 100.369743347168 130.9057922363281 100.369743347168 130.4249877929688 L 100.369743347168 98.26217651367188 C 100.369743347168 87.42674255371094 91.99848175048828 78.5059814453125 81.38629150390625 77.63021850585938 L 81.38629150390625 80.94438934326172 C 90.17826843261719 81.81157684326172 97.07274627685547 89.24696350097656 97.07274627685547 98.26217651367188 L 97.07274627685547 131.0603332519531 C 97.07274627685547 131.9360961914062 96.41165161132812 132.6745147705078 95.53586578369141 132.7689666748047 C 93.23484039306641 133.0179290771484 91.00251007080078 133.2841339111328 88.89895629882812 133.5674285888672 C 88.82228851318359 133.5782012939453 88.74539184570312 133.5834808349609 88.6688232421875 133.5834808349609 C 88.25668334960938 133.5834808349609 87.85373687744141 133.4304656982422 87.54238891601562 133.1553192138672 C 87.17319488525391 132.8290557861328 86.95855712890625 132.3568115234375 86.95855712890625 131.8588409423828 L 86.95855712890625 108.3591995239258 C 86.95855712890625 96.93993377685547 77.6685791015625 87.64998626708984 66.24931335449219 87.64998626708984 Z M 127.6386032104492 170.8646545410156 C 99.05609893798828 170.8646545410156 80.35597991943359 167.5161437988281 69.69229125976562 164.7085571289062 C 63.42457962036133 163.06005859375 48.85429382324219 158.5782012939453 48.85429382324219 152.6281433105469 C 48.85429382324219 144.3599395751953 73.93372344970703 139.3457489013672 81.61812591552734 138.00634765625 C 81.71532440185547 137.9895782470703 81.81324768066406 137.9813232421875 81.91066741943359 137.9813232421875 C 82.31237030029297 137.9813232421875 82.70668029785156 138.1215515136719 83.01762390136719 138.3841247558594 C 83.40398406982422 138.7104187011719 83.62722015380859 139.1911926269531 83.62722015380859 139.6977996826172 L 83.62722015380859 147.7685241699219 C 83.62722015380859 148.5584411621094 83.08631896972656 149.2538909912109 82.31357574462891 149.4342041015625 C 80.81105804443359 149.7947998046875 79.47164916992188 150.5933227539062 78.44133758544922 151.7523956298828 C 78.39841461181641 151.8039093017578 78.34688568115234 151.8468475341797 78.29536437988281 151.8983459472656 C 77.50548553466797 152.6968383789062 76.45798492431641 153.1604766845703 75.34181976318359 153.19482421875 C 75.32370758056641 153.1950378417969 75.30549621582031 153.1951599121094 75.28738403320312 153.1951599121094 C 74.61866760253906 153.1951751708984 73.95200347900391 153.0413970947266 73.35845947265625 152.7655334472656 L 71.83876800537109 154.1049194335938 C 71.51476287841797 154.3896636962891 71.10923004150391 154.5312347412109 70.70587158203125 154.5312652587891 C 70.40378570556641 154.5312957763672 70.10296630859375 154.4519195556641 69.83824920654297 154.2938232421875 C 71.28070068359375 155.7104797363281 73.20393371582031 156.4918212890625 75.26455688476562 156.4918212890625 C 75.31605529785156 156.4918212890625 75.3590087890625 156.4918212890625 75.41050720214844 156.4918212890625 C 77.53121948242188 156.423095703125 79.46305847167969 155.5216064453125 80.87972259521484 153.9589538574219 C 80.92267608642578 153.9074554443359 80.96559906005859 153.864501953125 81.01710510253906 153.8216094970703 C 81.79843902587891 153.0316925048828 82.82874298095703 152.5766296386719 83.93631744384766 152.5251312255859 C 84.03018188476562 152.5180206298828 84.12416839599609 152.5144958496094 84.21810913085938 152.5144958496094 C 85.25834655761719 152.5144958496094 86.29270935058594 152.9461364746094 87.09593963623047 153.7099761962891 C 86.72674560546875 153.0231018066406 86.86412811279297 152.1559295654297 87.47372436523438 151.6150360107422 L 88.53836822509766 150.6705474853516 C 88.30655670166016 150.5160369873047 88.06614685058594 150.3614654541016 87.79998016357422 150.2154998779297 C 87.25907897949219 149.9149780273438 86.92422485351562 149.3397521972656 86.92422485351562 148.7215576171875 L 86.92422485351562 138.6331024169922 C 86.92422485351562 137.7745361328125 87.55957794189453 137.0532989501953 88.40100860595703 136.9330749511719 C 100.4470291137695 135.2588348388672 113.6435775756836 134.4088439941406 127.6214370727539 134.4088439941406 C 169.5893859863281 134.4088439941406 206.3971710205078 142.9260864257812 206.3971710205078 152.6281433105469 C 206.3971710205078 158.5781707763672 191.8268890380859 163.0514373779297 185.5591735839844 164.7085113525391 C 174.9212188720703 167.5247192382812 156.2211303710938 170.8646545410156 127.6386032104492 170.8646545410156 Z M 80.20146179199219 141.7583923339844 C 59.37203216552734 145.6306304931641 52.29724502563477 150.8079376220703 52.29724502563477 152.6367492675781 C 52.29724502563477 153.8731079101562 56.8992919921875 157.7882995605469 70.57665252685547 161.3943634033203 C 81.04286193847656 164.1504669189453 99.43389129638672 167.4302673339844 127.6472015380859 167.4302673339844 C 155.8605041503906 167.4302673339844 174.2515258789062 164.1504364013672 184.7091674804688 161.3943634033203 C 198.3865356445312 157.7968902587891 202.9885864257812 153.8731079101562 202.9885864257812 152.6367492675781 C 202.9885864257812 150.9710845947266 197.6739196777344 147.0301208496094 183.4041290283203 143.5356750488281 C 168.4817962646484 139.8780822753906 148.6741333007812 137.8603820800781 127.6386260986328 137.8603820800781 C 114.3905792236328 137.8603820800781 101.8637237548828 138.6331024169922 90.36719512939453 140.1442413330078 L 90.36719512939453 147.7685241699219 C 91.16567230224609 148.3008575439453 91.84395599365234 148.8847045898438 92.42779541015625 149.5458221435547 C 92.43638610839844 149.5543823242188 92.45355224609375 149.5715789794922 92.46215057373047 149.5801544189453 C 92.63491821289062 149.7611541748047 92.86289215087891 149.8554534912109 93.11580657958984 149.8554534912109 C 93.12684631347656 149.8554534912109 93.13790130615234 149.8552703857422 93.14903259277344 149.8549194335938 C 93.38084411621094 149.8463439941406 93.6126708984375 149.7432861328125 93.78438568115234 149.5543823242188 C 93.81871795654297 149.5114898681641 93.86164855957031 149.4685363769531 93.90457916259766 149.4342041015625 C 95.90510559082031 147.2791442871094 98.72986602783203 145.9912719726562 101.6748428344727 145.8968200683594 C 101.8140182495117 145.8918151855469 101.952766418457 145.8893280029297 102.0909805297852 145.8893280029297 C 105.2781295776367 145.8893280029297 108.1984634399414 147.2130432128906 110.3380279541016 149.6488342285156 C 110.5142288208008 149.8490905761719 110.7502212524414 149.9596557617188 110.8996200561523 149.9596557617188 C 110.9103698730469 149.9596557617188 110.9206619262695 149.9590911865234 110.9304580688477 149.9579315185547 C 110.9647903442383 149.9579315185547 110.999153137207 149.9493713378906 111.0420761108398 149.9493713378906 C 111.2996520996094 149.9407958984375 111.5314559936523 149.8291778564453 111.7203674316406 149.6231079101562 C 112.0572357177734 149.2498016357422 112.5220642089844 149.0599365234375 112.9880905151367 149.0599365234375 C 113.401008605957 149.0599365234375 113.8148651123047 149.2089691162109 114.1415786743164 149.5114898681641 L 119.1300048828125 154.0448455810547 C 119.46484375 154.3539428710938 119.6709136962891 154.7832183837891 119.6880798339844 155.2382659912109 C 119.7052459716797 155.6933441162109 119.5506973266602 156.1397857666016 119.2416000366211 156.4746551513672 C 117.2239151000977 158.6898193359375 114.3476486206055 160.0206298828125 111.3683395385742 160.1150817871094 C 111.2652969360352 160.1236572265625 111.1365051269531 160.1236572265625 111.0162963867188 160.1236572265625 C 107.8395309448242 160.1236572265625 104.8087005615234 158.7585144042969 102.7137222290039 156.363037109375 C 102.5403823852539 156.1649017333984 102.303466796875 156.06201171875 102.0336380004883 156.06201171875 C 102.022834777832 156.06201171875 102.0120162963867 156.0621795654297 102.001106262207 156.0625 C 101.7692718505859 156.0711059570312 101.5632247924805 156.1569671630859 101.4000778198242 156.3286743164062 C 101.3829116821289 156.3458404541016 101.3743438720703 156.3630065917969 101.3571472167969 156.3715972900391 C 99.313720703125 158.6296997070312 96.51469421386719 159.9261779785156 93.48388671875 160.0292053222656 L 93.14043426513672 160.0377960205078 C 89.95505523681641 160.0377960205078 86.92424774169922 158.6726226806641 84.82070159912109 156.2857513427734 C 84.62385559082031 156.0561065673828 84.3800048828125 155.9674835205078 84.23135375976562 155.9674835205078 C 84.22438049316406 155.9674835205078 84.21764373779297 155.9676666259766 84.21110534667969 155.9680480957031 C 84.17674255371094 155.9680480957031 84.15098571777344 155.9766540527344 84.11665344238281 155.9766540527344 C 83.85905456542969 155.9852142333984 83.62724304199219 156.0968475341797 83.44693756103516 156.2857513427734 C 83.41260528564453 156.3200836181641 83.37827301025391 156.3544311523438 83.34391021728516 156.3887634277344 C 81.30905151367188 158.5781707763672 78.56155395507812 159.8402862548828 75.57364654541016 159.9347381591797 C 75.47922515869141 159.9433441162109 75.3590087890625 159.9433441162109 75.230224609375 159.9433441162109 C 72.0877685546875 159.9433441162109 69.09129333496094 158.6125335693359 66.98774719238281 156.2771453857422 C 66.96198272705078 156.2513885498047 66.93624877929688 156.2256317138672 66.91048431396484 156.1998596191406 C 66.71214294433594 155.9777679443359 66.4844970703125 155.8802337646484 66.34265899658203 155.8802337646484 C 66.33098602294922 155.8802337646484 66.31990814208984 155.8808898925781 66.30946350097656 155.8822021484375 C 66.27512359619141 155.8822021484375 66.23220062255859 155.8907623291016 66.19783782958984 155.8907623291016 C 65.94026947021484 155.8993682861328 65.72562408447266 156.0024108886719 65.54531860351562 156.1998596191406 C 65.23622131347656 156.5347290039062 64.81550598144531 156.7407989501953 64.36045837402344 156.7665557861328 C 64.32915496826172 156.7683258056641 64.29783630371094 156.7692108154297 64.26664733886719 156.7692108154297 C 63.84445190429688 156.7692260742188 63.43590545654297 156.6085052490234 63.12410354614258 156.3286743164062 L 58.11850738525391 151.8038940429688 C 57.78364944458008 151.4947967529297 57.57760238647461 151.0740814208984 57.55184173583984 150.6190338134766 C 57.52607727050781 150.1639862060547 57.6892204284668 149.7175140380859 57.99831771850586 149.3826446533203 C 60.02457809448242 147.1503143310547 62.89226913452148 145.8195343017578 65.88017272949219 145.7336578369141 C 66.00514221191406 145.7294158935547 66.13050079345703 145.7273101806641 66.25502777099609 145.7273101806641 C 69.41587829589844 145.7273101806641 72.42008209228516 147.0815734863281 74.53476715087891 149.4770965576172 C 74.54336547851562 149.4857025146484 74.55193328857422 149.4942626953125 74.56053161621094 149.5114288330078 C 74.71508026123047 149.6659851074219 75.04134368896484 149.7947998046875 75.29034423828125 149.7947998046875 C 75.49639129638672 149.7861938476562 75.71962738037109 149.6745758056641 75.89993286132812 149.4770965576172 C 75.93427276611328 149.4427642822266 75.9686279296875 149.4084167480469 76.00296020507812 149.3740844726562 C 77.17922210693359 148.1033630371094 78.61307525634766 147.1331481933594 80.21005249023438 146.5321502685547 L 80.21005249023438 141.7583923339844 L 80.20146179199219 141.7583923339844 Z M 102.0010757446289 152.6281433105469 C 103.2717895507812 152.6281433105469 104.4566497802734 153.1604766845703 105.280891418457 154.0963592529297 C 106.7405090332031 155.7534332275391 108.8182907104492 156.6893005371094 111.0592193603516 156.6893005371094 C 111.1107482910156 156.6893005371094 111.1708374023438 156.6893005371094 111.2223434448242 156.6893005371094 C 112.7248916625977 156.6377868652344 114.175910949707 156.1483917236328 115.3865280151367 155.3069763183594 L 112.8365097045898 152.9888000488281 C 112.3299331665039 153.2292022705078 111.771842956543 153.3665618896484 111.1965789794922 153.3923187255859 C 111.0983276367188 153.4004516601562 110.9996109008789 153.4044647216797 110.900749206543 153.4044647216797 C 109.7469177246094 153.4044799804688 108.5681915283203 152.8579864501953 107.7536468505859 151.9327239990234 C 106.2683563232422 150.2494049072266 104.2594680786133 149.3352661132812 102.0551300048828 149.3352661132812 C 101.9658126831055 149.3352661132812 101.8763732910156 149.3367614746094 101.7864379882812 149.3397674560547 C 99.70864868164062 149.4084625244141 97.72529602050781 150.3271484375 96.34295654296875 151.8640289306641 C 96.30003356933594 151.9069671630859 96.25710296630859 151.9498901367188 96.21417236328125 151.9928131103516 C 95.42427062988281 152.7998809814453 94.37679290771484 153.2635345458984 93.24343872070312 153.3064575195312 C 93.20676422119141 153.3073577880859 93.1700439453125 153.3078155517578 93.13343048095703 153.3078155517578 C 92.47569274902344 153.3078308105469 91.8289794921875 153.1622772216797 91.25151062011719 152.8857421875 L 89.74898529052734 154.2079620361328 C 89.42178344726562 154.49609375 89.01676177978516 154.6369934082031 88.61300659179688 154.6370086669922 C 88.30691528320312 154.6370086669922 88.00156402587891 154.5560455322266 87.73129272460938 154.3968353271484 C 89.15655517578125 155.8135375976562 91.09696197509766 156.6120147705078 93.11464691162109 156.6120147705078 L 93.3636474609375 156.6034393310547 C 94.92629241943359 156.5519409179688 96.40305328369141 156.0367736816406 97.63943481445312 155.1180725097656 C 97.39903259277344 154.5256500244141 97.50205230712891 153.8216094970703 97.95712280273438 153.3236236572266 C 98.29467010498047 152.9508056640625 98.76233673095703 152.7583160400391 99.23168182373047 152.7583160400391 C 99.56217956542969 152.7583160400391 99.89350128173828 152.8537445068359 100.1808624267578 153.0488586425781 C 100.7131958007812 152.7998809814453 101.2884368896484 152.6625061035156 101.8894577026367 152.6453399658203 C 101.9238204956055 152.6281433105469 101.9667434692383 152.6281433105469 102.0010757446289 152.6281433105469 Z M 69.19432067871094 153.6326904296875 C 68.82510375976562 152.9458465576172 68.96248626708984 152.0786437988281 69.57208251953125 151.5377502441406 L 70.66250610351562 150.5761260986328 C 69.37819671630859 149.6494903564453 67.83985137939453 149.1460723876953 66.24436950683594 149.1460723876953 C 66.15457153320312 149.1460723876953 66.06470489501953 149.1476593017578 65.97457885742188 149.1508636474609 C 64.48921966552734 149.1937866210938 63.03822326660156 149.6831665039062 61.82760238647461 150.533203125 L 64.39476776123047 152.8513946533203 C 64.90134429931641 152.6195831298828 65.45943450927734 152.4821929931641 66.03469848632812 152.4564361572266 C 66.12055206298828 152.4392700195312 66.22357940673828 152.4392700195312 66.31803131103516 152.4392700195312 C 67.35691070556641 152.4392700195312 68.38722229003906 152.8685607910156 69.19432067871094 153.6326904296875 Z M 50.58005523681641 144.6260986328125 C 50.29672241210938 144.6260986328125 50.0219612121582 144.5574188232422 49.76438903808594 144.4200286865234 C 49.20629501342773 144.1195373535156 48.86286544799805 143.5356750488281 48.86286544799805 142.9089050292969 L 48.86286544799805 108.6940536499023 C 48.83712768554688 108.5910339355469 48.82852935791016 108.4794158935547 48.82852935791016 108.3591995239258 C 48.82852935791016 103.7142486572266 50.64015197753906 99.34400939941406 53.92855453491211 96.05558013916016 C 57.21696090698242 92.76717376708984 61.58719635009766 90.95558166503906 66.232177734375 90.95558166503906 C 75.83122253417969 90.95558166503906 83.63581848144531 98.76017761230469 83.63581848144531 108.3591995239258 L 83.63581848144531 132.8805541992188 C 83.63581848144531 133.7219543457031 83.02619934082031 134.4346008300781 82.20195770263672 134.5719909667969 C 68.27562713623047 136.9159393310547 57.66343688964844 140.2901916503906 51.51591110229492 144.3341674804688 C 51.23257827758789 144.5316467285156 50.90631866455078 144.6260986328125 50.58005523681641 144.6260986328125 Z M 66.22357940673828 94.39850616455078 C 62.49729156494141 94.39850616455078 58.99424362182617 95.84953308105469 56.34976959228516 98.49398040771484 C 53.79119873046875 101.0611724853516 52.34017562866211 104.4440307617188 52.26288986206055 108.0501022338867 C 52.28005599975586 108.1531295776367 52.28865051269531 108.2561721801758 52.28865051269531 108.367790222168 L 52.28865051269531 139.895263671875 C 58.72808074951172 136.4351196289062 68.26702880859375 133.5417022705078 80.19286346435547 131.4381256103516 L 80.19286346435547 108.367790222168 C 80.19286346435547 100.6662216186523 73.92514801025391 94.39850616455078 66.22357940673828 94.39850616455078 Z M 81.91862487792969 132.8891448974609 L 81.92722320556641 132.8891448974609 L 81.91862487792969 132.8891448974609 Z" stroke="none" fill="#756f86"/></g></g><g transform="translate(28.81 153.341)"><path d="M214.549,168.39c0,12.321-23.182,26.711-88.5,26.711s-88.5-14.39-88.5-26.711H30.81c0,20.95,35.606,33.451,95.235,33.451s95.244-12.5,95.244-33.451h-6.74" transform="translate(-29.093 -166.673)" fill="none" stroke="#756f86" stroke-width="3" fill-rule="evenodd"/><g transform="translate(-28.81 -166.39)" fill="none"><path d="M125.762,203.266c-29.45,0-53.851-3.1-70.55-8.964-17.275-6.07-26.4-15.128-26.4-26.2a1.722,1.722,0,0,1,1.717-1.717h6.731a1.722,1.722,0,0,1,1.717,1.717c0,12.441,26.831,24.994,86.786,24.994s86.786-12.553,86.786-24.994a1.722,1.722,0,0,1,1.717-1.717h6.74a1.722,1.722,0,0,1,1.717,1.717c0,11.076-9.135,20.134-26.41,26.2C179.613,200.167,155.212,203.266,125.762,203.266ZM32.339,169.824c1.185,10.947,13.557,17.567,24.015,21.242,16.339,5.735,40.345,8.775,69.409,8.775s53.07-3.031,69.417-8.775c10.466-3.675,22.839-10.295,24.015-21.242h-3.34c-1.923,13.222-26.342,26.711-90.1,26.711S37.585,183.047,35.67,169.824Z" stroke="none"/><path d="M 125.7621154785156 203.2664794921875 C 96.31243133544922 203.2664794921875 71.91127014160156 200.1669769287109 55.21169281005859 194.3027954101562 C 37.93682479858398 188.2325439453125 28.81000900268555 179.1744384765625 28.81000900268555 168.1071624755859 C 28.81000900268555 167.1627502441406 29.58274459838867 166.3900146484375 30.52719306945801 166.3900146484375 L 37.2585334777832 166.3900146484375 C 38.20298385620117 166.3900146484375 38.9757194519043 167.1627502441406 38.9757194519043 168.1071624755859 C 38.9757194519043 180.5481719970703 65.80669403076172 193.1007690429688 125.7621154785156 193.1007690429688 C 185.717529296875 193.1007690429688 212.5485076904297 180.5481719970703 212.5485076904297 168.1071624755859 C 212.5485076904297 167.1627502441406 213.3212127685547 166.3900146484375 214.2656860351562 166.3900146484375 L 221.0056457519531 166.3900146484375 C 221.9500885009766 166.3900146484375 222.7228240966797 167.1627502441406 222.7228240966797 168.1071624755859 C 222.7228240966797 179.1830139160156 213.58740234375 188.2411346435547 196.3125610351562 194.3027954101562 C 179.6129608154297 200.1669769287109 155.2117919921875 203.2664794921875 125.7621154785156 203.2664794921875 Z M 32.33879852294922 169.8243713378906 C 33.52366638183594 180.7714080810547 45.89595413208008 187.3911437988281 56.35361480712891 191.0659332275391 C 72.69258880615234 196.8013000488281 96.69879913330078 199.8407135009766 125.7621154785156 199.8407135009766 C 154.8340148925781 199.8407135009766 178.8316192626953 196.8098754882812 195.17919921875 191.0659332275391 C 205.6454315185547 187.3911437988281 218.0177459716797 180.7714080810547 219.1939849853516 169.8243713378906 L 215.8540649414062 169.8243713378906 C 213.9308166503906 183.0466613769531 189.5124816894531 196.5351409912109 125.7535095214844 196.5351409912109 C 61.99453353881836 196.5351409912109 37.58479690551758 183.0466613769531 35.67013931274414 169.8243713378906 L 32.33879852294922 169.8243713378906 Z" stroke="none" fill="#756f86"/></g></g></g></g></svg>