<svg xmlns="http://www.w3.org/2000/svg" width="349" height="349" viewBox="0 0 349 349"><g transform="translate(-19245 19282)"><rect width="349" height="349" transform="translate(19245 -19282)" fill="none"/><g transform="translate(19277.604 -19249.24)"><g fill="none"><path d="M117.92,150.29H94.82a2.85,2.85,0,0,1,0-5.7h23.1a2.85,2.85,0,0,1,0,5.7Z" stroke="none"/><path d="M 117.9199981689453 150.2899932861328 L 94.82000732421875 150.2899932861328 C 93.11000823974609 150.2899932861328 91.97000885009766 149.1499938964844 91.97000885009766 147.4399871826172 C 91.97000885009766 145.72998046875 93.11000823974609 144.5899810791016 94.82000732421875 144.5899810791016 L 117.9199981689453 144.5899810791016 C 119.629997253418 144.5899810791016 120.7699966430664 145.72998046875 120.7699966430664 147.4399871826172 C 120.7699966430664 149.1499938964844 119.629997253418 150.2899932861328 117.9199981689453 150.2899932861328 Z" stroke="none" fill="#756f86"/></g><g fill="none"><path d="M255.11,228.72H28.65a3.507,3.507,0,0,1-2.28-1.14,2.8,2.8,0,0,1-.29-2.57l31.66-78.43a2.745,2.745,0,0,1,2.57-1.71H71.72a2.85,2.85,0,0,1,0,5.7h-9.7L32.93,223.01h217.9l-29.38-72.73h-9.7a2.85,2.85,0,0,1,0-5.7h11.41a2.5,2.5,0,0,1,2.57,1.71l31.66,78.43a2.647,2.647,0,0,1-.29,2.57A2.134,2.134,0,0,1,255.11,228.72Z" stroke="none"/><path d="M 255.1099853515625 228.7200012207031 L 28.64999008178711 228.7200012207031 C 27.78998947143555 228.7200012207031 26.93999099731445 228.1499938964844 26.3699893951416 227.5799865722656 C 25.80002403259277 226.7200012207031 25.80002403259277 225.8699951171875 26.07999038696289 225.0099945068359 L 57.739990234375 146.5799865722656 C 58.30998992919922 145.4399871826172 59.16999053955078 144.8699951171875 60.30998992919922 144.8699951171875 L 71.71999359130859 144.8699951171875 C 73.42999267578125 144.8699951171875 74.56999206542969 146.0099945068359 74.56999206542969 147.7200012207031 C 74.56999206542969 149.4299926757812 73.42999267578125 150.5699920654297 71.71999359130859 150.5699920654297 L 62.02002334594727 150.5699920654297 L 32.92998886108398 223.0099945068359 L 250.8299865722656 223.0099945068359 L 221.4499969482422 150.2799987792969 L 211.7499847412109 150.2799987792969 C 210.0399932861328 150.2799987792969 208.8999938964844 149.1399993896484 208.8999938964844 147.4299926757812 C 208.8999938964844 145.7200012207031 210.0399932861328 144.5799865722656 211.7499847412109 144.5799865722656 L 223.1599884033203 144.5799865722656 C 224.2999877929688 144.5799865722656 225.4399871826172 145.1499938964844 225.7299957275391 146.2899932861328 L 257.3899841308594 224.7200012207031 C 257.6799926757812 225.5799865722656 257.6799926757812 226.7200012207031 257.0999755859375 227.2900238037109 C 256.8200378417969 228.1499938964844 255.9600219726562 228.7200012207031 255.1099853515625 228.7200012207031 Z" stroke="none" fill="#756f86"/></g><g fill="none"><path d="M191.22,150.29H165.55a2.85,2.85,0,1,1,0-5.7h25.67a2.85,2.85,0,0,1,0,5.7Z" stroke="none"/><path d="M 191.2200012207031 150.2899932861328 L 165.5500030517578 150.2899932861328 C 163.8399963378906 150.2899932861328 162.6999969482422 149.1499938964844 162.6999969482422 147.4399871826172 C 162.6999969482422 145.72998046875 163.8399963378906 144.5899810791016 165.5500030517578 144.5899810791016 L 191.2200012207031 144.5899810791016 C 192.9300079345703 144.5899810791016 194.0700073242188 145.72998046875 194.0700073242188 147.4399871826172 C 194.0700073242188 149.1499938964844 192.9299926757812 150.2899932861328 191.2200012207031 150.2899932861328 Z" stroke="none" fill="#756f86"/></g><g fill="none"><path d="M141.88,189.36a2.523,2.523,0,0,1-2.28-1.43c-1.14-2-29.95-45.92-29.95-62.75a32.23,32.23,0,0,1,64.46,0c0,16.83-28.52,60.75-29.95,62.75A2.135,2.135,0,0,1,141.88,189.36Zm0-90.41a26.651,26.651,0,0,0-26.52,26.52c0,11.41,17.4,41.36,26.52,55.9,9.13-14.55,26.52-44.49,26.52-55.9A26.658,26.658,0,0,0,141.88,98.95Z" stroke="none"/><path d="M 141.8800048828125 189.3600006103516 C 141.0200042724609 189.3600006103516 139.8800048828125 188.7899932861328 139.6000061035156 187.9300079345703 C 138.4600067138672 185.9300079345703 109.6500015258789 142.010009765625 109.6500015258789 125.1800155639648 C 109.6500015258789 107.5000152587891 124.2000198364258 92.95001220703125 141.8800048828125 92.95001220703125 C 159.5599975585938 92.95001220703125 174.1100006103516 107.5000152587891 174.1100006103516 125.1800155639648 C 174.1100006103516 142.010009765625 145.5899810791016 185.9300079345703 144.1600036621094 187.9300079345703 C 143.8699951171875 189.0800018310547 142.7299957275391 189.3600006103516 141.8800048828125 189.3600006103516 Z M 141.8800048828125 98.94999694824219 C 127.3300018310547 98.94999694824219 115.3600082397461 110.9300003051758 115.3600082397461 125.4700012207031 C 115.3600082397461 136.8800048828125 132.7599945068359 166.8300018310547 141.8800048828125 181.3699951171875 C 151.010009765625 166.8199920654297 168.4000091552734 136.8799896240234 168.4000091552734 125.4700012207031 C 168.3999938964844 110.9300003051758 156.4199981689453 98.94999694824219 141.8800048828125 98.94999694824219 Z" stroke="none" fill="#756f86"/></g><g fill="none"><path d="M141.88,136.31a12.26,12.26,0,1,1,12.26-12.26A12.166,12.166,0,0,1,141.88,136.31Zm0-19.11a6.56,6.56,0,1,0,6.56,6.56A6.452,6.452,0,0,0,141.88,117.2Z" stroke="none"/><path d="M 141.8800048828125 136.3099975585938 C 135.0299987792969 136.3099975585938 129.6200103759766 130.8899993896484 129.6200103759766 124.0499954223633 C 129.6200103759766 117.1999969482422 135.0400085449219 111.7899932861328 141.8800048828125 111.7899932861328 C 148.7300109863281 111.7899932861328 154.1399993896484 117.2099990844727 154.1399993896484 124.0499954223633 C 154.1399993896484 130.8899993896484 148.7200012207031 136.3099975585938 141.8800048828125 136.3099975585938 Z M 141.8800048828125 117.1999969482422 C 138.1699981689453 117.1999969482422 135.3200073242188 120.0499954223633 135.3200073242188 123.7599945068359 C 135.3200073242188 127.4699935913086 138.1700134277344 130.3199920654297 141.8800048828125 130.3199920654297 C 145.5900115966797 130.3199920654297 148.4400024414062 127.4699935913086 148.4400024414062 123.7599945068359 C 148.4400024414062 120.0599975585938 145.5800018310547 117.1999969482422 141.8800048828125 117.1999969482422 Z" stroke="none" fill="#756f86"/></g><g fill="none"><path d="M82.84,158.27a2.693,2.693,0,0,1-2.85-2.85V120.34a2.85,2.85,0,0,1,5.7,0v35.08A3.065,3.065,0,0,1,82.84,158.27Z" stroke="none"/><path d="M 82.83999633789062 158.2700042724609 C 81.12999725341797 158.2700042724609 79.98999786376953 157.1300048828125 79.98999786376953 155.4199981689453 L 79.98999786376953 120.3399963378906 C 79.98999786376953 118.629997253418 81.12999725341797 117.4899978637695 82.83999633789062 117.4899978637695 C 84.54999542236328 117.4899978637695 85.68999481201172 118.629997253418 85.68999481201172 120.3399963378906 L 85.68999481201172 155.4199981689453 C 85.69001007080078 156.8500061035156 84.260009765625 158.2700042724609 82.83999633789062 158.2700042724609 Z" stroke="none" fill="#756f86"/></g><g fill="none"><path d="M82.84,135.17a22.25,22.25,0,1,1,22.25-22.25A22.28,22.28,0,0,1,82.84,135.17Zm0-38.79a16.54,16.54,0,1,0,16.54,16.54A16.553,16.553,0,0,0,82.84,96.38Z" stroke="none"/><path d="M 82.83999633789062 135.1699981689453 C 70.57999420166016 135.1699981689453 60.58999633789062 125.1899948120117 60.58999633789062 112.9199981689453 C 60.58999633789062 100.6500015258789 70.56999969482422 90.66999816894531 82.83999633789062 90.66999816894531 C 95.10999298095703 90.66999816894531 105.0899963378906 100.6500015258789 105.0899963378906 112.9199981689453 C 105.0899963378906 125.1899948120117 95.09999847412109 135.1699981689453 82.83999633789062 135.1699981689453 Z M 82.83999633789062 96.37999725341797 C 73.70999908447266 96.37999725341797 66.29999542236328 103.7999954223633 66.29999542236328 112.9199981689453 C 66.29999542236328 122.0400009155273 73.71999359130859 129.4599914550781 82.83999633789062 129.4599914550781 C 91.95999908447266 129.4599914550781 99.37999725341797 122.0400009155273 99.37999725341797 112.9199905395508 C 99.37999725341797 103.7999877929688 91.95999908447266 96.37999725341797 82.83999633789062 96.37999725341797 Z" stroke="none" fill="#756f86"/></g><g fill="none"><path d="M97.67,160.56H68.01a2.85,2.85,0,0,1,0-5.7H97.67a2.85,2.85,0,0,1,0,5.7Z" stroke="none"/><path d="M 97.66999816894531 160.5599975585938 L 68.010009765625 160.5599975585938 C 66.30000305175781 160.5599975585938 65.16000366210938 159.4199981689453 65.16000366210938 157.7099914550781 C 65.16000366210938 155.9999847412109 66.30000305175781 154.8599853515625 68.010009765625 154.8599853515625 L 97.66999816894531 154.8599853515625 C 99.37999725341797 154.8599853515625 100.5199966430664 155.9999847412109 100.5199966430664 157.7099914550781 C 100.5199966430664 159.4199981689453 99.37999725341797 160.5599975585938 97.66999816894531 160.5599975585938 Z" stroke="none" fill="#756f86"/></g><g fill="none"><path d="M201.2,158.27a2.693,2.693,0,0,1-2.85-2.85V120.34a2.85,2.85,0,0,1,5.7,0v35.08A2.853,2.853,0,0,1,201.2,158.27Z" stroke="none"/><path d="M 201.1999969482422 158.2700042724609 C 199.489990234375 158.2700042724609 198.3499908447266 157.1300048828125 198.3499908447266 155.4199981689453 L 198.3499908447266 120.3399963378906 C 198.3499908447266 118.629997253418 199.489990234375 117.4899978637695 201.1999969482422 117.4899978637695 C 202.9100036621094 117.4899978637695 204.0500030517578 118.629997253418 204.0500030517578 120.3399963378906 L 204.0500030517578 155.4199981689453 C 204.0500030517578 156.8500061035156 202.9100036621094 158.2700042724609 201.1999969482422 158.2700042724609 Z" stroke="none" fill="#756f86"/></g><g fill="none"><path d="M201.2,135.17a22.25,22.25,0,1,1,22.25-22.25A22.28,22.28,0,0,1,201.2,135.17Zm0-38.79a16.54,16.54,0,1,0,16.54,16.54A16.553,16.553,0,0,0,201.2,96.38Z" stroke="none"/><path d="M 201.1999969482422 135.1699981689453 C 188.9400024414062 135.1699981689453 178.9499969482422 125.1899948120117 178.9499969482422 112.9199981689453 C 178.9499969482422 100.6500015258789 188.9299926757812 90.66999816894531 201.1999969482422 90.66999816894531 C 213.4700012207031 90.66999816894531 223.4499969482422 100.6500015258789 223.4499969482422 112.9199981689453 C 223.4499969482422 125.1899948120117 213.4600067138672 135.1699981689453 201.1999969482422 135.1699981689453 Z M 201.1999969482422 96.37999725341797 C 192.0699920654297 96.37999725341797 184.6600036621094 103.7999954223633 184.6600036621094 112.9199981689453 C 184.6600036621094 122.0400009155273 192.0800018310547 129.4599914550781 201.2000122070312 129.4599914550781 C 210.3300170898438 129.4599914550781 217.7400207519531 122.0400009155273 217.7400207519531 112.9199905395508 C 217.7400207519531 103.7999877929688 210.3300018310547 96.37999725341797 201.1999969482422 96.37999725341797 Z" stroke="none" fill="#756f86"/></g><g fill="none"><path d="M216.03,160.56H186.37a2.85,2.85,0,0,1,0-5.7h29.66a2.85,2.85,0,1,1,0,5.7Z" stroke="none"/><path d="M 216.0299987792969 160.5599975585938 L 186.3699951171875 160.5599975585938 C 184.6599884033203 160.5599975585938 183.5199890136719 159.4199981689453 183.5199890136719 157.7099914550781 C 183.5199890136719 155.9999847412109 184.6599884033203 154.8599853515625 186.3699951171875 154.8599853515625 L 216.0299987792969 154.8599853515625 C 217.7400054931641 154.8599853515625 218.8800048828125 155.9999847412109 218.8800048828125 157.7099914550781 C 218.8800048828125 159.4199981689453 217.7400054931641 160.5599975585938 216.0299987792969 160.5599975585938 Z" stroke="none" fill="#756f86"/></g><g fill="none"><path d="M183.52,82.12a18.281,18.281,0,0,1-7.99-1.71c-9.13.86-16.54-3.71-16.54-9.98,0-3.99,3.14-7.42,8.27-9.13,2-3.99,7.42-6.56,13.69-6.56,7.99,0,14.55,4.28,14.55,9.98v1.43a8.078,8.078,0,0,1,2.57,5.7C198.06,77.84,191.5,82.12,183.52,82.12Zm-7.42-7.41a2.548,2.548,0,0,1,1.43.29,14.439,14.439,0,0,0,6.27,1.43c4.85,0,8.84-2.28,8.84-4.28a3.454,3.454,0,0,0-1.71-2.57,2.788,2.788,0,0,1-.86-3.71,1.045,1.045,0,0,0,.29-.86c0-2-3.71-4.28-8.84-4.28-4.56,0-8.27,2-8.84,3.99a2.427,2.427,0,0,1-2.28,2c-3.42.86-5.42,2.57-5.42,3.99,0,2,3.71,4.28,8.84,4.28a6.354,6.354,0,0,0,2.28-.28Z" stroke="none"/><path d="M 183.5200042724609 82.12001037597656 C 180.6699981689453 82.12001037597656 177.8200073242188 81.55001068115234 175.5299987792969 80.41001129150391 C 174.78662109375 80.48002624511719 174.0533752441406 80.51405334472656 173.3358764648438 80.51409149169922 C 165.2411804199219 80.51454925537109 158.989990234375 76.18949890136719 158.989990234375 70.43000793457031 C 158.989990234375 66.44001007080078 162.1299896240234 63.010009765625 167.2599945068359 61.30000686645508 C 169.2599945068359 57.31000900268555 174.6799926757812 54.74000930786133 180.9499969482422 54.74000930786133 C 188.9400024414062 54.74000930786133 195.5 59.0200080871582 195.5 64.72000122070312 C 195.5 65.29000091552734 195.5 65.57999420166016 195.5 66.15000152587891 C 197.2100067138672 67.86000061035156 198.0700073242188 69.86000061035156 198.0700073242188 71.84999847412109 C 198.0599975585938 77.83999633789062 191.5 82.12001037597656 183.5200042724609 82.12001037597656 Z M 176.1000061035156 74.70999908447266 C 176.6700134277344 74.70999908447266 176.9600067138672 74.70999908447266 177.5299987792969 75 C 179.2400054931641 75.86000061035156 181.5200042724609 76.43000030517578 183.8000030517578 76.43000030517578 C 188.6500091552734 76.43000030517578 192.6399993896484 74.15000152587891 192.6399993896484 72.15000152587891 C 192.6399993896484 71.29000091552734 192.0699920654297 70.43999481201172 190.9299926757812 69.57999420166016 C 189.7899932861328 68.72000122070312 189.2199859619141 67.00999450683594 190.0699920654297 65.8699951171875 C 190.3599853515625 65.57999420166016 190.3599853515625 65.30001068115234 190.3599853515625 65.00999450683594 C 190.3599853515625 63.0099983215332 186.6499786376953 60.73000717163086 181.5199890136719 60.73000717163086 C 176.9599914550781 60.73000717163086 173.2499847412109 62.73000717163086 172.6799926757812 64.72000122070312 C 172.3899993896484 65.86000061035156 171.5399932861328 66.72000122070312 170.3999938964844 66.72000122070312 C 166.9799957275391 67.57999420166016 164.9799957275391 69.29000091552734 164.9799957275391 70.70999908447266 C 164.9799957275391 72.70999908447266 168.6900024414062 74.98999786376953 173.8199920654297 74.98999786376953 C 174.6799926757812 74.98999786376953 175.25 74.98999786376953 176.1000061035156 74.70999908447266 Z M 176.1000061035156 74.70999908447266 C 175.9600067138672 74.70999908447266 175.8900146484375 74.70999908447266 175.8900146484375 74.70999908447266 C 175.8900146484375 74.70999908447266 175.9600067138672 74.70999908447266 176.1000061035156 74.70999908447266 Z" stroke="none" fill="#756f86"/></g><g transform="translate(-81)"><g fill="none"><path d="M183.52,82.12a18.281,18.281,0,0,1-7.99-1.71c-9.13.86-16.54-3.71-16.54-9.98,0-3.99,3.14-7.42,8.27-9.13,2-3.99,7.42-6.56,13.69-6.56,7.99,0,14.55,4.28,14.55,9.98v1.43a8.078,8.078,0,0,1,2.57,5.7C198.06,77.84,191.5,82.12,183.52,82.12Zm-7.42-7.41a2.548,2.548,0,0,1,1.43.29,14.439,14.439,0,0,0,6.27,1.43c4.85,0,8.84-2.28,8.84-4.28a3.454,3.454,0,0,0-1.71-2.57,2.788,2.788,0,0,1-.86-3.71,1.045,1.045,0,0,0,.29-.86c0-2-3.71-4.28-8.84-4.28-4.56,0-8.27,2-8.84,3.99a2.427,2.427,0,0,1-2.28,2c-3.42.86-5.42,2.57-5.42,3.99,0,2,3.71,4.28,8.84,4.28a6.354,6.354,0,0,0,2.28-.28Z" stroke="none"/><path d="M 183.5200042724609 82.12001037597656 C 180.6699981689453 82.12001037597656 177.8200073242188 81.55001068115234 175.5299987792969 80.41001129150391 C 174.78662109375 80.48002624511719 174.0533752441406 80.51405334472656 173.3358764648438 80.51409149169922 C 165.2411804199219 80.51454925537109 158.989990234375 76.18949890136719 158.989990234375 70.43000793457031 C 158.989990234375 66.44001007080078 162.1299896240234 63.010009765625 167.2599945068359 61.30000686645508 C 169.2599945068359 57.31000900268555 174.6799926757812 54.74000930786133 180.9499969482422 54.74000930786133 C 188.9400024414062 54.74000930786133 195.5 59.0200080871582 195.5 64.72000122070312 C 195.5 65.29000091552734 195.5 65.57999420166016 195.5 66.15000152587891 C 197.2100067138672 67.86000061035156 198.0700073242188 69.86000061035156 198.0700073242188 71.84999847412109 C 198.0599975585938 77.83999633789062 191.5 82.12001037597656 183.5200042724609 82.12001037597656 Z M 176.1000061035156 74.70999908447266 C 176.6700134277344 74.70999908447266 176.9600067138672 74.70999908447266 177.5299987792969 75 C 179.2400054931641 75.86000061035156 181.5200042724609 76.43000030517578 183.8000030517578 76.43000030517578 C 188.6500091552734 76.43000030517578 192.6399993896484 74.15000152587891 192.6399993896484 72.15000152587891 C 192.6399993896484 71.29000091552734 192.0699920654297 70.43999481201172 190.9299926757812 69.57999420166016 C 189.7899932861328 68.72000122070312 189.2199859619141 67.00999450683594 190.0699920654297 65.8699951171875 C 190.3599853515625 65.57999420166016 190.3599853515625 65.30001068115234 190.3599853515625 65.00999450683594 C 190.3599853515625 63.0099983215332 186.6499786376953 60.73000717163086 181.5199890136719 60.73000717163086 C 176.9599914550781 60.73000717163086 173.2499847412109 62.73000717163086 172.6799926757812 64.72000122070312 C 172.3899993896484 65.86000061035156 171.5399932861328 66.72000122070312 170.3999938964844 66.72000122070312 C 166.9799957275391 67.57999420166016 164.9799957275391 69.29000091552734 164.9799957275391 70.70999908447266 C 164.9799957275391 72.70999908447266 168.6900024414062 74.98999786376953 173.8199920654297 74.98999786376953 C 174.6799926757812 74.98999786376953 175.25 74.98999786376953 176.1000061035156 74.70999908447266 Z M 176.1000061035156 74.70999908447266 C 175.9600067138672 74.70999908447266 175.8900146484375 74.70999908447266 175.8900146484375 74.70999908447266 C 175.8900146484375 74.70999908447266 175.9600067138672 74.70999908447266 176.1000061035156 74.70999908447266 Z" stroke="none" fill="#756f86"/></g></g><g fill="none"><path d="M142.73,197.63c-16.54,0-33.08-4.56-33.08-13.12,0-5.99,8.27-10.84,22.25-12.55a2.869,2.869,0,0,1,.57,5.71c-11.98,1.43-17.4,5.13-17.4,6.85,0,2.28,9.41,7.42,27.38,7.42s27.38-5.13,27.38-7.42c0-1.71-5.7-5.7-19.11-6.85a2.886,2.886,0,0,1-2.57-3.14,3.109,3.109,0,0,1,3.14-2.57c11.69,1.14,24.24,5.13,24.24,12.55C175.82,193.07,159.27,197.63,142.73,197.63Z" stroke="none"/><path d="M 142.7299957275391 197.6300048828125 C 126.1900024414062 197.6300048828125 109.6500015258789 193.0700073242188 109.6500015258789 184.510009765625 C 109.6500015258789 178.5200042724609 117.9199981689453 173.6700134277344 131.8999938964844 171.9600067138672 C 132.0486450195312 171.9298706054688 132.1974029541016 171.9152679443359 132.3445739746094 171.9152679443359 C 133.6132202148438 171.9152679443359 134.7801361083984 172.9977569580078 135.0399932861328 174.5300140380859 C 135.3299865722656 175.9600067138672 134.1799926757812 177.3800201416016 132.4699859619141 177.6700134277344 C 120.489990234375 179.1000061035156 115.0699844360352 182.8000183105469 115.0699844360352 184.52001953125 C 115.0699844360352 186.8000183105469 124.4799880981445 191.9400177001953 142.4499816894531 191.9400177001953 C 160.4199829101562 191.9400177001953 169.8299865722656 186.8100128173828 169.8299865722656 184.52001953125 C 169.8299865722656 182.8100128173828 164.1299896240234 178.8200225830078 150.7199859619141 177.6700134277344 C 149.2899932861328 177.3800201416016 147.8699798583984 176.2400207519531 148.1499786376953 174.5300140380859 C 148.4399719238281 173.1000213623047 149.5799713134766 171.9600067138672 151.2899780273438 171.9600067138672 C 162.97998046875 173.1000061035156 175.5299835205078 177.0900115966797 175.5299835205078 184.510009765625 C 175.8200073242188 193.0700073242188 159.2700042724609 197.6300048828125 142.7299957275391 197.6300048828125 Z" stroke="none" fill="#756f86"/></g></g></g></svg>