<svg xmlns="http://www.w3.org/2000/svg" width="349" height="349" viewBox="0 0 349 349"><g transform="translate(-16092 18139)"><rect width="349" height="349" transform="translate(16092 -18139)" fill="none"/><g transform="translate(16148.166 -18087.109)"><g transform="translate(17.84 40.001)"><g transform="translate(-18.213 -40.372)" fill="none"><path d="M22.26,116.288h3.852v74.948a2.419,2.419,0,0,0,2.418,2.418H42.186a2.418,2.418,0,1,0,0-4.837H30.949V116.3H197.995a2.418,2.418,0,0,0,0-4.837H24.687V102.8H213.515v8.664h-3.852a2.419,2.419,0,0,0-2.418,2.418v74.948H196.008a2.418,2.418,0,0,0,0,4.837h13.656a2.419,2.419,0,0,0,2.418-2.418V116.3h3.852a2.419,2.419,0,0,0,2.418-2.418v-13.5a2.419,2.419,0,0,0-2.418-2.418H165.48c.008-.122.016-.236.016-.358V75.044a14.209,14.209,0,0,0-3.33-9.136h0a9.429,9.429,0,0,1-2.2-6.026V50.134a8.069,8.069,0,0,0-7.418-8.119,7.843,7.843,0,0,0-5.953,2.133,7.972,7.972,0,0,0-2.508,5.8v9.918a9.368,9.368,0,0,1-2.2,6.026,14.271,14.271,0,0,0-3.331,9.136V97.584c0,.122.008.236.016.358H59.987v-.3a15.716,15.716,0,0,0-13.273-15.5V79.6a2.418,2.418,0,1,0-4.837,0v2.532A15.717,15.717,0,0,0,28.6,97.649v.3H22.268a2.419,2.419,0,0,0-2.418,2.418v13.5A2.407,2.407,0,0,0,22.26,116.288Zm121.152-18.7V75.027a9.368,9.368,0,0,1,2.2-6.026,14.271,14.271,0,0,0,3.331-9.136V49.939a3.1,3.1,0,0,1,3.1-3.1h0a1.84,1.84,0,0,1,.212.008,3.249,3.249,0,0,1,2.891,3.282v9.731a14.209,14.209,0,0,0,3.33,9.136,9.429,9.429,0,0,1,2.2,6.026V97.575a.361.361,0,0,1-.358.358H143.779a.342.342,0,0,1-.366-.35Zm-109.98.057a10.855,10.855,0,0,1,21.709,0v.3H33.433Z" stroke="none"/><path d="M 151.9954833984375 41.99610900878906 C 152.1793823242188 41.99610900878906 152.3638916015625 42.0025634765625 152.5486755371094 42.01556396484375 C 156.7667541503906 42.35755920410156 160.0076751708984 45.89979553222656 159.9669494628906 50.1341552734375 L 159.9669494628906 59.88134765625 C 159.97509765625 62.0799560546875 160.7486877441406 64.22157287597656 162.1655578613281 65.90718078613281 C 164.3153381347656 68.46409606933594 165.4960632324219 71.70501708984375 165.4960632324219 75.04365539550781 L 165.4960632324219 97.59982299804688 C 165.4960632324219 97.72195434570312 165.4878997802734 97.83595275878906 165.4797973632812 97.95811462402344 L 215.9339294433594 97.95811462402344 C 217.2693939208984 97.95811462402344 218.3524017333984 99.04112243652344 218.3524017333984 100.3765869140625 L 218.3524017333984 113.8777084350586 C 218.3524017333984 115.2131805419922 217.2693939208984 116.2962036132812 215.9339294433594 116.2962036132812 L 212.0822906494141 116.2962036132812 L 212.0822906494141 191.2445678710938 C 212.0822906494141 192.5800476074219 210.999267578125 193.6630401611328 209.6637878417969 193.6630401611328 L 196.0079498291016 193.6630401611328 C 194.6724853515625 193.6630401611328 193.5894775390625 192.5800476074219 193.5894775390625 191.2445678710938 C 193.5894775390625 189.9091186523438 194.6724853515625 188.8260955810547 196.0079498291016 188.8260955810547 L 207.2453155517578 188.8260955810547 L 207.2453155517578 113.8777084350586 C 207.2453155517578 112.5422592163086 208.3283386230469 111.4592361450195 209.6637878417969 111.4592361450195 L 213.5154571533203 111.4592361450195 L 213.5154571533203 102.7950592041016 L 24.68695068359375 102.7950592041016 L 24.68695068359375 111.4592361450195 L 197.9948425292969 111.4592361450195 C 199.330322265625 111.4592361450195 200.4133148193359 112.5422592163086 200.4133148193359 113.8777084350586 C 200.4133148193359 115.2131805419922 199.330322265625 116.2962036132812 197.9948425292969 116.2962036132812 L 30.94892883300781 116.2962036132812 L 30.94892883300781 188.8179626464844 L 42.18629455566406 188.8179626464844 C 43.521728515625 188.8179626464844 44.60476684570312 189.9009552001953 44.60476684570312 191.2364196777344 C 44.60476684570312 192.5718688964844 43.521728515625 193.6549072265625 42.18629455566406 193.6549072265625 L 28.53045654296875 193.6549072265625 C 27.19497680664062 193.6549072265625 26.11195373535156 192.5718688964844 26.11195373535156 191.2364196777344 L 26.11195373535156 116.2880630493164 L 22.26031494140625 116.2880630493164 C 20.92486572265625 116.2880630493164 19.84184265136719 115.2050399780273 19.84999084472656 113.8695678710938 L 19.84999084472656 100.3684539794922 C 19.84999084472656 99.03300476074219 20.93301391601562 97.949951171875 22.26846313476562 97.949951171875 L 28.60372924804688 97.949951171875 L 28.60372924804688 97.648681640625 C 28.61187744140625 89.91281127929688 34.23870849609375 83.34136962890625 41.87684631347656 82.13619995117188 L 41.87684631347656 79.60372924804688 C 41.87684631347656 78.26829528808594 42.95986938476562 77.18525695800781 44.29531860351562 77.18525695800781 C 45.63078308105469 77.18525695800781 46.71379089355469 78.26829528808594 46.71379089355469 79.60372924804688 L 46.71379089355469 82.13619995117188 C 54.34381103515625 83.33326721191406 59.97879028320312 89.91281127929688 59.98692321777344 97.64053344726562 L 59.98692321777344 97.94184875488281 L 138.5752563476562 97.94184875488281 C 138.5670928955078 97.81967163085938 138.5589599609375 97.70567321777344 138.5589599609375 97.58354187011719 L 138.5589599609375 75.02734375 C 138.5670928955078 71.68873596191406 139.7397155761719 68.45594787597656 141.8894653320312 65.89089965820312 C 143.3063354492188 64.205322265625 144.0880737304688 62.07182312011719 144.0880737304688 59.86506652832031 L 144.0880737304688 49.94686889648438 C 144.0880737304688 47.74822998046875 145.0000915527344 45.655517578125 146.5961303710938 44.14903259277344 C 148.0580139160156 42.76171875 149.9912719726562 41.99610900878906 151.9954833984375 41.99610900878906 Z M 160.3170776367188 97.93370056152344 C 160.5125122070312 97.93370056152344 160.6753692626953 97.77081298828125 160.6753692626953 97.57539367675781 L 160.6753692626953 75.01922607421875 C 160.667236328125 72.82058715820312 159.8936462402344 70.67901611328125 158.4767608642578 68.99339294433594 C 156.3270111083984 66.43647766113281 155.1462707519531 63.19557189941406 155.1462707519531 59.85693359375 L 155.1462707519531 50.12600708007812 C 155.1707153320312 48.44853210449219 153.9248199462891 47.03164672851562 152.2554931640625 46.84437561035156 C 152.1822052001953 46.83622741699219 152.1170654296875 46.83622741699219 152.0437927246094 46.83622741699219 C 150.3255920410156 46.83622741699219 148.9412841796875 48.22868347167969 148.9412841796875 49.93870544433594 L 148.9412841796875 59.86506652832031 C 148.9331512451172 63.20370483398438 147.7605590820312 66.43647766113281 145.6107788085938 69.00154113769531 C 144.1939239501953 70.68714904785156 143.4121704101562 72.82058715820312 143.4121704101562 75.02734375 L 143.4121704101562 97.58354187011719 C 143.4121704101562 97.78199768066406 143.5592041015625 97.93400573730469 143.7627258300781 97.93400573730469 C 143.7679748535156 97.93400573730469 143.7732849121094 97.93391418457031 143.7786254882812 97.93370056152344 L 160.3170776367188 97.93370056152344 Z M 55.141845703125 97.94184875488281 L 55.141845703125 97.64053344726562 C 55.141845703125 91.64729309082031 50.28045654296875 86.78590393066406 44.28720092773438 86.78590393066406 C 38.29393005371094 86.78590393066406 33.43254089355469 91.64729309082031 33.43254089355469 97.64053344726562 L 33.43254089355469 97.94184875488281 L 55.141845703125 97.94184875488281 Z" stroke="none" fill="#756f86"/></g><g transform="translate(-17.84 -40.001)" fill="none"><path d="M209.291,194.913H195.635a4.047,4.047,0,0,1,0-8.094h9.609V113.5a4.052,4.052,0,0,1,4.047-4.047h2.223v-5.407H25.942v5.407H197.63a4.047,4.047,0,1,1,0,8.094H32.2v69.265h9.609a4.047,4.047,0,1,1,0,8.094H28.157a4.052,4.052,0,0,1-4.047-4.047v-73.32H21.887a4.052,4.052,0,0,1-4.047-4.047V99.99a4.052,4.052,0,0,1,4.047-4.047h4.756A17.248,17.248,0,0,1,39.867,80.422v-1.2a4.047,4.047,0,0,1,8.094,0v1.2A17.248,17.248,0,0,1,61.185,95.943h75.372V74.657A15.859,15.859,0,0,1,140.27,64.47a7.756,7.756,0,0,0,1.816-4.984V49.568a9.649,9.649,0,0,1,3.021-6.979,9.512,9.512,0,0,1,7.182-2.565,9.722,9.722,0,0,1,8.933,9.755v9.715a7.756,7.756,0,0,0,1.816,4.984,15.949,15.949,0,0,1,3.713,10.187V95.951h48.809A4.052,4.052,0,0,1,219.608,100v13.5a4.052,4.052,0,0,1-4.047,4.047h-2.223v73.32A4.042,4.042,0,0,1,209.291,194.913Zm-13.656-4.845a.79.79,0,1,0,0,1.58h13.656a.791.791,0,0,0,.79-.79V115.909a1.633,1.633,0,0,1,1.629-1.629h3.852a.791.791,0,0,0,.79-.79V99.99a.791.791,0,0,0-.79-.79H165.107a1.63,1.63,0,0,1-1.62-1.743c.008-.114.016-.179.016-.244V74.657a12.626,12.626,0,0,0-2.948-8.094,11.026,11.026,0,0,1-2.573-7.076V49.764a6.45,6.45,0,0,0-5.92-6.49,6.238,6.238,0,0,0-4.707,1.694,6.4,6.4,0,0,0-2,4.617V59.5a11.071,11.071,0,0,1-2.573,7.076,12.626,12.626,0,0,0-2.948,8.094V97.229c0,.065.008.13.008.2a1.664,1.664,0,0,1-.432,1.246,1.638,1.638,0,0,1-1.189.537h-78.6a1.633,1.633,0,0,1-1.629-1.629v-.3a14.027,14.027,0,0,0-11.9-13.9,1.629,1.629,0,0,1-1.376-1.612V79.233a.79.79,0,0,0-1.58,0v2.532a1.642,1.642,0,0,1-1.376,1.612,14.034,14.034,0,0,0-11.905,13.9v.3a1.633,1.633,0,0,1-1.629,1.629H21.887a.791.791,0,0,0-.79.79v13.5a.791.791,0,0,0,.79.79h3.852a1.633,1.633,0,0,1,1.629,1.629v74.948a.791.791,0,0,0,.79.79H41.813a.79.79,0,1,0,0-1.58H30.576a1.633,1.633,0,0,1-1.629-1.629V115.926a1.633,1.633,0,0,1,1.629-1.629H197.622a.79.79,0,1,0,0-1.58H24.314a1.633,1.633,0,0,1-1.629-1.629v-8.664a1.633,1.633,0,0,1,1.629-1.629H213.142a1.633,1.633,0,0,1,1.629,1.629v8.664a1.633,1.633,0,0,1-1.629,1.629h-3.852a.791.791,0,0,0-.79.79v74.948a1.633,1.633,0,0,1-1.629,1.629H195.635ZM54.777,99.2H33.059a1.64,1.64,0,0,1-1.629-1.629v-.3A12.483,12.483,0,0,1,43.914,84.787h0A12.5,12.5,0,0,1,56.4,97.27v.3A1.616,1.616,0,0,1,54.777,99.2ZM34.786,95.943H53.05a9.237,9.237,0,0,0-9.128-7.9h0a9.246,9.246,0,0,0-9.136,7.9ZM143.4,99.2a1.991,1.991,0,0,1-1.987-1.971V74.657a11.071,11.071,0,0,1,2.573-7.076,12.626,12.626,0,0,0,2.948-8.094V49.568a4.735,4.735,0,0,1,4.731-4.731,2.76,2.76,0,0,1,.366.016,4.869,4.869,0,0,1,4.365,4.935v9.706a12.626,12.626,0,0,0,2.948,8.094,11.026,11.026,0,0,1,2.573,7.076V97.221a1.993,1.993,0,0,1-1.979,1.987H143.4Zm1.27-3.257h13.99V74.657a7.756,7.756,0,0,0-1.816-4.984,15.949,15.949,0,0,1-3.713-10.187V49.764a1.623,1.623,0,0,0-1.441-1.669,1.486,1.486,0,0,0-1.506,1.474v9.926a15.859,15.859,0,0,1-3.713,10.187,7.756,7.756,0,0,0-1.816,4.984V95.943Z" stroke="none"/><path d="M 209.2905578613281 194.9130554199219 L 195.6347198486328 194.9130554199219 C 193.4035186767578 194.9130554199219 191.5876312255859 193.0971374511719 191.5876312255859 190.865966796875 C 191.5876312255859 188.6347808837891 193.4035186767578 186.8188629150391 195.6347198486328 186.8188629150391 L 205.2434997558594 186.8188629150391 L 205.2434997558594 113.4991073608398 C 205.2434997558594 111.2679443359375 207.0593872070312 109.4520263671875 209.2905578613281 109.4520263671875 L 211.5136108398438 109.4520263671875 L 211.5136108398438 104.0450820922852 L 25.94230079650879 104.0450820922852 L 25.94230079650879 109.4520263671875 L 197.6297760009766 109.4520263671875 C 199.8609466552734 109.4520263671875 201.6768493652344 111.2679443359375 201.6768493652344 113.4991073608398 C 201.6768493652344 115.7303009033203 199.8609466552734 117.5461883544922 197.6297760009766 117.5461883544922 L 32.20429992675781 117.5461883544922 L 32.20429992675781 186.8107452392578 L 41.81305313110352 186.8107452392578 C 44.04424667358398 186.8107452392578 45.86013412475586 188.6266021728516 45.86013412475586 190.8578338623047 C 45.86013412475586 193.0889892578125 44.04424667358398 194.9048919677734 41.81305313110352 194.9048919677734 L 28.15721702575684 194.9048919677734 C 25.92602348327637 194.9048919677734 24.11013412475586 193.0889892578125 24.11013412475586 190.8578338623047 L 24.11013412475586 117.5380554199219 L 21.8870792388916 117.5380554199219 C 19.6558837890625 117.5380554199219 17.83999633789062 115.7221603393555 17.83999633789062 113.490966796875 L 17.83999633789062 99.98983001708984 C 17.83999633789062 97.75863647460938 19.6558837890625 95.9427490234375 21.8870792388916 95.9427490234375 L 26.64260673522949 95.9427490234375 C 27.2126350402832 88.41046905517578 32.53002166748047 82.18105316162109 39.86688613891602 80.42216491699219 L 39.86688613891602 79.22513580322266 C 39.86688613891602 76.99394226074219 41.68277359008789 75.17805480957031 43.9139404296875 75.17805480957031 C 46.14513397216797 75.17805480957031 47.96105194091797 76.99394226074219 47.96105194091797 79.22513580322266 L 47.96105194091797 80.42216491699219 C 55.29791259765625 82.18105316162109 60.61530303955078 88.41046905517578 61.185302734375 95.9427490234375 L 136.5571136474609 95.9427490234375 L 136.5571136474609 74.65688323974609 C 136.5571136474609 70.93555450439453 137.8762664794922 67.32002258300781 140.2703247070312 64.469970703125 C 141.4429168701172 63.07752227783203 142.0862121582031 61.30233001708984 142.0862121582031 59.48644256591797 L 142.0862121582031 49.56824493408203 C 142.0943603515625 46.92991256713867 143.1936645507812 44.38930130004883 145.1072692871094 42.58969116210938 C 146.8672943115234 40.92663955688477 149.2151489257812 40.00107574462891 151.6244812011719 40.00107574462891 C 151.8459014892578 40.00107574462891 152.0673828125 40.00886917114258 152.2894439697266 40.02463531494141 C 157.3543853759766 40.4317741394043 161.279296875 44.71499633789062 161.2223358154297 49.77996826171875 L 161.2223358154297 59.49457931518555 C 161.2223358154297 61.31049728393555 161.8656005859375 63.08566284179688 163.0382232666016 64.47810363769531 C 165.4241027832031 67.32819366455078 166.7433013916016 70.94368743896484 166.7514343261719 74.66505432128906 L 166.7514343261719 95.95088195800781 L 215.5606842041016 95.95088195800781 C 217.7918853759766 95.95088195800781 219.6077728271484 97.76679992675781 219.6077728271484 99.99797058105469 L 219.6077728271484 113.4991073608398 C 219.6077728271484 115.7303009033203 217.7918853759766 117.5461883544922 215.5606842041016 117.5461883544922 L 213.3376312255859 117.5461883544922 L 213.3376312255859 190.8659362792969 C 213.3457794189453 193.0971374511719 211.5298919677734 194.9130554199219 209.2905578613281 194.9130554199219 Z M 21.8870792388916 99.20810699462891 C 21.44735717773438 99.20810699462891 21.09721755981445 99.56641387939453 21.09721755981445 99.99797058105469 L 21.09721755981445 113.4991073608398 C 21.09721755981445 113.9388275146484 21.45549583435059 114.2889709472656 21.8870792388916 114.2889709472656 L 25.73874664306641 114.2889709472656 C 26.63446807861328 114.2889709472656 27.36732864379883 115.0218276977539 27.36732864379883 115.9175796508789 L 27.36732864379883 190.8659362792969 C 27.36732864379883 191.3056640625 27.72563552856445 191.6558074951172 28.15721702575684 191.6558074951172 L 41.81305313110352 191.6558074951172 C 42.25277328491211 191.6558074951172 42.60293960571289 191.2975311279297 42.60293960571289 190.8659362792969 C 42.60293960571289 190.4343566894531 42.24463272094727 190.0760803222656 41.81305313110352 190.0760803222656 L 30.5756893157959 190.0760803222656 C 29.67996788024902 190.0760803222656 28.94707870483398 189.3431854248047 28.94707870483398 188.4474639892578 L 28.94707870483398 115.9257202148438 C 28.94707870483398 115.0299987792969 29.67996788024902 114.2971038818359 30.5756893157959 114.2971038818359 L 197.6216125488281 114.2971038818359 C 198.0613250732422 114.2971038818359 198.4114990234375 113.9388275146484 198.4114990234375 113.5072479248047 C 198.4114990234375 113.0756607055664 198.0531921386719 112.7173538208008 197.6216125488281 112.7173538208008 L 24.31369018554688 112.7173538208008 C 23.41796875 112.7173538208008 22.68510627746582 111.9844970703125 22.68510627746582 111.0887756347656 L 22.68510627746582 102.4245834350586 C 22.68510627746582 101.5288543701172 23.41796875 100.7959976196289 24.31369018554688 100.7959976196289 L 213.1422119140625 100.7959976196289 C 214.0379333496094 100.7959976196289 214.7708282470703 101.5288543701172 214.7708282470703 102.4245834350586 L 214.7708282470703 111.0887756347656 C 214.7708282470703 111.9844970703125 214.0379333496094 112.7173538208008 213.1422119140625 112.7173538208008 L 209.2905578613281 112.7173538208008 C 208.8508605957031 112.7173538208008 208.5006866455078 113.0756607055664 208.5006866455078 113.5072479248047 L 208.5006866455078 188.4556121826172 C 208.5006866455078 189.3513641357422 207.767822265625 190.0842132568359 206.8720855712891 190.0842132568359 L 195.6347198486328 190.0842132568359 L 195.6347198486328 190.0679473876953 C 195.1949920654297 190.0679473876953 194.8448333740234 190.4262237548828 194.8448333740234 190.8578033447266 C 194.8448333740234 191.2893829345703 195.2031402587891 191.6476898193359 195.6347198486328 191.6476898193359 L 209.2905578613281 191.6476898193359 C 209.7303009033203 191.6476898193359 210.0804443359375 191.2893829345703 210.0804443359375 190.8578033447266 L 210.0804443359375 115.9094390869141 C 210.0804443359375 115.0136871337891 210.8133087158203 114.2808303833008 211.7090454101562 114.2808303833008 L 215.5606842041016 114.2808303833008 C 216.0004119873047 114.2808303833008 216.3505554199219 113.9225540161133 216.3505554199219 113.490966796875 L 216.3505554199219 99.98983001708984 C 216.3505554199219 99.55010986328125 215.9922790527344 99.19996643066406 215.5606842041016 99.19996643066406 L 165.1065521240234 99.19996643066406 C 164.6586608886719 99.19996643066406 164.2270812988281 99.01266479492188 163.9176635742188 98.67880249023438 C 163.6082153320312 98.34494018554688 163.4534912109375 97.90522003173828 163.486083984375 97.45735931396484 C 163.4941864013672 97.34336090087891 163.5023498535156 97.27822113037109 163.5023498535156 97.21305084228516 L 163.5023498535156 74.65688323974609 C 163.5023498535156 71.70099639892578 162.4519195556641 68.82649993896484 160.5546112060547 66.56272125244141 C 158.8934173583984 64.58396911621094 157.9813842773438 62.06777572631836 157.9813842773438 59.48644256591797 L 157.9813842773438 49.76369094848633 C 158.0139617919922 46.38433074951172 155.4163513183594 43.53427505493164 152.0614166259766 43.27368927001953 C 151.9185791015625 43.2635383605957 151.7754821777344 43.25849914550781 151.6327972412109 43.25849914550781 C 150.0592193603516 43.25849914550781 148.5119934082031 43.86994552612305 147.3547515869141 44.96744155883789 C 146.0844421386719 46.16446685791016 145.3597106933594 47.84194183349609 145.3515472412109 49.58452224731445 L 145.3515472412109 59.50274658203125 C 145.3515472412109 62.08407974243164 144.4313812255859 64.60027313232422 142.7783508300781 66.57902526855469 C 140.8810577392578 68.8427734375 139.8306121826172 71.71727752685547 139.8306121826172 74.67318725585938 L 139.8306121826172 97.22935485839844 C 139.8306121826172 97.29449462890625 139.8387145996094 97.35963439941406 139.8387145996094 97.42477416992188 C 139.8713073730469 97.87266540527344 139.7165832519531 98.34494018554688 139.4071655273438 98.67066192626953 C 139.0977172851562 99.00452423095703 138.6661376953125 99.20810699462891 138.2182769775391 99.20810699462891 L 59.61368942260742 99.20810699462891 C 58.71796798706055 99.20810699462891 57.985107421875 98.4752197265625 57.985107421875 97.57949829101562 L 57.985107421875 97.27822113037109 C 57.9769401550293 90.30777740478516 52.968994140625 84.46108245849609 46.088134765625 83.37808227539062 C 45.29827499389648 83.25591278076172 44.71196746826172 82.57191467285156 44.71196746826172 81.7657470703125 L 44.71196746826172 79.2332763671875 C 44.71196746826172 78.79354858398438 44.35369110107422 78.44341278076172 43.9221076965332 78.44341278076172 C 43.49052429199219 78.44341278076172 43.13221740722656 78.80168914794922 43.13221740722656 79.2332763671875 L 43.13221740722656 81.7657470703125 C 43.13221740722656 82.56377410888672 42.54591369628906 83.24777221679688 41.75605010986328 83.37808227539062 C 34.86705017089844 84.46108245849609 29.86724662780762 90.30777740478516 29.85096740722656 97.27822113037109 L 29.85096740722656 97.57949829101562 C 29.85096740722656 98.4752197265625 29.11807823181152 99.20810699462891 28.22235679626465 99.20810699462891 L 21.8870792388916 99.20810699462891 Z M 159.9357147216797 99.20810699462891 L 143.3972473144531 99.20810699462891 L 143.3972473144531 99.19996643066406 C 142.3060760498047 99.19996643066406 141.4185028076172 98.31235504150391 141.4103240966797 97.22935485839844 C 141.4103240966797 97.22935485839844 141.4103240966797 97.22122192382812 141.4103240966797 97.21308135986328 L 141.4103240966797 74.65688323974609 C 141.4103240966797 72.07555389404297 142.3304901123047 69.55935668945312 143.9835205078125 67.58060455322266 C 145.880859375 65.31685638427734 146.9313049316406 62.44235610961914 146.9313049316406 59.48644256591797 L 146.9313049316406 49.56824493408203 C 146.9313049316406 46.96249771118164 149.0484924316406 44.83716201782227 151.6624145507812 44.83716201782227 C 151.7845458984375 44.83716201782227 151.9066925048828 44.83716201782227 152.0288238525391 44.85343933105469 C 154.5694732666016 45.1384391784668 156.4342193603516 47.25563430786133 156.3934936523438 49.78810882568359 L 156.3934936523438 59.49460601806641 C 156.3934936523438 62.45049667358398 157.4439392089844 65.32499694824219 159.3412780761719 67.58877563476562 C 161.00244140625 69.56752777099609 161.9144744873047 72.08369445800781 161.9144744873047 74.66505432128906 L 161.9144744873047 97.22122192382812 C 161.9144744873047 98.31235504150391 161.0268859863281 99.19996643066406 159.9357147216797 99.20810699462891 Z M 151.6868286132812 48.09438705444336 C 150.8399658203125 48.09438705444336 150.1803588867188 48.76210784912109 150.1803588867188 49.56824493408203 L 150.1803588867188 59.49460601806641 C 150.1803588867188 63.21596908569336 148.8611907958984 66.83146667480469 146.4671630859375 69.68152618408203 C 145.2945556640625 71.07396697998047 144.6512756347656 72.84915924072266 144.6512756347656 74.66505432128906 L 144.6512756347656 95.9427490234375 L 144.6675567626953 95.9427490234375 L 158.6572418212891 95.9427490234375 L 158.6572418212891 74.65688323974609 C 158.6572418212891 72.84099578857422 158.0139617919922 71.06582641601562 156.8413543701172 69.67335510253906 C 154.4554748535156 66.82330322265625 153.1363067626953 63.20780181884766 153.1281280517578 59.48644256591797 L 153.1281280517578 49.76369094848633 C 153.1444396972656 48.89238357543945 152.5255584716797 48.19208145141602 151.6868286132812 48.09438705444336 Z M 54.7767448425293 99.19996643066406 L 33.05929946899414 99.19996643066406 C 32.62771606445312 99.19996643066406 32.21244049072266 99.02893829345703 31.91113471984863 98.71952056884766 C 31.60171699523926 98.41007995605469 31.43071746826172 98.00293731689453 31.43071746826172 97.57135772705078 L 31.43071746826172 97.27005004882812 C 31.43071746826172 93.93955230712891 32.73357772827148 90.80449676513672 35.0869140625 88.44302368164062 C 37.44838333129883 86.08969116210938 40.58346939086914 84.78680419921875 43.9139404296875 84.78680419921875 C 50.7947998046875 84.78680419921875 56.397216796875 90.38922119140625 56.397216796875 97.27008056640625 L 56.397216796875 97.57135772705078 C 56.40535736083984 98.4752197265625 55.67246627807617 99.19996643066406 54.7767448425293 99.19996643066406 Z M 43.9221076965332 88.04402160644531 C 41.45477294921875 88.04402160644531 39.14213562011719 89.0048828125 37.39955139160156 90.74749755859375 C 35.96635818481445 92.17252349853516 35.06249618530273 93.98027038574219 34.7856330871582 95.9427490234375 L 53.05041122436523 95.9427490234375 C 52.40713500976562 91.48035430908203 48.55546951293945 88.04402160644531 43.9221076965332 88.04402160644531 Z" stroke="none" fill="#756f86"/></g></g><g transform="translate(90.305 186.819)"><g transform="translate(-107.201 -220.671)" fill="none"><path d="M111.248,227.137h48.744a2.418,2.418,0,1,0,0-4.837H111.248a2.418,2.418,0,1,0,0,4.837Z" stroke="none"/><path d="M 159.9925994873047 227.136962890625 L 111.2484970092773 227.136962890625 C 109.9130249023438 227.136962890625 108.8300018310547 226.0539398193359 108.8300018310547 224.7184906005859 C 108.8300018310547 223.3830413818359 109.9130249023438 222.3000183105469 111.2484970092773 222.3000183105469 L 159.9925994873047 222.3000183105469 C 161.3280639648438 222.3000183105469 162.4110870361328 223.3830413818359 162.4110870361328 224.7184906005859 C 162.4110870361328 226.0539398193359 161.3280639648438 227.136962890625 159.9925994873047 227.136962890625 Z" stroke="none" fill="#756f86"/></g><g transform="translate(-106.83 -220.3)" fill="none"><path d="M159.621,228.394H110.877a4.047,4.047,0,0,1,0-8.094h48.744a4.047,4.047,0,1,1,0,8.094Zm-48.744-4.845a.79.79,0,1,0,0,1.58h48.744a.79.79,0,0,0,0-1.58Z" stroke="none"/><path d="M 159.6212005615234 228.3941802978516 L 110.8770980834961 228.3941802978516 C 108.6459045410156 228.3941802978516 106.8300018310547 226.5782775878906 106.8300018310547 224.3470916748047 C 106.8300018310547 222.1159057617188 108.6459045410156 220.3000030517578 110.8770980834961 220.3000030517578 L 159.6212005615234 220.3000030517578 C 161.8524017333984 220.3000030517578 163.6682891845703 222.1159057617188 163.6682891845703 224.3470916748047 C 163.6682891845703 226.5782775878906 161.8605346679688 228.3941802978516 159.6212005615234 228.3941802978516 Z M 110.8770980834961 223.549072265625 C 110.4373626708984 223.549072265625 110.0872192382812 223.9073638916016 110.0872192382812 224.3389434814453 C 110.0872192382812 224.7705230712891 110.4455184936523 225.1288146972656 110.8770980834961 225.1288146972656 L 159.6212005615234 225.1288146972656 C 160.0609283447266 225.1288146972656 160.4110717773438 224.7705230712891 160.4110717773438 224.3389434814453 C 160.4110717773438 223.9073638916016 160.0527801513672 223.549072265625 159.6212005615234 223.549072265625 L 110.8770980834961 223.549072265625 Z" stroke="none" fill="#756f86"/></g></g><g transform="translate(41.951 127.823)"><g transform="translate(-47.82 -148.223)" fill="none"><path d="M88.755,149.86H59.146a9.72,9.72,0,0,0-9.706,9.706v7.052a2.419,2.419,0,0,0,2.418,2.418H67.3v39.811H66.076a10.54,10.54,0,0,0-10.529,10.529v2.671a2.419,2.419,0,0,0,2.418,2.418H89.919a2.419,2.419,0,0,0,2.418-2.418v-2.671a10.544,10.544,0,0,0-10.521-10.529H80.6V169.037H96.034a2.419,2.419,0,0,0,2.418-2.418v-7.052A9.7,9.7,0,0,0,88.755,149.86Zm-10.57,63.825h3.64a5.689,5.689,0,0,1,5.684,5.684v.244H60.4v-.244a5.694,5.694,0,0,1,5.684-5.684h3.64a2.419,2.419,0,0,0,2.418-2.418v-42.23h3.616v42.23a2.431,2.431,0,0,0,2.427,2.418Zm15.439-49.493H54.285v-4.625a4.864,4.864,0,0,1,4.861-4.861H88.755a4.864,4.864,0,0,1,4.861,4.861v4.625Z" stroke="none"/><path d="M 59.146484375 149.8600006103516 L 88.7545166015625 149.8600006103516 C 94.11260986328125 149.8600006103516 98.46098327636719 154.2083740234375 98.45286560058594 159.5664825439453 L 98.45286560058594 166.6183471679688 C 98.45286560058594 167.9538116455078 97.36984252929688 169.0368347167969 96.03437805175781 169.0368347167969 L 80.59521484375 169.0368347167969 L 80.59521484375 208.8480529785156 L 81.81666564941406 208.8480529785156 C 87.62263488769531 208.856201171875 92.32929992675781 213.5709991455078 92.33744812011719 219.3769836425781 L 92.33744812011719 222.0478820800781 C 92.33744812011719 223.3833465576172 91.25442504882812 224.4663696289062 89.91896057128906 224.4663696289062 L 57.96573638916016 224.4663696289062 C 56.63028717041016 224.4663696289062 55.54727172851562 223.3833465576172 55.54727172851562 222.0478820800781 L 55.54727172851562 219.3769836425781 C 55.55541229248047 213.5628509521484 60.26207733154297 208.8561859130859 66.07620239257812 208.8480529785156 L 67.29765319824219 208.8480529785156 L 67.29765319824219 169.0368194580078 L 51.85847473144531 169.0368194580078 C 50.52302551269531 169.0368194580078 49.44000244140625 167.9537963867188 49.44000244140625 166.6183319091797 L 49.44000244140625 159.5664825439453 C 49.44813537597656 154.2083740234375 53.78837585449219 149.8681488037109 59.146484375 149.8600006103516 Z M 93.61589050292969 164.1917266845703 L 93.61589050292969 159.5664825439453 C 93.61589050292969 156.8874359130859 91.44171142578125 154.7051086425781 88.7545166015625 154.7051086425781 L 59.146484375 154.7051086425781 C 56.46742248535156 154.7051086425781 54.28510284423828 156.8792877197266 54.28510284423828 159.5664825439453 L 54.28510284423828 164.1917266845703 L 93.61589050292969 164.1917266845703 L 93.6240234375 164.1917266845703 L 93.61589050292969 164.1917266845703 Z M 87.50862121582031 219.6131134033203 L 87.50862121582031 219.3688201904297 C 87.50862121582031 216.2337646484375 84.95986175537109 213.6849975585938 81.82479858398438 213.6849975585938 L 78.18486022949219 213.6849975585938 C 76.84941101074219 213.6849975585938 75.76638793945312 212.6019744873047 75.75824737548828 211.2665252685547 L 75.75824737548828 169.0368194580078 L 72.14275360107422 169.0368194580078 L 72.14275360107422 211.2665252685547 C 72.14275360107422 212.6019744873047 71.05972290039062 213.6849975585938 69.72427368164062 213.6849975585938 L 66.08433532714844 213.6849975585938 C 62.94927215576172 213.6931457519531 60.40049743652344 216.2337646484375 60.40049743652344 219.3688201904297 L 60.40049743652344 219.6131134033203 L 87.50862121582031 219.6131134033203 Z" stroke="none" fill="#756f86"/></g><g transform="translate(-47.45 -147.85)" fill="none"><path d="M89.558,225.714H57.6a4.052,4.052,0,0,1-4.047-4.047V219a12.2,12.2,0,0,1,11.75-12.149V170.284H51.5a4.052,4.052,0,0,1-4.047-4.047v-7.052A11.364,11.364,0,0,1,58.785,147.85H88.393a11.369,11.369,0,0,1,11.335,11.335v7.052a4.052,4.052,0,0,1-4.047,4.047H81.862v36.562a12.193,12.193,0,0,1,11.75,12.141v2.671A4.056,4.056,0,0,1,89.558,225.714ZM65.707,210.1a8.928,8.928,0,0,0-8.9,8.9v2.671a.791.791,0,0,0,.79.79H89.549a.791.791,0,0,0,.79-.79V219a8.933,8.933,0,0,0-8.9-8.9H80.218a1.633,1.633,0,0,1-1.629-1.629V168.655a1.633,1.633,0,0,1,1.629-1.629H95.657a.791.791,0,0,0,.79-.79v-7.052a8.108,8.108,0,0,0-8.078-8.078H58.777a8.108,8.108,0,0,0-8.078,8.078v7.052a.791.791,0,0,0,.79.79H66.928a1.633,1.633,0,0,1,1.629,1.629v39.811a1.633,1.633,0,0,1-1.629,1.629Zm21.432,10.773H60.031A1.633,1.633,0,0,1,58.4,219.24V219a7.333,7.333,0,0,1,7.312-7.312h3.648a.791.791,0,0,0,.79-.79v-42.23a1.633,1.633,0,0,1,1.629-1.629H75.4a1.633,1.633,0,0,1,1.629,1.629v42.23a.791.791,0,0,0,.79.79h3.64A7.322,7.322,0,0,1,88.768,219v.244A1.623,1.623,0,0,1,87.139,220.868ZM61.9,217.611h23.37a4.065,4.065,0,0,0-3.811-2.671h-3.64a4.052,4.052,0,0,1-4.047-4.047v-40.6h-.358v40.6a4.052,4.052,0,0,1-4.047,4.047h-3.64A4.062,4.062,0,0,0,61.9,217.611Zm31.351-52.164H53.916a1.633,1.633,0,0,1-1.629-1.629v-4.625a6.5,6.5,0,0,1,6.49-6.49H88.385a6.5,6.5,0,0,1,6.49,6.49v4.633A1.614,1.614,0,0,1,93.254,165.447Zm-37.71-3.257H91.626v-3a3.242,3.242,0,0,0-3.241-3.233H58.777a3.241,3.241,0,0,0-3.233,3.233Z" stroke="none"/><path d="M 89.55755615234375 225.7135620117188 L 57.60434722900391 225.7135620117188 C 55.3731575012207 225.7135620117188 53.55725860595703 223.8976745605469 53.55725860595703 221.6664733886719 L 53.55725860595703 218.9955749511719 C 53.56540679931641 212.4323120117188 58.80137252807617 207.0741882324219 65.30764770507812 206.84619140625 L 65.30764770507812 170.2840270996094 L 51.4970817565918 170.2840270996094 C 49.26589584350586 170.2840270996094 47.44999694824219 168.4681396484375 47.44999694824219 166.2369384765625 L 47.44999694824219 159.1850891113281 C 47.45814514160156 152.9393920898438 52.53938293457031 147.8581237792969 58.78508377075195 147.8499908447266 L 88.39311218261719 147.8499908447266 C 94.63066101074219 147.8581237792969 99.72004699707031 152.9393920898438 99.72817993164062 159.1850891113281 L 99.72817993164062 166.2369384765625 C 99.72817993164062 168.4681396484375 97.91229248046875 170.2840270996094 95.68110656738281 170.2840270996094 L 81.86241149902344 170.2840270996094 L 81.86241149902344 206.84619140625 C 88.36866760253906 207.0741882324219 93.60463714599609 212.4322814941406 93.61278533935547 218.9874267578125 L 93.61278533935547 221.6583251953125 C 93.61278533935547 223.8976745605469 91.79689788818359 225.7135620117188 89.55755615234375 225.7135620117188 Z M 65.70665740966797 210.0952453613281 C 60.80455780029297 210.1033935546875 56.81448364257812 214.0934753417969 56.80633544921875 218.9955749511719 L 56.80633544921875 221.6664733886719 C 56.80633544921875 222.106201171875 57.16463470458984 222.4563598632812 57.59620666503906 222.4563598632812 L 89.54942321777344 222.4563598632812 C 89.98914337158203 222.4563598632812 90.33929443359375 222.0980529785156 90.33929443359375 221.6664733886719 L 90.33929443359375 218.9955749511719 C 90.33116149902344 214.1016387939453 86.34107208251953 210.1033935546875 81.43897247314453 210.0952453613281 L 80.21752166748047 210.0952453613281 C 79.32179260253906 210.0952453613281 78.58892059326172 209.3623962402344 78.58892059326172 208.4666442871094 L 78.58892059326172 168.6554260253906 C 78.58892059326172 167.7596740722656 79.32179260253906 167.0268249511719 80.21752166748047 167.0268249511719 L 95.65668487548828 167.0268249511719 C 96.09640502929688 167.0268249511719 96.44655609130859 166.6685180664062 96.44655609130859 166.2369384765625 L 96.44655609130859 159.1850891113281 C 96.43842315673828 154.7389831542969 92.81477355957031 151.1153564453125 88.36869812011719 151.1072082519531 L 58.77694702148438 151.1072082519531 C 54.33086013793945 151.1153564453125 50.70720672607422 154.739013671875 50.69906997680664 159.1850891113281 L 50.69906997680664 166.2369384765625 C 50.69906997680664 166.6766662597656 51.05735778808594 167.0268249511719 51.48894500732422 167.0268249511719 L 66.92810821533203 167.0268249511719 C 67.82383728027344 167.0268249511719 68.55670928955078 167.7596740722656 68.55670928955078 168.6554260253906 L 68.55670928955078 208.4666442871094 C 68.55670928955078 209.3623962402344 67.82383728027344 210.0952453613281 66.92810821533203 210.0952453613281 L 65.70665740966797 210.0952453613281 Z M 87.13908386230469 220.8684692382812 L 60.03097152709961 220.8684692382812 C 59.13523483276367 220.8684692382812 58.40237045288086 220.1356201171875 58.40237045288086 219.2398681640625 L 58.40237045288086 218.9955749511719 C 58.41050720214844 214.9647827148438 61.68399429321289 211.6912841796875 65.71479797363281 211.6831359863281 L 69.36286926269531 211.6831359863281 C 69.80259704589844 211.6831359863281 70.15274810791016 211.3248596191406 70.15274810791016 210.8932800292969 L 70.15274810791016 168.66357421875 C 70.15274810791016 167.767822265625 70.8856201171875 167.0349731445312 71.78135681152344 167.0349731445312 L 75.39685821533203 167.0349731445312 C 76.29258728027344 167.0349731445312 77.02545928955078 167.767822265625 77.02545928955078 168.66357421875 L 77.02545928955078 210.8932800292969 C 77.02545928955078 211.3329772949219 77.38374328613281 211.6831359863281 77.81533050537109 211.6831359863281 L 81.45526123046875 211.6831359863281 C 85.48606109619141 211.6831359863281 88.76769256591797 214.9647827148438 88.76769256591797 218.9955749511719 L 88.76769256591797 219.2398681640625 C 88.76768493652344 220.1437377929688 88.04296112060547 220.8684692382812 87.13908386230469 220.8684692382812 Z M 65.73107147216797 214.9403686523438 C 63.96404647827148 214.9403686523438 62.46573257446289 216.0559387207031 61.90385818481445 217.6112670898438 L 85.27432250976562 217.6112670898438 C 84.70432281494141 216.0559387207031 83.21414947509766 214.9403686523438 81.46338653564453 214.9403686523438 L 77.82345581054688 214.9403686523438 C 75.59226989746094 214.9403686523438 73.77637481689453 213.1244506835938 73.77637481689453 210.8932800292969 L 73.77637481689453 170.2921752929688 L 73.41808319091797 170.2921752929688 L 73.41808319091797 210.8932800292969 C 73.41808319091797 213.1244506835938 71.60218048095703 214.9403686523438 69.37100982666016 214.9403686523438 L 65.73107147216797 214.9403686523438 Z M 93.25448608398438 165.4470825195312 L 53.91555786132812 165.4470825195312 C 53.01983261108398 165.4470825195312 52.28695678710938 164.7142028808594 52.28695678710938 163.8184814453125 L 52.28695678710938 159.1932373046875 C 52.28695678710938 155.6184692382812 55.2021598815918 152.7032470703125 58.77694702148438 152.7032470703125 L 88.38495635986328 152.7032470703125 C 91.95974731445312 152.7032470703125 94.87496185302734 155.6184692382812 94.87496185302734 159.1932373046875 L 94.87496185302734 163.8266296386719 C 94.88309478759766 164.7223510742188 94.15022277832031 165.4470825195312 93.25448608398438 165.4470825195312 Z M 58.77694702148438 155.96044921875 C 56.99362182617188 155.96044921875 55.54415893554688 157.4180603027344 55.54415893554688 159.1932373046875 L 55.54415893554688 162.1898803710938 L 91.62588500976562 162.1898803710938 L 91.62588500976562 159.1932373046875 C 91.62588500976562 157.409912109375 90.16828155517578 155.96044921875 88.38495635986328 155.96044921875 L 58.77694702148438 155.96044921875 Z" stroke="none" fill="#756f86"/></g></g><g transform="translate(143.234 127.823)"><g transform="translate(-172.2 -148.221)" fill="none"><path d="M216.734,222.038v-2.671A10.54,10.54,0,0,0,206.2,208.838h-1.221V169.027h15.439a2.419,2.419,0,0,0,2.418-2.418v-7.052a9.72,9.72,0,0,0-9.706-9.706H183.526a9.72,9.72,0,0,0-9.706,9.706v7.052a2.419,2.419,0,0,0,2.418,2.418h15.439v39.811h-1.221a10.54,10.54,0,0,0-10.529,10.529v2.671a2.419,2.419,0,0,0,2.418,2.418H214.3a2.428,2.428,0,0,0,2.435-2.418Zm-38.069-62.481a4.864,4.864,0,0,1,4.861-4.861h29.608A4.864,4.864,0,0,1,218,159.556v4.625H178.657Zm33.224,60.055H184.772v-.244a5.689,5.689,0,0,1,5.684-5.684H194.1a2.419,2.419,0,0,0,2.418-2.418v-42.23h3.615v42.23a2.419,2.419,0,0,0,2.418,2.418h3.64a5.689,5.689,0,0,1,5.684,5.684Z" stroke="none"/><path d="M 214.2989654541016 224.4563598632812 L 182.3457489013672 224.4563598632812 C 181.0102996826172 224.4563598632812 179.9272766113281 223.3733520507812 179.9272766113281 222.0378723144531 L 179.9272766113281 219.3669738769531 C 179.9354095458984 213.5528564453125 184.6420745849609 208.84619140625 190.4561920166016 208.8380432128906 L 191.6776428222656 208.8380432128906 L 191.6776428222656 169.0268249511719 L 176.2384796142578 169.0268249511719 C 174.9030151367188 169.0268249511719 173.8199920654297 167.9437866210938 173.8199920654297 166.6083374023438 L 173.8199920654297 159.5564880371094 C 173.8281402587891 154.1983795166016 178.1683654785156 149.858154296875 183.5264739990234 149.8500061035156 L 213.1345062255859 149.8500061035156 C 218.4926147460938 149.858154296875 222.8328399658203 154.1983795166016 222.8409881591797 159.5564880371094 L 222.8409881591797 166.6083374023438 C 222.8409881591797 167.9437866210938 221.7579498291016 169.0268249511719 220.4225006103516 169.0268249511719 L 204.9833374023438 169.0268249511719 L 204.9833374023438 208.8380432128906 L 206.2047882080078 208.8380432128906 C 212.0189208984375 208.84619140625 216.7255859375 213.5528564453125 216.7337341308594 219.3669738769531 L 216.7337341308594 222.0378723144531 C 216.7337341308594 223.3733520507812 215.6425476074219 224.4563598632812 214.2989654541016 224.4563598632812 Z M 211.8886260986328 219.6112670898438 L 211.8804779052734 219.3669738769531 C 211.8804779052734 216.2319030761719 209.3317260742188 213.6831359863281 206.1966552734375 213.6831359863281 L 202.5567321777344 213.6831359863281 C 201.2212677001953 213.6831359863281 200.1382446289062 212.6001281738281 200.1382446289062 211.2646789550781 L 200.1382446289062 169.0349731445312 L 196.5227508544922 169.0349731445312 L 196.5227508544922 211.2646789550781 C 196.5227508544922 212.6001281738281 195.4397277832031 213.6831359863281 194.1042633056641 213.6831359863281 L 190.4561920166016 213.6831359863281 C 187.3211364746094 213.6831359863281 184.7723693847656 216.2319030761719 184.7723693847656 219.3669738769531 L 184.7723693847656 219.6112670898438 L 211.8886260986328 219.6112670898438 Z M 183.5264892578125 154.6950988769531 C 180.8474273681641 154.6950988769531 178.6651000976562 156.8692932128906 178.6651000976562 159.5564880371094 L 178.6569671630859 164.1817321777344 L 217.9958953857422 164.1817321777344 L 217.9958953857422 159.5564880371094 C 217.9958953857422 156.87744140625 215.8217163085938 154.6950988769531 213.1345062255859 154.6950988769531 L 183.5264892578125 154.6950988769531 Z" stroke="none" fill="#756f86"/></g><g transform="translate(-171.83 -147.85)" fill="none"><path d="M213.938,225.714H181.984a4.052,4.052,0,0,1-4.047-4.047V219a12.2,12.2,0,0,1,11.75-12.149V170.284H175.877a4.052,4.052,0,0,1-4.047-4.047v-7.052a11.364,11.364,0,0,1,11.335-11.335h29.608a11.364,11.364,0,0,1,11.335,11.335v7.052a4.052,4.052,0,0,1-4.047,4.047H206.251v36.562A12.187,12.187,0,0,1,218,218.987v2.671a4.059,4.059,0,0,1-4.063,4.055ZM190.087,210.1a8.928,8.928,0,0,0-8.9,8.9v2.671a.791.791,0,0,0,.79.79h31.953a.824.824,0,0,0,.562-.228.789.789,0,0,0,.236-.562h0V219a8.928,8.928,0,0,0-8.9-8.9h-1.221a1.633,1.633,0,0,1-1.629-1.629V168.655a1.633,1.633,0,0,1,1.629-1.629h15.439a.791.791,0,0,0,.79-.79v-7.052a8.108,8.108,0,0,0-8.078-8.078H183.149a8.108,8.108,0,0,0-8.078,8.078v7.052a.791.791,0,0,0,.79.79H191.3a1.633,1.633,0,0,1,1.629,1.629v39.811A1.633,1.633,0,0,1,191.3,210.1Zm21.432,10.773H184.4a1.633,1.633,0,0,1-1.629-1.629V219a7.322,7.322,0,0,1,7.312-7.312h3.648a.791.791,0,0,0,.79-.79v-42.23a1.633,1.633,0,0,1,1.629-1.629h3.615a1.633,1.633,0,0,1,1.629,1.629v42.23a.791.791,0,0,0,.79.79h3.64A7.322,7.322,0,0,1,213.14,219v.261A1.613,1.613,0,0,1,211.519,220.868Zm-25.243-3.257h23.37a4.068,4.068,0,0,0-3.819-2.671h-3.64a4.052,4.052,0,0,1-4.047-4.047v-40.6h-.358v40.6a4.052,4.052,0,0,1-4.047,4.047h-3.648A4.073,4.073,0,0,0,186.276,217.611Zm31.351-52.164H178.287a1.633,1.633,0,0,1-1.629-1.629v-4.625h0a6.5,6.5,0,0,1,6.49-6.49h29.608a6.5,6.5,0,0,1,6.49,6.49v4.633A1.614,1.614,0,0,1,217.626,165.447Zm-37.7-3.257h36.082v-3a3.241,3.241,0,0,0-3.233-3.233H183.165a3.241,3.241,0,0,0-3.233,3.233Z" stroke="none"/><path d="M 213.9375610351562 225.7135620117188 L 181.9843597412109 225.7135620117188 C 179.7531585693359 225.7135620117188 177.9372711181641 223.8976745605469 177.9372711181641 221.6664733886719 L 177.9372711181641 218.9955749511719 C 177.9454040527344 212.4404296875 183.1813812255859 207.0741882324219 189.6876525878906 206.84619140625 L 189.6876525878906 170.2840270996094 L 175.8771057128906 170.2840270996094 C 173.6459045410156 170.2840270996094 171.8300170898438 168.4681396484375 171.8300170898438 166.2369384765625 L 171.8300170898438 159.1850891113281 C 171.8381652832031 152.9393920898438 176.9194030761719 147.8581237792969 183.1651000976562 147.8499908447266 L 212.7731323242188 147.8499908447266 C 219.0188293457031 147.8581237792969 224.1000671386719 152.9393920898438 224.1082153320312 159.1850891113281 L 224.1082153320312 166.2369384765625 C 224.1082153320312 168.4681396484375 222.2923278808594 170.2840270996094 220.0611267089844 170.2840270996094 L 206.2505645751953 170.2840270996094 L 206.2505645751953 206.84619140625 C 212.7568359375 207.0660400390625 217.9927978515625 212.4322814941406 218.0009307861328 218.9874267578125 L 218.0009307861328 221.6583251953125 C 218.0009307861328 222.7413635253906 217.5774993896484 223.7592468261719 216.8120422363281 224.5246887207031 C 216.0384674072266 225.2901306152344 215.0205841064453 225.7135620117188 213.9375610351562 225.7135620117188 Z M 190.0866546630859 210.0952453613281 C 185.1845550537109 210.1033935546875 181.1944732666016 214.0934753417969 181.1863403320312 218.9955749511719 L 181.1863403320312 221.6664733886719 C 181.1863403320312 222.106201171875 181.5446319580078 222.4563598632812 181.9762115478516 222.4563598632812 L 213.9294281005859 222.4563598632812 C 214.2144470214844 222.4563598632812 214.4017333984375 222.3097839355469 214.4913024902344 222.2283630371094 C 214.5808715820312 222.1387939453125 214.7274475097656 221.9515075683594 214.7274475097656 221.6664733886719 L 216.3560485839844 221.6664733886719 L 214.7274475097656 221.6664733886719 L 214.7274475097656 218.9955749511719 C 214.7193145751953 214.0934753417969 210.7292175292969 210.1033935546875 205.8271331787109 210.0952453613281 L 204.6056823730469 210.0952453613281 C 203.7099456787109 210.0952453613281 202.9770812988281 209.3623962402344 202.9770812988281 208.4666442871094 L 202.9770812988281 168.6554260253906 C 202.9770812988281 167.7596740722656 203.7099456787109 167.0268249511719 204.6056823730469 167.0268249511719 L 220.0448455810547 167.0268249511719 C 220.4845581054688 167.0268249511719 220.834716796875 166.6685180664062 220.834716796875 166.2369384765625 L 220.834716796875 159.1850891113281 C 220.8265686035156 154.7389831542969 217.2029266357422 151.1153564453125 212.7568359375 151.1072082519531 L 183.1488189697266 151.1072082519531 C 178.7027130126953 151.1153564453125 175.0790710449219 154.739013671875 175.0709381103516 159.1850891113281 L 175.0709381103516 166.2369384765625 C 175.0709381103516 166.6766662597656 175.4292297363281 167.0268249511719 175.8608093261719 167.0268249511719 L 191.2999877929688 167.0268249511719 C 192.1957244873047 167.0268249511719 192.9285888671875 167.7596740722656 192.9285888671875 168.6554260253906 L 192.9285888671875 208.4666442871094 C 192.9285888671875 209.3623962402344 192.1957244873047 210.0952453613281 191.2999877929688 210.0952453613281 L 190.0866546630859 210.0952453613281 Z M 211.5190887451172 220.8684692382812 L 184.40283203125 220.8684692382812 C 183.5070953369141 220.8684692382812 182.7742309570312 220.1356201171875 182.7742309570312 219.2398681640625 L 182.7742309570312 218.9955749511719 C 182.7742309570312 214.9647827148438 186.0558624267578 211.6831359863281 190.0866546630859 211.6831359863281 L 193.7347259521484 211.6831359863281 C 194.1744384765625 211.6831359863281 194.5245971679688 211.3248596191406 194.5245971679688 210.8932800292969 L 194.5245971679688 168.66357421875 C 194.5245971679688 167.767822265625 195.2574615478516 167.0349731445312 196.1532135009766 167.0349731445312 L 199.7687072753906 167.0349731445312 C 200.6644439697266 167.0349731445312 201.3973083496094 167.767822265625 201.3973083496094 168.66357421875 L 201.3973083496094 210.8932800292969 C 201.3973083496094 211.3329772949219 201.755615234375 211.6831359863281 202.1871948242188 211.6831359863281 L 205.8271179199219 211.6831359863281 C 209.85791015625 211.6831359863281 213.1395416259766 214.9647827148438 213.1395416259766 218.9955749511719 L 213.1395416259766 219.2561645507812 C 213.1395416259766 220.1519012451172 212.4148254394531 220.8684692382812 211.5190887451172 220.8684692382812 Z M 190.0866546630859 214.9403686523438 C 188.3440551757812 214.9403686523438 186.8457336425781 216.0559387207031 186.2757263183594 217.6112670898438 L 209.6461944580078 217.6112670898438 C 209.0761871337891 216.0559387207031 207.5860137939453 214.9403686523438 205.8271179199219 214.9403686523438 L 202.1871948242188 214.9403686523438 C 199.9559936523438 214.9403686523438 198.1401062011719 213.1244506835938 198.1401062011719 210.8932800292969 L 198.1401062011719 170.2921752929688 L 197.7818145751953 170.2921752929688 L 197.7818145751953 210.8932800292969 C 197.7818145751953 213.1244506835938 195.9659271240234 214.9403686523438 193.7347259521484 214.9403686523438 L 190.0866546630859 214.9403686523438 Z M 217.6263580322266 165.4470825195312 L 178.2874298095703 165.4470825195312 C 177.3916931152344 165.4470825195312 176.6588287353516 164.7142028808594 176.6588287353516 163.8184814453125 L 176.6588287353516 159.1932373046875 C 176.6588287353516 155.6184692382812 179.5740203857422 152.7032470703125 183.1488189697266 152.7032470703125 L 212.7568359375 152.7032470703125 C 216.3316192626953 152.7032470703125 219.246826171875 155.6184692382812 219.246826171875 159.1932373046875 L 219.246826171875 163.8266296386719 C 219.2549591064453 164.7142028808594 218.5302276611328 165.4470825195312 217.6263580322266 165.4470825195312 Z M 183.1650848388672 155.96044921875 C 181.3817596435547 155.96044921875 179.9323120117188 157.4180603027344 179.9323120117188 159.1932373046875 L 179.9241790771484 162.1898803710938 L 216.0058898925781 162.1898803710938 L 216.0058898925781 159.1932373046875 C 216.0058898925781 157.409912109375 214.5482940673828 155.96044921875 212.7731170654297 155.96044921875 L 183.1650848388672 155.96044921875 Z" stroke="none" fill="#756f86"/></g></g><g transform="translate(170.31 64.291)"><g transform="translate(-205.453 -70.201)" fill="none"><path d="M216.788,93.271V97.9a2.418,2.418,0,0,0,4.837,0V93.271a12.149,12.149,0,0,0,9.706-11.881V74.248a2.419,2.419,0,0,0-2.418-2.418h-19.4a2.419,2.419,0,0,0-2.418,2.418V81.39A12.133,12.133,0,0,0,216.788,93.271Zm-4.861-16.6h14.568V81.39a7.284,7.284,0,0,1-14.568,0Z" stroke="none"/><path d="M 219.2068176269531 100.3142929077148 C 217.8713684082031 100.3142929077148 216.788330078125 99.23126983642578 216.788330078125 97.89581298828125 L 216.788330078125 93.27057647705078 C 211.1452331542969 92.11426544189453 207.0899963378906 87.14702606201172 207.0899963378906 81.38991546630859 L 207.0899963378906 74.24848175048828 C 207.0899963378906 72.91302490234375 208.1730346679688 71.83000183105469 209.5084838867188 71.83000183105469 L 228.9132995605469 71.83000183105469 C 230.2487487792969 71.83000183105469 231.331787109375 72.91302490234375 231.331787109375 74.24848175048828 L 231.331787109375 81.38991546630859 C 231.3236389160156 87.14703369140625 227.2684020996094 92.11427307128906 221.6253051757812 93.27057647705078 L 221.6253051757812 97.89581298828125 C 221.6253051757812 99.23126983642578 220.5422668457031 100.3142929077148 219.2068176269531 100.3142929077148 Z M 211.9269714355469 76.66695404052734 L 211.9269714355469 81.38990020751953 C 211.9595336914062 85.35556030273438 215.1678771972656 88.57205200195312 219.1416625976562 88.60463714599609 C 219.1669464111328 88.60488891601562 219.1915588378906 88.60501098632812 219.216796875 88.60501098632812 C 223.2049255371094 88.60501098632812 226.4543609619141 85.38727569580078 226.4948120117188 81.38990020751953 L 226.4948120117188 76.66695404052734 L 211.9269714355469 76.66695404052734 Z" stroke="none" fill="#756f86"/></g><g transform="translate(-205.08 -69.83)" fill="none"><path d="M218.834,101.571a4.052,4.052,0,0,1-4.047-4.047V94.161a13.838,13.838,0,0,1-9.706-13.143V73.877a4.052,4.052,0,0,1,4.047-4.047h19.4a4.052,4.052,0,0,1,4.047,4.047v7.141a13.838,13.838,0,0,1-9.706,13.143v3.363A4.04,4.04,0,0,1,218.834,101.571Zm-9.706-28.492a.791.791,0,0,0-.79.79V81.01a10.557,10.557,0,0,0,8.4,10.285,1.63,1.63,0,0,1,1.3,1.6v4.625a.79.79,0,0,0,1.58,0V92.891a1.63,1.63,0,0,1,1.3-1.6,10.563,10.563,0,0,0,8.4-10.285V73.877a.791.791,0,0,0-.79-.79H209.127Zm9.706,16.783h-.081a8.952,8.952,0,0,1-8.827-8.827V76.3a1.633,1.633,0,0,1,1.629-1.629h14.568A1.633,1.633,0,0,1,227.75,76.3v4.723A8.93,8.93,0,0,1,218.834,89.862Zm-5.651-11.938v3.094A5.656,5.656,0,0,0,224.493,81V77.924H213.182Z" stroke="none"/><path d="M 218.8335723876953 101.5714950561523 C 216.6023712158203 101.5714950561523 214.7864837646484 99.75560760498047 214.7864837646484 97.5244140625 L 214.7864837646484 94.16134643554688 C 209.0945129394531 92.39431762695312 205.0881500244141 87.06877136230469 205.0800018310547 81.01850128173828 L 205.0800018310547 73.87708282470703 C 205.0800018310547 71.64589691162109 206.8958892822266 69.83000183105469 209.1270904541016 69.83000183105469 L 228.5319061279297 69.83000183105469 C 230.7631072998047 69.83000183105469 232.5789947509766 71.64589691162109 232.5789947509766 73.87708282470703 L 232.5789947509766 81.01851654052734 C 232.5708465576172 87.06877136230469 228.5644836425781 92.39431762695312 222.8725128173828 94.16135406494141 L 222.8725128173828 97.5244140625 C 222.8806457519531 99.75560760498047 221.0647583007812 101.5714950561523 218.8335723876953 101.5714950561523 Z M 209.1270904541016 73.07906341552734 C 208.6873626708984 73.07906341552734 208.3372192382812 73.43736267089844 208.3372192382812 73.86894226074219 L 208.3372192382812 81.01036834716797 C 208.3453521728516 85.96945190429688 211.8794250488281 90.30155181884766 216.7407989501953 91.29499816894531 C 217.4980926513672 91.44971466064453 218.0436859130859 92.11744689941406 218.0436859130859 92.89103698730469 L 218.0436859130859 97.51626586914062 C 218.0436859130859 97.95599365234375 218.4019927978516 98.30613708496094 218.8335723876953 98.30613708496094 C 219.2651519775391 98.30613708496094 219.6234436035156 97.94784545898438 219.6234436035156 97.51626586914062 L 219.6234436035156 92.89103698730469 C 219.6234436035156 92.11744689941406 220.1690216064453 91.44971466064453 220.9263305664062 91.29499816894531 C 225.7877197265625 90.29340362548828 229.32177734375 85.96945190429688 229.3299255371094 81.01036834716797 L 229.3299255371094 73.87708282470703 C 229.3299255371094 73.43736267089844 228.9716339111328 73.08721160888672 228.5400543212891 73.08721160888672 L 209.1270904541016 73.08721160888672 L 209.1270904541016 73.07906341552734 Z M 218.8335723876953 89.86183166503906 C 218.8091430664062 89.86183166503906 218.7765655517578 89.86183166503906 218.7521362304688 89.86183166503906 C 213.9314575195312 89.82111358642578 209.9658203125 85.85546112060547 209.9250946044922 81.03479766845703 L 209.9250946044922 76.29555511474609 C 209.9250946044922 75.39982604980469 210.6579742431641 74.66695404052734 211.5537109375 74.66695404052734 L 226.1215667724609 74.66695404052734 C 227.0173034667969 74.66695404052734 227.7501678466797 75.39982604980469 227.7501678466797 76.29555511474609 L 227.7501678466797 81.01850128173828 C 227.7013092041016 85.92060089111328 223.7112426757812 89.86183166503906 218.8335723876953 89.86183166503906 Z M 213.1823120117188 77.92415618896484 L 213.1823120117188 81.01850128173828 C 213.2067413330078 84.06399536132812 215.7229309082031 86.58019256591797 218.7847137451172 86.60462188720703 C 218.8045654296875 86.60482788085938 218.8249359130859 86.60493469238281 218.8447265625 86.60493469238281 C 221.9444122314453 86.605224609375 224.4606170654297 84.10120391845703 224.4929656982422 81.00222778320312 L 224.4929656982422 77.92416381835938 L 213.1823120117188 77.92416381835938 L 213.1823120117188 77.92415618896484 L 213.1823120117188 77.92416381835938 Z" stroke="none" fill="#756f86"/></g></g></g></g></svg>