<svg xmlns="http://www.w3.org/2000/svg" width="349" height="349" viewBox="0 0 349 349"><g transform="translate(-18429 19661)"><rect width="349" height="349" transform="translate(18429 -19661)" fill="none"/><g transform="translate(18496.332 -19578.5)"><path d="M187.449,73.762h-9.835V55.028H73.17a13.621,13.621,0,0,0,2.81-5.854,11.3,11.3,0,0,0-2.342-8.9,11.72,11.72,0,0,0-7.962-4.684,13.366,13.366,0,0,0-6.791.937,12.325,12.325,0,0,0-6.323-3.044,11.269,11.269,0,0,0-6.791.937,12.325,12.325,0,0,0-6.323-3.044,13.366,13.366,0,0,0-6.791.937,12.325,12.325,0,0,0-6.323-3.044,12.1,12.1,0,0,0-13.582,10.07,11.319,11.319,0,0,0,1.873,8.2,12.458,12.458,0,0,0-3.981,7.26,12.124,12.124,0,0,0,1.873,9.133A10.672,10.672,0,0,0,8.3,71.42,11.764,11.764,0,0,0,18.373,85a11.269,11.269,0,0,0,6.791-.937,12.325,12.325,0,0,0,6.323,3.044h.937c-.7.468-1.639.937-2.342,1.405a11.927,11.927,0,0,0-1.639,16.861,11.627,11.627,0,0,0,7.26,4.215,12.718,12.718,0,0,0,2.81,7.962,12.17,12.17,0,0,0,7.494,4.215,10.7,10.7,0,0,0,2.81,8.2,11.656,11.656,0,0,0,9.133,4.215,12.091,12.091,0,0,0,7.728-2.81,12.23,12.23,0,0,0,3.278-4.449,19.4,19.4,0,0,0,18.5,13.582h70.722a19.389,19.389,0,0,0,19.437-19.437v-9.835h9.835a18.734,18.734,0,1,0,0-37.468ZM67.784,120.832a2.744,2.744,0,0,0-2.576,2.108,7.235,7.235,0,0,1-2.576,4.684,7.158,7.158,0,0,1-4.684,1.639,7.48,7.48,0,0,1-5.62-2.576,7.161,7.161,0,0,1-1.405-6.791,2.246,2.246,0,0,0-.468-2.108,2.891,2.891,0,0,0-1.873-.937h-.234a7.611,7.611,0,0,1-6.557-2.576,7.348,7.348,0,0,1-1.405-6.557,2.389,2.389,0,0,0-.468-2.108,2.891,2.891,0,0,0-1.873-.937,6.75,6.75,0,0,1-6.089-2.576,7.384,7.384,0,0,1,.937-10.3,6.857,6.857,0,0,1,5.152-1.639,2.744,2.744,0,0,0,2.576-2.108.86.86,0,0,1,.234-.7A7.076,7.076,0,0,0,44.6,88.515a11.269,11.269,0,0,0,6.791-.937,12.325,12.325,0,0,0,6.323,3.044c.468,0,1.171.234,1.639.234a15.14,15.14,0,0,0,4.684-.937,3.759,3.759,0,0,0,3.747-.7h0a3.865,3.865,0,0,0,1.171-3.513,12.629,12.629,0,0,0,2.108-5.152,11.66,11.66,0,0,0-1.873-8.43,12.23,12.23,0,0,0,3.278-4.449c.234-.234.234-.7.468-.937l.7.7A7.348,7.348,0,0,1,75.044,74a2.389,2.389,0,0,0,.468,2.108,2.891,2.891,0,0,0,1.873.937,6.75,6.75,0,0,1,6.089,2.576,7.161,7.161,0,0,1,1.405,6.791,2.246,2.246,0,0,0,.468,2.108,2.543,2.543,0,0,0,2.108.937,7.611,7.611,0,0,1,6.557,2.576,7.1,7.1,0,0,1,1.639,5.386,7.791,7.791,0,0,1-2.576,4.918,6.857,6.857,0,0,1-5.152,1.639,2.744,2.744,0,0,0-2.576,2.108,7.235,7.235,0,0,1-2.576,4.684A6.857,6.857,0,0,1,77.62,112.4a2.744,2.744,0,0,0-2.576,2.108,7.235,7.235,0,0,1-2.576,4.684h-.234a7.158,7.158,0,0,1-4.684,1.639ZM27.506,79.617a2.477,2.477,0,0,0-3.278-.468,7.265,7.265,0,0,1-5.386,1.405,7.033,7.033,0,0,1-6.089-8.2,7.884,7.884,0,0,1,4.215-5.62,2.429,2.429,0,0,0,1.405-1.873,3.269,3.269,0,0,0-.7-2.108A6.883,6.883,0,0,1,15.328,56.2a7.2,7.2,0,0,1,3.981-5.386,1.761,1.761,0,0,0,1.171-1.639,3.777,3.777,0,0,0-.7-2.108,7.273,7.273,0,0,1-2.342-6.557,7.033,7.033,0,0,1,8.2-6.089,6.641,6.641,0,0,1,4.684,2.81,2.477,2.477,0,0,0,3.278.468,7.265,7.265,0,0,1,5.386-1.405,6.641,6.641,0,0,1,4.684,2.81,2.477,2.477,0,0,0,3.278.468,7.265,7.265,0,0,1,5.386-1.405,6.641,6.641,0,0,1,4.684,2.81,2.477,2.477,0,0,0,3.278.468,7.265,7.265,0,0,1,5.386-1.405,7.295,7.295,0,0,1,6.089,8.2,7.2,7.2,0,0,1-3.981,5.386,1.761,1.761,0,0,0-1.171,1.639,3.777,3.777,0,0,0,.7,2.108,4.2,4.2,0,0,1,1.171,1.639c.234.234.234.7.468.937a8.32,8.32,0,0,1,.468,2.342v1.405c0,.234-.234.7-.234.937a11.417,11.417,0,0,1-.7,1.639,8.27,8.27,0,0,1-3.278,3.044A2.429,2.429,0,0,0,63.8,71.186a3.269,3.269,0,0,0,.7,2.108,6.883,6.883,0,0,1,2.342,6.557,8.389,8.389,0,0,1-.937,2.576,6.813,6.813,0,0,1-3.981,3.278,7.518,7.518,0,0,1-3.278.234,6.641,6.641,0,0,1-4.684-2.81,2.13,2.13,0,0,0-1.873-.937,3.328,3.328,0,0,0-1.405.468A7.265,7.265,0,0,1,45.3,84.066a3.777,3.777,0,0,1-2.108-.7,3.642,3.642,0,0,1-1.873-1.405l-.7-.7a1.288,1.288,0,0,0-1.171-.7,2.276,2.276,0,0,0-2.108.234,7.042,7.042,0,0,1-9.835-1.171Zm145.659,41.45a14.692,14.692,0,0,1-14.753,14.753H87.455A14.621,14.621,0,0,1,73.17,124.579a17.468,17.468,0,0,0,2.81-1.639,12.055,12.055,0,0,0,3.747-5.854,11.762,11.762,0,0,0,6.323-2.576,12.055,12.055,0,0,0,3.747-5.854,11.762,11.762,0,0,0,6.323-2.576,12.2,12.2,0,0,0,4.215-8.2,11.46,11.46,0,0,0-2.81-8.665A12.17,12.17,0,0,0,90.031,85a10.7,10.7,0,0,0-2.81-8.2,11.627,11.627,0,0,0-7.26-4.215,12.718,12.718,0,0,0-2.81-7.962,10.094,10.094,0,0,0-3.981-3.044c0-.468-.234-1.171-.234-1.639H172.7v61.12Zm14.285-14.519h-9.835v-28.1h9.835a14.051,14.051,0,1,1,0,28.1Z" transform="translate(0 13.215)" fill="none" stroke="#756f86" stroke-width="4"/><path d="M44.942,51.014a2.212,2.212,0,0,0,2.342-2.342V21.742a2.342,2.342,0,0,0-4.684,0v26.93A2.347,2.347,0,0,0,44.942,51.014Z" transform="translate(46.26 0.134)" fill="none" stroke="#756f86" stroke-width="4"/><path d="M58.642,50.68a2.212,2.212,0,0,0,2.342-2.342v-26.7a2.342,2.342,0,0,0-4.684,0v26.93A2.162,2.162,0,0,0,58.642,50.68Z" transform="translate(64.643)" fill="none" stroke="#756f86" stroke-width="4"/><path d="M72.042,51.014a2.212,2.212,0,0,0,2.342-2.342V21.742a2.342,2.342,0,1,0-4.684,0v26.93A2.518,2.518,0,0,0,72.042,51.014Z" transform="translate(82.622 0.134)" fill="none" stroke="#756f86" stroke-width="4"/><path d="M148.957,79.3H33.742a2.342,2.342,0,1,0,0,4.684H148.957a2.212,2.212,0,0,0,2.342-2.342A2.347,2.347,0,0,0,148.957,79.3Z" transform="translate(31.232 80.507)" fill="none" stroke="#756f86" stroke-width="4"/><circle cx="3.747" cy="3.747" r="3.747" transform="translate(57.48 117.655)" fill="none" stroke="#756f86" stroke-width="4"/><circle cx="3.747" cy="3.747" r="3.747" transform="translate(48.582 106.883)" fill="none" stroke="#756f86" stroke-width="4"/><path d="M41.115,63.4a3.764,3.764,0,0,0,.468-5.386,3.683,3.683,0,0,0-4.684-.937c-.234.234-.468.234-.7.468a3.764,3.764,0,0,0-.468,5.386,2.338,2.338,0,0,0,1.171.937A4.481,4.481,0,0,0,41.115,63.4Z" transform="translate(35.802 50.037)" fill="none" stroke="#756f86" stroke-width="4"/><circle cx="3.747" cy="3.747" r="3.747" transform="translate(28.677 75.737)" fill="none" stroke="#756f86" stroke-width="4"/><circle cx="3.747" cy="3.747" r="3.747" transform="translate(30.784 61.686)" fill="none" stroke="#756f86" stroke-width="4"/><path d="M27.613,52.142h0a3.923,3.923,0,0,0,4.215-2.81v-.468a4.1,4.1,0,0,0-3.278-4.449A4.1,4.1,0,0,0,24.1,47.693,4.332,4.332,0,0,0,27.613,52.142Z" transform="translate(21.437 33.664)" fill="none" stroke="#756f86" stroke-width="4"/><circle cx="3.747" cy="3.747" r="3.747" transform="translate(47.879 64.262)" fill="none" stroke="#756f86" stroke-width="4"/></g></g></svg>