<svg xmlns="http://www.w3.org/2000/svg" width="349" height="349" viewBox="0 0 349 349"><g transform="translate(-18030 19282)"><rect width="349" height="349" transform="translate(18030 -19282)" fill="none"/><path d="M226.051,79.877H11.588C5.944,80.441.864,75.926.3,70.283h0c.564-5.644,5.644-10.159,11.288-9.594H234.516a13.494,13.494,0,0,1,14.109,11.288V88.907h0c-.564,5.644-5.644,10.159-11.288,9.594H11.588C5.944,99.066.864,94.551.3,88.907h0c.564-5.644,5.644-10.159,11.288-9.594l214.463.564ZM207.99,46.014H36.42a9.124,9.124,0,0,1-9.03-7.9h0a8.22,8.22,0,0,1,9.03-7.337H214.763a10.187,10.187,0,0,1,11.288,9.03V53.351h0a8.22,8.22,0,0,1-9.03,7.337H36.42a8.22,8.22,0,0,1-9.03-7.337h0a8.22,8.22,0,0,1,9.03-7.337ZM130.671.3c43.457,0,79.013,6.773,79.013,15.238s-35.556,15.238-79.013,15.238S51.658,24,51.658,15.538,86.65.3,130.671.3Z" transform="translate(18080.473 -19156.779)" fill="none" stroke="#756f86" stroke-linecap="round" stroke-linejoin="round" stroke-width="7"/></g></svg>