<svg xmlns="http://www.w3.org/2000/svg" width="349" height="349" viewBox="0 0 349 349"><g transform="translate(-19653 19661)"><rect width="349" height="349" transform="translate(19653 -19661)" fill="none"/><g transform="translate(19686.689 -19627.869)"><g transform="translate(44.28 93.35)"><g transform="translate(-44.3 -93.37)" fill="none"><path d="M189.671,95.35H92.209A45.919,45.919,0,1,0,132.2,163.764h17.178a45.9,45.9,0,1,0,40.3-68.414Zm0,81.215a35.808,35.808,0,0,1-32.177-20.613,5.484,5.484,0,0,0-4.683-3.129H129.069a4.8,4.8,0,0,0-4.683,3.129,35.327,35.327,0,1,1-32.177-49.978h97.462a35.3,35.3,0,0,1,0,70.592Z" stroke="none"/><path d="M 92.20921325683594 99.3499755859375 C 86.56376647949219 99.3499755859375 81.08316040039062 100.4598999023438 75.91958618164062 102.64892578125 C 70.9296875 104.7643127441406 66.44438171386719 107.7921447753906 62.58827209472656 111.6482543945312 C 58.73216247558594 115.5043640136719 55.70433044433594 119.9896697998047 53.58894348144531 124.9795532226562 C 51.39991760253906 130.1431427001953 50.28999328613281 135.6237487792969 50.28999328613281 141.2691955566406 C 50.28999328613281 146.9146423339844 51.39991760253906 152.3952484130859 53.58894348144531 157.558837890625 C 55.70433044433594 162.5487518310547 58.73216247558594 167.0340576171875 62.58827209472656 170.8901672363281 C 66.44438171386719 174.7462768554688 70.9296875 177.7741088867188 75.91958618164062 179.8894958496094 C 81.08316040039062 182.0785217285156 86.56376647949219 183.1884460449219 92.20921325683594 183.1884460449219 C 99.64186096191406 183.1884460449219 106.9917755126953 181.1900329589844 113.4644165039062 177.4092254638672 C 119.9456939697266 173.6233825683594 125.20849609375 168.2440338134766 128.6838531494141 161.8526611328125 L 129.8198852539062 159.7635040283203 L 132.1979370117188 159.7635040283203 L 149.3755798339844 159.7635040283203 L 151.7096405029297 159.7635040283203 L 152.8579711914062 161.7955017089844 C 156.5045166015625 168.2481079101562 161.8197631835938 173.6490020751953 168.2290802001953 177.4142761230469 C 174.6592407226562 181.1917724609375 181.9676513671875 183.1884460449219 189.3643035888672 183.1884460449219 C 195.0097351074219 183.1884460449219 200.4903564453125 182.0785217285156 205.6539306640625 179.8894958496094 C 210.6438293457031 177.7741088867188 215.1291351318359 174.7463073730469 218.9852447509766 170.8901977539062 C 222.8413543701172 167.0340881347656 225.8691864013672 162.5487518310547 227.9845886230469 157.5588684082031 C 230.1736145019531 152.3952789306641 231.2835235595703 146.9146423339844 231.2835235595703 141.2691955566406 C 231.2835235595703 135.6124420166016 230.1874084472656 130.1263122558594 228.025634765625 124.9631652832031 C 225.9348754882812 119.9696960449219 222.9404907226562 115.4854736328125 219.1256408691406 111.6351165771484 C 215.3076629638672 107.7815856933594 210.8599090576172 104.7572021484375 205.9059448242188 102.6459808349609 C 200.7740173339844 100.4589233398438 195.3118896484375 99.3499755859375 189.6712188720703 99.3499755859375 L 92.20921325683594 99.3499755859375 M 189.6712188720703 180.5650634765625 C 182.1806640625 180.5650634765625 174.8574371337891 178.4014739990234 168.4932556152344 174.3081665039062 C 162.1942443847656 170.2568359375 157.1511383056641 164.5218963623047 153.906005859375 157.7206115722656 C 153.5793762207031 157.0946044921875 153.0255584716797 156.8232727050781 152.8111114501953 156.8232727050781 L 129.0693359375 156.8232727050781 C 128.5466613769531 156.8232727050781 128.2364196777344 157.0498962402344 128.1830444335938 157.2108154296875 L 128.1183319091797 157.4060363769531 L 128.0339050292969 157.5935974121094 C 124.9609985351562 164.4210510253906 119.9335784912109 170.2032470703125 113.4951934814453 174.3151245117188 C 107.0929412841797 178.4038696289062 99.73239135742188 180.5650634765625 92.20918273925781 180.5650634765625 C 86.93598937988281 180.5650634765625 81.80435180664062 179.5181732177734 76.95686340332031 177.4534759521484 C 72.28671264648438 175.4643096923828 68.08576965332031 172.6227569580078 64.47074890136719 169.0076904296875 C 60.85569763183594 165.3926391601562 58.01412963867188 161.1916961669922 56.02496337890625 156.5215606689453 C 53.96026611328125 151.6740570068359 52.91339111328125 146.5424194335938 52.91339111328125 141.2692260742188 C 52.91339111328125 135.9960327148438 53.96026611328125 130.8643951416016 56.02496337890625 126.0168914794922 C 58.01412963867188 121.3467559814453 60.85569763183594 117.1458129882812 64.47074890136719 113.5307464599609 C 68.08576965332031 109.9156951904297 72.28671264648438 107.0741424560547 76.95686340332031 105.0849761962891 C 81.80435180664062 103.0202789306641 86.93598937988281 101.973388671875 92.20918273925781 101.973388671875 L 189.6711883544922 101.973388671875 C 194.9443817138672 101.973388671875 200.0760192871094 103.0202789306641 204.9235229492188 105.0849761962891 C 209.5936584472656 107.0741424560547 213.7946319580078 109.9156951904297 217.40966796875 113.5307464599609 C 221.0247192382812 117.1458129882812 223.8662719726562 121.3467559814453 225.8554382324219 126.0168914794922 C 227.9201354980469 130.8643951416016 228.9670257568359 135.9960327148438 228.9670257568359 141.2692260742188 C 228.9670257568359 146.5451354980469 227.937744140625 151.6706085205078 225.9077453613281 156.5032043457031 C 223.9412689208984 161.1846160888672 221.1250305175781 165.3887786865234 217.5372467041016 168.9989013671875 C 213.9358825683594 172.6226806640625 209.7354431152344 175.4678649902344 205.0525512695312 177.4554443359375 C 200.1910705566406 179.5188293457031 195.0160522460938 180.5650634765625 189.6712188720703 180.5650634765625 M 92.20921325683594 95.3499755859375 L 189.6712188720703 95.3499755859375 C 214.977294921875 95.3499755859375 235.2835235595703 115.9631500244141 235.2835235595703 141.2691955566406 C 235.2835235595703 166.5753173828125 214.6703491210938 187.1884460449219 189.3643035888672 187.1884460449219 C 172.8005218505859 187.1884460449219 157.4941101074219 178.1293334960938 149.3755798339844 163.7635040283203 L 132.1979370117188 163.7635040283203 C 124.3863220214844 178.1293334960938 108.7631072998047 187.1884460449219 92.20921325683594 187.1884460449219 C 66.90316772460938 187.1884460449219 46.28999328613281 166.5752868652344 46.28999328613281 141.2691955566406 C 46.28999328613281 115.9631500244141 66.90316772460938 95.3499755859375 92.20921325683594 95.3499755859375 Z M 189.6712188720703 176.5650634765625 C 209.3537292480469 176.5650634765625 224.9670257568359 160.6348876953125 224.9670257568359 141.2692260742188 C 224.9670257568359 121.903564453125 209.0368957519531 105.973388671875 189.6711883544922 105.973388671875 L 92.20918273925781 105.973388671875 C 72.84352111816406 105.973388671875 56.91339111328125 121.903564453125 56.91339111328125 141.2692260742188 C 56.91339111328125 160.6348876953125 72.84352111816406 176.5650634765625 92.20918273925781 176.5650634765625 C 105.9512939453125 176.5650634765625 118.7627410888672 168.4465026855469 124.3863220214844 155.9518890380859 C 125.0100860595703 154.0707550048828 126.8812713623047 152.8232879638672 129.0693359375 152.8232879638672 L 152.8111114501953 152.8232879638672 C 154.6823272705078 152.8232879638672 156.5535583496094 154.0806732177734 157.4941101074219 155.9518890380859 C 163.4344940185547 168.4465026855469 175.9291381835938 176.5650634765625 189.6712188720703 176.5650634765625 Z" stroke="none" fill="#756f86"/></g><g transform="translate(-44.28 -93.35)" fill="none"><path d="M189.334,189.149a48.045,48.045,0,0,1-41.127-23.425H133.326A47.889,47.889,0,1,1,92.179,93.35h97.462a47.9,47.9,0,0,1-.307,95.8ZM131,161.764h19.514l.564,1.01A43.919,43.919,0,1,0,189.651,97.32H92.189a43.939,43.939,0,0,0,0,87.878c15.841,0,30.85-8.792,38.246-22.4Zm58.651,16.762a37.9,37.9,0,0,1-33.959-21.752,3.51,3.51,0,0,0-2.9-1.99H129.049a2.863,2.863,0,0,0-2.812,1.772l-.069.188a37.306,37.306,0,1,1-33.979-52.77h97.462a37.276,37.276,0,1,1,0,74.552Zm-60.6-27.692h23.742a7.387,7.387,0,0,1,6.455,4.218,33.961,33.961,0,0,0,30.4,19.524,33.316,33.316,0,0,0,0-66.631H92.189a33.316,33.316,0,1,0,30.336,47.266A6.8,6.8,0,0,1,129.049,150.833Z" stroke="none"/><path d="M 189.3344421386719 189.1487274169922 C 172.5132141113281 189.1487274169922 156.8603057861328 180.1985321044922 148.2071380615234 165.7237548828125 L 133.3264312744141 165.7237548828125 C 125.0594100952148 179.9906158447266 109.050048828125 189.1487274169922 92.17935180664062 189.1487274169922 C 65.76441192626953 189.1487274169922 44.27999496459961 167.664306640625 44.27999496459961 141.2493286132812 C 44.27999496459961 114.8343887329102 65.76441192626953 93.34999847412109 92.17935180664062 93.34999847412109 L 189.641357421875 93.34999847412109 C 215.8780822753906 93.34999847412109 237.223876953125 114.8343887329102 237.223876953125 141.2493286132812 C 237.223876953125 167.664306640625 215.7493896484375 189.1487274169922 189.3344421386719 189.1487274169922 Z M 130.9998016357422 161.7635040283203 L 150.5139617919922 161.7635040283203 L 151.0782928466797 162.7733917236328 C 158.8997955322266 176.6045837402344 173.5527648925781 185.1983337402344 189.3344421386719 185.1983337402344 C 213.5613250732422 185.1983337402344 233.2735137939453 165.4861297607422 233.2735137939453 141.2592468261719 C 233.2735137939453 117.0323333740234 213.6999359130859 97.32013702392578 189.6512451171875 97.32013702392578 L 92.18924713134766 97.32013702392578 C 67.96235656738281 97.32013702392578 48.25016021728516 117.0323333740234 48.25016021728516 141.2592468261719 C 48.25016021728516 165.4861297607422 67.96235656738281 185.1983337402344 92.18924713134766 185.1983337402344 C 108.0302963256836 185.1983337402344 123.0396881103516 176.4065551757812 130.4354705810547 162.8030853271484 L 130.9998016357422 161.7635040283203 Z M 189.6512451171875 178.5252990722656 C 175.2953033447266 178.5252990722656 161.9591369628906 169.9909362792969 155.6920166015625 156.7735748291016 C 155.1078796386719 155.6151885986328 153.909912109375 154.7835540771484 152.7911376953125 154.7835540771484 L 129.0493469238281 154.7835540771484 C 127.7226867675781 154.7835540771484 126.593994140625 155.4963836669922 126.2375793457031 156.5557708740234 L 126.1682739257812 156.7438812255859 C 120.2179946899414 169.9810485839844 106.8719100952148 178.5252990722656 92.18924713134766 178.5252990722656 C 71.63549041748047 178.5252990722656 54.91329956054688 161.8031158447266 54.91329956054688 141.2493591308594 C 54.91329956054688 120.6956100463867 71.63549041748047 103.9734115600586 92.18924713134766 103.9734115600586 L 189.6512451171875 103.9734115600586 C 210.2049865722656 103.9734115600586 226.9272155761719 120.6956100463867 226.9272155761719 141.2493591308594 C 226.9272155761719 161.8031311035156 210.2049865722656 178.5252990722656 189.6512451171875 178.5252990722656 Z M 129.0493469238281 150.8331909179688 L 152.7911376953125 150.8331909179688 C 155.4345703125 150.8331909179688 157.9691619873047 152.4866027832031 159.2463531494141 155.0508575439453 C 164.8897094726562 166.9217529296875 176.8101043701172 174.5749359130859 189.6512451171875 174.5749359130859 C 208.02685546875 174.5749359130859 222.9669036865234 159.6249389648438 222.9669036865234 141.2592468261719 C 222.9669036865234 122.8836364746094 208.0169372558594 107.9435501098633 189.6512451171875 107.9435501098633 L 92.18924713134766 107.9435501098633 C 73.81365966796875 107.9435501098633 58.87355041503906 122.8935241699219 58.87355041503906 141.2592468261719 C 58.87355041503906 159.6348571777344 73.82354736328125 174.5749359130859 92.18924713134766 174.5749359130859 C 105.2877960205078 174.5749359130859 117.1883850097656 166.9811401367188 122.5248565673828 155.2092437744141 C 123.4456024169922 152.5855865478516 126.0593795776367 150.8331909179688 129.0493469238281 150.8331909179688 Z" stroke="none" fill="#756f86"/></g></g><g transform="translate(63.665 115.221)"><g transform="translate(-63.88 -115.46)" fill="none"><path d="M111.769,137.746H96.78v-15a5.307,5.307,0,0,0-10.614,0v14.99h-15a5.307,5.307,0,1,0,0,10.613h14.99v14.99a5.307,5.307,0,0,0,10.614,0V148.35h14.99a5.467,5.467,0,0,0,5.307-5.307A5.233,5.233,0,0,0,111.769,137.746Z" stroke="none"/><path d="M 91.47297668457031 121.4400024414062 C 90.87456512451172 121.4400024414062 90.16622924804688 122.1483306884766 90.16622924804688 122.7467498779297 L 90.16622924804688 137.736328125 L 90.16622924804688 141.736328125 L 86.16622924804688 141.736328125 L 71.166748046875 141.736328125 C 70.56832885742188 141.736328125 69.85999298095703 142.4446563720703 69.85999298095703 143.0430755615234 C 69.85999298095703 143.6414947509766 70.56832885742188 144.3498229980469 71.166748046875 144.3498229980469 L 86.15632629394531 144.3498229980469 L 90.15632629394531 144.3498229980469 L 90.15632629394531 148.3498229980469 L 90.15632629394531 163.3394165039062 C 90.15632629394531 163.9378204345703 90.86466217041016 164.6461486816406 91.46308135986328 164.6461486816406 C 92.06150817871094 164.6461486816406 92.76983642578125 163.9378204345703 92.76983642578125 163.3394165039062 L 92.76983642578125 148.3498229980469 L 92.76983642578125 144.3498229980469 L 96.76983642578125 144.3498229980469 L 111.7594146728516 144.3498229980469 C 112.3578414916992 144.3498229980469 113.0661697387695 143.6414947509766 113.0661697387695 143.0430755615234 L 113.0661697387695 143.0289611816406 L 113.066276550293 143.0148315429688 C 113.0687103271484 142.6708984375 112.935173034668 142.3377685546875 112.6999206542969 142.1008453369141 C 112.4662628173828 141.8655395507812 112.1531600952148 141.7462310791016 111.7693176269531 141.7462310791016 L 96.77973175048828 141.7462310791016 L 92.77973175048828 141.7462310791016 L 92.77973175048828 137.7462310791016 L 92.77973175048828 122.7467498779297 C 92.77973175048828 122.1483306884766 92.07139587402344 121.4400024414062 91.47297668457031 121.4400024414062 M 91.47297668457031 117.4400024414062 C 94.28475952148438 117.4400024414062 96.77973175048828 119.9349670410156 96.77973175048828 122.7467498779297 L 96.77973175048828 137.7462310791016 L 111.7693176269531 137.7462310791016 C 114.8979263305664 137.7462310791016 117.0859603881836 140.2411956787109 117.0661697387695 143.0430755615234 C 117.0661697387695 145.8548583984375 114.5711975097656 148.3498229980469 111.7594146728516 148.3498229980469 L 96.76983642578125 148.3498229980469 L 96.76983642578125 163.3394165039062 C 96.76983642578125 166.1511993408203 94.27486419677734 168.6461486816406 91.46308135986328 168.6461486816406 C 88.65129852294922 168.6461486816406 86.15632629394531 166.1511993408203 86.15632629394531 163.3394165039062 L 86.15632629394531 148.3498229980469 L 71.166748046875 148.3498229980469 C 68.35496520996094 148.3498229980469 65.85999298095703 145.8548583984375 65.85999298095703 143.0430755615234 C 65.85999298095703 140.2312927246094 68.35496520996094 137.736328125 71.166748046875 137.736328125 L 86.16622924804688 137.736328125 L 86.16622924804688 122.7467498779297 C 86.16622924804688 119.9349670410156 88.66120910644531 117.4400024414062 91.47297668457031 117.4400024414062 Z" stroke="none" fill="#756f86"/></g><g transform="translate(-63.86 -115.44)" fill="none"><path d="M91.443,170.626a7.479,7.479,0,0,1-7.287-7.287V150.33H71.147a7.287,7.287,0,1,1,0-14.574H84.156V122.727a7.287,7.287,0,1,1,14.574,0v13.009H111.74a7.206,7.206,0,0,1,7.287,7.287,7.479,7.479,0,0,1-7.287,7.287h-13V163.32A7.484,7.484,0,0,1,91.443,170.626Zm-20.3-30.92a3.327,3.327,0,0,0,0,6.653h16.97v16.97a3.327,3.327,0,1,0,6.653,0V146.36h16.97a3.5,3.5,0,0,0,3.327-3.327,3.3,3.3,0,0,0-3.327-3.327H94.78v-16.98a3.327,3.327,0,0,0-6.653,0V139.7H71.147Z" stroke="none"/><path d="M 91.44321441650391 170.626220703125 C 87.56217193603516 170.626220703125 84.15633392333984 167.2203979492188 84.15633392333984 163.3393402099609 L 84.15633392333984 150.3298797607422 L 71.14688110351562 150.3298797607422 C 67.26583862304688 150.3298797607422 63.86000442504883 146.9240570068359 63.86000442504883 143.0429992675781 C 63.86000442504883 139.1619567871094 67.26583862304688 135.7561187744141 71.14688110351562 135.7561187744141 L 84.15633392333984 135.7561187744141 L 84.15633392333984 122.7268753051758 C 84.15633392333984 118.8458251953125 87.56217193603516 115.4400024414062 91.44321441650391 115.4400024414062 C 95.32427215576172 115.4400024414062 98.73009490966797 118.8458251953125 98.73009490966797 122.7268753051758 L 98.73009490966797 135.736328125 L 111.7395553588867 135.736328125 C 115.8285140991211 135.736328125 119.0264282226562 138.9342346191406 119.0264282226562 143.0232086181641 C 119.0264282226562 146.9042663574219 115.62060546875 150.3100891113281 111.7395553588867 150.3100891113281 L 98.739990234375 150.3100891113281 L 98.739990234375 163.3195495605469 C 98.739990234375 167.2204132080078 95.33416748046875 170.626220703125 91.44321441650391 170.626220703125 Z M 71.14688110351562 139.6965942382812 L 71.14688110351562 139.7064819335938 C 69.43406677246094 139.7064819335938 67.82026672363281 141.3202972412109 67.82026672363281 143.0331115722656 C 67.82026672363281 144.7459106445312 69.43406677246094 146.3597259521484 71.14688110351562 146.3597259521484 L 88.11660003662109 146.3597259521484 L 88.11660003662109 163.3294372558594 C 88.11660003662109 165.0422515869141 89.73040008544922 166.6560668945312 91.44321441650391 166.6560668945312 C 93.15603637695312 166.6560668945312 94.76983642578125 165.0422515869141 94.76983642578125 163.3294372558594 L 94.76983642578125 146.3597259521484 L 111.7395553588867 146.3597259521484 C 113.4523696899414 146.3597259521484 115.0661697387695 144.7459106445312 115.0661697387695 143.0331115722656 C 115.0661697387695 141.3995056152344 113.8186950683594 139.7064819335938 111.7395553588867 139.7064819335938 L 94.77973937988281 139.7064819335938 L 94.77973937988281 122.7268753051758 C 94.77973937988281 121.0140686035156 93.16593933105469 119.4002685546875 91.45311737060547 119.4002685546875 C 89.74029541015625 119.4002685546875 88.12649536132812 121.0140686035156 88.12649536132812 122.7268753051758 L 88.12649536132812 139.6965942382812 L 71.14688110351562 139.6965942382812 Z" stroke="none" fill="#756f86"/></g></g><g transform="translate(162.999 132.715)"><g transform="translate(1.98 1.98)" fill="none" stroke="#756f86" stroke-width="4"><circle cx="8.119" cy="8.119" r="8.119" stroke="none"/><circle cx="8.119" cy="8.119" r="6.119" fill="none"/></g><g transform="translate(-164.19 -133.11)" fill="none"><path d="M174.289,153.307a10.1,10.1,0,1,1,10.1-10.1A10.109,10.109,0,0,1,174.289,153.307Zm0-16.237a6.138,6.138,0,1,0,6.138,6.138A6.144,6.144,0,0,0,174.289,137.07Z" stroke="none"/><path d="M 174.2886657714844 153.3073272705078 C 168.7145843505859 153.3073272705078 164.1900024414062 148.7728271484375 164.1900024414062 143.2086639404297 C 164.1900024414062 137.6445007324219 168.7245025634766 133.1100006103516 174.2886657714844 133.1100006103516 C 179.8528289794922 133.1100006103516 184.3873291015625 137.6445007324219 184.3873291015625 143.2086639404297 C 184.3873291015625 148.7728271484375 179.8528289794922 153.3073272705078 174.2886657714844 153.3073272705078 Z M 174.2886657714844 137.0702667236328 C 170.9026489257812 137.0702667236328 168.1502685546875 139.8226318359375 168.1502685546875 143.2086639404297 C 168.1502685546875 146.5946807861328 170.9026489257812 149.3470611572266 174.2886657714844 149.3470611572266 C 177.6746826171875 149.3470611572266 180.4270629882812 146.5946807861328 180.4270629882812 143.2086639404297 C 180.4270629882812 139.8226318359375 177.6746826171875 137.0702667236328 174.2886657714844 137.0702667236328 Z" stroke="none" fill="#756f86"/></g></g><g transform="translate(181.424 114.914)"><g transform="translate(1.98 1.98)" fill="none" stroke="#756f86" stroke-width="4"><circle cx="8.119" cy="8.119" r="8.119" stroke="none"/><circle cx="8.119" cy="8.119" r="6.119" fill="none"/></g><g transform="translate(-182.8 -115.13)" fill="none"><path d="M192.9,135.327a10.1,10.1,0,1,1,10.1-10.1A10.109,10.109,0,0,1,192.9,135.327Zm0-16.247a6.138,6.138,0,1,0,6.138,6.138A6.144,6.144,0,0,0,192.9,119.08Z" stroke="none"/><path d="M 192.8986663818359 135.3273162841797 C 187.3246002197266 135.3273162841797 182.8000030517578 130.7928161621094 182.8000030517578 125.2286682128906 C 182.8000030517578 119.6546020507812 187.3345031738281 115.129997253418 192.8986663818359 115.129997253418 C 198.4628295898438 115.129997253418 202.9973297119141 119.6644973754883 202.9973297119141 125.2286682128906 C 203.0072326660156 130.7928161621094 198.4727325439453 135.3273162841797 192.8986663818359 135.3273162841797 Z M 192.8986663818359 119.0803604125977 C 189.5126495361328 119.0803604125977 186.7602691650391 121.8327407836914 186.7602691650391 125.2187576293945 C 186.7602691650391 128.6047821044922 189.5126495361328 131.3571624755859 192.8986663818359 131.3571624755859 C 196.2846832275391 131.3571624755859 199.0370635986328 128.6047821044922 199.0370635986328 125.2187728881836 C 199.0469818115234 121.842643737793 196.2846832275391 119.0803604125977 192.8986663818359 119.0803604125977 Z" stroke="none" fill="#756f86"/></g></g><g transform="translate(180.176 149.903)"><g transform="translate(1.98 1.97)" fill="none" stroke="#756f86" stroke-width="4"><circle cx="8.119" cy="8.119" r="8.119" stroke="none"/><circle cx="8.119" cy="8.119" r="6.119" fill="none"/></g><g transform="translate(-181.54 -150.47)" fill="none"><path d="M191.639,170.667a10.1,10.1,0,1,1,10.1-10.1A10.109,10.109,0,0,1,191.639,170.667Zm0-16.247a6.138,6.138,0,1,0,6.138,6.138A6.144,6.144,0,0,0,191.639,154.42Z" stroke="none"/><path d="M 191.6386566162109 170.6673278808594 C 186.0645904541016 170.6673278808594 181.5399932861328 166.1328277587891 181.5399932861328 160.5686645507812 C 181.5399932861328 155.0045013427734 186.0744934082031 150.4700012207031 191.6386566162109 150.4700012207031 C 197.2028198242188 150.4700012207031 201.7373199462891 155.0045013427734 201.7373199462891 160.5686645507812 C 201.7373199462891 166.1328277587891 197.2127227783203 170.6673278808594 191.6386566162109 170.6673278808594 Z M 191.6386566162109 154.4203643798828 C 188.2526397705078 154.4203643798828 185.5002593994141 157.1727447509766 185.5002593994141 160.5587615966797 C 185.5002593994141 163.9447937011719 188.2526397705078 166.6971588134766 191.6386566162109 166.6971588134766 C 195.0246887207031 166.6971588134766 197.7770690917969 163.9447937011719 197.7770690917969 160.5587615966797 C 197.7770690917969 157.1727447509766 195.0246887207031 154.4203643798828 191.6386566162109 154.4203643798828 Z" stroke="none" fill="#756f86"/></g></g><g transform="translate(198.295 131.784)"><g transform="translate(1.98 1.97)" fill="none" stroke="#756f86" stroke-width="4"><circle cx="8.119" cy="8.119" r="8.119" stroke="none"/><circle cx="8.119" cy="8.119" r="6.119" fill="none"/></g><g transform="translate(-199.84 -132.17)" fill="none"><path d="M209.939,152.367a10.1,10.1,0,1,1,10.1-10.1A10.109,10.109,0,0,1,209.939,152.367Zm0-16.247a6.138,6.138,0,1,0,6.138,6.138A6.144,6.144,0,0,0,209.939,136.12Z" stroke="none"/><path d="M 209.9386444091797 152.3673400878906 C 204.3645782470703 152.3673400878906 199.8399810791016 147.8328399658203 199.8399810791016 142.2686767578125 C 199.8399810791016 136.7045135498047 204.3744812011719 132.1700134277344 209.9386444091797 132.1700134277344 C 215.5028076171875 132.1700134277344 220.0373077392578 136.7045135498047 220.0373077392578 142.2686767578125 C 220.0373077392578 147.8328399658203 215.5127258300781 152.3673400878906 209.9386444091797 152.3673400878906 Z M 209.9386444091797 136.120361328125 C 206.5526275634766 136.120361328125 203.8002471923828 138.8727416992188 203.8002471923828 142.2587585449219 C 203.8002471923828 145.6447906494141 206.5526275634766 148.3971710205078 209.9386444091797 148.3971710205078 C 213.3246765136719 148.3971710205078 216.0770416259766 145.6447906494141 216.0770416259766 142.2587585449219 C 216.0770568847656 138.8727416992188 213.3246917724609 136.120361328125 209.9386444091797 136.120361328125 Z" stroke="none" fill="#756f86"/></g></g></g></g></svg>