<svg xmlns="http://www.w3.org/2000/svg" width="349" height="349" viewBox="0 0 349 349"><g transform="translate(-16092 18902)"><rect width="349" height="349" transform="translate(16092 -18902)" fill="none"/><g transform="translate(-194.366 156.955)"><path d="M148.808,7.2H34.306A18.966,18.966,0,0,0,15.362,26.14V40.292H10.426a2.17,2.17,0,0,0-2.17,2.17V72.275a2.17,2.17,0,0,0,2.17,2.17h4.936V92.338H10.426a2.17,2.17,0,0,0-2.17,2.17V124.32a2.17,2.17,0,0,0,2.17,2.17h4.936v14.152a18.966,18.966,0,0,0,18.944,18.944h4.562v9.533a2.17,2.17,0,0,0,2.17,2.17H64.561a2.17,2.17,0,0,0,2.17-2.17v-9.533h49.65v9.533a2.17,2.17,0,0,0,2.17,2.17h23.523a2.17,2.17,0,0,0,2.17-2.17v-9.533h4.563a18.966,18.966,0,0,0,18.944-18.944V26.14A18.966,18.966,0,0,0,148.808,7.2ZM12.6,70.1V44.633h23.36V70.1Zm25.53,22.233h-5.4V74.445h5.4a2.17,2.17,0,0,0,2.17-2.17V42.462a2.17,2.17,0,0,0-2.17-2.17h-5.4V26.14a1.644,1.644,0,0,1,1.581-1.581h114.5a1.644,1.644,0,0,1,1.581,1.581v114.5a1.644,1.644,0,0,1-1.581,1.581H34.306a1.644,1.644,0,0,1-1.581-1.581V126.491h5.4a2.17,2.17,0,0,0,2.17-2.17V94.508A2.17,2.17,0,0,0,38.126,92.338ZM28.384,74.445V92.338H19.7V74.445ZM12.6,122.15V96.678h23.36V122.15Zm49.795,44.8H43.209v-7.363H62.391Zm77.513,0H120.722v-7.363H139.9v7.363Zm23.507-26.307a14.62,14.62,0,0,1-14.6,14.6H34.306a14.62,14.62,0,0,1-14.6-14.6V126.491h8.681v14.152a6,6,0,0,0,5.922,5.922h114.5a6,6,0,0,0,5.922-5.922V26.14a6,6,0,0,0-5.922-5.922H34.306a6,6,0,0,0-5.922,5.922V40.292H19.7V26.14a14.62,14.62,0,0,1,14.6-14.6h114.5a14.62,14.62,0,0,1,14.6,14.6v114.5Z" transform="translate(16373.001 -18973.199)" fill="#756f86" stroke="#756f86" stroke-width="2"/><path d="M37.428,65.416H47.869a2.17,2.17,0,0,0,2.17-2.17V52.805a2.17,2.17,0,0,0-2.17-2.17H37.428a2.17,2.17,0,0,0-2.17,2.17V63.246A2.17,2.17,0,0,0,37.428,65.416Zm2.17-10.44h6.1v6.1H39.6Z" transform="translate(16404.604 -18922.361)" fill="#756f86" stroke="#756f86" stroke-width="2"/><path d="M55.8,65.416a2.17,2.17,0,0,0,2.17-2.17V52.805a2.17,2.17,0,0,0-2.17-2.17H45.364a2.17,2.17,0,0,0-2.17,2.17V63.246a2.17,2.17,0,0,0,2.17,2.17Zm-8.27-10.44h6.1v6.1h-6.1Z" transform="translate(16413.891 -18922.361)" fill="#756f86" stroke="#756f86" stroke-width="2"/><path d="M63.893,50.635H53.452a2.17,2.17,0,0,0-2.17,2.17V63.246a2.17,2.17,0,0,0,2.17,2.17H63.893a2.17,2.17,0,0,0,2.17-2.17V52.805A2.17,2.17,0,0,0,63.893,50.635Zm-2.17,10.441h-6.1v-6.1h6.1Z" transform="translate(16423.357 -18922.361)" fill="#756f86" stroke="#756f86" stroke-width="2"/><path d="M82.646,59.888H37.428a2.17,2.17,0,1,0,0,4.341H82.646a2.17,2.17,0,0,0,0-4.341Z" transform="translate(16404.604 -18911.531)" fill="#756f86" stroke="#756f86" stroke-width="2"/><path d="M82.57,63.973H37.352a2.17,2.17,0,1,0,0,4.341H82.57a2.17,2.17,0,1,0,0-4.341Z" transform="translate(16404.514 -18906.752)" fill="#756f86" stroke="#756f86" stroke-width="2"/><path d="M36.207,80.255a5.373,5.373,0,0,0,2.692-.723L50.887,72.61a20.314,20.314,0,0,0,28.582,0l11.988,6.922a5.4,5.4,0,0,0,5.4-9.362L84.867,63.246A20.245,20.245,0,0,0,70.582,38.5V24.655a5.4,5.4,0,1,0-10.808,0V38.5A20.244,20.244,0,0,0,45.488,63.246L33.5,70.17a5.4,5.4,0,0,0,2.712,10.084Zm47.1-12.9L94.69,73.93a1.063,1.063,0,0,1-1.063,1.842L82.245,69.2A20.34,20.34,0,0,0,83.307,67.358Zm-19.193-42.7a1.063,1.063,0,1,1,2.127,0V37.8c-.354-.018-.7-.054-1.063-.054s-.709.036-1.064.054Zm1.064,17.437A16.027,16.027,0,1,1,49.15,58.119,16.045,16.045,0,0,1,65.178,42.092ZM35.666,73.93l11.383-6.572A20.358,20.358,0,0,0,48.111,69.2L36.73,75.772a1.064,1.064,0,0,1-1.064-1.842Z" transform="translate(16399.379 -18959.092)" fill="#756f86" stroke="#756f86" stroke-width="2"/><path d="M52.209,53.063A10.332,10.332,0,1,0,41.876,42.731,10.343,10.343,0,0,0,52.209,53.063Zm0-16.324a5.992,5.992,0,1,1-5.992,5.992A6,6,0,0,1,52.209,36.739Z" transform="translate(16412.35 -18943.705)" fill="#756f86" stroke="#756f86" stroke-width="2"/></g></g></svg>