<svg xmlns="http://www.w3.org/2000/svg" width="349" height="349" viewBox="0 0 349 349"><g transform="translate(-18030 19661)"><rect width="349" height="349" transform="translate(18030 -19661)" fill="none"/><path d="M256.321,111.4V94.645a10.128,10.128,0,0,0-.508-2.987h.3L234.665,36.937a8.274,8.274,0,0,0-8.244-7.647H38.241A8.274,8.274,0,0,0,30,36.937L8.73,91.539h.3a10.126,10.126,0,0,0-.508,2.987v16.757a10.245,10.245,0,0,0,2.987,7.288,10.245,10.245,0,0,0-2.987,7.288v16.757a10.275,10.275,0,0,0,10.395,10.395H245.926A10.275,10.275,0,0,0,256.2,142.736V125.979a10.245,10.245,0,0,0-2.987-7.288,10.246,10.246,0,0,0,3.106-7.288ZM36.12,38.131v-.568a2.3,2.3,0,0,1,2.3-2.3h91.014v7.647a2.987,2.987,0,0,0,5.974,0V35.264h91.043a2.3,2.3,0,0,1,2.3,2.3v.568L246.942,84.46H139.709a10.245,10.245,0,0,0-7.288,2.987,10.245,10.245,0,0,0-7.288-2.987H18.049ZM14.494,111.4V94.645a4.3,4.3,0,0,1,4.421-4.3H125.252a4.3,4.3,0,0,1,4.182,4.3V111.4a4.3,4.3,0,0,1-4.3,4.3H18.915a4.3,4.3,0,0,1-4.421-4.3Zm235.972,14.577v16.757a4.3,4.3,0,0,1-4.54,4.3H18.915a4.3,4.3,0,0,1-4.3-4.3V125.979a4.3,4.3,0,0,1,4.3-4.3H245.926a4.3,4.3,0,0,1,4.421,4.3ZM139.948,115.7a4.3,4.3,0,0,1-4.54-4.3V94.645a4.3,4.3,0,0,1,4.3-4.3H245.926a4.3,4.3,0,0,1,4.3,4.3V111.4a4.3,4.3,0,0,1-4.3,4.3Z" transform="translate(18072.254 -19577.166)" fill="none" stroke="#756f86" stroke-width="5"/></g></svg>