<svg xmlns="http://www.w3.org/2000/svg" width="349" height="349" viewBox="0 0 349 349"><g transform="translate(-19653 19282)"><rect width="349" height="349" transform="translate(19653 -19282)" fill="none"/><g transform="translate(19707.301 -20180.141)"><g transform="translate(43.7 998.14)"><g transform="translate(-43.7 -998.14)" fill="none"><path d="M48.569,998.14c-2.773,0-4.822,2.82-4.869,4.869v51.972a5.056,5.056,0,0,0,4.869,4.869H74.555v69.834a5.056,5.056,0,0,0,4.869,4.869h68.214a5.062,5.062,0,0,0,4.869-4.869v-97.448a5.056,5.056,0,0,0-4.869-4.869H79.423a5.165,5.165,0,0,0-4.869,4.869v3.248h-6.5V1022.49H172v12.993h-6.5v-3.248a4.872,4.872,0,0,0-9.745,0V1137.8H85.92a4.873,4.873,0,1,0,0,9.745h74.71a5.062,5.062,0,0,0,4.869-4.869v-82.827h25.986a5.062,5.062,0,0,0,4.869-4.869v-51.972a5.056,5.056,0,0,0-4.869-4.868Zm4.869,9.745H186.616v42.228h-21.11v-4.869h11.365a5.063,5.063,0,0,0,4.869-4.876V1017.63a5.056,5.056,0,0,0-4.869-4.869H63.182c-2.687,0-4.822,2.82-4.869,4.869v22.738a5.069,5.069,0,0,0,4.869,4.876H74.547v4.869H53.437ZM84.3,1033.871h58.469v90.952H84.3v-90.952Zm29.234,16.241a4.87,4.87,0,0,0-4.869,4.869v.911a14.6,14.6,0,0,0-9.745,13.7A13.069,13.069,0,0,0,104,1079.947c2.742,1.994,5.414,2.789,7.462,3.755,3.287,1.433,6.948,2.734,6.956,5.383,0,3.56-1.651,4.869-4.869,4.869-2.321,0-4.432-1.908-5.383-3.809a4.882,4.882,0,1,0-8.732,4.37,16.914,16.914,0,0,0,9.239,8.374v.81a4.869,4.869,0,1,0,9.737,0v-.865a14.675,14.675,0,0,0,9.745-13.756,13.193,13.193,0,0,0-5.079-10.407c-2.734-1.994-5.414-2.789-7.462-3.755-3.264-1.433-6.948-2.734-6.956-5.328,0-3.56,1.651-4.876,4.869-4.876,2.321,0,4.432,1.908,5.383,3.809a4.882,4.882,0,1,0,8.732-4.37,16.84,16.84,0,0,0-9.239-8.327v-.865a4.865,4.865,0,0,0-4.868-4.845Z" stroke="none"/><path d="M 48.56852722167969 998.1400146484375 C 45.79541015625 998.1400146484375 43.74673461914062 1000.959838867188 43.69998168945312 1003.008544921875 L 43.69998168945312 1054.98095703125 C 43.69998168945312 1057.535888671875 46.02131652832031 1059.849487304688 48.56852722167969 1059.849487304688 L 74.55473327636719 1059.849487304688 L 74.55473327636719 1129.683471679688 C 74.55473327636719 1132.238525390625 76.87605285644531 1134.552001953125 79.42326354980469 1134.552001953125 L 147.6370849609375 1134.552001953125 C 150.1842803955078 1134.552001953125 152.5055847167969 1132.230712890625 152.5055847167969 1129.683471679688 L 152.5055847167969 1032.235229492188 C 152.5055847167969 1029.68017578125 150.1842803955078 1027.36669921875 147.6370849609375 1027.36669921875 L 79.42326354980469 1027.36669921875 C 76.48655700683594 1027.36669921875 74.60145568847656 1030.1865234375 74.55473327636719 1032.235229492188 L 74.55473327636719 1035.483520507812 L 68.05818176269531 1035.483520507812 L 68.05818176269531 1022.490478515625 L 172.0030212402344 1022.490478515625 L 172.0030212402344 1035.483520507812 L 165.5064849853516 1035.483520507812 L 165.5064849853516 1032.235229492188 C 165.5606689453125 1029.651000976562 163.2169036865234 1027.366333007812 160.6357421875 1027.366333007812 C 160.6182861328125 1027.366333007812 160.6009063720703 1027.366455078125 160.5834350585938 1027.36669921875 C 158.0128479003906 1027.39013671875 155.7071228027344 1029.67236328125 155.7616577148438 1032.235229492188 L 155.7616577148438 1137.80029296875 L 85.91983032226562 1137.80029296875 C 85.8988037109375 1137.800048828125 85.87744140625 1137.7998046875 85.8564453125 1137.7998046875 C 83.31056213378906 1137.7998046875 80.99674987792969 1140.119384765625 80.99674987792969 1142.676635742188 C 80.99674987792969 1145.22607421875 83.31074523925781 1147.545654296875 85.8564453125 1147.545654296875 C 85.87759399414062 1147.545654296875 85.89863586425781 1147.54541015625 85.91983032226562 1147.545166015625 L 160.6301574707031 1147.545166015625 C 163.1773986816406 1147.545166015625 165.4986877441406 1145.223876953125 165.4986877441406 1142.676635742188 L 165.4986877441406 1059.849487304688 L 191.4849243164062 1059.849487304688 C 194.0321197509766 1059.849487304688 196.3534240722656 1057.528198242188 196.3534240722656 1054.98095703125 L 196.3534240722656 1003.008544921875 C 196.3534240722656 1000.45361328125 194.0321197509766 998.14013671875 191.4849243164062 998.14013671875 L 48.56852722167969 998.1400146484375 M 186.6163635253906 1050.112426757812 L 165.5064697265625 1050.112426757812 L 165.5064697265625 1045.243896484375 L 176.8715515136719 1045.243896484375 C 179.4187622070312 1045.243896484375 181.7400817871094 1042.922607421875 181.7400817871094 1040.367553710938 L 181.7400817871094 1017.629638671875 C 181.7400817871094 1015.07470703125 179.4187622070312 1012.761108398438 176.8715515136719 1012.761108398438 L 63.18186950683594 1012.761108398438 C 60.49443054199219 1012.761108398438 58.36009216308594 1015.5810546875 58.3133544921875 1017.629638671875 L 58.3133544921875 1040.367553710938 C 58.3133544921875 1042.922607421875 60.63465881347656 1045.236083984375 63.18186950683594 1045.243896484375 L 74.54696655273438 1045.243896484375 L 74.54696655273438 1050.112426757812 L 53.43702697753906 1050.112426757812 L 53.43702697753906 1007.884765625 L 186.6163635253906 1007.884765625 L 186.6163635253906 1050.112426757812 M 142.7685546875 1124.82275390625 L 84.29954528808594 1124.82275390625 L 84.29954528808594 1033.870971679688 L 142.7685546875 1033.870971679688 L 142.7685546875 1124.82275390625 M 113.534049987793 1050.112426757812 C 110.8466491699219 1050.112426757812 108.6655578613281 1052.293579101562 108.6655578613281 1054.98095703125 L 108.6655578613281 1055.892333984375 C 103.1193084716797 1057.894287109375 98.92071533203125 1063.14453125 98.92071533203125 1069.59423828125 C 98.92071533203125 1074.0810546875 101.2575988769531 1077.952514648438 103.9995574951172 1079.94677734375 C 106.7415008544922 1081.94091796875 109.4133453369141 1082.7353515625 111.4620361328125 1083.701293945312 C 114.7492294311523 1085.134521484375 118.4103698730469 1086.435424804688 118.4181442260742 1089.083984375 C 118.4181442260742 1092.643798828125 116.7667541503906 1093.952514648438 113.5496215820312 1093.952514648438 C 111.2283172607422 1093.952514648438 109.1173248291016 1092.044067382812 108.1669769287109 1090.143310546875 C 107.3406829833984 1088.496337890625 105.4881134033203 1087.494262695312 103.6601409912109 1087.494262695312 C 102.9549560546875 1087.494262695312 102.2534484863281 1087.643432617188 101.6159210205078 1087.962158203125 C 99.33355712890625 1089.107299804688 98.28973388671875 1092.22314453125 99.43479919433594 1094.513305664062 C 101.1484985351562 1097.932983398438 104.3267059326172 1101.360473632812 108.6732940673828 1102.88720703125 L 108.6732940673828 1103.697265625 C 108.6732940673828 1106.384643554688 110.8544158935547 1108.565795898438 113.5418243408203 1108.565795898438 C 116.2292556762695 1108.565795898438 118.4103469848633 1106.384643554688 118.4103469848633 1103.697265625 L 118.4103469848633 1102.832641601562 C 123.9565734863281 1100.830810546875 128.1551818847656 1095.526000976562 128.1551818847656 1089.076171875 C 128.1551818847656 1084.58935546875 125.8182983398438 1080.671142578125 123.0763244628906 1078.669189453125 C 120.3421859741211 1076.675048828125 117.6625518798828 1075.880615234375 115.6138687133789 1074.914672851562 C 112.3500061035156 1073.4814453125 108.6655120849609 1072.180541992188 108.6577301025391 1069.586547851562 C 108.6577301025391 1066.026733398438 110.3091125488281 1064.710205078125 113.5262298583984 1064.710205078125 C 115.8475494384766 1064.710205078125 117.9585494995117 1066.61865234375 118.9088668823242 1068.519409179688 C 119.7351150512695 1070.166259765625 121.587890625 1071.16845703125 123.4157104492188 1071.16845703125 C 124.1210479736328 1071.16845703125 124.8222808837891 1071.019409179688 125.4599609375 1070.700561523438 C 127.7423248291016 1069.555419921875 128.7861328125 1066.439575195312 127.6410522460938 1064.1494140625 C 125.9273452758789 1060.729736328125 122.7491683959961 1057.34912109375 118.4025497436523 1055.822387695312 L 118.4025497436523 1054.957763671875 C 118.4025726318359 1052.293579101562 116.2214813232422 1050.112426757812 113.534049987793 1050.112426757812 M 48.56852722167969 994.1400146484375 L 191.4849243164062 994.14013671875 C 193.7519836425781 994.14013671875 196.0177307128906 995.1046142578125 197.7012329101562 996.7862548828125 C 199.3867340087891 998.4698486328125 200.3534240722656 1000.73779296875 200.3534240722656 1003.008544921875 L 200.3534240722656 1054.98095703125 C 200.3534240722656 1057.248046875 199.3872985839844 1059.514404296875 197.7028045654297 1061.198852539062 C 196.018310546875 1062.883422851562 193.751953125 1063.849487304688 191.4849243164062 1063.849487304688 L 169.4986877441406 1063.849487304688 L 169.4986877441406 1142.676635742188 C 169.4986877441406 1144.943725585938 168.5325775146484 1147.2099609375 166.8480834960938 1148.89453125 C 165.1635437011719 1150.5791015625 162.897216796875 1151.545166015625 160.6301574707031 1151.545166015625 L 85.94436645507812 1151.545166015625 C 85.91505432128906 1151.54541015625 85.88580322265625 1151.545654296875 85.8564453125 1151.545654296875 C 83.58868408203125 1151.545654296875 81.3231201171875 1150.57861328125 79.640625 1148.892700195312 C 77.96041870117188 1147.208984375 76.99674987792969 1144.943359375 76.99674987792969 1142.676635742188 C 76.99674987792969 1141.214721679688 77.396484375 1139.75341796875 78.12985229492188 1138.448364257812 C 76.31285095214844 1138.157836914062 74.5692138671875 1137.2666015625 73.2069091796875 1135.90576171875 C 71.52140808105469 1134.22216796875 70.55473327636719 1131.954223632812 70.55473327636719 1129.683471679688 L 70.55473327636719 1063.849487304688 L 48.56852722167969 1063.849487304688 C 46.30146789550781 1063.849487304688 44.03565979003906 1062.885009765625 42.35214233398438 1061.203247070312 C 40.66667175292969 1059.51953125 39.69998168945312 1057.251708984375 39.69998168945312 1054.98095703125 L 39.69998168945312 1003.008544921875 L 39.69998168945312 1002.962890625 L 39.70103454589844 1002.917236328125 C 39.746826171875 1000.910400390625 40.63516235351562 998.80126953125 42.13825988769531 997.130615234375 C 43.87336730957031 995.2021484375 46.15701293945312 994.1400146484375 48.56852722167969 994.1400146484375 Z M 72.81544494628906 1026.490478515625 L 72.05818176269531 1026.490478515625 L 72.05818176269531 1027.501953125 C 72.2872314453125 1027.15087890625 72.54023742675781 1026.812377929688 72.81544494628906 1026.490478515625 Z M 168.0030212402344 1026.490478515625 L 167.3428039550781 1026.490478515625 C 167.5811462402344 1026.765258789062 167.8014526367188 1027.052612304688 168.0030212402344 1027.350830078125 L 168.0030212402344 1026.490478515625 Z M 138.7685546875 1037.870971679688 L 88.29954528808594 1037.870971679688 L 88.29954528808594 1120.82275390625 L 138.7685546875 1120.82275390625 L 138.7685546875 1037.870971679688 Z M 113.534049987793 1046.112426757812 C 115.8986206054688 1046.112426757812 118.1238479614258 1047.032470703125 119.7998733520508 1048.703002929688 C 121.0357131958008 1049.934692382812 121.8627014160156 1051.4638671875 122.212890625 1053.127075195312 C 126.0127029418945 1055.10595703125 129.2156677246094 1058.363403320312 131.2171325683594 1062.357299804688 C 132.2351989746094 1064.393432617188 132.3851623535156 1066.857177734375 131.6302337646484 1069.120239257812 C 130.8765869140625 1071.379272460938 129.2814331054688 1073.258422851562 127.253776550293 1074.275756835938 L 127.2512359619141 1074.277099609375 L 127.2487106323242 1074.2783203125 C 126.5111618041992 1074.647094726562 125.7091979980469 1074.90576171875 124.879150390625 1075.0458984375 C 125.0631713867188 1075.171752929688 125.2480621337891 1075.30224609375 125.4334182739258 1075.4375 C 127.3591003417969 1076.843383789062 129.0055084228516 1078.8017578125 130.1962280273438 1081.101928710938 C 131.4777984619141 1083.577514648438 132.1551818847656 1086.3349609375 132.1551818847656 1089.076171875 C 132.1551818847656 1093.024658203125 130.9227294921875 1096.796508789062 128.5910339355469 1099.984008789062 C 127.4897994995117 1101.489501953125 126.1711883544922 1102.822631835938 124.6718215942383 1103.946411132812 C 123.8942947387695 1104.529174804688 123.076774597168 1105.049194335938 122.2255554199219 1105.503173828125 C 121.3890762329102 1109.530151367188 117.8132095336914 1112.565795898438 113.5418243408203 1112.565795898438 C 109.3011779785156 1112.565795898438 105.7460632324219 1109.573608398438 104.8765716552734 1105.58984375 C 103.2390899658203 1104.737182617188 101.7105255126953 1103.6396484375 100.3110504150391 1102.309448242188 C 98.50782775878906 1100.595581054688 96.96823120117188 1098.519409179688 95.85870361328125 1096.305419921875 C 94.84066772460938 1094.269287109375 94.69070434570312 1091.805541992188 95.44564819335938 1089.54248046875 C 96.19927978515625 1087.283447265625 97.79443359375 1085.404296875 99.82209777832031 1084.386962890625 L 99.82461547851562 1084.385620117188 L 99.82711791992188 1084.384399414062 C 100.581298828125 1084.00732421875 101.4028167724609 1083.745361328125 102.2528686523438 1083.607543945312 C 102.0517272949219 1083.471069335938 101.8497161865234 1083.329223632812 101.6468658447266 1083.181762695312 C 99.720458984375 1081.780639648438 98.07386779785156 1079.834716796875 96.885009765625 1077.554443359375 C 95.59996032714844 1075.089599609375 94.92071533203125 1072.337036132812 94.92071533203125 1069.59423828125 C 94.92071533203125 1065.645385742188 96.15541076660156 1061.880004882812 98.49131774902344 1058.704956054688 C 100.179931640625 1056.409790039062 102.3446044921875 1054.546264648438 104.8406982421875 1053.22216796875 C 105.6588897705078 1049.171630859375 109.2459564208984 1046.112426757812 113.534049987793 1046.112426757812 Z M 115.414794921875 1070.470703125 C 115.3871612548828 1070.41845703125 115.3601760864258 1070.366088867188 115.3336181640625 1070.313110351562 L 115.3323669433594 1070.310668945312 L 115.3311233520508 1070.308227539062 C 114.8676681518555 1069.381225585938 113.9313049316406 1068.710205078125 113.5262298583984 1068.710205078125 C 113.1418838500977 1068.710205078125 112.8824768066406 1068.739013671875 112.7187271118164 1068.767944335938 C 112.7049713134766 1068.842529296875 112.6912002563477 1068.937133789062 112.6802368164062 1069.054321289062 C 112.844482421875 1069.1767578125 113.1090698242188 1069.351684570312 113.5217361450195 1069.574584960938 C 114.0757522583008 1069.873779296875 114.7221069335938 1070.16845703125 115.414794921875 1070.470703125 Z M 114.3996734619141 1089.5703125 C 114.2376327514648 1089.446044921875 113.9672470092773 1089.263427734375 113.5322799682617 1089.027954101562 C 112.9754257202148 1088.7265625 112.3244094848633 1088.430419921875 111.6261291503906 1088.126586914062 C 111.6659545898438 1088.200317382812 111.70458984375 1088.274536132812 111.7422485351562 1088.349609375 L 111.7434844970703 1088.35205078125 L 111.7447052001953 1088.3544921875 C 112.2081909179688 1089.281494140625 113.1445541381836 1089.952514648438 113.5496215820312 1089.952514648438 C 113.9338150024414 1089.952514648438 114.1937789916992 1089.923950195312 114.3584136962891 1089.895141601562 C 114.3734664916992 1089.812255859375 114.3884735107422 1089.705200195312 114.3996734619141 1089.5703125 Z" stroke="none" fill="#756f86"/></g></g></g></g></svg>