<svg xmlns="http://www.w3.org/2000/svg" width="349" height="349" viewBox="0 0 349 349"><g transform="translate(-19245 18523)"><rect width="349" height="349" transform="translate(19245 -18523)" fill="none"/><g transform="translate(19301.535 -18479.355)"><g transform="translate(22.535 146.532)"><path d="M29.323,188.426c7.47-.455,13.384-1.285,18.308-1.979,9.768-1.4,13.344-1.716,17.494.958a6.433,6.433,0,0,0,3.488,1.03,32.361,32.361,0,0,0,22.953-9.721,33.394,33.394,0,0,0,45.921.032,33.5,33.5,0,0,0,45.985,0,32.169,32.169,0,0,0,22.9,9.681,6.425,6.425,0,0,0,0-12.849,19.133,19.133,0,0,1-17.119-10.638,6.382,6.382,0,0,0-5.73-3.607,5.521,5.521,0,0,0-5.778,3.551,19.447,19.447,0,0,1-17.254,10.7,19.235,19.235,0,0,1-17.23-10.63,6.382,6.382,0,0,0-5.73-3.607h-.04a6.42,6.42,0,0,0-5.746,3.551,19.447,19.447,0,0,1-17.254,10.7,19.16,19.16,0,0,1-17.119-10.646,6.814,6.814,0,0,0-5.77-3.6,6.42,6.42,0,0,0-5.746,3.551,19.479,19.479,0,0,1-15.618,10.63,36.269,36.269,0,0,0-24.413-1.8c-4.645.654-10.215,1.453-17.278,1.875a6.438,6.438,0,0,0-4.342,2.083,6.421,6.421,0,0,0,4.733,10.742Z" transform="translate(-22.535 -161.298)" fill="none" stroke="#756f86" stroke-width="6"/></g><g transform="translate(59.611 88.171)"><path d="M165.853,145.751a6.428,6.428,0,0,0,4.613,1.7,6.4,6.4,0,0,0,4.453-2.067l25.61-27.765a6.417,6.417,0,0,0-5.355-10.734L144.025,112,129.437,90.94a6.424,6.424,0,0,0-10.567,7.31L129.4,113.461l-54.62,5.467a6.42,6.42,0,0,0-5.754,7.007l1.341,13.91a6.474,6.474,0,0,0,7.007,5.778,6.419,6.419,0,0,0,5.778-7.007l-.726-7.55,97.206-9.721-14.142,15.347a6.44,6.44,0,0,0-1.7,4.613A6.5,6.5,0,0,0,165.853,145.751Z" transform="translate(-68.991 -88.171)" fill="none" stroke="#756f86" stroke-width="6"/></g><g transform="translate(39.427 127.645)"><path d="M49.446,137.678a6.493,6.493,0,0,0-2.394.742,6.32,6.32,0,0,0-1.923,1.6,6.433,6.433,0,0,0-1.165,2.219,6.277,6.277,0,0,0-.223,2.5l1.333,12.594a6.423,6.423,0,0,0,9.449,4.964,6.32,6.32,0,0,0,1.923-1.6,6.5,6.5,0,0,0,1.165-2.219,6.251,6.251,0,0,0,.223-2.49L56.5,143.393a6.366,6.366,0,0,0-4.557-5.507A6.129,6.129,0,0,0,49.446,137.678Z" transform="translate(-43.7 -137.632)" fill="none" stroke="#756f86" stroke-width="6"/></g></g></g></svg>