<svg xmlns="http://www.w3.org/2000/svg" width="349" height="349" viewBox="0 0 349 349"><g transform="translate(-16865 18523)"><rect width="349" height="349" transform="translate(16865 -18523)" fill="none"/><g transform="translate(16942.896 -18439.141)"><path d="M194.334,28.045l-3.7-3.7a6.385,6.385,0,0,0-9.008-.013L163.482,6.191a3.137,3.137,0,0,0-4.438,0L118.924,46.313a3.137,3.137,0,0,0,0,4.438l18.141,18.143L119.782,86.178,93.5,89.234A29.163,29.163,0,0,0,76.31,97.546L6.373,167.486A10.616,10.616,0,1,0,21.388,182.5l64.523-64.522a22.771,22.771,0,0,1,10.864-6.058l21.713-5.134a29.049,29.049,0,0,0,13.86-7.73l61.985-61.986a6.382,6.382,0,0,0,0-9.024ZM125.581,48.532l5.014-5.015,8.212,8.211a3.138,3.138,0,1,0,4.439-4.438l-8.212-8.211,7.559-7.559,10.64,10.636a3.138,3.138,0,1,0,4.439-4.438L147.03,27.082l5.685-5.686,9.5,9.5a3.138,3.138,0,1,0,4.439-4.438l-9.5-9.5,4.109-4.11,15.925,15.923L141.5,64.455Zm2.329,46.084a22.74,22.74,0,0,1-10.866,6.058l-21.713,5.134a29.033,29.033,0,0,0-13.859,7.73L16.949,178.06a4.34,4.34,0,0,1-6.138-6.136L80.75,101.985a22.9,22.9,0,0,1,13.472-6.516l27.369-3.182a3.127,3.127,0,0,0,1.857-.9l62.749-62.6,3.7,3.7,2.219-2.219Z" transform="translate(-3.264 -5.271)" fill="#756f86"/></g></g></svg>