<svg xmlns="http://www.w3.org/2000/svg" width="349" height="349" viewBox="0 0 349 349"><g transform="translate(-18429 18902)"><rect width="349" height="349" transform="translate(18429 -18902)" fill="none"/><g transform="translate(18488.895 -18851.201)"><g transform="translate(24.6 65.983)"><g transform="translate(-25.417 -66.805)" fill="none"><path d="M195.279,117.362a3.434,3.434,0,0,0,2.089.467,4.6,4.6,0,0,0,3.252-1.393,4.71,4.71,0,0,0,1.393-3.252,3.961,3.961,0,0,0-.23-1.622l-1.393-3.711a11.391,11.391,0,0,0-8.356-7.2l-22.062-5.112a4.585,4.585,0,0,1-2.786-1.86l-.7-1.163a15.5,15.5,0,0,0-8.594-6.267l-3.711-1.163-2.319-11.379a2.525,2.525,0,0,0-1.86-1.86l-11.838-2.319a2.368,2.368,0,0,0-.926,4.645h0l10.216,2.089,1.622,8.127-18.81-1.622h-1.86a33.944,33.944,0,0,0-6.734.926l-16.483,5.341a71.921,71.921,0,0,1-22.062,3.482,78.522,78.522,0,0,1-10.446-.7l-9.749-1.393h-.23l-27.648-.459A2.446,2.446,0,0,0,32.97,91.13l-2.089,3.252a4.654,4.654,0,0,0-.7,2.556,4.73,4.73,0,0,0,1.393,3.482,5.476,5.476,0,0,0,3.711,1.622h.926l21.128,5.808L54.091,124.1a29.235,29.235,0,0,0-16.024,6.5,27.482,27.482,0,0,0-9.986,21.366,27.816,27.816,0,0,0,6.5,17.876,27.482,27.482,0,0,0,21.366,9.986,27.816,27.816,0,0,0,17.876-6.5,27.482,27.482,0,0,0,9.986-21.366c0-1.393-.23-2.556-.23-3.949l4.178-1.393.23,1.622a2.465,2.465,0,0,0,2.319,2.089l40.635,1.393a2.635,2.635,0,0,0,1.86-.7,33.909,33.909,0,0,1,2.319-2.556l7.66-1.163a35.02,35.02,0,0,0-.467,4.875,25.6,25.6,0,0,0,.926,7.2,27.75,27.75,0,0,0,26.937,20.669,25.6,25.6,0,0,0,7.2-.926A27.75,27.75,0,0,0,198.049,152.2a25.6,25.6,0,0,0-.926-7.2,27.915,27.915,0,0,0-14.165-17.647l9.053-11.379Zm-16.721,7.9a31.253,31.253,0,0,0-8.127-1.163,25.6,25.6,0,0,0-7.2.926,2.279,2.279,0,1,0,1.163,4.408,26.638,26.638,0,0,1,6.038-.7,23.275,23.275,0,0,1,22.521,17.18,26.639,26.639,0,0,1,.7,6.038,23.275,23.275,0,0,1-17.18,22.521,26.639,26.639,0,0,1-6.038.7,23.275,23.275,0,0,1-22.521-17.18,26.638,26.638,0,0,1-.7-6.038,23.256,23.256,0,0,1,8.594-17.876,2.305,2.305,0,0,0-3.023-3.482,26.433,26.433,0,0,0-8.357,11.838l-4.875.7c.467-.7.926-1.393,1.393-2.089a10.96,10.96,0,0,0,1.163-2.319,8.275,8.275,0,0,0,.7-2.556v-6.5a2.32,2.32,0,0,0-2.319-2.319L88.007,125.26a2.4,2.4,0,0,0-2.556,2.556l.926,6.267a2.487,2.487,0,0,0,2.556,2.089c1.163,0,2.089-1.393,2.089-2.556l-.467-3.482,47.369,1.86v3.711a3.864,3.864,0,0,1-.467,1.163,35.333,35.333,0,0,1-2.089,3.482c-1.393,1.86-2.785,3.711-4.178,5.341-.467.7-1.163,1.163-1.393,1.622l-36.923-1.86-.467-2.556a1.742,1.742,0,0,0-1.163-1.622,2.234,2.234,0,0,0-2.089-.23l-8.823,3.015h-.459a.225.225,0,0,0-.23.23.225.225,0,0,0-.23.23l-.23.23a.225.225,0,0,1-.23.23v1.837h0a18.133,18.133,0,0,1,.467,5.112A22.977,22.977,0,0,1,71.064,169.8,22.549,22.549,0,0,1,56.2,175.146a22.977,22.977,0,0,1-17.876-8.357,22.549,22.549,0,0,1-5.341-14.861,22.977,22.977,0,0,1,8.357-17.876A22.549,22.549,0,0,1,56.2,128.711a22.977,22.977,0,0,1,17.876,8.357,2.305,2.305,0,0,0,3.482-3.023,28.01,28.01,0,0,0-18.573-9.986L62,108.968l8.127,2.319a17.027,17.027,0,0,1,8.127,4.875l3.941,4.224a2.1,2.1,0,0,0,1.622.7l56.659,1.622a2.3,2.3,0,0,0,2.319-1.622l2.089-6.5,7.66-3.252a15.042,15.042,0,0,1,6.267-1.163,8.824,8.824,0,0,1,2.556.23l25.774,3.949ZM191.8,110.4l-29.255-4.875a17.761,17.761,0,0,0-3.482-.23,19.653,19.653,0,0,0-8.127,1.622l-8.594,3.711a2.083,2.083,0,0,0-1.393,1.393l-1.86,6.038-53.873-1.622L82.2,112.955a23.006,23.006,0,0,0-10.446-6.267L37.385,97.4h-2.1c-.23,0-.23,0-.23-.23l-.23-.23v-.23l.926-1.86L62,95.316l9.749,1.393a89.257,89.257,0,0,0,11.142.7,75.479,75.479,0,0,0,23.684-3.711l16.483-5.341a19.224,19.224,0,0,1,5.112-.7h1.393l21.6,1.86,4.875,1.393a10.6,10.6,0,0,1,6.038,4.415l.7,1.163a10.748,10.748,0,0,0,5.571,3.949l22.062,5.112a7.008,7.008,0,0,1,5.112,4.415l1.163,3.252-4.415-2.319h0c.237-.5,0-.5-.459-.5Z" stroke="none"/><path d="M 137.7208251953125 69.48361206054688 C 136.6728820800781 69.48361206054688 135.5835876464844 70.16891479492188 135.3829345703125 71.38630676269531 C 135.1533508300781 72.54946899414062 135.8497161865234 73.94223022460938 137.2424621582031 74.17179870605469 L 147.4585266113281 76.26095581054688 L 149.0808410644531 84.38784790039062 L 130.2710571289062 82.76551818847656 C 129.5746917724609 82.76551818847656 129.1078948974609 82.76551818847656 128.4115295410156 82.76551818847656 C 126.0928421020508 82.76551818847656 123.9960403442383 83.23233032226562 121.6773681640625 83.69148254394531 L 105.1939468383789 89.03289794921875 C 97.99296569824219 91.35159301757812 90.56242370605469 92.5147705078125 83.13186645507812 92.5147705078125 C 79.64999389648438 92.5147705078125 76.16812133789062 92.28520202636719 72.68624877929688 91.81840515136719 L 62.93701171875 90.42564392089844 L 62.70741271972656 90.42564392089844 L 35.05903625488281 89.96650695800781 C 34.13308715820312 89.96650695800781 33.43673706054688 90.43331909179688 32.96992492675781 91.12966918945312 L 30.88079833984375 94.38197326660156 C 30.41398620605469 95.078369140625 30.18441772460938 96.00430297851562 30.18441772460938 96.93789672851562 C 30.18441772460938 98.33065795898438 30.65121459960938 99.49382019042969 31.57716369628906 100.4197692871094 C 32.50311279296875 101.3457183837891 33.8958740234375 102.0421295166016 35.28865051269531 102.0421295166016 L 36.21456909179688 102.0421295166016 L 57.34304809570312 107.8503265380859 L 54.09074401855469 124.1041793823242 C 48.51974487304688 124.5709762573242 42.94874572753906 126.6601028442383 38.06646728515625 130.6087646484375 C 31.33229064941406 136.1797790527344 28.07998657226562 144.0771179199219 28.07998657226562 151.9744720458984 C 28.07998657226562 158.2418518066406 30.16911315917969 164.5168762207031 34.5845947265625 169.8506469726562 C 40.15559387207031 176.5848236083984 48.05294799804688 179.8371276855469 55.95028686523438 179.8371276855469 C 62.21766662597656 179.8371276855469 68.49269104003906 177.7480010986328 73.82646179199219 173.33251953125 C 80.56063842773438 167.7615356445312 83.81294250488281 159.8641662597656 83.81294250488281 151.9668273925781 C 83.81294250488281 150.5740661621094 83.5833740234375 149.4109039306641 83.5833740234375 148.0181579589844 L 87.76161193847656 146.6253967285156 L 87.99116516113281 148.2477111816406 C 88.22076416015625 149.4108734130859 89.15437316894531 150.3368225097656 90.30989074707031 150.3368225097656 L 130.9444885253906 151.7295989990234 C 131.640869140625 151.7295989990234 132.3372497558594 151.5000305175781 132.8040466308594 151.0332336425781 C 132.8040466308594 151.0332336425781 133.7299957275391 149.8700561523438 135.1227416992188 148.477294921875 L 142.7828369140625 147.3141174316406 C 142.5532836914062 148.9364318847656 142.3160400390625 150.5664367675781 142.3160400390625 152.188720703125 C 142.3160400390625 154.5074157714844 142.5456237792969 157.0633544921875 143.2420043945312 159.3897094726562 C 146.4943237304688 171.9320983886719 157.8735198974609 180.0590209960938 170.1786956787109 180.0590209960938 C 172.4973907470703 180.0590209960938 175.0533142089844 179.8294525146484 177.3796691894531 179.1330718994141 C 189.9220733642578 175.8807678222656 198.0489959716797 164.5015563964844 198.0489959716797 152.1963806152344 C 198.0489959716797 149.877685546875 197.8194274902344 147.3217468261719 197.1230163574219 144.9953918457031 C 195.0339202880859 137.0980529785156 189.6924896240234 130.8307037353516 182.9583129882812 127.3488006591797 L 192.0111999511719 115.9696044921875 L 195.2787933349609 117.3623504638672 C 195.9751892089844 117.8291473388672 196.6715698242188 117.8291473388672 197.3679504394531 117.8291473388672 C 198.5311126708984 117.8291473388672 199.6866149902344 117.3623504638672 200.6202392578125 116.4364013671875 C 201.3165893554688 115.7400207519531 202.0130004882812 114.5768432617188 202.0130004882812 113.1840972900391 C 202.0130004882812 112.7173004150391 202.0130004882812 112.0209197998047 201.7834167480469 111.5617828369141 L 200.3906402587891 107.8503265380859 C 198.9979248046875 104.1388702392578 195.7455902099609 101.3457183837891 192.0341644287109 100.6493530273438 L 169.9720916748047 95.53750610351562 C 168.8089141845703 95.30792236328125 167.8829650878906 94.61155700683594 167.1865844726562 93.67794799804688 L 166.4902191162109 92.5147705078125 C 164.4010925292969 89.49969482421875 161.3783721923828 87.17335510253906 157.896484375 86.24740600585938 L 154.1850433349609 85.084228515625 L 151.8663330078125 73.70500183105469 C 151.6367797851562 72.779052734375 150.9403991699219 72.08267211914062 150.0067901611328 71.84544372558594 L 138.1684265136719 69.52674865722656 C 138.0219573974609 69.49784851074219 137.8717956542969 69.48361206054688 137.7208251953125 69.48361206054688 M 196.6715393066406 113.2147064208984 L 192.2560729980469 110.89599609375 C 192.4932861328125 110.3986053466797 192.2560729980469 110.3986053466797 191.7969360351562 110.3986053466797 L 162.5415344238281 105.5239715576172 C 161.3783721923828 105.2944030761719 160.2228393554688 105.2944030761719 159.0596618652344 105.2944030761719 C 156.274169921875 105.2944030761719 153.4886779785156 105.7611999511719 150.9327392578125 106.9167327880859 L 142.3390502929688 110.628173828125 C 141.6426391601562 110.8577575683594 141.1758728027344 111.3245544433594 140.9462585449219 112.0209197998047 L 139.0867156982422 118.0587310791016 L 85.21334838867188 116.4364013671875 L 82.19827270507812 112.9545288085938 C 79.41276550292969 109.939453125 75.69366455078125 107.8426818847656 71.75263977050781 106.6871490478516 L 37.38539123535156 97.39704895019531 C 37.15583801269531 97.39704895019531 36.91862487792969 97.39704895019531 36.68904113769531 97.39704895019531 L 35.28865051269531 97.39704895019531 C 35.05903625488281 97.39704895019531 35.05903625488281 97.39704895019531 35.05903625488281 97.16748046875 L 34.8294677734375 96.93789672851562 L 34.8294677734375 96.70832824707031 L 35.75541687011719 94.84877014160156 L 61.99574279785156 95.31558227539062 L 71.7449951171875 96.70832824707031 C 75.45643615722656 97.17512512207031 79.175537109375 97.40469360351562 82.88699340820312 97.40469360351562 C 90.78434753417969 97.40469360351562 98.91123962402344 96.24153137207031 106.5713653564453 93.69325256347656 L 123.054817199707 88.35182189941406 C 124.677116394043 87.88502502441406 126.5366897583008 87.65545654296875 128.1666412353516 87.65545654296875 C 128.6334533691406 87.65545654296875 129.0925903320312 87.65545654296875 129.5593872070312 87.65545654296875 L 151.1546630859375 89.51499938964844 L 156.0292663574219 90.90774536132812 C 158.5851898193359 91.6041259765625 160.6743469238281 93.22645568847656 162.0670928955078 95.32322692871094 L 162.7634582519531 96.48637390136719 C 164.1562194824219 98.345947265625 166.0157775878906 99.73869323730469 168.3344421386719 100.4350738525391 L 190.3965148925781 105.5469207763672 C 192.7152099609375 106.0137329101562 194.5747680664062 107.6360473632812 195.5083618164062 109.96240234375 L 196.6715393066406 113.2147064208984 M 140.4794616699219 122.7037734985352 C 141.6426391601562 122.7037734985352 142.568603515625 122.0074005126953 142.7981719970703 121.0814514160156 L 144.8872985839844 114.5768432617188 L 152.5474243164062 111.3245544433594 C 154.6365356445312 110.3986053466797 156.7256774902344 110.1614074707031 158.8147888183594 110.1614074707031 C 159.7407531738281 110.1614074707031 160.67431640625 110.1614074707031 161.3707275390625 110.3909454345703 L 187.1442413330078 114.3396301269531 L 178.5581665039062 125.2596969604492 C 176.0022430419922 124.5633239746094 173.2167358398438 124.0965270996094 170.4312438964844 124.0965270996094 C 168.112548828125 124.0965270996094 165.5566101074219 124.3261032104492 163.2302703857422 125.0224761962891 C 162.0670928955078 125.2520523071289 161.1411437988281 126.6447982788086 161.6079406738281 127.807975769043 C 161.7959136962891 128.7603759765625 162.7637329101562 129.5537414550781 163.7467956542969 129.5537414550781 C 163.9643859863281 129.5537414550781 164.1826629638672 129.514892578125 164.3934326171875 129.4302978515625 C 166.4825744628906 128.9634704589844 168.3421173095703 128.7339172363281 170.4312438964844 128.7339172363281 C 180.6472930908203 128.7339172363281 190.1669616699219 135.4681091308594 192.9524383544922 145.9136962890625 C 193.4192504882812 148.0028228759766 193.6488342285156 149.8623962402344 193.6488342285156 151.9515075683594 C 193.6488342285156 162.1675415039062 186.9146423339844 171.6872253417969 176.4690399169922 174.4727172851562 C 174.3799133300781 174.9395141601562 172.5203704833984 175.1690979003906 170.4312438964844 175.1690979003906 C 160.2151947021484 175.1690979003906 150.6955261230469 168.4349365234375 147.9100341796875 157.9893188476562 C 147.4432220458984 155.9002075195312 147.2136535644531 154.0406494140625 147.2136535644531 151.9515228271484 C 147.2136535644531 144.9877471923828 150.4659729003906 138.4831848144531 155.807373046875 134.0753479003906 C 156.7333221435547 133.1493988037109 156.9705505371094 131.7566528320312 156.0369415283203 130.8230590820312 C 155.5167846679688 130.3028869628906 154.8492889404297 130.0000610351562 154.1986389160156 130.0000610351562 C 153.6910858154297 130.0000610351562 153.1937866210938 130.1843414306641 152.7846374511719 130.5934753417969 C 148.8359680175781 133.8457641601562 146.0504760742188 137.7944488525391 144.4281463623047 142.4318542480469 L 139.5535278320312 143.1282348632812 C 140.0203399658203 142.4318542480469 140.4794921875 141.7354431152344 140.9462890625 141.0390930175781 C 141.4130859375 140.3427276611328 141.8722534179688 139.4167785644531 142.1094665527344 138.7203979492188 C 142.3390502929688 138.0240173339844 142.8058471679688 137.0980834960938 142.8058471679688 136.1644744873047 L 142.8058471679688 135.9349060058594 L 142.8058471679688 129.6675262451172 C 142.8058471679688 128.5043487548828 141.8798828125 127.3488235473633 140.4871520996094 127.3488235473633 L 88.00651550292969 125.2596969604492 C 87.31015014648438 125.2596969604492 86.61376953125 125.4893035888672 86.14697265625 125.9560775756836 C 85.68017578125 126.4228744506836 85.45059204101562 127.1192474365234 85.45059204101562 127.8156280517578 L 86.37652587890625 134.0830078125 C 86.60612487792969 135.4757690429688 87.769287109375 136.172119140625 88.93246459960938 136.172119140625 C 90.09561157226562 136.172119140625 91.02157592773438 134.7793731689453 91.02157592773438 133.6162109375 L 90.55476379394531 130.1343231201172 L 137.9235687255859 131.9938659667969 L 137.9235687255859 135.705322265625 C 137.9235687255859 135.9349060058594 137.6940002441406 136.4017028808594 137.4567718505859 136.8684997558594 C 136.9899597167969 137.7944793701172 136.2935791015625 138.9576263427734 135.3676452636719 140.3503723144531 C 133.9748840332031 142.2099304199219 132.5821533203125 144.0618286132812 131.1893920898438 145.6918029785156 C 130.7225952148438 146.38818359375 130.0262145996094 146.85498046875 129.7966156005859 147.3141174316406 L 92.87347412109375 145.4545745849609 L 92.40666198730469 142.8986511230469 C 92.40666198730469 142.2022705078125 91.93986511230469 141.5058898925781 91.24349975585938 141.2763366699219 C 90.83694458007812 141.0038146972656 90.43037414550781 140.8903961181641 90.02381896972656 140.8903961181641 C 89.73399353027344 140.8903961181641 89.44419860839844 140.9480285644531 89.15437316894531 141.0467529296875 L 80.33110046386719 144.0618286132812 L 80.10148620605469 144.0618286132812 L 79.87191772460938 144.0618286132812 C 79.87191772460938 144.0618286132812 79.64234924316406 144.0618286132812 79.64234924316406 144.2913970947266 C 79.64234924316406 144.2913970947266 79.41276550292969 144.2913970947266 79.41276550292969 144.52099609375 C 79.41276550292969 144.52099609375 79.41276550292969 144.52099609375 79.18319702148438 144.7505798339844 C 79.18319702148438 144.7505798339844 79.18319702148438 144.9801483154297 78.95361328125 144.9801483154297 L 78.95361328125 145.209716796875 L 78.95361328125 145.4393005371094 L 78.95361328125 145.6688842773438 L 78.95361328125 145.8984527587891 L 78.95361328125 146.1280212402344 L 78.95361328125 146.3576049804688 L 78.95361328125 146.5871734619141 L 78.95361328125 146.8167419433594 C 79.42042541503906 148.4390869140625 79.42042541503906 150.0690612792969 79.42042541503906 151.9286041259766 C 79.42042541503906 158.6627807617188 76.63491821289062 165.1673736572266 71.06394958496094 169.8047485351562 C 66.6484375 173.5162353515625 61.54425048828125 175.1462097167969 56.20281982421875 175.1462097167969 C 49.46864318847656 175.1462097167969 42.96405029296875 172.3606719970703 38.32667541503906 166.7896728515625 C 34.61518859863281 162.3742218017578 32.98521423339844 157.27001953125 32.98521423339844 151.9286041259766 C 32.98521423339844 145.1944274902344 35.77073669433594 138.6898193359375 41.34175109863281 134.0524291992188 C 45.75718688964844 130.3409729003906 50.86138916015625 128.7109985351562 56.20281982421875 128.7109985351562 C 62.93701171875 128.7109985351562 69.44158935546875 131.4964904785156 74.07902526855469 137.0675048828125 C 74.59916687011719 137.5876770019531 75.26664733886719 137.8904876708984 75.91728210449219 137.8904876708984 C 76.42485046386719 137.8904876708984 76.92216491699219 137.7062072753906 77.331298828125 137.2970733642578 C 78.25724792480469 136.3711242675781 78.49446105957031 134.9783782958984 77.56086730957031 134.0447692871094 C 72.68624877929688 128.2365417480469 65.95208740234375 124.7546768188477 58.98831176757812 124.0583038330078 L 62.00338745117188 108.9676208496094 L 70.13032531738281 111.2863311767578 C 73.38261413574219 112.2122802734375 76.16812133789062 113.8422546386719 78.25726318359375 116.1609497070312 L 82.19827270507812 120.3850708007812 C 82.66506958007812 120.8518829345703 83.12422180175781 121.0814514160156 83.82058715820312 121.0814514160156 L 140.4794616699219 122.7037734985352 M 191.7969360351562 110.3986053466797 C 191.9117279052734 110.3986053466797 191.9691162109375 110.3986053466797 191.9691162109375 110.3986053466797 C 191.9691162109375 110.3986053466797 191.9117279052734 110.3986053466797 191.7969360351562 110.3986053466797 M 137.7208251953125 65.48362731933594 C 138.1302795410156 65.48362731933594 138.5395202636719 65.52322387695312 138.9372711181641 65.60133361816406 L 138.9372711181641 65.601318359375 L 150.775634765625 67.92002868652344 L 150.8844451904297 67.94134521484375 L 150.9918670654297 67.96864318847656 C 153.3441925048828 68.56634521484375 155.1669158935547 70.39555358886719 155.7487945556641 72.74240112304688 L 155.7690124511719 72.82400512695312 L 155.7857971191406 72.90635681152344 L 157.6332702636719 81.97305297851562 L 159.0147705078125 82.40602111816406 C 163.25634765625 83.55859375 167.0756683349609 86.33644104003906 169.7780914306641 90.23661804199219 L 169.8538513183594 90.34597778320312 L 169.9221649169922 90.46009826660156 L 170.4864501953125 91.40263366699219 C 170.6011352539062 91.53401184082031 170.6974487304688 91.60350036621094 170.7466125488281 91.61320495605469 L 170.81103515625 91.62593078613281 L 170.875 91.64073181152344 L 192.8619537353516 96.73516845703125 C 195.3431701660156 97.2176513671875 197.7029418945312 98.37570190429688 199.6916656494141 100.0877990722656 C 201.6809692382812 101.8004302978516 203.2176666259766 103.9987030029297 204.1356506347656 106.4450073242188 L 205.4801788330078 110.0278930664062 C 206.0130157470703 111.2522735595703 206.0130004882812 112.4954528808594 206.0130004882812 113.1840972900391 C 206.0130004882812 115.4187774658203 205.0783386230469 117.6350708007812 203.4487152099609 119.2647705078125 L 203.44287109375 119.2706451416016 L 203.4369659423828 119.2764739990234 C 201.7772216796875 120.922607421875 199.6218414306641 121.8291473388672 197.3679504394531 121.8291473388672 C 196.52587890625 121.8291473388672 195.013916015625 121.8290863037109 193.4432678222656 120.9281921386719 L 193.2449951171875 120.8436889648438 L 188.8876647949219 126.3207244873047 C 194.7737426757812 130.5983276367188 199.0789184570312 136.8065948486328 200.9737091064453 143.9111633300781 C 201.6872863769531 146.3218078613281 202.0489959716797 149.1087493896484 202.0489959716797 152.1963806152344 C 202.0489959716797 155.6727905273438 201.4856262207031 159.110595703125 200.3744964599609 162.4142456054688 C 199.2773895263672 165.6762542724609 197.6761932373047 168.7206115722656 195.6153411865234 171.4627227783203 C 193.5216979980469 174.2485046386719 191.0096130371094 176.6467742919922 188.1488952636719 178.5909118652344 C 185.1976013183594 180.5965576171875 181.9359588623047 182.0753479003906 178.4540405273438 182.9866943359375 C 176.0456695556641 183.6983337402344 173.2621154785156 184.0590209960938 170.1786956787109 184.0590209960938 C 166.7022705078125 184.0590209960938 163.2644653320312 183.4956512451172 159.9608154296875 182.384521484375 C 156.6988220214844 181.2874145507812 153.6544647216797 179.6862182617188 150.9123687744141 177.6253662109375 C 148.1265716552734 175.5317230224609 145.7283020019531 173.0196533203125 143.7841796875 170.158935546875 C 141.7785034179688 167.2076263427734 140.2997131347656 163.9460144042969 139.3883666992188 160.4640808105469 C 138.6767425537109 158.0556945800781 138.3160400390625 155.2721405029297 138.3160400390625 152.188720703125 C 138.3160400390625 152.138427734375 138.3162231445312 152.0883178710938 138.3165893554688 152.0381774902344 L 137.0652465820312 152.2281951904297 C 136.3958282470703 152.9531555175781 135.9699401855469 153.4793090820312 135.9328918457031 153.5252990722656 L 135.7897644042969 153.7060546875 L 135.6324768066406 153.8616485595703 C 134.4453735351562 155.0487518310547 132.7366638183594 155.7295989990234 130.9444885253906 155.7295989990234 L 130.8759765625 155.7295989990234 L 130.8074645996094 155.7272491455078 L 90.22372436523438 154.3362121582031 C 89.36904907226562 154.32421875 88.53384399414062 154.1338043212891 87.7635498046875 153.7829895019531 C 87.54666137695312 157.7521362304688 86.61619567871094 161.5749664306641 84.98942565917969 165.1708068847656 C 83.01368713378906 169.5379486083984 80.11579895019531 173.3208923339844 76.37617492675781 176.4145812988281 C 73.41217041015625 178.8682556152344 70.11573791503906 180.7508239746094 66.57943725585938 182.0091552734375 C 63.17063903808594 183.2221069335938 59.59449768066406 183.8371276855469 55.95028686523438 183.8371276855469 C 51.33009338378906 183.8371276855469 46.88761901855469 182.8871459960938 42.74632263183594 181.0136108398438 C 38.37916564941406 179.0378723144531 34.59622192382812 176.1399841308594 31.50254821777344 172.4003601074219 C 29.04887390136719 169.4363403320312 27.16629028320312 166.1399230957031 25.90797424316406 162.6036224365234 C 24.69502258300781 159.19482421875 24.07998657226562 155.6186828613281 24.07998657226562 151.9744720458984 C 24.07998657226562 147.3542785644531 25.02996826171875 142.9118041992188 26.90351867675781 138.7705078125 C 28.87924194335938 134.4033508300781 31.77714538574219 130.6203918457031 35.51676940917969 127.526725769043 L 35.53384399414062 127.5126037597656 L 35.55107116699219 127.498649597168 C 40.02314758300781 123.8817443847656 45.2203369140625 121.4978332519531 50.72978210449219 120.5142211914062 L 52.68965148925781 110.7194976806641 L 35.67475891113281 106.0421295166016 L 35.28865051269531 106.0421295166016 C 32.94302368164062 106.0421295166016 30.49821472167969 104.9976806640625 28.74874877929688 103.2481994628906 C 27.07113647460938 101.5706024169922 26.18441772460938 99.3885498046875 26.18441772460938 96.93789672851562 C 26.18441772460938 95.19264221191406 26.66259765625 93.51028442382812 27.53184509277344 92.19442749023438 L 29.60444641113281 88.96784973144531 L 29.62562561035156 88.93487548828125 L 29.64744567871094 88.90232849121094 C 30.89822387695312 87.03657531738281 32.87066650390625 85.96650695800781 35.05903625488281 85.96650695800781 L 35.09223937988281 85.96650695800781 L 35.12547302246094 85.96705627441406 L 62.74072265625 86.42564392089844 L 62.93701171875 86.42564392089844 L 63.22129821777344 86.42564392089844 L 63.50270080566406 86.46585083007812 L 73.23509216308594 87.856201171875 C 76.50065612792969 88.293212890625 79.830322265625 88.5147705078125 83.13186645507812 88.5147705078125 C 90.17660522460938 88.5147705078125 97.18470764160156 87.40876770019531 103.9608688354492 85.22770690917969 L 103.9608688354492 85.22770690917969 L 120.4442901611328 79.88627624511719 L 120.6688461303711 79.81352233886719 L 120.9003677368164 79.76766967773438 C 121.1119918823242 79.72575378417969 121.3217468261719 79.68377685546875 121.5299682617188 79.64212036132812 C 123.6837463378906 79.21115112304688 125.9108428955078 78.76551818847656 128.4115295410156 78.76551818847656 L 130.2710571289062 78.76551818847656 L 130.4432373046875 78.76551818847656 L 130.6147918701172 78.78031921386719 L 144.1149597167969 79.9447021484375 L 144.0557250976562 79.64787292480469 L 136.4984588623047 78.10243225097656 C 134.8629455566406 77.80796813964844 133.4429473876953 76.89457702636719 132.4917449951172 75.52275085449219 C 131.5133056640625 74.11163330078125 131.1339111328125 72.34800720214844 131.4466857910156 70.67404174804688 C 131.718994140625 69.1182861328125 132.5613708496094 67.73953247070312 133.8236694335938 66.78633117675781 C 134.9361419677734 65.94627380371094 136.3201599121094 65.48362731933594 137.7208251953125 65.48362731933594 Z M 129.3875122070312 91.65545654296875 L 128.1666412353516 91.65545654296875 C 126.8366928100586 91.65545654296875 125.4024810791016 91.84599304199219 124.2199935913086 92.17903137207031 L 107.8192443847656 97.49365234375 C 103.8738632202148 98.80520629882812 99.70378112792969 99.80259704589844 95.42401123046875 100.4584197998047 C 91.32640075683594 101.0863189697266 87.10833740234375 101.4046936035156 82.88699340820312 101.4046936035156 C 79.00137329101562 101.4046936035156 75.084716796875 101.1598815917969 71.245849609375 100.6770477294922 L 71.21253967285156 100.6728820800781 L 71.1793212890625 100.6681213378906 L 61.67616271972656 99.31053161621094 L 59.65974426269531 99.274658203125 L 72.79644775390625 102.8257446289062 L 72.83738708496094 102.8368072509766 L 72.87809753417969 102.8487548828125 C 77.74984741210938 104.2771453857422 81.98866271972656 106.8330688476562 85.13633728027344 110.2401733398438 L 85.17999267578125 110.2874298095703 L 85.22212219238281 110.3360748291016 L 87.08816528320312 112.4910278320312 L 136.1609497070312 113.9687957763672 L 137.1234741210938 110.8435516357422 L 137.1350708007812 110.8058776855469 L 137.1474151611328 110.7684326171875 C 137.7544555664062 108.9272613525391 139.0758819580078 107.5611572265625 140.8809509277344 106.9007873535156 L 149.3177490234375 103.2571105957031 C 152.2120666503906 101.9547729492188 155.4895935058594 101.2944030761719 159.0596618652344 101.2944030761719 C 159.9375915527344 101.2944030761719 160.8965759277344 101.2944030761719 161.9158630371094 101.3952331542969 C 161.0523986816406 100.6609191894531 160.2632904052734 99.82077026367188 159.5618591308594 98.88424682617188 L 159.4378204345703 98.7186279296875 L 159.3315124511719 98.54107666015625 L 158.6883850097656 97.46687316894531 C 157.7769470214844 96.12887573242188 156.4621887207031 95.17152404785156 154.9777679443359 94.76707458496094 L 154.9540405273438 94.76060485839844 L 154.9303588867188 94.75384521484375 L 150.4268798828125 93.46713256835938 L 129.3875122070312 91.65545654296875 Z M 82.11007690429688 124.8533935546875 C 81.09474182128906 124.569450378418 80.17758178710938 124.0212326049805 79.36984252929688 123.2135009765625 L 79.32081604003906 123.1644744873047 L 79.27351379394531 123.1137771606445 L 75.33251953125 118.8896484375 L 75.30882263183594 118.8642578125 L 75.28556823730469 118.8384552001953 C 73.73724365234375 117.1199951171875 71.63426208496094 115.8734741210938 69.03501892089844 115.1334533691406 L 65.07620239257812 114.0039520263672 L 63.71327209472656 120.8255157470703 C 66.20294189453125 121.4415435791016 68.6202392578125 122.3703918457031 70.93727111816406 123.6035232543945 C 74.59494018554688 125.5501480102539 77.82453918457031 128.1629943847656 80.53819274902344 131.3705596923828 C 81.72114562988281 132.6394348144531 82.29745483398438 134.3413238525391 82.12336730957031 136.0737609863281 C 81.98785400390625 137.4221496582031 81.40855407714844 138.7235412597656 80.47940063476562 139.7840576171875 L 84.411865234375 138.4402465820312 C 83.36457824707031 137.4757995605469 82.66842651367188 136.1812438964844 82.42979431152344 134.7336273193359 L 82.42434692382812 134.7006530761719 L 82.41946411132812 134.6676025390625 L 81.49354553222656 128.4002227783203 L 81.45059204101562 128.1094970703125 L 81.45059204101562 127.8156280517578 C 81.45059204101562 126.770881652832 81.68191528320312 125.7546081542969 82.11007690429688 124.8533935546875 Z M 160.1687622070312 114.2064666748047 C 159.9154968261719 114.1614074707031 159.2558898925781 114.1614074707031 158.8147888183594 114.1614074707031 C 156.880859375 114.1614074707031 155.4478149414062 114.4143218994141 154.1682434082031 114.9814453125 L 154.1395416259766 114.9941711425781 L 154.1106719970703 115.0064239501953 L 148.1358337402344 117.5431976318359 L 146.6366577148438 122.2109146118164 C 146.3208312988281 123.3430252075195 145.6836700439453 124.3267288208008 144.8309326171875 125.0827331542969 C 146.0466766357422 126.2350692749023 146.8058471679688 127.8642044067383 146.8058471679688 129.6675262451172 L 146.8058471679688 130.7738952636719 C 147.8200988769531 129.6558532714844 148.9274444580078 128.5975189208984 150.1261901855469 127.6013946533203 C 151.2423095703125 126.5669326782227 152.6793518066406 126.0000534057617 154.1986389160156 126.0000534057617 C 155.33837890625 126.0000534057617 156.4794616699219 126.3275833129883 157.4898376464844 126.926155090332 C 157.5264282226562 126.0148391723633 157.7754516601562 125.1031875610352 158.2322387695312 124.2613525390625 C 159.0791168212891 122.7005920410156 160.5579528808594 121.5516357421875 162.221435546875 121.1495971679688 C 164.6147308349609 120.4507293701172 167.3757629394531 120.0965270996094 170.4312438964844 120.0965270996094 C 172.5385894775391 120.0965270996094 174.7362823486328 120.3257751464844 176.9922485351562 120.7797393798828 L 179.7632446289062 117.2554931640625 L 160.7649688720703 114.3448181152344 L 160.4352722167969 114.2942962646484 L 160.1687622070312 114.2064666748047 Z M 163.7467956542969 133.5537414550781 C 162.6237487792969 133.5537414550781 161.5443115234375 133.2326049804688 160.6109161376953 132.6742248535156 C 160.505126953125 134.1867065429688 159.8442077636719 135.6953735351562 158.6358032226562 136.9037780761719 L 158.5007019042969 137.0389099121094 L 158.3533020019531 137.1604919433594 C 156.1466979980469 138.9814453125 154.3319396972656 141.2784118652344 153.1052856445312 143.8030395507812 C 151.85009765625 146.3864288330078 151.2136535644531 149.1279602050781 151.2136535644531 151.9515228271484 C 151.2136535644531 153.6645812988281 151.3880004882812 155.18994140625 151.7956848144531 157.0356750488281 C 152.9170227050781 161.1732330322266 155.3296813964844 164.718017578125 158.7767028808594 167.2907257080078 C 162.1276702880859 169.7917175292969 166.2666473388672 171.1690979003906 170.4312438964844 171.1690979003906 C 172.1442718505859 171.1690979003906 173.6694030761719 170.9948120117188 175.5151977539062 170.5871276855469 C 179.6527557373047 169.4657897949219 183.1977233886719 167.0530700683594 185.7704467773438 163.6060485839844 C 188.2714691162109 160.2550659179688 189.6488342285156 156.1160736083984 189.6488342285156 151.9515075683594 C 189.6488342285156 150.2385406494141 189.4745483398438 148.7134094238281 189.0668487548828 146.8675537109375 C 187.9455261230469 142.7299957275391 185.5328063964844 139.1850280761719 182.0857849121094 136.6123046875 C 178.7348175048828 134.1112976074219 174.5958404541016 132.7339172363281 170.4312438964844 132.7339172363281 C 168.7602386474609 132.7339172363281 167.2680053710938 132.8997802734375 165.4827880859375 133.2862854003906 C 164.9233856201172 133.4639129638672 164.3411865234375 133.5537414550781 163.7467956542969 133.5537414550781 Z M 74.95361328125 141.8132934570312 C 73.58941650390625 141.5952301025391 72.27763366699219 140.9230041503906 71.25051879882812 139.8958435058594 L 71.12149047851562 139.7668151855469 L 71.00477600097656 139.6265869140625 C 67.29249572753906 135.1669921875 62.03573608398438 132.7109985351562 56.20281982421875 132.7109985351562 C 51.52566528320312 132.7109985351562 47.39164733886719 134.1925354003906 43.91551208496094 137.1144104003906 L 43.90818786621094 137.1205749511719 L 43.90081787109375 137.126708984375 C 39.44122314453125 140.8389587402344 36.98521423339844 146.095703125 36.98521423339844 151.9286041259766 C 36.98521423339844 156.6057434082031 38.46675109863281 160.7398071289062 41.38864135742188 164.2159118652344 L 41.39482116699219 164.2232360839844 L 41.40093994140625 164.2305908203125 C 45.11317443847656 168.6902008056641 50.36988830566406 171.1462097167969 56.20281982421875 171.1462097167969 C 60.87997436523438 171.1462097167969 65.01402282714844 169.6646728515625 68.49017333984375 166.7427673339844 L 68.49751281738281 166.7366027832031 L 68.50486755371094 166.73046875 C 72.96441650390625 163.0182800292969 75.42042541503906 157.7615356445312 75.42042541503906 151.9286041259766 C 75.42042541503906 150.2941284179688 75.42042541503906 149.0030975341797 75.10958862304688 147.9228210449219 L 74.95361328125 147.3807678222656 L 74.95361328125 146.8167419433594 L 74.95361328125 146.5871734619141 L 74.95361328125 146.3576049804688 L 74.95361328125 146.1280212402344 L 74.95361328125 145.8984527587891 L 74.95361328125 145.6688842773438 L 74.95361328125 145.4393005371094 L 74.95361328125 145.209716796875 L 74.95361328125 144.9801483154297 L 74.95361328125 141.8132934570312 Z M 133.4785766601562 135.8224639892578 L 94.98222351074219 134.3112182617188 C 94.84521484375 135.532958984375 94.35551452636719 136.7584228515625 93.59239196777344 137.7578430175781 C 93.5533447265625 137.8089904785156 93.51374816894531 137.8593597412109 93.47354125976562 137.9090270996094 C 94.21392822265625 138.3246154785156 94.86398315429688 138.9084777832031 95.35856628417969 139.6120758056641 C 95.78425598144531 140.2176208496094 96.08950805664062 140.9048767089844 96.25715637207031 141.6199340820312 L 128.0396118164062 143.2205810546875 L 128.1483459472656 143.0933532714844 C 129.4792785644531 141.5357055664062 130.8667907714844 139.6871490478516 132.0976867675781 138.0437622070312 C 132.6562652587891 137.2003173828125 133.1183776855469 136.4568481445312 133.4785766601562 135.8224639892578 Z" stroke="none" fill="#756f86"/></g><g transform="translate(-24.6 -65.983)" fill="none"><path d="M169.385,181.916a30.423,30.423,0,0,1-29.516-22.621,28,28,0,0,1-1.025-7.92q0-.861.069-1.7l-3.3.5c-.926.972-1.515,1.706-1.523,1.714l-.2.222a5.319,5.319,0,0,1-3.75,1.485h-.092l-40.6-1.393a4.948,4.948,0,0,1-3.788-1.883q.023.4.023.826a30.545,30.545,0,1,1-50.131-23.432,32.02,32.02,0,0,1,15.481-6.872l2.38-11.9-18.374-5.051h-.574a8.151,8.151,0,0,1-5.609-2.411,7.439,7.439,0,0,1-2.181-5.38,7.313,7.313,0,0,1,1.148-4.041L29.9,88.846a5.163,5.163,0,0,1,4.347-2.388l27.679.467H62.3l9.941,1.423a76.409,76.409,0,0,0,10.071.673,69.01,69.01,0,0,0,21.236-3.352l16.782-5.418.574-.115a32.629,32.629,0,0,1,6.681-.865l2.089.008L144.92,80.6l-.574-2.885-8.433-1.729a4.893,4.893,0,0,1-3.176-2.043,5.09,5.09,0,0,1-.819-3.857,4.888,4.888,0,0,1,2.051-3.191,5.112,5.112,0,0,1,3.9-.811l11.968,2.349a5.2,5.2,0,0,1,3.8,3.8l.023.115,2,9.826,2.15.673a18.132,18.132,0,0,1,10.048,7.316l.092.145.612,1.025a1.934,1.934,0,0,0,1.094.742l.077.015,22.008,5.1a14.009,14.009,0,0,1,10.316,8.877l1.354,3.62a6.482,6.482,0,0,1,.436,2.663,7.339,7.339,0,0,1-2.181,5.142,7.261,7.261,0,0,1-5.142,2.181,6.086,6.086,0,0,1-3.336-.765l-1.186-.505-5.862,7.369a30.657,30.657,0,0,1,12.726,17.662,28.022,28.022,0,0,1,1.025,7.928,30.423,30.423,0,0,1-22.621,29.516A27.074,27.074,0,0,1,169.385,181.916Zm-19.69-25.376a20.605,20.605,0,0,0,19.919,15.144,23.81,23.81,0,0,0,5.4-.62,20.605,20.605,0,0,0,15.144-19.919,23.81,23.81,0,0,0-.62-5.4A20.605,20.605,0,0,0,169.622,130.6a23.56,23.56,0,0,0-5.3.6,4.61,4.61,0,0,1-3.65-.367,4.971,4.971,0,0,1-2.449-3.076,4.63,4.63,0,0,1,.36-3.673,4.968,4.968,0,0,1,3.168-2.472,27.972,27.972,0,0,1,7.874-1.01,32.293,32.293,0,0,1,7.094.826l4.683-5.946-21.458-3.283-.214-.069a8.991,8.991,0,0,0-1.706-.092,12.185,12.185,0,0,0-5.181.934l-6.573,2.793-1.691,5.265a4.827,4.827,0,0,1-3,3.206,5.011,5.011,0,0,1,3.107,4.63v4.882a30.462,30.462,0,0,1,5.525-5.954,4.982,4.982,0,0,1,6.7,7.377l-.191.168a20.542,20.542,0,0,0-7.622,15.818A22.471,22.471,0,0,0,149.695,156.54ZM55.371,130.6a19.849,19.849,0,0,0-13.139,4.714,20.261,20.261,0,0,0-7.408,15.833,19.815,19.815,0,0,0,4.714,13.132,20.272,20.272,0,0,0,15.833,7.408A19.849,19.849,0,0,0,68.51,166.97a20.261,20.261,0,0,0,7.408-15.833,16.107,16.107,0,0,0-.36-4.37l-.1-.36V141.5h1.477a2.888,2.888,0,0,1,2.127-.926h.015l7.813-2.671a5.118,5.118,0,0,1-3.972-4.194l-.964-6.711a5.346,5.346,0,0,1,1.477-3.75c.1-.1.2-.191.306-.283l-.781-.023a4.748,4.748,0,0,1-3.474-1.485l-.054-.054-3.949-4.178a14.339,14.339,0,0,0-6.918-4.14l-5.334-1.523-1.9,9.489a30.681,30.681,0,0,1,17.386,10.415,4.943,4.943,0,0,1-.329,6.941,4.626,4.626,0,0,1-3.788,1.354,5.416,5.416,0,0,1-3.252-1.584L71.188,138A20.236,20.236,0,0,0,55.371,130.6Zm38.943,11.471,33.5,1.684a3.87,3.87,0,0,0,.329-.367l.191-.26c1.324-1.546,2.694-3.375,4.025-5.142a31.018,31.018,0,0,0,1.883-3.138c.061-.122.13-.245.184-.36v-.742l-41.614-1.63.069.681a5.563,5.563,0,0,1-2.709,4.7,4.673,4.673,0,0,1,1.469.566,4.463,4.463,0,0,1,2.625,3.727Zm-8.663-29.095,50.652,1.53,1.255-4.086a4.808,4.808,0,0,1,2.977-3.1l8.5-3.681a22.143,22.143,0,0,1,9.191-1.844,20.216,20.216,0,0,1,3.964.275l14.739,2.456-10.185-2.365a13.553,13.553,0,0,1-6.948-4.905l-.153-.23-.658-1.1a8.043,8.043,0,0,0-4.477-3.268l-4.66-1.332L128.628,89.5H127.35a16.761,16.761,0,0,0-4.331.582L106.581,95.4A77.419,77.419,0,0,1,82.07,99.254a93.205,93.205,0,0,1-11.479-.719l-9.634-1.377-12.81-.23,23.47,6.344a25.64,25.64,0,0,1,11.716,7.04l.054.061Zm112.782-1.354.069.191V111.8Zm.054.115Zm-61.664-40.4Z" stroke="none"/><path d="M 169.3847351074219 181.9156341552734 C 172.3462371826172 181.9156341552734 175.00927734375 181.5712738037109 177.2744140625 180.8749084472656 C 190.5973663330078 177.3930053710938 199.8950958251953 165.2638549804688 199.8950958251953 151.3593292236328 C 199.8950958251953 148.39013671875 199.5507354736328 145.7270812988281 198.8696746826172 143.4313507080078 C 196.93359375 136.1691741943359 192.3727264404297 129.8788299560547 186.1436309814453 125.7694549560547 L 192.0054168701172 118.4001159667969 L 193.1915435791016 118.9051971435547 C 194.4771575927734 119.6704330444336 195.7015533447266 119.6704330444336 196.5280151367188 119.6704330444336 C 198.4411315917969 119.6704330444336 200.2700805664062 118.8898773193359 201.6704711914062 117.4894866943359 C 203.0555725097656 116.1120376586914 203.8514404296875 114.2295379638672 203.8514404296875 112.3470077514648 C 203.8514404296875 111.7118530273438 203.8514404296875 110.6711120605469 203.4152374267578 109.6839599609375 L 202.0607604980469 106.0643539428711 C 200.3389434814453 101.4805068969727 196.3902893066406 98.08280181884766 191.7452239990234 97.18748474121094 L 169.7367248535156 92.09092712402344 L 169.6602020263672 92.07561492919922 C 169.2699432373047 91.99909210205078 168.9026031494141 91.74655914306641 168.56591796875 91.33332824707031 L 167.9537048339844 90.30790710449219 L 167.8618927001953 90.16250610351562 C 165.3365478515625 86.51227569580078 161.7705230712891 83.9180908203125 157.8141784667969 82.84674835205078 L 155.6638336181641 82.17332458496094 L 153.6588897705078 72.34756469726562 L 153.6359405517578 72.23277282714844 C 153.1691284179688 70.35790252685547 151.7151794433594 68.89630126953125 149.8326568603516 68.42948150634766 L 137.8642120361328 66.08019256591797 C 137.5388031005859 66.01511383056641 137.2089538574219 65.98301696777344 136.8795776367188 65.98301696777344 C 135.8533630371094 65.98301696777344 134.8322601318359 66.29466247558594 133.9691009521484 66.89134979248047 C 132.8747863769531 67.64893341064453 132.1478118896484 68.78150939941406 131.9182281494141 70.08242797851562 C 131.6580505371094 71.40629577636719 131.9564971923828 72.81435394287109 132.7370452880859 73.93927001953125 C 133.49462890625 75.02593231201172 134.6195526123047 75.75290679931641 135.912841796875 75.98248291015625 L 144.3458404541016 77.71192932128906 L 144.9197845458984 80.59690093994141 L 129.6684112548828 79.28069305419922 L 127.5792846679688 79.27303314208984 C 125.1840744018555 79.27303314208984 123.1026000976562 79.69393157958984 120.898681640625 80.13774871826172 L 120.3247604370117 80.2525634765625 L 103.5428924560547 85.67048645019531 C 96.64801788330078 87.89735412597656 89.50060272216797 89.02227020263672 82.30728149414062 89.02227020263672 C 78.95549774169922 89.02227020263672 75.55778503417969 88.79271697998047 72.23662567138672 88.34885406494141 L 62.29607391357422 86.92550659179688 L 61.92110061645508 86.92550659179688 L 34.24212646484375 86.45869445800781 C 32.48970413208008 86.45869445800781 30.92096710205078 87.31577301025391 29.89552116394043 88.84627532958984 L 27.8293628692627 92.060302734375 C 27.08707237243652 93.16990661621094 26.68149375915527 94.60092926025391 26.68149375915527 96.10082244873047 C 26.68149375915527 98.19758605957031 27.43907356262207 100.0571441650391 28.86244201660156 101.4805068969727 C 30.36996841430664 102.988037109375 32.46675872802734 103.8910369873047 34.4716796875 103.8910369873047 L 35.04565048217773 103.8910369873047 L 53.41923141479492 108.9416656494141 L 51.03931045532227 120.8412475585938 C 45.42238998413086 121.6753540039062 40.111572265625 124.0246658325195 35.5583610534668 127.7131652832031 C 28.59462547302246 133.4754791259766 24.60001945495605 142.0156402587891 24.60001945495605 151.1373748779297 C 24.60001945495605 158.3153991699219 27.06412506103516 165.0878448486328 31.71683692932129 170.7277221679688 C 37.4791259765625 177.6914520263672 46.01928329467773 181.68603515625 55.14104843139648 181.68603515625 C 62.31904602050781 181.68603515625 69.09149169921875 179.221923828125 74.73136138916016 174.5692443847656 C 81.69509887695312 168.8069305419922 85.68970489501953 160.2667694091797 85.68970489501953 151.1450347900391 C 85.68970489501953 150.8619079589844 85.68204498291016 150.5864105224609 85.66673278808594 150.3185577392578 C 86.59268188476562 151.4664306640625 87.96247100830078 152.1857757568359 89.45470428466797 152.2010955810547 L 130.0510406494141 153.5938262939453 L 130.1428833007812 153.5938262939453 C 131.58154296875 153.5938262939453 132.9513397216797 153.0504760742188 133.8925933837891 152.1092529296875 L 134.091552734375 151.8873291015625 C 134.0991973876953 151.8796691894531 134.6884460449219 151.1450347900391 135.6143951416016 150.1731719970703 L 138.9126281738281 149.6757659912109 C 138.86669921875 150.2344055175781 138.84375 150.8006744384766 138.84375 151.3746185302734 C 138.84375 154.3361358642578 139.1880950927734 156.9991912841797 139.8691711425781 159.2949371337891 C 143.3510131835938 172.6178741455078 155.4802093505859 181.9156341552734 169.3847351074219 181.9156341552734 M 153.4138336181641 126.5291442871094 C 152.2511291503906 126.5291442871094 151.1120758056641 126.9467468261719 150.2153167724609 127.7897186279297 C 148.0649719238281 129.57275390625 146.2207336425781 131.5623779296875 144.6902008056641 133.7433319091797 L 144.6902008056641 128.8610687255859 C 144.6902008056641 126.7719268798828 143.4046020507812 124.9812469482422 141.5833129882812 124.2313003540039 C 143.0372772216797 123.6879806518555 144.1698608398438 122.5171432495117 144.5830688476562 121.0249328613281 L 146.2742767333984 115.760009765625 L 152.8477630615234 112.9668807983398 C 154.2940673828125 112.31640625 155.8934478759766 112.0332717895508 158.0284729003906 112.0332717895508 C 158.5947570800781 112.0332717895508 159.4518432617188 112.0332717895508 159.7349700927734 112.1250915527344 L 159.9492645263672 112.1939849853516 L 181.4067840576172 115.4768753051758 L 176.7234649658203 121.4228515625 C 174.2823333740234 120.8718795776367 171.9024200439453 120.5963745117188 169.6296234130859 120.5963745117188 C 166.6834106445312 120.5963745117188 164.0356750488281 120.9330902099609 161.7552337646484 121.6065063476562 C 160.4390258789062 121.9202499389648 159.2605438232422 122.8309020996094 158.5871276855469 124.0782699584961 C 157.9595947265625 125.2414321899414 157.8295135498047 126.5653228759766 158.2274475097656 127.7514572143555 C 158.5564880371094 129.0294342041016 159.4594879150391 130.1696472167969 160.6762237548828 130.8277435302734 C 161.3948516845703 131.2179870605469 162.1754608154297 131.4158477783203 162.9465789794922 131.4158172607422 C 163.4154357910156 131.4158020019531 163.8808746337891 131.3426361083984 164.3264617919922 131.195068359375 C 166.2472381591797 130.774169921875 167.8389434814453 130.5981597900391 169.6219940185547 130.5981597900391 C 178.9503326416016 130.5981597900391 187.1384735107422 136.8273010253906 189.5413665771484 145.7424011230469 C 189.9775390625 147.7167663574219 190.1612091064453 149.3314361572266 190.1612091064453 151.1450653076172 C 190.1612091064453 160.4734344482422 183.9320983886719 168.6615600585938 175.0169677734375 171.0644378662109 C 173.0426330566406 171.5006103515625 171.4279479980469 171.6842956542969 169.6143035888672 171.6842956542969 C 160.2859344482422 171.6842956542969 152.0978088378906 165.4551696777344 149.6949462890625 156.5400390625 C 149.2587585449219 154.5656890869141 149.0750732421875 152.9510345458984 149.0980529785156 151.1527252197266 C 149.0980529785156 145.099609375 151.8758850097656 139.3372955322266 156.7198944091797 135.3350677490234 L 156.9112091064453 135.1666870117188 C 158.94677734375 133.1234893798828 159.0462646484375 130.0319061279297 157.1407775878906 128.1264343261719 C 156.0797271728516 127.0653533935547 154.7315673828125 126.5291442871094 153.4138336181641 126.5291442871094 M 55.37057113647461 130.5981597900391 C 61.59970474243164 130.5981597900391 67.21662902832031 133.2229614257812 71.188232421875 137.9980926513672 L 71.34893798828125 138.1741180419922 C 72.25193786621094 139.0771179199219 73.407470703125 139.6357269287109 74.60123443603516 139.7581634521484 C 74.76325225830078 139.7737579345703 74.92407989501953 139.7815093994141 75.08341979980469 139.7815093994141 C 76.33136749267578 139.7815093994141 77.48667144775391 139.3062286376953 78.38920593261719 138.4036865234375 C 80.39418029785156 136.3987274169922 80.52425384521484 133.3760070800781 78.71828460693359 131.4628753662109 C 74.12678527832031 126.0296173095703 68.03541564941406 122.3946914672852 61.33186340332031 121.0478744506836 L 63.22967910766602 111.5587997436523 L 68.56343841552734 113.0816421508789 C 71.41017913818359 113.8927993774414 73.72885894775391 115.2702484130859 75.48128509521484 117.2216415405273 L 79.42993927001953 121.3998794555664 L 79.4835205078125 121.4534530639648 C 80.47068023681641 122.4406433105469 81.60325622558594 122.9303741455078 82.95773315429688 122.9380340576172 L 83.73828125 122.9610061645508 C 83.63114929199219 123.0528259277344 83.53167724609375 123.1446380615234 83.43220520019531 123.244140625 C 82.49859619140625 124.1853790283203 81.95525360107422 125.5551681518555 81.95525360107422 126.9938507080078 L 82.91946411132812 133.7050628662109 C 83.27915191650391 135.8401184082031 84.84025573730469 137.439453125 86.89109802246094 137.8986206054688 L 79.07794189453125 140.5693206787109 L 79.06265258789062 140.5693206787109 C 78.22852325439453 140.5693206787109 77.46327972412109 140.9213562011719 76.93525695800781 141.4953002929688 L 75.45831298828125 141.4953002929688 L 75.45831298828125 146.4081726074219 L 75.55780792236328 146.767822265625 C 75.91746520996094 148.0305023193359 75.91746520996094 149.4002685546875 75.91746520996094 151.1374053955078 C 75.91746520996094 157.3665161132812 73.29267883300781 162.9910888671875 68.50986480712891 166.9703826904297 C 64.79078674316406 170.1002197265625 60.37530899047852 171.6842956542969 55.37057113647461 171.6842956542969 C 49.1414680480957 171.6842956542969 43.52457427978516 169.0594787597656 39.53762435913086 164.2766876220703 C 36.40778350830078 160.5652465820312 34.82370376586914 156.1497650146484 34.82370376586914 151.1450653076172 C 34.82370376586914 144.9159240722656 37.44849395751953 139.2913818359375 42.23130798339844 135.3120880126953 C 45.95038986206055 132.1822509765625 50.36586380004883 130.5981597900391 55.37057113647461 130.5981597900391 M 92.81412506103516 132.1133575439453 L 134.4282531738281 133.7433319091797 L 134.4282531738281 134.4856109619141 C 134.3746795654297 134.6004028320312 134.3058166503906 134.7228546142578 134.2445678710938 134.8453063964844 C 133.8389892578125 135.6641082763672 133.2038421630859 136.7124786376953 132.3620758056641 137.9828033447266 C 131.0305480957031 139.7505035400391 129.6607513427734 141.5794525146484 128.3368835449219 143.1252746582031 L 128.1455688476562 143.3854370117188 C 128.0767059326172 143.4772796630859 127.9542541503906 143.6150054931641 127.816520690918 143.7527770996094 L 94.31401824951172 142.0692138671875 L 94.26807403564453 141.7860565185547 C 94.15331268310547 140.1714019775391 93.12020111083984 138.7097778320312 91.64328002929688 138.059326171875 C 91.245361328125 137.8220825195312 90.74794006347656 137.6078186035156 90.17401885986328 137.4930419921875 C 91.83460235595703 136.5670928955078 92.88299560546875 134.6080322265625 92.88299560546875 132.79443359375 L 92.81412506103516 132.1133575439453 M 48.14665222167969 96.92729949951172 L 60.95689010620117 97.15687561035156 L 70.59133911132812 98.53432464599609 C 74.40228271484375 99.00877380371094 78.25912475585938 99.25363922119141 82.07004547119141 99.25363922119141 C 90.67906951904297 99.25363922119141 98.93609619140625 97.95272064208984 106.5809173583984 95.40445709228516 L 123.0184173583984 90.07835388183594 C 124.3346557617188 89.71100616455078 125.9034118652344 89.49674987792969 127.3497009277344 89.49674987792969 L 128.627685546875 89.49674987792969 L 149.8479614257812 91.32569122314453 L 154.5083312988281 92.65721893310547 C 156.2990264892578 93.15461730957031 157.8907318115234 94.31014251708984 158.9850158691406 95.92482757568359 L 159.6431579589844 97.02677154541016 L 159.7961730957031 97.25635528564453 C 161.5868682861328 99.63627624511719 163.9897308349609 101.3351135253906 166.74462890625 102.1615905761719 L 176.9300689697266 104.5261917114258 L 162.1914215087891 102.0697479248047 C 160.7833557128906 101.7942733764648 159.4288940429688 101.7942733764648 158.2274475097656 101.7942733764648 C 154.8220977783203 101.7942733764648 151.7152099609375 102.4217758178711 149.0368041992188 103.6385116577148 L 140.534912109375 107.3193511962891 C 139.111572265625 107.8320617675781 138.0631713867188 108.9110641479492 137.5581207275391 110.4186172485352 L 136.3031311035156 114.505012512207 L 85.65141296386719 112.9745101928711 L 83.38628387451172 110.3726959228516 L 83.33270263671875 110.3114547729492 C 80.35591888427734 107.0821151733398 76.32304382324219 104.6562957763672 71.61678314208984 103.2711944580078 L 48.14665222167969 96.92729949951172 M 198.4335174560547 111.6200332641602 L 198.5023956298828 111.7960357666016 C 198.5023956298828 111.8036956787109 198.5023956298828 111.8036956787109 198.5023956298828 111.8113479614258 L 198.4335174560547 111.6200332641602 M 169.3847351074219 185.9156341552734 C 153.6904754638672 185.9156341552734 139.9779510498047 175.4129333496094 136.0154571533203 160.3684692382812 C 135.6317749023438 159.0619049072266 135.3415222167969 157.663818359375 135.1458282470703 156.1832275390625 C 133.6798400878906 157.0927734375 131.9358367919922 157.5938262939453 130.1428833007812 157.5938262939453 L 130.0510406494141 157.5938262939453 L 129.9824371337891 157.5938262939453 L 129.9138946533203 157.5914764404297 L 89.35773468017578 156.2001190185547 C 89.34640502929688 156.1999359130859 89.33522796630859 156.1997222900391 89.32390594482422 156.1994934082031 C 88.10206604003906 164.5746002197266 83.86322784423828 172.2047271728516 77.28144073486328 177.6509857177734 L 77.27912902832031 177.6529083251953 L 77.27683258056641 177.6548004150391 C 70.90796661376953 182.9088745117188 63.25352096557617 185.68603515625 55.14104843139648 185.68603515625 C 44.82125854492188 185.68603515625 35.16020584106445 181.1634063720703 28.63507270812988 173.2777709960938 L 28.6331787109375 173.2754821777344 L 28.63128280639648 173.273193359375 C 23.37717819213867 166.9043273925781 20.60001945495605 159.2499084472656 20.60001945495605 151.1373748779297 C 20.60001945495605 140.8176422119141 25.12265205383301 131.1565856933594 33.00828170776367 124.6314315795898 L 33.02433776855469 124.6181411743164 L 33.04051971435547 124.6050338745117 C 35.57696914672852 122.5503005981445 38.34854507446289 120.8496398925781 41.27825546264648 119.5503005981445 C 43.33408737182617 118.6385269165039 45.46625137329102 117.9250411987305 47.64463424682617 117.418571472168 L 48.76615524291992 111.8109893798828 L 34.5058479309082 107.8910369873047 L 34.4716796875 107.8910369873047 C 32.94972991943359 107.8910369873047 31.36902046203613 107.557243347168 29.90044212341309 106.9257736206055 C 28.46628379821777 106.3090896606445 27.1292839050293 105.4042205810547 26.03401947021484 104.3089294433594 C 24.94462585449219 103.2195587158203 24.10280990600586 101.9540634155273 23.53191566467285 100.5476379394531 C 22.96762657165527 99.15745544433594 22.68149375915527 97.66135406494141 22.68149375915527 96.10082244873047 C 22.68149375915527 93.83344268798828 23.3206729888916 91.62259674072266 24.48184585571289 89.87052917480469 L 26.53080940246582 86.68324279785156 L 26.55133628845215 86.65132904052734 L 26.57244110107422 86.61979675292969 C 28.34425735473633 83.97534942626953 31.13973045349121 82.45869445800781 34.24212646484375 82.45869445800781 L 34.27586364746094 82.45869445800781 L 34.30957412719727 82.45927429199219 L 61.95421981811523 82.92550659179688 L 62.29607391357422 82.92550659179688 L 62.58099365234375 82.92550659179688 L 62.86302185058594 82.96590423583984 L 72.78425598144531 84.38648223876953 C 75.94683837890625 84.80834197998047 79.15090179443359 85.02227020263672 82.30728149414062 85.02227020263672 C 89.09397125244141 85.02227020263672 95.82501983642578 83.95969390869141 102.3135223388672 81.86408996582031 L 119.095832824707 76.44600677490234 L 119.3146286010742 76.37538146972656 L 119.5400695800781 76.33026885986328 L 120.1123352050781 76.21578979492188 L 120.1326522827148 76.21169281005859 C 122.4242553710938 75.75022125244141 124.7938919067383 75.27303314208984 127.5792846679688 75.27303314208984 L 127.5866241455078 75.27303314208984 L 127.5939407348633 75.27306365966797 L 128.8791351318359 75.27777099609375 C 127.9251480102539 73.46531677246094 127.6000823974609 71.35968017578125 127.9858856201172 69.34931182861328 C 128.4099578857422 67.00417327880859 129.7251129150391 64.96441650390625 131.6923065185547 63.60253524780273 C 133.2257537841797 62.54251098632812 135.0187072753906 61.98300933837891 136.8795776367188 61.98300933837891 C 137.4690399169922 61.98300933837891 138.0599365234375 62.04100799560547 138.6361389160156 62.15538024902344 L 150.6031036376953 64.50437927246094 L 150.6997833251953 64.52335357666016 L 150.7953948974609 64.54706573486328 C 154.1147003173828 65.37017059326172 156.6904449462891 67.94485473632812 157.5174407958984 71.26632690429688 L 157.5400238037109 71.35700988769531 L 157.5583343505859 71.44863891601562 L 157.5802764892578 71.55836486816406 L 159.1100311279297 79.05534362792969 C 163.8766632080078 80.41270446777344 168.1446990966797 83.54071807861328 171.1513824462891 87.88671875 L 171.1991577148438 87.95577239990234 L 171.2439727783203 88.02674865722656 L 171.3357849121094 88.17214202880859 L 171.3625183105469 88.21445465087891 L 171.3881530761719 88.25743103027344 L 171.4644165039062 88.38516998291016 L 192.5798645019531 93.27491760253906 C 198.5451354980469 94.45387268066406 203.6083221435547 98.80899047851562 205.8053131103516 104.6577987670898 L 207.1277160644531 108.1917419433594 C 207.8514251708984 109.9065933227539 207.8514404296875 111.5482788085938 207.8514404296875 112.3470077514648 C 207.8514404296875 115.2938232421875 206.6266326904297 118.2019577026367 204.4910430908203 120.3257446289062 C 202.3301544189453 122.4826583862305 199.5025634765625 123.6704330444336 196.5280151367188 123.6704330444336 C 195.8369903564453 123.6704330444336 194.6411743164062 123.6703796386719 193.2501525878906 123.260856628418 L 191.8250732421875 125.0524368286133 C 193.8949584960938 126.8276519775391 195.7479400634766 128.8435516357422 197.3600158691406 131.0771942138672 C 199.8279724121094 134.4967041015625 201.63134765625 138.2885589599609 202.7203979492188 142.3475494384766 C 203.4999237060547 144.9979095458984 203.8950958251953 148.0294189453125 203.8950958251953 151.3593292236328 C 203.8950958251953 167.0477905273438 193.4020233154297 180.7555084228516 178.366455078125 184.7237548828125 C 175.7579040527344 185.5146636962891 172.7366485595703 185.9156341552734 169.3847351074219 185.9156341552734 Z M 153.58056640625 155.5851287841797 C 155.5438995361328 162.7132873535156 162.1240844726562 167.6842956542969 169.6143035888672 167.6842956542969 C 171.1207275390625 167.6842956542969 172.4160308837891 167.5374908447266 174.0620422363281 167.1788024902344 C 181.1901702880859 165.2154846191406 186.1612091064453 158.6352996826172 186.1612091064453 151.1450653076172 C 186.1612091064453 149.6385955810547 186.0144195556641 148.3433990478516 185.65576171875 146.6974487304688 C 183.6928558349609 139.5685882568359 177.1126556396484 134.5981597900391 169.6219940185547 134.5981597900391 C 168.1544342041016 134.5981597900391 166.9040222167969 134.7345581054688 165.3471527099609 135.0667724609375 C 164.5708923339844 135.2984466552734 163.7646942138672 135.415771484375 162.9468078613281 135.4158325195312 C 162.50732421875 135.4158477783203 162.0675201416016 135.3813781738281 161.6317749023438 135.3135528564453 C 161.171142578125 136.2897644042969 160.5361175537109 137.1956634521484 159.7449188232422 137.9898223876953 L 159.6523132324219 138.0827789306641 L 159.5538024902344 138.1694641113281 L 159.3624877929688 138.3378295898438 L 159.3157043457031 138.3790130615234 L 159.2676849365234 138.418701171875 C 155.3467864990234 141.6582183837891 153.0980529785156 146.2996215820312 153.0980529785156 151.1527252197266 L 153.0980529785156 151.1782684326172 L 153.0977325439453 151.2038269042969 C 153.0792236328125 152.6519470214844 153.2193908691406 153.9275665283203 153.58056640625 155.5851287841797 Z M 55.37057113647461 134.5981597900391 C 53.34159851074219 134.5981597900391 51.42351913452148 134.9172210693359 49.66957473754883 135.5464630126953 C 47.92936325073242 136.1707916259766 46.29330825805664 137.1216430664062 44.80688858032227 138.37255859375 L 44.79828262329102 138.3798065185547 L 44.78962707519531 138.3869781494141 C 42.8664665222168 139.987060546875 41.3752555847168 141.9021453857422 40.35746765136719 144.0790405273438 C 39.33972930908203 146.2557678222656 38.82370376586914 148.6331481933594 38.82370376586914 151.1450653076172 C 38.82370376586914 153.1741638183594 39.14270401000977 155.0917510986328 39.77180862426758 156.8445587158203 C 40.39588928222656 158.5832977294922 41.34589004516602 160.2162475585938 42.59546661376953 161.6980285644531 L 42.60280990600586 161.7067260742188 L 42.61009979248047 161.7154541015625 C 44.21512603759766 163.6408538818359 46.13215255737305 165.1331176757812 48.30794143676758 166.1507720947266 C 50.48357391357422 167.1683502197266 52.85978317260742 167.6842956542969 55.37057113647461 167.6842956542969 C 57.3995475769043 167.6842956542969 59.31765365600586 167.3652496337891 61.07157135009766 166.7360076904297 C 62.81180953979492 166.1116638183594 64.44786071777344 165.1608276367188 65.93428039550781 163.9098968505859 L 65.94288635253906 163.9026641845703 L 65.95154571533203 163.8954772949219 C 67.87470245361328 162.29541015625 69.36591339111328 160.3803253173828 70.38370513916016 158.2033996582031 C 71.40144348144531 156.0266723632812 71.91746520996094 153.6493225097656 71.91746520996094 151.1374053955078 C 71.91746520996094 149.7136383056641 71.91746520996094 148.5890655517578 71.71080780029297 147.8635864257812 L 71.70668029785156 147.8489837646484 L 71.70262908935547 147.8343811035156 L 71.60312652587891 147.4747161865234 L 71.45831298828125 146.9512786865234 L 71.45831298828125 146.4081726074219 L 71.45831298828125 143.0127563476562 C 70.37760925292969 142.5395812988281 69.37739562988281 141.8594055175781 68.52052307128906 141.0025329589844 L 68.45623016357422 140.9382476806641 L 68.39491271972656 140.8711090087891 L 68.23420715332031 140.6950836181641 L 68.17196655273438 140.6269073486328 L 68.1129150390625 140.555908203125 C 66.51602172851562 138.6359252929688 64.60446929931641 137.1470947265625 62.43138885498047 136.1307678222656 C 60.2569694519043 135.1138000488281 57.88136291503906 134.5981597900391 55.37057113647461 134.5981597900391 Z M 97.32137298583984 138.2153015136719 L 126.0206832885742 139.6574859619141 C 126.5794525146484 138.9712371826172 127.1518249511719 138.2348175048828 127.7249069213867 137.4838409423828 L 96.20693206787109 136.2493286132812 C 96.17676544189453 136.3248596191406 96.1456298828125 136.4001007080078 96.11351013183594 136.4750518798828 C 96.33504486083984 136.7220153808594 96.54283142089844 136.9827270507812 96.73567962646484 137.2562713623047 C 96.95279693603516 137.5642395019531 97.1483154296875 137.8847045898438 97.32137298583984 138.2153015136719 Z M 147.4608306884766 124.3212203979492 C 147.5336303710938 124.4454498291016 147.603271484375 124.5710754394531 147.6697998046875 124.6981658935547 C 149.2527923583984 123.2974624633789 151.2821655273438 122.5291442871094 153.4138336181641 122.5291442871094 C 153.8928375244141 122.5291442871094 154.3674468994141 122.5669784545898 154.8344573974609 122.6412963867188 C 154.9071655273438 122.4855041503906 154.9846496582031 122.3312835693359 155.0667877197266 122.1790390014648 C 156.2648162841797 119.9598922729492 158.3180541992188 118.3491439819336 160.7134399414062 117.7435836791992 C 161.9033966064453 117.3973388671875 163.1725311279297 117.1287612915039 164.5131988525391 116.9387969970703 L 159.3443145751953 116.1479797363281 L 159.02880859375 116.0996932983398 L 158.8493194580078 116.0419845581055 C 158.5968017578125 116.0332717895508 158.215576171875 116.0332717895508 158.0284729003906 116.0332717895508 C 156.4536285400391 116.0332717895508 155.3949432373047 116.2072219848633 154.4884338378906 116.6149063110352 L 154.4504089355469 116.6320114135742 L 154.4120483398438 116.648323059082 L 149.5229187011719 118.7257614135742 L 148.4122772216797 122.1833190917969 C 148.1933135986328 122.9410781860352 147.8711700439453 123.6590805053711 147.4608306884766 124.3212203979492 Z M 65.99142456054688 118.1461334228516 C 68.38202667236328 118.9303283691406 70.68453979492188 119.9820938110352 72.87112426757812 121.2906112670898 C 73.73586273193359 121.80810546875 74.57746887207031 122.36279296875 75.39454650878906 122.9534683227539 L 72.57412719726562 119.9690628051758 L 72.53917694091797 119.9321136474609 L 72.50520324707031 119.8942718505859 C 71.26251983642578 118.5104827880859 69.61460113525391 117.5403747558594 67.46730804443359 116.9285125732422 L 66.301513671875 116.5956726074219 L 65.99142456054688 118.1461334228516 Z M 87.52005767822266 109.0291366577148 L 133.3749389648438 110.4146957397461 L 133.7343902587891 109.244270324707 L 133.7492370605469 109.195930480957 L 133.7653045654297 109.1479568481445 C 134.6445159912109 106.5235900878906 136.5166473388672 104.5603485107422 139.0451202392578 103.6055603027344 L 147.4161834716797 99.98136138916016 C 149.8712615966797 98.87094116210938 152.5773010253906 98.17940521240234 155.4891052246094 97.91577911376953 C 154.9469146728516 97.22489166259766 154.2282409667969 96.73087310791016 153.4377899169922 96.51129913330078 L 153.4235992431641 96.50735473632812 L 153.4094696044922 96.50332641601562 L 149.1201019287109 95.27780151367188 L 128.4554901123047 93.49674987792969 L 127.3497009277344 93.49674987792969 C 126.3116455078125 93.49674987792969 125.128044128418 93.65125274658203 124.1660308837891 93.91124725341797 L 107.8286361694336 99.20491790771484 C 99.76263427734375 101.8913497924805 91.09595489501953 103.2536392211914 82.07004547119141 103.2536392211914 C 81.7474365234375 103.2536392211914 81.42449188232422 103.2519607543945 81.10086822509766 103.2485885620117 C 83.02765655517578 104.5054702758789 84.76576232910156 105.9643859863281 86.27381134033203 107.6003799438477 L 86.30894470214844 107.6385116577148 L 86.34310150146484 107.6775360107422 L 86.39667510986328 107.73876953125 L 86.39991760253906 107.7424850463867 L 86.40315246582031 107.746223449707 L 87.52005767822266 109.0291366577148 Z" stroke="none" fill="#756f86"/></g></g><g transform="translate(37.594 132.917)"><g transform="translate(-42.404 -154.265)" fill="none"><path d="M52.054,178.753a11.239,11.239,0,0,1-2.319-6.734,10.509,10.509,0,1,1,10.446,10.446,2.319,2.319,0,0,0,0,4.637A15.091,15.091,0,1,0,45.09,172.011a13.78,13.78,0,0,0,3.482,9.52,2.243,2.243,0,0,0,3.252.23c.926-.452,1.163-1.844.23-3.007Z" stroke="none"/><path d="M 60.18066787719727 187.1013488769531 C 68.53717041015625 187.1013488769531 75.27133941650391 180.3671722412109 75.27133941650391 172.0106811523438 C 75.27133941650391 163.6541748046875 68.53717041015625 156.9199981689453 60.18066787719727 156.9199981689453 C 51.82417678833008 156.9199981689453 45.08999633789062 163.6541748046875 45.08999633789062 172.0106811523438 C 45.08999633789062 175.7221221923828 46.25317764282227 178.9744262695312 48.57186889648438 181.5303497314453 C 48.96306610107422 182.0505218505859 49.64648818969727 182.3533477783203 50.33586120605469 182.3533477783203 C 50.87364196777344 182.3533477783203 51.4150390625 182.1690673828125 51.82417678833008 181.7599334716797 C 52.75011825561523 181.3084259033203 52.98734664916992 179.9156799316406 52.05374908447266 178.7525024414062 C 50.6609992980957 176.8929595947266 49.73504638671875 174.5742492675781 49.73504638671875 172.0183258056641 C 49.73504638671875 169.0032501220703 50.89822769165039 166.4473266601562 52.75011825561523 164.5877685546875 C 54.60966873168945 162.7282257080078 57.16559600830078 161.5726928710938 60.18066787719727 161.5726928710938 C 63.19573974609375 161.5726928710938 65.75167083740234 162.7358703613281 67.61122131347656 164.5877685546875 C 69.47076416015625 166.4473114013672 70.62628936767578 169.0032501220703 70.62628936767578 172.0183258056641 C 70.62628936767578 175.0334014892578 69.46311950683594 177.5893249511719 67.61122131347656 179.4488830566406 C 65.75167083740234 181.3084259033203 63.19573974609375 182.4639587402344 60.18066787719727 182.4639587402344 C 58.78791809082031 182.4639587402344 57.86196899414062 183.3899078369141 57.86196899414062 184.7826538085938 C 57.86196899414062 186.1753997802734 58.78791809082031 187.1013488769531 60.18066787719727 187.1013488769531 M 60.18066787719727 191.1013488769531 C 56.733642578125 191.1013488769531 54.09770965576172 188.6137847900391 53.8769416809082 185.2430572509766 C 52.85834884643555 185.9644927978516 51.63204956054688 186.3533477783203 50.33585739135742 186.3533477783203 C 48.44687652587891 186.3533477783203 46.66176986694336 185.5195617675781 45.5142936706543 184.1123657226562 C 42.61914825439453 180.867919921875 41.08999633789062 176.6869201660156 41.08999633789062 172.0106811523438 C 41.08999633789062 169.4308166503906 41.59371948242188 166.9283905029297 42.58717727661133 164.5729064941406 C 43.54724884033203 162.2965850830078 44.92198944091797 160.2544555664062 46.6732177734375 158.5032196044922 C 48.42445755004883 156.7519836425781 50.46658706665039 155.3772583007812 52.7429084777832 154.4171752929688 C 55.098388671875 153.4237213134766 57.60080718994141 152.9199981689453 60.18066787719727 152.9199981689453 C 62.76052856445312 152.9199981689453 65.26294708251953 153.4237213134766 67.61843872070312 154.4171752929688 C 69.89474487304688 155.3772583007812 71.9368896484375 156.7519836425781 73.68811798095703 158.5032196044922 C 75.43934631347656 160.2544555664062 76.81409454345703 162.2965850830078 77.77415466308594 164.5729064941406 C 78.76761627197266 166.9283905029297 79.27133941650391 169.4308166503906 79.27133941650391 172.0106811523438 C 79.27133941650391 174.5905456542969 78.76761627197266 177.0929565429688 77.77415466308594 179.4484405517578 C 76.8140869140625 181.7247619628906 75.43934631347656 183.7668914794922 73.68811798095703 185.5181274414062 C 71.9368896484375 187.2693634033203 69.89474487304688 188.6441040039062 67.61843872070312 189.6041717529297 C 65.26295471191406 190.5976257324219 62.76052856445312 191.1013488769531 60.18066787719727 191.1013488769531 Z M 55.22707366943359 176.3166656494141 C 55.98125076293945 177.2799377441406 56.44705200195312 178.3838806152344 56.59617233276367 179.514892578125 C 57.60171508789062 178.8466186523438 58.82894515991211 178.4639587402344 60.18066787719727 178.4639587402344 C 61.9844856262207 178.4639587402344 63.57528305053711 177.8270416259766 64.78109741210938 176.6221313476562 C 65.98821258544922 175.4078216552734 66.62628936767578 173.8159484863281 66.62628936767578 172.0183258056641 C 66.62628936767578 170.2152709960938 65.98992156982422 168.6250762939453 64.78604888916016 167.4194488525391 C 63.5715446472168 166.2113342285156 61.97906112670898 165.5726928710938 60.18066787719727 165.5726928710938 C 58.37762069702148 165.5726928710938 56.78746795654297 166.2090148925781 55.58183670043945 167.4129180908203 C 54.37370681762695 168.6274261474609 53.73504638671875 170.2199249267578 53.73504638671875 172.0183258056641 C 53.73504638671875 173.8988037109375 54.53954696655273 175.3878021240234 55.22707366943359 176.3166656494141 Z" stroke="none" fill="#756f86"/></g><g transform="translate(-41.58 -153.45)" fill="none"><path d="M59.357,188.98a5,5,0,1,1,0-9.994,7.825,7.825,0,1,0-7.775-7.767,8.56,8.56,0,0,0,1.768,5.1A5.04,5.04,0,0,1,54.39,180.5a4.2,4.2,0,0,1-1.806,2.64,4.932,4.932,0,0,1-6.895-.681,16.522,16.522,0,0,1-4.109-11.241A17.769,17.769,0,1,1,59.357,188.98Z" stroke="none"/><path d="M 59.35668563842773 188.9804229736328 C 69.15950012207031 188.9804229736328 77.11808013916016 181.0142211914062 77.11808013916016 171.2190551757812 C 77.11808013916016 161.4238891601562 69.14421081542969 153.4500122070312 59.34903717041016 153.4500122070312 C 49.55387878417969 153.4500122070312 41.58000564575195 161.4162445068359 41.58000564575195 171.2190551757812 C 41.58000564575195 175.5809631347656 43.00336837768555 179.4607696533203 45.68937683105469 182.4605407714844 C 46.51584625244141 183.4859619140625 47.76319885253906 184.1287689208984 49.14829635620117 184.2282562255859 C 49.26863098144531 184.2369537353516 49.3885498046875 184.2412567138672 49.50785446166992 184.2412567138672 C 50.64802932739258 184.2412567138672 51.73215866088867 183.8482360839844 52.58425903320312 183.1416015625 C 53.49489593505859 182.5523529052734 54.14535903930664 181.6111145019531 54.39023590087891 180.5014953613281 C 54.70398712158203 179.0781402587891 54.32136535644531 177.5552978515625 53.34950637817383 176.3155975341797 C 52.53833770751953 175.2289581298828 51.5817756652832 173.4688873291016 51.5817756652832 171.2190551757812 C 51.5817756652832 169.0610656738281 52.35467529296875 167.14794921875 53.8162956237793 165.6863250732422 C 55.27791595458984 164.2247009277344 57.19869613647461 163.4517974853516 59.35668563842773 163.4517974853516 C 61.51468658447266 163.4517974853516 63.42780685424805 164.2247009277344 64.88942718505859 165.6863250732422 C 66.35104370117188 167.1479339599609 67.12394714355469 169.0610656738281 67.12394714355469 171.2190551757812 C 67.12394714355469 173.3770446777344 66.35104370117188 175.2901611328125 64.88942718505859 176.7517852783203 C 63.42780685424805 178.2134094238281 61.51468658447266 178.9863128662109 59.35668563842773 178.9863128662109 C 56.50996780395508 178.9863128662109 54.35962677001953 181.1366424560547 54.35962677001953 183.9833679199219 C 54.35962677001953 186.8300933837891 56.50231552124023 188.9804229736328 59.35668563842773 188.9804229736328 M 59.35668563842773 192.9804229736328 C 56.90779876708984 192.9804229736328 54.63530731201172 192.0556030273438 52.95782852172852 190.3763275146484 C 52.27522277832031 189.6929931640625 51.71749877929688 188.9110717773438 51.2962760925293 188.0591278076172 C 50.71149826049805 188.1794281005859 50.11224746704102 188.2412567138672 49.50785827636719 188.2412567138672 C 49.29275894165039 188.2412567138672 49.07472610473633 188.2333831787109 48.85984802246094 188.2178497314453 C 46.4255485534668 188.0429992675781 44.16751098632812 186.8937377929688 42.64766311645508 185.0595550537109 C 39.33206939697266 181.3220062255859 37.58000564575195 176.5382537841797 37.58000564575195 171.2190551757812 C 37.58000564575195 159.215576171875 47.34555816650391 149.4500122070312 59.34903717041016 149.4500122070312 C 71.35252380371094 149.4500122070312 81.11808013916016 159.215576171875 81.11808013916016 171.2190551757812 C 81.11808013916016 183.2183074951172 71.35595703125 192.9804229736328 59.35668563842773 192.9804229736328 Z M 56.53407287597656 173.8947143554688 C 56.85531616210938 174.3096313476562 57.138671875 174.7441253662109 57.38301467895508 175.1934509277344 C 58.02176284790039 175.0565643310547 58.68269348144531 174.9863128662109 59.35668563842773 174.9863128662109 C 60.44581604003906 174.9863128662109 61.35567855834961 174.6286773681641 62.06099700927734 173.9233551025391 C 62.76631546020508 173.2180328369141 63.12394714355469 172.3081817626953 63.12394714355469 171.2190551757812 C 63.12394714355469 170.1299285888672 62.76632690429688 169.2200775146484 62.06101608276367 168.5147857666016 C 61.35567855834961 167.8094329833984 60.44581604003906 167.4517974853516 59.35668563842773 167.4517974853516 C 58.26248550415039 167.4517974853516 57.35004806518555 167.8094329833984 56.64473724365234 168.5147552490234 C 55.93940734863281 169.2200775146484 55.5817756652832 170.1299438476562 55.5817756652832 171.2190551757812 C 55.5817756652832 172.3582916259766 56.09458541870117 173.2983856201172 56.53407287597656 173.8947143554688 Z" stroke="none" fill="#756f86"/></g></g><g transform="translate(152.157 132.963)"><g transform="translate(0 0)"><g transform="translate(-192.102 -154.329)" fill="none"><path d="M220.242,173.2a9.471,9.471,0,0,1-3.015,6.267,10.446,10.446,0,1,1,0-14.861,2.3,2.3,0,1,0,3.252-3.252,15.108,15.108,0,1,0,0,21.366,15.917,15.917,0,0,0,4.415-9.053,2.31,2.31,0,0,0-2.089-2.556,2.372,2.372,0,0,0-2.564,2.089Z" stroke="none"/><path d="M 209.7965240478516 187.0755157470703 C 213.6858825683594 187.0755157470703 217.5752563476562 185.6234588623047 220.4793548583984 182.7193603515625 C 223.0352783203125 180.1634368896484 224.4280395507812 176.9111328125 224.8948364257812 173.6664733886719 C 225.1244201660156 172.5032958984375 224.1984558105469 171.3477783203125 222.8057250976562 171.1105651855469 C 221.4053192138672 171.1105651855469 220.2421417236328 172.0441741943359 220.2421417236328 173.1996917724609 C 220.0125579833984 175.5183868408203 219.0789642333984 177.8447418212891 217.2270660400391 179.4670715332031 C 215.137939453125 181.5561828613281 212.5820007324219 182.4821472167969 209.7965087890625 182.4821472167969 C 207.0110015869141 182.4821472167969 204.4550933837891 181.5561828613281 202.3659515380859 179.4670715332031 C 200.2768402099609 177.3779449462891 199.3508758544922 174.8220062255859 199.3508758544922 172.0365142822266 C 199.3508758544922 169.2510070800781 200.2768402099609 166.6950988769531 202.3659515380859 164.60595703125 C 204.455078125 162.5168151855469 207.0110015869141 161.5908813476562 209.7965087890625 161.5908813476562 C 212.5820007324219 161.5908813476562 215.1379241943359 162.516845703125 217.2270660400391 164.60595703125 C 217.6900329589844 165.0689392089844 218.2697143554688 165.3004150390625 218.850341796875 165.3004150390625 C 219.4309692382812 165.3004150390625 220.0125579833984 165.0689392089844 220.4793548583984 164.60595703125 C 221.4129638671875 163.6800079345703 221.4053192138672 162.2872619628906 220.4793548583984 161.3536682128906 C 217.5752563476562 158.4495544433594 213.6858825683594 156.9974975585938 209.7965240478516 156.9974975585938 C 205.9071502685547 156.9974975585938 202.0177764892578 158.4495544433594 199.1136627197266 161.3536682128906 C 193.3054504394531 167.1618804931641 193.3054504394531 176.9111328125 199.1136627197266 182.7193603515625 C 202.0177764892578 185.6234588623047 205.9071502685547 187.0755157470703 209.7965240478516 187.0755157470703 M 209.7965087890625 191.0755157470703 C 207.3105926513672 191.0755157470703 204.8908843994141 190.6134643554688 202.6045989990234 189.7021942138672 C 200.2160034179688 188.7501525878906 198.0898590087891 187.3524017333984 196.2852478027344 185.5477905273438 C 194.4806213378906 183.7431640625 193.0828704833984 181.6170196533203 192.1308288574219 179.2284240722656 C 191.2195587158203 176.942138671875 190.7575073242188 174.5224304199219 190.7575073242188 172.0365142822266 C 190.7575073242188 169.5505828857422 191.2195587158203 167.1308746337891 192.1308288574219 164.8446044921875 C 193.0828704833984 162.4559936523438 194.4806213378906 160.3298645019531 196.2852325439453 158.5252380371094 C 198.0898590087891 156.7206268310547 200.2160034179688 155.3228759765625 202.6045989990234 154.3708190917969 C 204.8908843994141 153.4595489501953 207.3105926513672 152.9974975585938 209.7965087890625 152.9974975585938 C 212.2824401855469 152.9974975585938 214.7021484375 153.4595489501953 216.9884338378906 154.3708190917969 C 219.3770294189453 155.3228759765625 221.503173828125 156.7206268310547 223.3077850341797 158.5252532958984 L 223.3135833740234 158.5310516357422 L 223.3193664550781 158.536865234375 C 224.5143432617188 159.74169921875 225.1739501953125 161.3182525634766 225.1766815185547 162.9760894775391 C 225.1792602539062 164.5324859619141 224.6042175292969 166.0117034912109 223.5498046875 167.1800994873047 C 225.3120422363281 167.4996185302734 226.8796081542969 168.4932250976562 227.8594970703125 169.9144744873047 C 228.7638549804688 171.2261810302734 229.1107940673828 172.7844390869141 228.8424377441406 174.31591796875 C 228.1970367431641 178.6889343261719 226.2842864990234 182.5712890625 223.3077850341797 185.5477905273438 C 221.503173828125 187.3524017333984 219.3770294189453 188.7501525878906 216.9884185791016 189.7021942138672 C 214.7021484375 190.6134643554688 212.2824401855469 191.0755157470703 209.7965087890625 191.0755157470703 Z M 209.7965087890625 165.5908813476562 C 207.9402313232422 165.5908813476562 206.4348602294922 166.1938934326172 205.1943969726562 167.4343719482422 C 203.9538879394531 168.6748962402344 203.3508758544922 170.1802673339844 203.3508758544922 172.0365142822266 C 203.3508758544922 173.8927764892578 203.9538879394531 175.3981475830078 205.1943817138672 176.6386566162109 C 206.4348907470703 177.8791351318359 207.9402618408203 178.4821472167969 209.7965087890625 178.4821472167969 C 211.6527709960938 178.4821472167969 213.1581420898438 177.8791351318359 214.3986511230469 176.6386260986328 L 214.4919891357422 176.5452880859375 L 214.5912780761719 176.4583129882812 C 215.7845001220703 175.4130096435547 216.1424865722656 173.8430328369141 216.2487640380859 172.9252014160156 C 216.3150482177734 171.5510864257812 216.8772277832031 170.2460327148438 217.8342590332031 169.2172546386719 C 216.5480804443359 169.0047149658203 215.3543090820312 168.3900604248047 214.3986358642578 167.4343872070312 C 213.1581420898438 166.1938934326172 211.6527557373047 165.5908813476562 209.7965087890625 165.5908813476562 Z" stroke="none" fill="#756f86"/></g><g transform="translate(-191.288 -153.51)" fill="none"><path d="M208.974,188.933A17.622,17.622,0,0,1,196.4,183.8a18.023,18.023,0,0,1,0-25.154,17.96,17.96,0,0,1,25.146,0,4.978,4.978,0,1,1-7.04,7.04,7.768,7.768,0,1,0,0,11.065l.13-.122a6.879,6.879,0,0,0,2.1-4.423,5.042,5.042,0,0,1,5.227-4.591l.444.038a5.334,5.334,0,0,1,3.528,2.2,4.594,4.594,0,0,1,.765,3.444,18.443,18.443,0,0,1-5.158,10.507A17.609,17.609,0,0,1,208.974,188.933Z" stroke="none"/><path d="M 208.9742736816406 188.9332885742188 C 213.7723693847656 188.9332885742188 218.2414093017578 187.1119995117188 221.5472717285156 183.7984619140625 C 224.3251190185547 181.0206298828125 226.108154296875 177.3933715820312 226.7050323486328 173.2916259765625 C 226.9193115234375 172.0978393554688 226.6514739990234 170.881103515625 225.9397888183594 169.8480224609375 C 225.1439361572266 168.6925048828125 223.8583221435547 167.8889770507812 222.4120025634766 167.6517639160156 L 221.9681549072266 167.6134948730469 C 219.1520385742188 167.6134948730469 216.8410034179688 169.6567077636719 216.7415161132812 172.2049865722656 C 216.6190795898438 173.3146057128906 216.1828918457031 175.2812805175781 214.6370849609375 176.6281127929688 L 214.5070037841797 176.7505493164062 C 213.0071258544922 178.2580871582031 211.2011413574219 178.9850769042969 208.9742736816406 178.9850769042969 C 206.7473907470703 178.9850769042969 204.9337615966797 178.2504577636719 203.4338836669922 176.7505493164062 C 201.9340057373047 175.2506713867188 201.1993560791016 173.4370422363281 201.1993560791016 171.2178344726562 C 201.1993560791016 168.9985961914062 201.9339904785156 167.1849670410156 203.4338836669922 165.6850891113281 C 204.94140625 164.1775512695312 206.7550506591797 163.4505615234375 208.9742736816406 163.4505615234375 C 211.1934814453125 163.4505615234375 213.0071105957031 164.1852111816406 214.5070037841797 165.6850891113281 C 215.4941711425781 166.6722564697266 216.7606506347656 167.1658325195312 218.0271301269531 167.1658325195312 C 219.2936248779297 167.1658325195312 220.5601043701172 166.6722564697266 221.5472717285156 165.6850891113281 C 222.5038299560547 164.728515625 223.0318450927734 163.4811706542969 223.0318450927734 162.1649475097656 C 223.0318450927734 160.8487243652344 222.5038299560547 159.6013641357422 221.5472717285156 158.6448059082031 C 218.2337646484375 155.3312835693359 213.7647094726562 153.5099945068359 208.9742736816406 153.5099945068359 C 204.1838226318359 153.5099945068359 199.7147827148438 155.3312835693359 196.4012603759766 158.6448059082031 C 189.5829162597656 165.4631652832031 189.5829162597656 176.9801330566406 196.4012603759766 183.7984619140625 C 199.7147827148438 187.1119995117188 204.1761627197266 188.9332885742188 208.9742736816406 188.9332885742188 M 208.9742736816406 192.9332885742188 C 203.1092224121094 192.9332885742188 197.6395568847656 190.6936340332031 193.5728302001953 186.6268768310547 C 191.5208435058594 184.5749053955078 189.9313812255859 182.1526947021484 188.8486175537109 179.4275360107422 C 187.8127288818359 176.8204040527344 187.2875061035156 174.0595397949219 187.2875061035156 171.2216491699219 C 187.2875061035156 168.3837432861328 187.8127288818359 165.6228942871094 188.8486175537109 163.0157470703125 C 189.9313812255859 160.2906036376953 191.5208435058594 157.8683776855469 193.5728302001953 155.8163757324219 C 197.6395721435547 151.7496490478516 203.1092376708984 149.5099945068359 208.9742736816406 149.5099945068359 C 214.8393096923828 149.5099945068359 220.3089904785156 151.7496490478516 224.3757019042969 155.8163909912109 C 226.0885467529297 157.5292205810547 227.0318450927734 159.7838439941406 227.0318450927734 162.1649475097656 C 227.0318450927734 163.1505737304688 226.8701629638672 164.1146545410156 226.5592346191406 165.0274810791016 C 227.6123809814453 165.6883392333984 228.5279388427734 166.5539093017578 229.2340393066406 167.5791015625 C 230.5295715332031 169.459716796875 231.0329284667969 171.7110290527344 230.65478515625 173.9259185791016 C 229.9252777099609 178.8571319580078 227.7548370361328 183.2477722167969 224.3756866455078 186.6268920898438 C 220.3195495605469 190.6924743652344 214.8487091064453 192.9332885742188 208.9742736816406 192.9332885742188 Z M 208.9742736816406 167.4505615234375 C 207.8030090332031 167.4505615234375 207.0173034667969 167.7585144042969 206.2623291015625 168.5135040283203 C 205.5172424316406 169.2585754394531 205.1993560791016 170.0673522949219 205.1993560791016 171.2178344726562 C 205.1993560791016 172.3683013916016 205.5172424316406 173.1770629882812 206.2623138427734 173.922119140625 C 207.0073699951172 174.6671905517578 207.8184204101562 174.9850769042969 208.9742736816406 174.9850769042969 C 210.1439208984375 174.9850769042969 210.9253082275391 174.6792144775391 211.67138671875 173.9293365478516 L 211.7176513671875 173.8828430175781 L 211.7654113769531 173.8378753662109 L 211.8954772949219 173.7154388427734 L 211.9514617919922 173.6627502441406 L 212.0094299316406 173.6122436523438 C 212.5276336669922 173.1607513427734 212.7017669677734 172.2507171630859 212.7539215087891 171.8618774414062 C 212.7988586425781 171.1262664794922 212.9386444091797 170.4087829589844 213.1671295166016 169.7224273681641 C 212.6370697021484 169.377197265625 212.1381072998047 168.9730529785156 211.6785736083984 168.5135192871094 C 210.9335174560547 167.7684631347656 210.1247406005859 167.4505615234375 208.9742736816406 167.4505615234375 Z" stroke="none" fill="#756f86"/></g></g></g></g></g></svg>