<svg xmlns="http://www.w3.org/2000/svg" width="349" height="349" viewBox="0 0 349 349"><g transform="translate(-17257 18902)"><rect width="349" height="349" transform="translate(17257 -18902)" fill="none"/><g transform="translate(17357.873 -18809.211)"><path d="M118.034,163.1H4.078a4.113,4.113,0,0,1,0-8.227H113.885V24.751a16.609,16.609,0,0,0-16.6-16.525,16.252,16.252,0,0,0-11.66,4.864A16.287,16.287,0,0,0,81.122,21.1a24.167,24.167,0,0,1,19.672,23.75,4.031,4.031,0,0,1-4.078,4.078h-40.2a4.076,4.076,0,0,1-4.078-4.078c0-6.867,3.863-13.878,7.082-17.1a24.787,24.787,0,0,1,13.306-6.8,24.756,24.756,0,0,1,49.217,3.791V154.875H143.5a4.113,4.113,0,1,1,0,8.227H118.034Zm-25.4-100.15a4.076,4.076,0,0,1,4.078-4.078,4.122,4.122,0,0,1,4.078,4.078V76.9a4.076,4.076,0,0,1-4.078,4.078A4.031,4.031,0,0,1,92.639,76.9V62.951Zm-40.2,0a4.122,4.122,0,0,1,4.078-4.078,4.076,4.076,0,0,1,4.078,4.078V76.9a4.031,4.031,0,0,1-4.078,4.078A4.076,4.076,0,0,1,52.436,76.9V62.951Zm20.1,0a4.122,4.122,0,0,1,4.078-4.078,4.076,4.076,0,0,1,4.078,4.078V76.9a4.031,4.031,0,0,1-4.078,4.078A4.076,4.076,0,0,1,72.537,76.9V62.951ZM76.615,28.9A15.908,15.908,0,0,0,61.163,40.775h30.9a16.268,16.268,0,0,0-4.149-7.225,16.072,16.072,0,0,0-11.3-4.65Z" transform="translate(0 0)" fill="none" stroke="#756f86" stroke-width="6"/></g></g></svg>