<svg xmlns="http://www.w3.org/2000/svg" width="349" height="349" viewBox="0 0 349 349"><g transform="translate(-18837 18902)"><rect width="349" height="349" transform="translate(18837 -18902)" fill="none"/><g transform="translate(18878.736 -18858.766)"><g transform="translate(57.78 33.72)"><path d="M65.453,226.625c6.173,0,6.173,0,6.173-6.173V96.971c0-6.173,0-6.173-6.173-6.173s-6.173,0-6.173,6.173v123.48C59.28,226.625,59.28,226.625,65.453,226.625Zm0,0H201.28c6.173,0,6.173,0,6.173-6.173s0-6.173-6.173-6.173H65.453c-6.173,0-6.173,0-6.173,6.173S59.28,226.625,65.453,226.625Zm135.827,0c6.173,0,6.173,0,6.173-6.173V96.971c0-6.173,0-6.173-6.173-6.173s-6.173,0-6.173,6.173v123.48C195.107,226.625,195.107,226.625,201.28,226.625ZM65.453,103.144H201.28c6.173,0,6.173,0,6.173-6.173s0-6.173-6.173-6.173H65.453c-6.173,0-6.173,0-6.173,6.173S59.28,103.144,65.453,103.144ZM88.915,72.279h39.51c6.047,0,6.047,0,2.6-5.059l-20-28.646c-2.345-3.585-2.345-3.585-4.69,0l-20,28.637C82.867,72.279,82.867,72.279,88.915,72.279Zm66.8-3.334c2.345,3.459,2.345,3.459,4.69,0l20-28.646c3.459-5.059,3.459-5.059-2.6-5.059H138.3c-6.047,0-6.047,0-2.6,5.059Zm-47.04,62.109a9.387,9.387,0,0,0,9.264-9.507,9.268,9.268,0,0,0-18.528,0A9.381,9.381,0,0,0,108.674,131.054Zm49.637,0a9.283,9.283,0,0,0,9.138-9.507,9.011,9.011,0,0,0-9.138-9.013,9.221,9.221,0,0,0-9.381,9.013A9.485,9.485,0,0,0,158.311,131.054ZM99.041,204.9c0,.126,19.139.126,19.139,0,1.114-11.726,1.357-23.21,1.725-34.082,4.07-.737,6.793-1.483,6.667-2.839l-1.114-16.426c-.62-8.644-5.931-14.449-17.163-14.449-10.747,0-15.806,5.8-16.426,14.449l-1.114,16.426c-.126,1.357,2.345,2.345,6.667,2.839C97.685,181.679,98.053,193.162,99.041,204.9Zm49.394,0c0,.126,19.139.126,19.139,0,1.114-11.726,1.357-23.21,1.725-34.082,4.07-.737,6.793-1.483,6.667-2.839l-1.114-16.426c-.62-8.644-5.931-14.449-17.163-14.449-10.747,0-15.806,5.8-16.426,14.449l-1.114,16.426c-.126,1.357,2.345,2.345,6.667,2.839C147.07,181.679,147.447,193.162,148.435,204.9Z" transform="translate(-57.932 -33.874)" fill="none" stroke="#756f86" stroke-width="5"/><path d="M201.128,227.818H65.3c-6.892,0-7.521-.629-7.521-7.521V96.817c0-6.892.629-7.521,7.521-7.521H201.128c6.892,0,7.521.629,7.521,7.521V220.3C208.649,227.189,208.02,227.818,201.128,227.818ZM196.3,215.472V220.3c0,2.273,0,4.07.377,4.448s2.175.377,4.448.377,4.07,0,4.448-.377.377-2.175.377-4.448,0-4.07-.377-4.448-2.175-.377-4.448-.377Zm-123.84,9.651H193.975a19.77,19.77,0,0,1-.368-4.825v-4.825H72.822V220.3A20.333,20.333,0,0,1,72.463,225.123Zm-11.987-4.717c0,2.228.009,3.972.377,4.34s2.175.377,4.448.377,4.07,0,4.448-.377.377-2.175.377-4.448v-4.825H65.3c-2.273,0-4.07,0-4.448.377s-.377,2.175-.377,4.448v.09s0,0,0,.018ZM196.3,212.776h4.825a19.77,19.77,0,0,1,4.825.368V103.979a19.77,19.77,0,0,1-4.825.368H196.3ZM60.476,103.979V213.145a19.77,19.77,0,0,1,4.825-.368h4.825V104.338H65.3A20.333,20.333,0,0,1,60.476,103.979Zm12.346,108.8H193.607V104.338H72.822ZM196.3,101.642h4.825c2.273,0,4.07,0,4.448-.377s.377-2.175.377-4.448V96.7c0-2.228-.009-3.972-.377-4.34s-2.175-.377-4.448-.377-4.07,0-4.448.377-.377,2.175-.377,4.448Zm-123.48,0H193.607V96.817a19.77,19.77,0,0,1,.368-4.825H72.463a19.771,19.771,0,0,1,.368,4.825v4.825ZM60.476,96.817c0,2.273,0,4.07.377,4.448s2.175.377,4.448.377h4.825V96.817c0-2.273,0-4.07-.377-4.448s-2.175-.377-4.448-.377-4.07,0-4.448.377S60.476,94.544,60.476,96.817Zm97.377,109.364c-2.4,0-4.789-.009-6.586-.027-.908-.009-1.662-.018-2.184-.027-.836-.018-2.094-.045-2.139-1.321-.961-11.466-1.339-22.59-1.581-32.959-2.57-.359-6.946-1.3-6.685-4.151l1.105-16.39c.719-10.127,7.036-15.707,17.765-15.707,11.214,0,17.783,5.571,18.51,15.7l1.114,16.426c.216,2.381-2.7,3.289-6.7,4.061l-.117,3.621c-.306,9.507-.62,19.337-1.572,29.41-.054,1.258-1.3,1.285-2.139,1.3-.53.009-1.285.018-2.184.027C162.642,206.172,160.243,206.181,157.853,206.181Zm-8.222-1.438h0Zm-.108-1.3c3.352.054,13.326.054,16.659,0,.863-9.606,1.168-19.014,1.465-28.116l.153-4.708a1.335,1.335,0,0,1,1.105-1.276c3.9-.71,5.194-1.231,5.553-1.564l-1.105-16.282c-.62-8.626-6.083-13.191-15.815-13.191-9.246,0-14.458,4.565-15.078,13.191l-1.105,16.336c.189.2,1.2,1.006,5.472,1.492a1.361,1.361,0,0,1,1.2,1.312C148.256,180.931,148.607,192.02,149.523,203.44Zm24.953-35.52v0Zm-33.121-.018Zm-32.9,38.279c-2.4,0-4.789-.009-6.586-.027-.908-.009-1.662-.018-2.184-.027-.836-.018-2.094-.045-2.139-1.321-.961-11.466-1.339-22.6-1.581-32.959-2.57-.359-6.946-1.3-6.685-4.151l1.105-16.39c.728-10.127,7.036-15.707,17.765-15.707,11.214,0,17.783,5.571,18.51,15.7l1.114,16.426c.216,2.381-2.7,3.289-6.7,4.061l-.117,3.621c-.306,9.507-.62,19.337-1.572,29.41-.054,1.258-1.3,1.285-2.139,1.3-.53.009-1.285.018-2.184.027C113.248,206.172,110.858,206.181,108.459,206.181Zm-8.222-1.438h0Zm-.1-1.3c3.352.054,13.326.054,16.659,0,.863-9.606,1.168-19.014,1.465-28.116l.153-4.708a1.335,1.335,0,0,1,1.105-1.276c3.9-.71,5.194-1.231,5.553-1.564l-1.105-16.282c-.62-8.626-6.083-13.191-15.815-13.191-9.246,0-14.458,4.565-15.078,13.191L91.97,167.83c.189.2,1.2,1.006,5.472,1.492a1.361,1.361,0,0,1,1.2,1.312C98.862,180.931,99.213,192.02,100.138,203.44Zm24.944-35.52v0ZM91.961,167.9Zm66.2-35.655a10.8,10.8,0,0,1-10.729-10.855,10.562,10.562,0,0,1,10.729-10.36,10.318,10.318,0,0,1,10.486,10.36A10.691,10.691,0,0,1,158.158,132.247Zm0-18.519a7.866,7.866,0,0,0-8.033,7.665,8.1,8.1,0,0,0,8.033,8.159,7.9,7.9,0,0,0,7.791-8.159A7.643,7.643,0,0,0,158.158,113.728Zm-49.637,18.519A10.749,10.749,0,0,1,97.91,121.393a10.615,10.615,0,0,1,21.224,0A10.755,10.755,0,0,1,108.522,132.247Zm0-18.519a7.8,7.8,0,0,0-7.916,7.665,7.92,7.92,0,1,0,15.833,0A7.809,7.809,0,0,0,108.522,113.728Zm19.75-40.256H88.762c-3.774,0-5.337,0-6.047-1.348s.18-2.66,2.345-5.823l20.011-28.655c1.411-2.157,2.139-3.262,3.45-3.262h0c1.312,0,2.04,1.105,3.477,3.3l19.984,28.61c2.175,3.181,3.064,4.484,2.354,5.841C133.619,73.472,132.055,73.472,128.272,73.472ZM85.411,70.7c.746.072,2.022.072,3.361.072h39.51c1.339,0,2.615,0,3.352-.072-.359-.665-1.105-1.752-1.878-2.884L109.762,39.183c-.458-.7-.917-1.4-1.24-1.824-.323.422-.773,1.114-1.222,1.788L87.271,67.829C86.507,68.953,85.77,70.04,85.411,70.7Zm72.5,2.022h0c-1.3,0-2.022-1.06-3.459-3.181l-20-28.637c-2.175-3.181-3.064-4.484-2.354-5.841s2.273-1.348,6.047-1.348h39.51c3.774,0,5.337,0,6.047,1.348s-.18,2.66-2.345,5.823L161.339,69.546C159.938,71.666,159.21,72.727,157.907,72.727Zm.323-2.615h0ZM134.8,36.5c.359.665,1.105,1.752,1.878,2.884l19.993,28.637c0,.009.009.009.009.018.449.665.908,1.339,1.231,1.743.323-.4.782-1.078,1.231-1.743l20.011-28.664c.764-1.123,1.51-2.2,1.869-2.866-.746-.072-2.022-.072-3.352-.072h-39.51C136.818,36.425,135.542,36.425,134.8,36.5Z" transform="translate(-57.78 -33.72)" fill="none" stroke="#756f86" stroke-width="5"/></g></g></g></svg>