<svg xmlns="http://www.w3.org/2000/svg" width="349" height="349" viewBox="0 0 349 349"><g transform="translate(-16092 18523)"><rect width="349" height="349" transform="translate(16092 -18523)" fill="none"/><g transform="translate(16074.714 -20268.039)"><path d="M209.172,186.294l-6.2-105.385h0a3.1,3.1,0,0,0-.513-1.538l-9.187-13.778h.408a3.1,3.1,0,0,0,3.1-3.1V50.1a3.1,3.1,0,0,0-3.1-3.1h-31a3.1,3.1,0,0,0-3.1,3.1v12.4a3.1,3.1,0,0,0,3.1,3.1h.408l-9.186,13.778a3.1,3.1,0,0,0-.513,1.538h0l-3.124,53.1a21.786,21.786,0,0,0-3.083-.223h-15.5V99.945L137.845,63a3.12,3.12,0,0,0,.042-.509v-31A15.515,15.515,0,0,0,122.39,16h-12.4a3.1,3.1,0,0,0-3.1,3.1V56.294a3.1,3.1,0,0,0,3.1,3.1h9.3v2.843l-6.157,36.942a3.116,3.116,0,0,0-.042.509v34.1h-15.5v-21.7a9.309,9.309,0,0,0-9.3-9.3h-3.1v-6.2h3.1a3.1,3.1,0,0,0,3.1-3.1v-24.8a3.1,3.1,0,0,0-3.1-3.1h-31a3.1,3.1,0,0,0-3.1,3.1v24.8a3.1,3.1,0,0,0,3.1,3.1h3.1v6.2H57.3a9.309,9.309,0,0,0-9.3,9.3v80.589a9.309,9.309,0,0,0,9.3,9.3h31v-.225a21.75,21.75,0,0,0,3.1.225h55.792a21.751,21.751,0,0,0,3.1-.225v.225h55.792a3.1,3.1,0,0,0,3.1-3.1v-12.4c0-.061-.006-.121-.009-.182Zm-43.388-133.1h24.8v6.2h-24.8Zm4.758,12.4h15.28l8.265,12.4H162.278Zm-11.134,18.6h37.549l5.834,99.186H168.656a21.755,21.755,0,0,0,.225-3.1v-24.8a21.721,21.721,0,0,0-12.514-19.651ZM113.091,22.2h6.2v6.2h-6.2Zm0,12.4h6.2v6.2h-6.2Zm0,18.6V47h6.2v6.2Zm6.2,46.75L125.447,63a3.119,3.119,0,0,0,.042-.509V22.73a9.315,9.315,0,0,1,6.2,8.768V62.237l-6.157,36.942a3.115,3.115,0,0,0-.042.509v34.1h-6.2ZM60.4,71.792h24.8v18.6H60.4ZM79,96.589v6.2H66.6v-6.2Zm-24.8,15.5a3.1,3.1,0,0,1,3.1-3.1h31a3.1,3.1,0,0,1,3.1,3.1v9.3H54.2Zm3.1,83.688a3.1,3.1,0,0,1-3.1-3.1V127.584H91.394v6.2a21.721,21.721,0,0,0-21.7,21.7v24.8a21.627,21.627,0,0,0,6.533,15.5Zm89.887,0H91.394a15.515,15.515,0,0,1-15.5-15.5v-24.8a15.515,15.515,0,0,1,15.5-15.5h55.792a15.515,15.515,0,0,1,15.5,15.5v24.8a15.515,15.515,0,0,1-15.5,15.5Zm55.792,0H162.35a21.794,21.794,0,0,0,4.435-6.2h36.193Z" transform="translate(63.438 1810.215)" fill="#756f86"/><path d="M364.4,248.8A12.4,12.4,0,1,0,352,236.4a12.4,12.4,0,0,0,12.4,12.4Zm0-18.6a6.2,6.2,0,1,1-6.2,6.2A6.2,6.2,0,0,1,364.4,230.2Z" transform="translate(-122.779 1682.803)" fill="#756f86"/></g></g></svg>