<svg xmlns="http://www.w3.org/2000/svg" width="349" height="349" viewBox="0 0 349 349"><g transform="translate(-16092 19282)"><rect width="349" height="349" transform="translate(16092 -19282)" fill="none"/><g transform="translate(16092.365 -19226.385)"><path d="M227.414,106.737,195.9,22.687A10.353,10.353,0,0,0,186.246,16H161.418a10.353,10.353,0,0,0-9.649,6.687l-12.5,33.327a3.435,3.435,0,0,0,3.216,4.641H202.8l18.185,48.493a122.675,122.675,0,0,1-1.626,90.257l-5.711,13.71a3.426,3.426,0,0,1-3.173,2.114h-73.28a3.426,3.426,0,0,1-3.171-2.114l-5.711-13.71a122.675,122.675,0,0,1-1.626-90.257L145.7,58.426l-6.433-2.412-19.02,50.723a129.545,129.545,0,0,0,1.717,95.311l5.713,13.71a10.278,10.278,0,0,0,9.51,6.341h73.28a10.277,10.277,0,0,0,9.512-6.341l5.711-13.71a129.545,129.545,0,0,0,1.718-95.311ZM180.7,22.87V36.61a3.439,3.439,0,0,1-3.435,3.435H170.4a3.439,3.439,0,0,1-3.435-3.435V22.87ZM147.444,53.785,158.2,25.1a3.441,3.441,0,0,1,1.889-1.95V36.61a10.317,10.317,0,0,0,10.3,10.3h6.87a10.317,10.317,0,0,0,10.3-10.3V23.149a3.441,3.441,0,0,1,1.889,1.95L200.22,53.785Z" fill="#756f86" stroke="#756f86" stroke-linecap="round" stroke-linejoin="round" stroke-width="1"/><path d="M244.7,232.045c0-6.691-3.759-12.881-10.585-17.433-6.4-4.264-14.837-6.612-23.765-6.612s-17.369,2.349-23.765,6.612C179.759,219.164,176,225.354,176,232.045s3.759,12.881,10.585,17.433c6.4,4.264,14.837,6.612,23.765,6.612s17.369-2.349,23.765-6.612C240.941,244.926,244.7,238.735,244.7,232.045ZM210.35,249.22c-14.9,0-27.48-7.865-27.48-17.175s12.585-17.175,27.48-17.175,27.48,7.865,27.48,17.175S225.245,249.22,210.35,249.22Z" transform="translate(-36.518 -109.56)" fill="#756f86" stroke="#756f86" stroke-linecap="round" stroke-linejoin="round" stroke-width="2"/><rect width="48.3" height="6.549" transform="translate(149.706 156.806)" fill="#756f86" stroke="#756f86" stroke-linecap="round" stroke-linejoin="round" stroke-width="2"/><rect width="34.383" height="6.549" transform="translate(156.255 170.723)" fill="#756f86" stroke="#756f86" stroke-linecap="round" stroke-linejoin="round" stroke-width="2"/></g></g></svg>