<svg xmlns="http://www.w3.org/2000/svg" width="349" height="349" viewBox="0 0 349 349"><g transform="translate(-17644 18902)"><rect width="349" height="349" transform="translate(17644 -18902)" fill="none"/><path d="M156.149-60H6.789C0-60,0-60,0-53.211V96.149c0,6.789,0,6.789,6.789,6.789h149.36c6.789,0,6.789,0,6.789-6.789V-53.211C162.938-60,162.938-60,156.149-60ZM57.707-14.242V-29.585c0-3.259,0-3.259-3.259-3.259H45.215c-3.259,0-3.259,0-3.259,3.259v15.343c0,15.343-14.8,20.231-14.8,44.129V70.079c0,5.7,0,5.7,5.7,5.7H66.8c5.567,0,5.567,0,5.567-5.7V29.887C72.372,5.99,57.707,1.1,57.707-14.242Zm73.186,8.554h-44.4c-2.173,0-2.173,0-2.851,1.9A39.216,39.216,0,0,0,81.469,8.841C81.469,23.1,88.8,33.961,103.6,36.4V60.846c0,8.418-14.393,5.839-14.393,11.677,0,3.259,0,3.259,3.259,3.259h32.316c3.259,0,3.259,0,3.259-3.259,0-5.839-14.393-2.851-14.393-11.677V36.4c14.8-2.444,22.132-13.307,22.132-27.564a42.079,42.079,0,0,0-2.037-12.492C132.93-5.687,132.93-5.687,130.894-5.687Zm0,0" transform="translate(17736.953 -18749.047)" fill="none" stroke="#756f86" stroke-width="8"/></g></svg>