<svg xmlns="http://www.w3.org/2000/svg" width="349" height="349" viewBox="0 0 349 349"><g transform="translate(-16479 18902)"><rect width="349" height="349" transform="translate(16479 -18902)" fill="none"/><g transform="translate(356.813 156.096)"><path d="M17.727,162.859h9.948v.242a11.052,11.052,0,0,0,11.036,11.036H75.564A11.052,11.052,0,0,0,86.6,163.1v-.242H193.694a12.754,12.754,0,0,0,12.727-12.727V33.574a12.754,12.754,0,0,0-12.727-12.727H86.559v-.242A11.052,11.052,0,0,0,75.523,9.57H38.671A11.052,11.052,0,0,0,27.635,20.606v.242H17.727A12.754,12.754,0,0,0,5,33.574v116.6A12.746,12.746,0,0,0,17.727,162.859ZM193.653,28.9a4.675,4.675,0,0,1,4.672,4.672v116.6a4.675,4.675,0,0,1-4.672,4.672H86.559V28.9Zm-157.923-8.3a2.974,2.974,0,0,1,2.98-2.98H75.564a2.974,2.974,0,0,1,2.98,2.98V163.1a2.974,2.974,0,0,1-2.98,2.98H38.711a2.974,2.974,0,0,1-2.98-2.98V20.606ZM13.055,33.574A4.675,4.675,0,0,1,17.727,28.9h9.948V154.8H17.727a4.675,4.675,0,0,1-4.672-4.672Z" transform="translate(16190.782 -18975.57)" fill="#756f86"/><path d="M35.867,48.2h71.208A6.927,6.927,0,0,0,114,41.268V23.707a6.927,6.927,0,0,0-6.928-6.927H35.867a6.927,6.927,0,0,0-6.927,6.927v17.56A6.927,6.927,0,0,0,35.867,48.2ZM37,24.835h68.993v15.3H37Z" transform="translate(16263.263 -18953.74)" fill="#756f86"/><path d="M46.312,27.83H33.988a4.028,4.028,0,1,0,0,8.055H46.312a4.028,4.028,0,1,0,0-8.055Z" transform="translate(16266.351 -18920.287)" fill="#756f86"/><path d="M53.252,27.83H41.008a4.028,4.028,0,1,0,0,8.055H53.252a4.028,4.028,0,1,0,0-8.055Z" transform="translate(16287.606 -18920.287)" fill="#756f86"/><path d="M59.344,27.83h-11.2a4.028,4.028,0,1,0,0,8.055h11.2a4.028,4.028,0,1,0,0-8.055Z" transform="translate(16309.222 -18920.287)" fill="#756f86"/><path d="M46.312,34.1H33.988a4.028,4.028,0,1,0,0,8.055H46.312a4.028,4.028,0,1,0,0-8.055Z" transform="translate(16266.351 -18901.305)" fill="#756f86"/><path d="M53.252,34.1H41.008a4.028,4.028,0,1,0,0,8.055H53.252a4.028,4.028,0,1,0,0-8.055Z" transform="translate(16287.606 -18901.305)" fill="#756f86"/><path d="M59.344,34.1h-11.2a4.028,4.028,0,1,0,0,8.055h11.2a4.028,4.028,0,1,0,0-8.055Z" transform="translate(16309.222 -18901.305)" fill="#756f86"/><path d="M46.312,40.37H33.988a4.028,4.028,0,1,0,0,8.055H46.312a4.028,4.028,0,1,0,0-8.055Z" transform="translate(16266.351 -18882.322)" fill="#756f86"/><path d="M53.252,40.37H41.008a4.028,4.028,0,1,0,0,8.055H53.252a4.028,4.028,0,1,0,0-8.055Z" transform="translate(16287.606 -18882.322)" fill="#756f86"/><path d="M59.344,40.37h-11.2a4.028,4.028,0,1,0,0,8.055h11.2a4.028,4.028,0,1,0,0-8.055Z" transform="translate(16309.222 -18882.322)" fill="#756f86"/></g></g></svg>