<svg xmlns="http://www.w3.org/2000/svg" width="349" height="349" viewBox="0 0 349 349"><g transform="translate(-16865 19282)"><rect width="349" height="349" transform="translate(16865 -19282)" fill="none"/><g transform="translate(16558.902 -21345.5)"><path d="M20.56,180.715h145.6a14.574,14.574,0,0,0,14.56-14.56V20.56A14.574,14.574,0,0,0,166.156,6H20.56A14.574,14.574,0,0,0,6,20.56v145.6A14.574,14.574,0,0,0,20.56,180.715ZM13.28,20.56a7.289,7.289,0,0,1,7.28-7.28h145.6a7.289,7.289,0,0,1,7.28,7.28v145.6a7.289,7.289,0,0,1-7.28,7.28H20.56a7.289,7.289,0,0,1-7.28-7.28Z" transform="translate(386.797 2145)" fill="#756f86"/><path d="M30.148,66.9H48.29a3.638,3.638,0,0,0,3.64-3.64V44.729a3.636,3.636,0,0,0-1.269-2.762L41.59,34.179a3.635,3.635,0,0,0-4.742,0l-9.071,7.788a3.636,3.636,0,0,0-1.269,2.762V63.256A3.638,3.638,0,0,0,30.148,66.9Zm3.64-20.5,5.431-4.66L44.65,46.4V59.616H33.788Z" transform="translate(440.936 2217.068)" fill="#756f86"/><path d="M46.758,54.187a3.64,3.64,0,0,0,4.742,0L60.571,46.4a3.636,3.636,0,0,0,1.269-2.762V25.111a3.638,3.638,0,0,0-3.64-3.64H40.058a3.638,3.638,0,0,0-3.64,3.64V43.637A3.636,3.636,0,0,0,37.687,46.4ZM43.7,28.751H54.561V41.966l-5.431,4.66L43.7,41.966Z" transform="translate(467.097 2185.841)" fill="#756f86"/><path d="M26.935,54.187a3.64,3.64,0,0,0,4.742,0L40.749,46.4a3.636,3.636,0,0,0,1.269-2.762V25.111a3.638,3.638,0,0,0-3.64-3.64H20.239a3.638,3.638,0,0,0-3.64,3.64V43.637A3.636,3.636,0,0,0,17.868,46.4ZM23.878,28.751H34.738V41.966l-5.431,4.66-5.428-4.66Z" transform="translate(414.777 2185.841)" fill="#756f86"/><path d="M83.9,158.215A74.316,74.316,0,1,0,9.583,83.9,74.4,74.4,0,0,0,83.9,158.215ZM25.415,80.259H17.047a66.946,66.946,0,0,1,133.7,0h-8.368a3.64,3.64,0,0,0,0,7.28h8.368a66.946,66.946,0,0,1-133.7,0h8.368a3.64,3.64,0,0,0,0-7.28Z" transform="translate(396.256 2154.459)" fill="#756f86"/></g></g></svg>