<svg xmlns="http://www.w3.org/2000/svg" width="349" height="349" viewBox="0 0 349 349"><g transform="translate(-16865 18902)"><rect width="349" height="349" transform="translate(16865 -18902)" fill="none"/><g transform="translate(16972.342 -18809.211)"><path d="M61.312,30.449c0-6.627-9.259-17.282-11.116-19.351a3.52,3.52,0,0,0-5.08,0C43.259,13.167,34,23.822,34,30.449a13.656,13.656,0,0,0,27.312,0ZM47.656,37.277a6.828,6.828,0,0,1-6.828-6.828c0-2.175,3.206-7.255,6.828-11.782,3.626,4.547,6.828,9.665,6.828,11.782A6.828,6.828,0,0,1,47.656,37.277Z" transform="translate(67.593 24.176)" fill="#756f86"/><path d="M40.726,18C23.786,18,10,37.911,10,62.382s13.786,44.382,30.726,44.382S71.452,86.854,71.452,62.382,57.667,18,40.726,18Zm0,81.937c-13.178,0-23.9-16.848-23.9-37.554s10.72-37.554,23.9-37.554,23.9,16.848,23.9,37.554S53.9,99.937,40.726,99.937Z" transform="translate(9.656 43.452)" fill="#756f86"/><path d="M115.249,119.491a13.683,13.683,0,0,0-13.315,10.672,16.666,16.666,0,0,0-3.755-.43,17.071,17.071,0,0,0-3.414.341V58.038A10.242,10.242,0,0,0,84.522,47.8H74.28V44.382a10.242,10.242,0,0,0-6.828-9.614V23.9a3.414,3.414,0,0,1,3.414-3.414h40.968a10.242,10.242,0,0,0,10.242-10.242V3.414A3.414,3.414,0,0,0,118.663,0H50.382a17.091,17.091,0,0,0-17.07,17.07v17.7a10.242,10.242,0,0,0-6.828,9.614V47.8H16.242A10.242,10.242,0,0,0,6,58.038v95.593a10.242,10.242,0,0,0,10.242,10.242H70.866a3.414,3.414,0,0,0,0-6.828H16.242a3.414,3.414,0,0,1-3.414-3.414V58.038a3.414,3.414,0,0,1,3.414-3.414h68.28a3.414,3.414,0,0,1,3.414,3.414v75.184a17.019,17.019,0,0,0,19.289,27.995,13.633,13.633,0,0,0,18.682-19.535,13.656,13.656,0,0,0-10.659-22.191ZM40.14,17.07A10.242,10.242,0,0,1,50.382,6.828h64.866v3.414a3.414,3.414,0,0,1-3.414,3.414H70.866A10.242,10.242,0,0,0,60.624,23.9V34.14H40.14ZM53.8,40.968V47.8H46.968V40.968ZM33.312,44.382a3.414,3.414,0,0,1,3.414-3.414H40.14V47.8H33.312ZM60.624,47.8V40.968h3.414a3.414,3.414,0,0,1,3.414,3.414V47.8ZM119,144.526a6.811,6.811,0,1,1-8.955,10.054,3.414,3.414,0,0,0-2.39-1.209h-.208a3.414,3.414,0,0,0-2.322.915,10.242,10.242,0,1,1-6.951-17.726,10.082,10.082,0,0,1,5.264,1.509,3.414,3.414,0,0,0,5.121-3.581,6.931,6.931,0,0,1-.143-1.342A6.828,6.828,0,1,1,119,138.838a3.414,3.414,0,0,0,0,5.688Z" transform="translate(0)" fill="#756f86"/><path d="M34,37.242A10.242,10.242,0,1,0,44.242,27,10.242,10.242,0,0,0,34,37.242Zm13.656,0a3.414,3.414,0,1,1-3.414-3.414A3.414,3.414,0,0,1,47.656,37.242Z" transform="translate(67.593 65.179)" fill="#756f86"/></g></g></svg>