<svg xmlns="http://www.w3.org/2000/svg" width="349" height="349" viewBox="0 0 349 349"><g transform="translate(-16479 18523)"><rect width="349" height="349" transform="translate(16479 -18523)" fill="none"/><g transform="translate(16572.887 -18441.141)"><path d="M149.263,2H11.006A3.007,3.007,0,0,0,8,5.006V179.33a3.007,3.007,0,0,0,3.006,3.006H149.263a3.007,3.007,0,0,0,3.006-3.006V5.006A3.007,3.007,0,0,0,149.263,2ZM131.23,113.207H29.039V71.129H131.23Zm-102.19,6.011H131.23V161.3H29.039Zm102.19-54.1H29.039V23.039H131.23ZM29.039,167.308H131.23v9.017H29.039ZM131.23,17.028H29.039V8.011H131.23ZM14.011,8.011h9.017V176.325H14.011ZM146.258,176.325h-9.017V8.011h9.017Z" transform="translate(0 0)" fill="#756f86"/><rect width="30.048" height="6.01" transform="translate(64.937 41.19)" fill="#756f86"/><rect width="30.048" height="6.01" transform="translate(64.937 89.268)" fill="#756f86"/><rect width="30.048" height="6.01" transform="translate(64.937 137.345)" fill="#756f86"/></g></g></svg>