<svg xmlns="http://www.w3.org/2000/svg" width="349" height="349" viewBox="0 0 349 349"><g transform="translate(-17257 19661)"><rect width="349" height="349" transform="translate(17257 -19661)" fill="none"/><g transform="translate(17346.098 -19581.813)"><path d="M90.287,21.575q34.391,0,68.78.006c11.6.012,16.451,4.842,16.458,16.364.019,29.435-.119,58.873.119,88.305.053,6.561-2.552,11.262-8.266,13.243-8.722,3.024-17.673,5.992-26.764,7.238-30.441,4.168-61.032,3.983-91.582.984-11.915-1.168-23.7-3.212-34.583-8.713-6.482-3.277-9.91-7.9-9.816-15.727.337-28.688.122-57.386.187-86.081.022-9.731,5.673-15.5,15.361-15.536,23.368-.091,46.739-.028,70.107-.028ZM161.332,36.28H19.524v84.744H161.332Z" transform="translate(-4.629 41.611)" fill="none" stroke="#756f86" stroke-width="7"/><path d="M132.463,6.2a7.168,7.168,0,0,0-4.589-4.836c-1.471-.284-3.752,2.1-5.23,3.708-1.512,1.64-2.2,4.055-3.743,5.648-7.092,7.326-14.4,14.449-21.54,21.725A61,61,0,0,0,93.3,37.224a28.422,28.422,0,0,0-40.925-.659c-9.425-9.4-18.682-18.6-27.848-27.873-.84-.85-.8-2.559-1.628-3.433-1.5-1.581-3.38-3.964-5.03-3.908C16.2,1.406,13.93,3.737,13.18,5.58c-1.056,2.6.562,4.774,3.262,5.9,1.446.6,3.124,1.059,4.186,2.1,9.179,9,18.295,18.076,27.251,27.3a2.537,2.537,0,0,1,.465.744,29,29,0,0,0-4.455,15.183h57.258A29.012,29.012,0,0,0,96.8,41.779a6.984,6.984,0,0,1,1.237-1.528c8.685-8.451,17.132-17.148,25.786-25.63,1.387-1.359,3.63-1.837,5.042-3.18C130.429,9.954,132.722,7.729,132.463,6.2Z" transform="translate(12.839 -1.346)" fill="none" stroke="#756f86" stroke-width="7"/></g></g></svg>