<svg xmlns="http://www.w3.org/2000/svg" width="349" height="349" viewBox="0 0 349 349"><g transform="translate(-16479 19661)"><rect width="349" height="349" transform="translate(16479 -19661)" fill="none"/><g transform="translate(16549.547 -19564.764)"><path d="M104.207,16.151A147.973,147.973,0,0,0,1.526,57.281,4.918,4.918,0,0,0,0,60.806a4.988,4.988,0,0,0,1.47,3.612L13.084,76.033a5,5,0,0,0,7.008.06,122.309,122.309,0,0,1,168.228,0,5.053,5.053,0,0,0,3.487,1.405,4.959,4.959,0,0,0,3.521-1.466l11.615-11.615a4.99,4.99,0,0,0,1.469-3.611,4.916,4.916,0,0,0-1.526-3.527A147.966,147.966,0,0,0,104.207,16.151Zm100.468,46L193.061,73.766a1.8,1.8,0,0,1-2.533,0,125.518,125.518,0,0,0-172.643,0,1.806,1.806,0,0,1-2.533,0L3.739,62.152a1.8,1.8,0,0,1-.532-1.309A1.734,1.734,0,0,1,3.741,59.6a145.529,145.529,0,0,1,200.929,0,1.732,1.732,0,0,1,.535,1.245A1.807,1.807,0,0,1,204.675,62.151Z" transform="translate(0 -16.151)" fill="#756f86" stroke="#756f86" stroke-width="4"/><path d="M153.964,90.093,165.59,78.465a5.052,5.052,0,0,0,1.472-3.637,4.873,4.873,0,0,0-1.548-3.509,106.367,106.367,0,0,0-145.222,0,4.879,4.879,0,0,0-1.548,3.512,5.053,5.053,0,0,0,1.472,3.635L31.842,90.093a4.988,4.988,0,0,0,3.537,1.474,4.935,4.935,0,0,0,3.364-1.321,79.949,79.949,0,0,1,108.318,0A4.965,4.965,0,0,0,153.964,90.093Zm-117.4-2.2a1.767,1.767,0,0,1-2.456-.066L22.482,76.2a1.808,1.808,0,0,1-.532-1.316,1.7,1.7,0,0,1,.534-1.224,103.162,103.162,0,0,1,140.838,0,1.7,1.7,0,0,1,.535,1.222,1.808,1.808,0,0,1-.534,1.317L151.7,87.826a1.77,1.77,0,0,1-2.46.066,83.154,83.154,0,0,0-112.671,0Z" transform="translate(11.304 -0.15)" fill="#756f86" stroke="#756f86" stroke-width="4"/><path d="M109.033,105.675a4.952,4.952,0,0,0,3.516-1.467l11.64-11.641a4.96,4.96,0,0,0,1.462-3.68,5.06,5.06,0,0,0-1.681-3.617,63.843,63.843,0,0,0-84.774,0,5.051,5.051,0,0,0-1.683,3.615,4.95,4.95,0,0,0,1.462,3.681l11.639,11.642a4.971,4.971,0,0,0,6.79.247,37.423,37.423,0,0,1,48.357,0A5.029,5.029,0,0,0,109.033,105.675Zm-53.708-3.66a1.788,1.788,0,0,1-2.444-.074L41.242,90.3a1.781,1.781,0,0,1-.524-1.322,1.811,1.811,0,0,1,.612-1.314,60.635,60.635,0,0,1,80.5,0,1.812,1.812,0,0,1,.612,1.314,1.781,1.781,0,0,1-.524,1.322l-11.64,11.642a1.786,1.786,0,0,1-2.442.074,40.627,40.627,0,0,0-52.515,0Z" transform="translate(22.625 15.828)" fill="#756f86" stroke="#756f86" stroke-width="4"/><path d="M54.873,109.829A16.236,16.236,0,1,0,71.109,93.594,16.255,16.255,0,0,0,54.873,109.829Zm29.266,0A13.03,13.03,0,1,1,71.109,96.8,13.044,13.044,0,0,1,84.138,109.829Z" transform="translate(33.097 30.561)" fill="#756f86" stroke="#756f86" stroke-width="4"/></g></g></svg>