<svg xmlns="http://www.w3.org/2000/svg" width="349" height="349" viewBox="0 0 349 349"><g transform="translate(-16479 18139)"><rect width="349" height="349" transform="translate(16479 -18139)" fill="none"/><g transform="translate(16534.76 -18087.91)"><g transform="translate(26 59.165)"><g transform="translate(-26.392 -62.501)" fill="none"><path d="M155.666,193.971H50.22l-1.359-8.742h93.11a2.855,2.855,0,1,0,0-5.71H42.379v-7.149h91.179a2.855,2.855,0,0,0,0-5.71H45.966l-7.037-45.147h61.649a2.855,2.855,0,0,0,0-5.71H33.718v-7.165H92.5a2.855,2.855,0,1,0,0-5.71H36.026L34.2,91.2H82.138a2.855,2.855,0,1,0,0-5.71H55.825V77.564a13.92,13.92,0,0,0-27.825,0V88.348a2.249,2.249,0,0,0,.048.225c.008.08-.024.145,0,.217l2.22,14.242A2.813,2.813,0,0,0,28,105.767V118.65a2.856,2.856,0,0,0,2.855,2.855h2.284l7.053,45.147h-.676a2.856,2.856,0,0,0-2.855,2.855v12.875a2.856,2.856,0,0,0,2.855,2.855h3.555l1.882,12.031a2.861,2.861,0,0,0,2.823,2.421H155.666a2.855,2.855,0,1,0,0-5.71ZM33.718,77.548a8.2,8.2,0,0,1,16.389,0v7.929H33.718Z" stroke="none"/><path d="M 33.41160202026367 105.6382141113281 L 33.38665390014648 105.4779739379883 L 32.57043075561523 105.6382141113281 L 33.41160202026367 105.6382141113281 M 155.6657257080078 199.6890258789062 L 47.77512741088867 199.6890258789062 C 46.3677864074707 199.6890258789062 45.16952896118164 198.6596527099609 44.95240783691406 197.2684173583984 L 43.07058715820312 185.2376708984375 L 39.51604843139648 185.2376708984375 C 37.93982696533203 185.2376708984375 36.66116714477539 183.9590148925781 36.66116714477539 182.3827667236328 L 36.66116714477539 169.5076293945312 C 36.66116714477539 167.9314270019531 37.93982696533203 166.6527557373047 39.51604843139648 166.6527557373047 L 40.19156646728516 166.6527557373047 L 33.13880920410156 121.5053329467773 L 30.85488700866699 121.5053329467773 C 29.27866744995117 121.5053329467773 28.00000762939453 120.2266540527344 28.00000762939453 118.6504287719727 L 28.00000762939453 105.7672500610352 C 28.01608657836914 104.4322891235352 28.95698738098145 103.2903289794922 30.2678279876709 103.0329895019531 L 28.04826736450195 88.79073333740234 C 28.02412796020508 88.71835327148438 28.05630683898926 88.65401458740234 28.04826736450195 88.57359313964844 C 28.04020690917969 88.49317169189453 28.00000762939453 88.4288330078125 28.00000762939453 88.34841156005859 L 28.00000762939453 77.56417083740234 C 28.24126815795898 70.23796844482422 34.12794876098633 64.35129547119141 41.45414733886719 64.11807250976562 C 41.61305618286133 64.11274719238281 41.77033996582031 64.11012268066406 41.92813491821289 64.11012268066406 C 49.39670562744141 64.11012268066406 55.57307052612305 70.04303741455078 55.82510757446289 77.56417083740234 L 55.82510757446289 85.4935302734375 L 82.1383056640625 85.4935302734375 C 83.71454620361328 85.4935302734375 84.99322509765625 86.77220916748047 84.99322509765625 88.34841156005859 C 84.99322509765625 89.92465209960938 83.71454620361328 91.20333099365234 82.1383056640625 91.20333099365234 L 34.2003288269043 91.20333099365234 L 36.02584838867188 102.9284286499023 L 92.49633026123047 102.9284286499023 C 94.07254791259766 102.9284286499023 95.35122680664062 104.2070922851562 95.35122680664062 105.783332824707 C 95.35122680664062 107.3595504760742 94.07254791259766 108.6382141113281 92.49633026123047 108.6382141113281 L 33.71782684326172 108.6382141113281 L 33.71782684326172 115.8035888671875 L 100.578483581543 115.8035888671875 C 102.1547088623047 115.8035888671875 103.4333648681641 117.0822525024414 103.4333648681641 118.6584701538086 C 103.4333648681641 120.2346954345703 102.1547088623047 121.5133743286133 100.578483581543 121.5133743286133 L 38.92898559570312 121.5133743286133 L 45.9656867980957 166.6607971191406 L 133.5584411621094 166.6607971191406 C 135.1346740722656 166.6607971191406 136.413330078125 167.939453125 136.413330078125 169.5156860351562 C 136.413330078125 171.0919189453125 135.1346740722656 172.3705444335938 133.5584411621094 172.3705444335938 L 42.37898635864258 172.3705444335938 L 42.37898635864258 179.5198364257812 L 141.9703063964844 179.5198364257812 C 143.5465545654297 179.5198364257812 144.8252105712891 180.7985382080078 144.8252105712891 182.374755859375 C 144.8252105712891 183.9509582519531 143.5465545654297 185.2296295166016 141.9703063964844 185.2296295166016 L 48.86078643798828 185.2296295166016 L 50.21986770629883 193.9712066650391 L 155.6657257080078 193.9712066650391 L 155.6657257080078 193.979248046875 C 157.241943359375 193.979248046875 158.5206146240234 195.2579193115234 158.5206146240234 196.8341369628906 C 158.5206146240234 198.4103546142578 157.241943359375 199.6890258789062 155.6657257080078 199.6890258789062 Z M 41.91014862060547 69.69963073730469 C 37.53981781005859 69.69963073730469 33.90573883056641 73.13986968994141 33.71782684326172 77.54811096191406 L 33.71782684326172 85.47745513916016 L 50.1072883605957 85.47745513916016 L 50.1072883605957 77.54811096191406 C 49.92232894897461 73.29391479492188 46.52058792114258 69.89218902587891 42.26640701293945 69.70722961425781 C 42.14702606201172 69.70214080810547 42.02849960327148 69.69963073730469 41.91014862060547 69.69963073730469 Z" stroke="none" fill="#756f86"/></g><g transform="translate(-26 -62.109)" fill="none"><path d="M47.384,200.914a4.435,4.435,0,0,1-4.407-3.78l-1.665-10.672H39.141A4.469,4.469,0,0,1,34.677,182V169.124a4.48,4.48,0,0,1,3.289-4.31L31.4,122.722h-.909a4.469,4.469,0,0,1-4.463-4.463V105.375a4.467,4.467,0,0,1,2.091-3.731L26.08,88.7a1.729,1.729,0,0,1-.04-.378,1.68,1.68,0,0,1-.04-.37V77.172A15.526,15.526,0,0,1,52.128,66.3a15.4,15.4,0,0,1,4.906,10.824v6.369H81.747a4.463,4.463,0,1,1,0,8.927H35.682l1.327,8.484h55.1a4.463,4.463,0,1,1,0,8.927H34.935v3.949h65.244a4.463,4.463,0,1,1,0,8.927H40.411l6.538,41.931h86.226a4.463,4.463,0,0,1,0,8.927H43.6V177.5h97.983a4.463,4.463,0,0,1,0,8.927H50.351l.86,5.525H156.883v.314a4.465,4.465,0,0,1-1.608,8.629H47.384Zm-8.251-33.044a1.248,1.248,0,0,0-1.246,1.246v12.875a1.248,1.248,0,0,0,1.246,1.246h4.93l2.091,13.4a1.238,1.238,0,0,0,1.23,1.062H155.274a1.246,1.246,0,1,0,0-2.493l-106.821-.016L46.6,183.229h94.983a1.247,1.247,0,0,0,0-2.493H40.379V170.37h92.788a1.247,1.247,0,0,0,0-2.493H44.191l-7.543-48.364h63.523a1.247,1.247,0,0,0,0-2.493H31.718V106.638H92.1a1.247,1.247,0,0,0,0-2.493H34.259L31.927,89.2h49.82a1.246,1.246,0,1,0,0-2.493H53.825V77.172A12.311,12.311,0,0,0,41.111,65.335,12.328,12.328,0,0,0,29.217,77.221V87.788c.016.08.032.161.04.241s.008.177.008.241L31.7,103.912l-1.512.3a1.22,1.22,0,0,0-.973,1.174v12.867a1.248,1.248,0,0,0,1.247,1.246H34.13l7.551,48.364H39.132ZM51.324,86.686H31.718v-9.6a9.808,9.808,0,0,1,19.6,0ZM34.935,83.469H48.107V77.148a6.532,6.532,0,0,0-6.3-6.233,6.6,6.6,0,0,0-6.868,6.273v6.281Z" stroke="none"/><path d="M 47.38350677490234 200.9136810302734 C 45.16394424438477 200.9136810302734 43.31428527832031 199.3213806152344 42.97652435302734 197.1339569091797 L 41.31184387207031 186.4623413085938 L 39.14052581787109 186.4623413085938 C 36.67970657348633 186.4623413085938 34.67726516723633 184.4598846435547 34.67726516723633 181.9990386962891 L 34.67726516723633 169.1239013671875 C 34.67726516723633 167.0732116699219 36.06850433349609 165.3361511230469 37.96640396118164 164.8134155273438 L 31.39614486694336 122.7219390869141 L 30.48740577697754 122.7219390869141 C 28.02656555175781 122.7219390869141 26.02412605285645 120.7194976806641 26.02412605285645 118.258659362793 L 26.02412605285645 105.3754806518555 C 26.04022598266602 103.8233947753906 26.8604850769043 102.4321212768555 28.11502647399902 101.6440200805664 L 26.08042526245117 88.70453643798828 C 26.04826545715332 88.55977630615234 26.04022598266602 88.43112182617188 26.04022598266602 88.32657623291016 C 26.01608657836914 88.22201538085938 26.0000057220459 88.09333801269531 26.0000057220459 87.95663452148438 L 26.0000057220459 77.17240142822266 C 26.2734260559082 68.97767639160156 32.85978698730469 62.38327789306641 41.00624465942383 62.11789703369141 C 41.18125915527344 62.11213302612305 41.35659790039062 62.10924911499023 41.53084182739258 62.10924911499023 C 45.48801040649414 62.10924911499023 49.23201370239258 63.58832550048828 52.12824630737305 66.29969787597656 C 55.16006469726562 69.13045501708984 56.89712524414062 72.97451782226562 57.0338249206543 77.12413787841797 L 57.0338249206543 83.49335479736328 L 81.74668884277344 83.49335479736328 C 84.20752716064453 83.49335479736328 86.20996856689453 85.49579620361328 86.20996856689453 87.95663452148438 C 86.20996856689453 90.41748046875 84.20752716064453 92.41989898681641 81.74668884277344 92.41989898681641 L 35.6825065612793 92.41989898681641 L 37.00942611694336 100.9041595458984 L 92.11274719238281 100.9041595458984 C 94.57358551025391 100.9041595458984 96.57602691650391 102.9066009521484 96.57602691650391 105.3674392700195 C 96.57602691650391 107.828254699707 94.57358551025391 109.8307189941406 92.11274719238281 109.8307189941406 L 34.93460464477539 109.8307189941406 L 34.93460464477539 113.779296875 L 100.1788024902344 113.779296875 C 102.6396484375 113.779296875 104.6421051025391 115.78173828125 104.6421051025391 118.2425765991211 C 104.6421051025391 120.7033996582031 102.6396484375 122.7058563232422 100.1788024902344 122.7058563232422 L 40.4111442565918 122.7058563232422 L 46.94924545288086 164.6365051269531 L 133.1749114990234 164.6365051269531 C 135.6357421875 164.6365051269531 137.6381683349609 166.6389312744141 137.6381683349609 169.0997924804688 C 137.6381683349609 171.5606231689453 135.6357421875 173.5630645751953 133.1749114990234 173.5630645751953 L 43.59576416015625 173.5630645751953 L 43.59576416015625 177.4955596923828 L 141.5787200927734 177.4955596923828 C 144.03955078125 177.4955596923828 146.0419921875 179.4980163574219 146.0419921875 181.9588623046875 C 146.0419921875 184.419677734375 144.03955078125 186.422119140625 141.5787200927734 186.422119140625 L 50.35098648071289 186.422119140625 L 51.21146392822266 191.9469451904297 L 156.8825225830078 191.9469451904297 L 156.8825225830078 192.2605438232422 C 158.5552520751953 192.9039154052734 159.7374114990234 194.5283813476562 159.7374114990234 196.4262847900391 C 159.7374114990234 198.8871154785156 157.7349700927734 200.8895416259766 155.2741394042969 200.8895416259766 L 47.38350677490234 200.8895416259766 C 47.38350677490234 200.9136810302734 47.38350677490234 200.9136810302734 47.38350677490234 200.9136810302734 Z M 39.13248443603516 167.8613433837891 L 39.13248443603516 167.8693542480469 C 38.44088745117188 167.8693542480469 37.885986328125 168.4322967529297 37.885986328125 169.1158447265625 L 37.885986328125 181.9909973144531 C 37.885986328125 182.6826019287109 38.44892501831055 183.2375030517578 39.13248443603516 183.2375030517578 L 44.06220626831055 183.2375030517578 L 46.15310668945312 196.6353607177734 C 46.24960708618164 197.2545928955078 46.76428604125977 197.6968994140625 47.38350677490234 197.6968994140625 L 155.2741394042969 197.6968994140625 C 155.9657287597656 197.6968994140625 156.5206451416016 197.1339569091797 156.5206451416016 196.4504241943359 C 156.5206451416016 195.7588043212891 155.9577026367188 195.2039031982422 155.2741394042969 195.2039031982422 L 48.45308685302734 195.1878204345703 L 46.59540557861328 183.2294616699219 L 141.5787200927734 183.2294616699219 C 142.2703247070312 183.2294616699219 142.8252258300781 182.6665191650391 142.8252258300781 181.9829559326172 C 142.8252258300781 181.2913360595703 142.2622833251953 180.7364654541016 141.5787200927734 180.7364654541016 L 40.37898635864258 180.7364654541016 L 40.37898635864258 170.3703918457031 L 133.1668701171875 170.3703918457031 C 133.8584594726562 170.3703918457031 134.4133453369141 169.8074645996094 134.4133453369141 169.1238708496094 C 134.4133453369141 168.4322967529297 133.8504028320312 167.8773803710938 133.1668701171875 167.8773803710938 L 44.19086456298828 167.8773803710938 L 36.64752578735352 119.5131988525391 L 100.170783996582 119.5131988525391 C 100.8623886108398 119.5131988525391 101.4172668457031 118.9502563476562 101.4172668457031 118.2666778564453 C 101.4172668457031 117.575080871582 100.8543472290039 117.0201797485352 100.170783996582 117.0201797485352 L 31.71782493591309 117.0201797485352 L 31.71782493591309 106.6380386352539 L 92.10470581054688 106.6380386352539 C 92.79632568359375 106.6380386352539 93.35120391845703 106.0750961303711 93.35120391845703 105.3915405273438 C 93.35120391845703 104.6999359130859 92.78828430175781 104.1450347900391 92.10470581054688 104.1450347900391 L 34.25906753540039 104.1450347900391 L 31.92690658569336 89.20314025878906 L 81.7467041015625 89.20314025878906 C 82.43830871582031 89.20314025878906 82.99320220947266 88.64019775390625 82.99320220947266 87.95663452148438 C 82.99320220947266 87.26503753662109 82.43026733398438 86.71013641357422 81.7467041015625 86.71013641357422 L 53.82510757446289 86.71013641357422 L 53.82510757446289 77.17240142822266 C 53.72054672241211 73.93953704833984 52.33734512329102 70.89165496826172 49.93280410766602 68.64795684814453 C 47.63334655761719 66.50228881835938 44.67152786254883 65.32731628417969 41.54059600830078 65.32731628417969 C 41.39751815795898 65.32731628417969 41.25454330444336 65.32975769042969 41.11080551147461 65.33467864990234 C 34.65312576293945 65.54375457763672 29.43390655517578 70.76297760009766 29.2167854309082 77.22065734863281 L 29.2167854309082 87.78775787353516 C 29.23286628723145 87.86817932128906 29.24894523620605 87.94860076904297 29.25698661804199 88.02901458740234 C 29.2650260925293 88.11747741699219 29.2650260925293 88.20595550537109 29.2650260925293 88.27027893066406 L 31.70172500610352 103.9118576049805 L 30.18986511230469 104.2093963623047 C 29.63496589660645 104.3219757080078 29.22482490539551 104.8125610351562 29.2167854309082 105.3835372924805 L 29.2167854309082 118.250617980957 C 29.2167854309082 118.9422149658203 29.77970504760742 119.4971160888672 30.46328544616699 119.4971160888672 L 34.13040542602539 119.4971160888672 L 41.68178558349609 167.8613433837891 L 39.13248443603516 167.8613433837891 Z M 51.32406616210938 86.68601989746094 L 31.71782493591309 86.68601989746094 L 31.71782493591309 77.08393859863281 C 31.94485282897949 71.8232421875 36.29504013061523 67.69779205322266 41.51091384887695 67.69779205322266 C 41.65317153930664 67.69779205322266 41.7956428527832 67.70084381103516 41.93912506103516 67.70703887939453 C 47.06182479858398 67.92415618896484 51.09888458251953 71.96121978759766 51.31602478027344 77.08393859863281 L 51.32406616210938 86.68601989746094 Z M 34.94264602661133 83.46923828125 L 48.10728454589844 83.46923828125 L 48.10728454589844 77.14827728271484 C 47.9625244140625 73.77066040039062 45.25240707397461 71.06053924560547 41.81044387817383 70.91577911376953 C 41.71612930297852 70.91179656982422 41.6221809387207 70.90982055664062 41.52864074707031 70.90982055664062 C 38.03301620483398 70.90982055664062 35.10712432861328 73.66393280029297 34.94264602661133 77.18849945068359 L 34.94264602661133 83.46923828125 L 34.93460464477539 83.46923828125 L 34.94264602661133 83.46923828125 Z" stroke="none" fill="#756f86"/></g></g><g transform="translate(113.85 59.282)"><g transform="translate(-135.628 -62.642)" fill="none"><path d="M140.083,91.228h52.908l-1.826,11.7H152.717a2.855,2.855,0,0,0,0,5.71h40.773V115.8H162.311a2.855,2.855,0,1,0,0,5.71h25.951l-4.624,29.659a2.862,2.862,0,0,0,2.388,3.265,2.729,2.729,0,0,0,.442.032,2.861,2.861,0,0,0,2.823-2.413l4.761-30.543h2.284a2.856,2.856,0,0,0,2.855-2.855V105.776a2.811,2.811,0,0,0-2.26-2.734l2.2-14.242a.979.979,0,0,1,0-.217,1.019,1.019,0,0,0,.048-.225V77.589a13.92,13.92,0,0,0-27.817,0v7.929H140.075a2.855,2.855,0,1,0,.008,5.71Zm37.009-13.639a8.2,8.2,0,0,1,16.406,0v7.929H177.108Z" stroke="none"/><path d="M 193.8052673339844 105.4693984985352 L 193.7788543701172 105.6386260986328 L 194.6411437988281 105.6386260986328 L 193.8052673339844 105.4693984985352 M 185.2851409912109 64.23532104492188 C 192.7096252441406 64.23532104492188 198.8774108886719 70.10224914550781 199.1831359863281 77.58868408203125 L 199.1831359863281 88.35687255859375 C 199.1831359863281 88.43728637695312 199.1509704589844 88.50967407226562 199.1349029541016 88.58204650878906 C 199.1187896728516 88.6544189453125 199.1349029541016 88.726806640625 199.1349029541016 88.79917907714844 L 196.931396484375 103.0414428710938 C 198.2422180175781 103.3068237304688 199.1831359863281 104.4487838745117 199.1911773681641 105.7756958007812 L 199.1911773681641 118.6588821411133 C 199.1911773681641 120.2351150512695 197.9125061035156 121.5137710571289 196.3362884521484 121.5137710571289 L 194.0523834228516 121.5137710571289 L 189.2915344238281 152.0570526123047 C 189.0744323730469 153.4402465820312 187.8761749267578 154.4696350097656 186.4688415527344 154.4696350097656 C 186.3240661621094 154.4696350097656 186.1712799072266 154.4615936279297 186.0265197753906 154.4374694824219 C 184.4663848876953 154.1962127685547 183.3968200683594 152.7325744628906 183.6380615234375 151.1724395751953 L 188.2621765136719 121.5137710571289 L 162.3108520507812 121.5137710571289 C 160.7346343994141 121.5137710571289 159.4559631347656 120.2351150512695 159.4559631347656 118.6588821411133 C 159.4559631347656 117.0826568603516 160.7346343994141 115.8040008544922 162.3108520507812 115.8040008544922 L 193.4894561767578 115.8040008544922 L 193.4894561767578 108.6386260986328 L 152.7168426513672 108.6386260986328 C 151.1406097412109 108.6386260986328 149.8619537353516 107.3599700927734 149.8619537353516 105.7837371826172 C 149.8619537353516 104.2075119018555 151.1406097412109 102.928840637207 152.7168426513672 102.928840637207 L 191.1653289794922 102.928840637207 L 192.9908447265625 91.22782897949219 L 140.0829315185547 91.22782897949219 C 138.5067138671875 91.22782897949219 137.22802734375 89.94915771484375 137.2200012207031 88.3729248046875 C 137.2200012207031 86.79670715332031 138.4986877441406 85.51805114746094 140.0748901367188 85.51805114746094 L 171.3660888671875 85.51805114746094 L 171.3660888671875 77.58868408203125 C 171.6555938720703 70.3509521484375 177.4618530273438 64.544677734375 184.7076568603516 64.24713134765625 C 184.9012451171875 64.23922729492188 185.0931396484375 64.23532104492188 185.2851409912109 64.23532104492188 Z M 193.4974822998047 85.51805114746094 L 193.4974822998047 77.58868408203125 C 193.4009857177734 73.19779968261719 189.8625335693359 69.65934753417969 185.4716186523438 69.56285095214844 C 185.4119262695312 69.56158447265625 185.3529815673828 69.56095886230469 185.2935638427734 69.56095886230469 C 180.8462524414062 69.56095886230469 177.1871490478516 73.12078857421875 177.0919494628906 77.58868408203125 L 177.1080169677734 85.51805114746094 L 193.4974822998047 85.51805114746094 Z" stroke="none" fill="#756f86"/></g><g transform="translate(-135.24 -62.254)" fill="none"><path d="M186.089,155.706a3.947,3.947,0,0,1-.692-.056,4.474,4.474,0,0,1-3.731-5.1L186,122.75h-24.07a4.463,4.463,0,1,1,0-8.927H191.5v-3.949H152.337a4.463,4.463,0,0,1,0-8.927h37.073l1.327-8.484H139.7a4.463,4.463,0,1,1,0-8.927h29.683V77.217a15.528,15.528,0,0,1,31.034-.064V88a2.013,2.013,0,0,1-.048.426v.016l-.016.249-2.019,13a4.453,4.453,0,0,1,2.083,3.715V118.3a4.469,4.469,0,0,1-4.463,4.463h-.909L190.5,151.942A4.441,4.441,0,0,1,186.089,155.706Zm-24.158-38.674a1.247,1.247,0,1,0,0,2.493h27.833l-4.914,31.508a1.259,1.259,0,0,0,1.045,1.431,1.567,1.567,0,0,0,.2.016,1.244,1.244,0,0,0,1.23-1.053l4.978-31.9h3.667a1.248,1.248,0,0,0,1.247-1.246V105.4a1.209,1.209,0,0,0-.965-1.158l-1.5-.306,2.413-15.585a1.583,1.583,0,0,1,.056-.515V77.2a12.316,12.316,0,0,0-24.608.064v9.473h-32.9a1.247,1.247,0,0,0,0,2.493H194.5l-2.324,14.918H152.345a1.247,1.247,0,0,0,0,2.493h42.381v10.382h-32.8Zm32.787-30.3h-19.6l-.024-9.554v-.016a9.813,9.813,0,0,1,19.622,0Zm-16.389-3.217H191.5V77.193a6.6,6.6,0,0,0-13.189.016Z" stroke="none"/><path d="M 186.0891723632812 155.7061157226562 C 185.8559722900391 155.7061157226562 185.6227569580078 155.6900329589844 185.3975830078125 155.6498107910156 C 182.9608612060547 155.2718353271484 181.2881469726562 152.9799041748047 181.6661224365234 150.5512237548828 L 186.0007171630859 122.7502822875977 L 161.9311981201172 122.7502822875977 C 159.4703674316406 122.7502822875977 157.4679107666016 120.7478408813477 157.4679107666016 118.2870101928711 C 157.4679107666016 115.8261871337891 159.4703674316406 113.8237380981445 161.9311981201172 113.8237380981445 L 191.5014038085938 113.8237380981445 L 191.5014038085938 109.8751373291016 L 152.337158203125 109.8751373291016 C 149.8763427734375 109.8751373291016 147.8739013671875 107.8726959228516 147.8739013671875 105.4118728637695 C 147.8739013671875 102.9510269165039 149.8763427734375 100.9485855102539 152.337158203125 100.9485855102539 L 189.4105072021484 100.9485855102539 L 190.7374114990234 92.46435546875 L 139.7032928466797 92.46435546875 C 137.2424774169922 92.46435546875 135.2400207519531 90.46189880371094 135.2400207519531 88.00106811523438 C 135.2400207519531 85.54022979736328 137.2424774169922 83.53778076171875 139.7032928466797 83.53778076171875 L 169.3860931396484 83.53778076171875 L 169.3860931396484 77.21682739257812 C 169.7158050537109 69.12665557861328 176.2538909912109 62.58853912353516 184.2717132568359 62.26686859130859 C 184.4842681884766 62.25827789306641 184.6963500976562 62.2540168762207 184.9072113037109 62.2540168762207 C 193.1844024658203 62.2540168762207 200.0826873779297 68.80842590332031 200.419921875 77.15248107910156 L 200.419921875 88.00105285644531 C 200.419921875 88.16993713378906 200.3957824707031 88.314697265625 200.3716735839844 88.42728424072266 C 200.3716735839844 88.43532562255859 200.3716735839844 88.43532562255859 200.3716735839844 88.44336700439453 L 200.3555755615234 88.69265747070312 L 198.3370666503906 101.6964721679688 C 199.5915985107422 102.4845809936523 200.4038543701172 103.8758239746094 200.419921875 105.4118423461914 L 200.419921875 118.3030853271484 C 200.419921875 120.7639083862305 198.4174652099609 122.766357421875 195.9566345214844 122.766357421875 L 195.0478973388672 122.766357421875 L 190.4961700439453 151.9424743652344 C 190.1583862304688 154.1138000488281 188.3007049560547 155.7061157226562 186.0891723632812 155.7061157226562 Z M 161.9311981201172 117.0244369506836 L 161.9311981201172 117.032470703125 C 161.2395782470703 117.032470703125 160.6846923828125 117.5953979492188 160.6846923828125 118.2789688110352 C 160.6846923828125 118.9705657958984 161.2476196289062 119.5254669189453 161.9311981201172 119.5254669189453 L 189.7643280029297 119.5254669189453 L 184.8507232666016 151.0337371826172 C 184.7461700439453 151.7173156738281 185.2126007080078 152.3526153564453 185.8961639404297 152.4652099609375 C 185.9605102539062 152.4732513427734 186.0248413085938 152.4813079833984 186.0972137451172 152.4813079833984 C 186.7084045410156 152.4813079833984 187.2311401367188 152.0389709472656 187.3276214599609 151.4278106689453 L 192.3055877685547 119.5254669189453 L 195.9727172851562 119.5254669189453 C 196.664306640625 119.5254669189453 197.2192230224609 118.9625244140625 197.2192230224609 118.2789688110352 L 197.2192230224609 105.3957824707031 C 197.2111663818359 104.8408813476562 196.8090667724609 104.3503265380859 196.2541961669922 104.2377243041992 L 194.7503356933594 103.9321517944336 L 197.1629333496094 88.34688568115234 C 197.1548919677734 88.21820068359375 197.1629333496094 88.03324127197266 197.21923828125 87.83219909667969 L 197.21923828125 77.20075225830078 C 196.9525756835938 70.65213775634766 191.4846801757812 65.44940185546875 184.9186401367188 65.44940185546875 C 184.7518005371094 65.44940185546875 184.5846710205078 65.45275115966797 184.4164733886719 65.45952606201172 C 178.0552978515625 65.71686553955078 172.8682403564453 70.90391540527344 172.6109008789062 77.26509857177734 L 172.6109008789062 86.73847961425781 L 139.7113494873047 86.73847961425781 C 139.0197296142578 86.73847961425781 138.4648590087891 87.30142974853516 138.4648590087891 87.98500061035156 C 138.4648590087891 88.67659759521484 139.0277862548828 89.23149871826172 139.7113494873047 89.23149871826172 L 194.5010681152344 89.23149871826172 L 192.1769409179688 104.149299621582 L 152.3452301025391 104.149299621582 C 151.6536254882812 104.149299621582 151.0987396240234 104.7122268676758 151.0987396240234 105.3957977294922 C 151.0987396240234 106.0873947143555 151.6616668701172 106.6422958374023 152.3452301025391 106.6422958374023 L 194.7262268066406 106.6422958374023 L 194.7262268066406 117.0244369506836 L 161.9311981201172 117.0244369506836 Z M 194.7181701660156 86.73045349121094 L 175.1199798583984 86.73045349121094 L 175.0958404541016 77.17664337158203 L 175.0958404541016 77.16055297851562 C 175.2149200439453 71.81769561767578 179.5975036621094 67.55631256103516 184.9088592529297 67.55631256103516 C 184.9778137207031 67.55631256103516 185.0468444824219 67.55702972412109 185.1161193847656 67.5584716796875 C 190.3835754394531 67.67106628417969 194.6055908203125 71.88504028320312 194.7181854248047 77.16055297851562 L 194.7181701660156 86.73045349121094 Z M 184.9033203125 70.77359771728516 C 181.327392578125 70.77359771728516 178.39990234375 73.63124847412109 178.3126373291016 77.20880126953125 L 178.3287200927734 83.513671875 L 191.5014190673828 83.513671875 L 191.5014190673828 77.19272613525391 C 191.4290313720703 73.68643951416016 188.5902252197266 70.84762573242188 185.0517730712891 70.77523803710938 C 185.0021820068359 70.77414703369141 184.9526519775391 70.77359771728516 184.9033203125 70.77359771728516 Z" stroke="none" fill="#756f86"/></g></g><g transform="translate(159.038 69.628)"><g transform="translate(-191.822 -75.51)" fill="none"><path d="M196.285,77.11a2.855,2.855,0,1,0,0,5.71h.072a2.835,2.835,0,0,0,2.823-2.839v-.024A2.894,2.894,0,0,0,196.285,77.11Z" stroke="none"/><path d="M 196.2848968505859 77.11000061035156 C 197.8691558837891 77.11000061035156 199.1558837890625 78.38063049316406 199.1799774169922 79.95685577392578 C 199.1799774169922 79.96489715576172 199.1799774169922 79.97293853759766 199.1799774169922 79.98097991943359 C 199.1799774169922 81.54915618896484 197.9174041748047 82.81173706054688 196.3572845458984 82.81977081298828 L 196.2848968505859 82.81977081298828 C 194.7086791992188 82.81977081298828 193.4300079345703 81.54110717773438 193.4300079345703 79.96488952636719 C 193.4300079345703 78.38865661621094 194.7086791992188 77.11000061035156 196.2848968505859 77.11000061035156 Z" stroke="none" fill="#756f86"/></g><g transform="translate(-191.43 -75.12)" fill="none"><path d="M195.974,84.047a4.464,4.464,0,1,1-.08-8.927h.008a4.521,4.521,0,0,1,4.5,4.447,4.435,4.435,0,0,1-4.431,4.479Zm-.08-5.718a1.248,1.248,0,1,0,.933,2.131,1.2,1.2,0,0,0,.354-.86,1.292,1.292,0,0,0-1.287-1.271Z" stroke="none"/><path d="M 195.9736938476562 84.04655456542969 C 193.4324493408203 84.04655456542969 191.4300079345703 82.04412078857422 191.4300079345703 79.58328247070312 C 191.4300079345703 77.12245178222656 193.4324645996094 75.12000274658203 195.8932952880859 75.12000274658203 L 195.9013366699219 75.12000274658203 C 198.3541107177734 75.12000274658203 200.3726501464844 77.11441040039062 200.4048156738281 79.56719207763672 C 200.4048156738281 80.78956604003906 199.9464263916016 81.90739440917969 199.1100463867188 82.74375915527344 C 198.2656555175781 83.58012390136719 197.1558532714844 84.04655456542969 195.9736938476562 84.04655456542969 Z M 195.8932800292969 78.3287353515625 C 195.20166015625 78.3287353515625 194.6467742919922 78.89168548583984 194.6467742919922 79.57524108886719 C 194.6467742919922 80.25881958007812 195.209716796875 80.82173919677734 195.8932800292969 80.82173919677734 C 196.2873382568359 80.82173919677734 196.5929260253906 80.69306945800781 196.8261566162109 80.45986175537109 C 197.0593566894531 80.22663879394531 197.1799926757812 79.92105102539062 197.1799926757812 79.59938049316406 C 197.1719512939453 78.89971160888672 196.5929412841797 78.3287353515625 195.8932800292969 78.3287353515625 Z" stroke="none" fill="#756f86"/></g></g><g transform="translate(37.025 69.628)"><g transform="translate(-40.102 -75.51)" fill="none"><path d="M44.565,77.11a2.855,2.855,0,1,0,0,5.71h.072a2.835,2.835,0,0,0,2.823-2.839v-.024A2.888,2.888,0,0,0,44.565,77.11Z" stroke="none"/><path d="M 44.56488418579102 77.11000061035156 C 46.14915466308594 77.11000061035156 47.44390487670898 78.38063049316406 47.45998382568359 79.95685577392578 C 47.45998382568359 79.96489715576172 47.45998382568359 79.97293853759766 47.45998382568359 79.98097991943359 C 47.45998382568359 81.54915618896484 46.19740676879883 82.81173706054688 44.63726425170898 82.81977081298828 L 44.56488418579102 82.81977081298828 C 42.98867416381836 82.81977081298828 41.71000671386719 81.54110717773438 41.71000671386719 79.96488952636719 C 41.71000671386719 78.38865661621094 42.98867416381836 77.11000061035156 44.56488418579102 77.11000061035156 Z" stroke="none" fill="#756f86"/></g><g transform="translate(-39.71 -75.12)" fill="none"><path d="M44.254,84.047a4.464,4.464,0,1,1-.08-8.927h0a4.481,4.481,0,0,1,3.217,7.624A4.4,4.4,0,0,1,44.254,84.047Zm-.08-5.718a1.248,1.248,0,1,0,.933,2.131,1.2,1.2,0,0,0,.354-.86,1.3,1.3,0,0,0-1.287-1.271Z" stroke="none"/><path d="M 44.25370407104492 84.04653930664062 C 41.71245193481445 84.04653930664062 39.71000289916992 82.04410552978516 39.71000289916992 79.58326721191406 C 39.71000289916992 77.1224365234375 41.71245193481445 75.11998748779297 44.17328262329102 75.11998748779297 C 44.17815017700195 75.11997222900391 44.18337631225586 75.11996459960938 44.1882438659668 75.11996459960938 C 46.67438125610352 75.11996459960938 48.65269088745117 77.11918640136719 48.67676162719727 79.56717681884766 C 48.67676162719727 80.78955078125 48.2183723449707 81.90737915039062 47.39005279541016 82.74375152587891 C 46.56173324584961 83.58010101318359 45.43586349487305 84.04653930664062 44.25370407104492 84.04653930664062 Z M 44.17328262329102 78.32872009277344 C 43.48167037963867 78.32872009277344 42.92678070068359 78.89166259765625 42.92678070068359 79.57522583007812 C 42.92678070068359 80.25881195068359 43.48971176147461 80.82173156738281 44.17328262329102 80.82173156738281 C 44.56733322143555 80.82173156738281 44.87292098999023 80.69306182861328 45.10614395141602 80.45986175537109 C 45.33936309814453 80.22663116455078 45.45999145507812 79.92103576660156 45.45999145507812 79.599365234375 C 45.45194244384766 78.89969635009766 44.87293243408203 78.33676910400391 44.17328262329102 78.32872009277344 Z" stroke="none" fill="#756f86"/></g></g><g transform="translate(71.055 47.074)"><g transform="translate(-82.415 -47.465)" fill="none"><path d="M196.615,156.76c-1.994,0-15.955.169-22.22,4.238L98.141,52.327A7.787,7.787,0,0,0,85.2,60.98l72.192,113.56a53.524,53.524,0,0,0,20.821,20.242,36.906,36.906,0,0,0,15.577,3.321c15.5.016,28.107-8.983,28.107-20.04V165.694C221.891,157.009,199.2,156.76,196.615,156.76Zm0,5.718a42.338,42.338,0,0,1,19.1,3.217,42.338,42.338,0,0,1-19.1,3.217,42.61,42.61,0,0,1-19.108-3.217A42.391,42.391,0,0,1,196.615,162.478ZM193.784,192.4a31.3,31.3,0,0,1-13.157-2.774A48,48,0,0,1,162.2,171.469L90.035,57.916a2.07,2.07,0,0,1,3.434-2.284l78.079,111.276c1.986,7.511,22.614,7.752,25.075,7.752a63.5,63.5,0,0,0,19.558-2.879v6.281C216.173,185.84,205.927,192.4,193.784,192.4Z" stroke="none"/><path d="M 217.2356719970703 168.3093414306641 L 218.8985748291016 167.7895355224609 L 218.8985748291016 167.6109161376953 L 217.2356719970703 168.3093414306641 M 193.5158996582031 198.1044921875 C 188.238037109375 198.1044921875 183.0204162597656 196.9715576171875 178.2147827148438 194.7821655273438 C 169.5456085205078 190.0856781005859 162.3399963378906 183.0811309814453 157.3942413330078 174.5406188964844 L 85.20175933837891 60.98041915893555 C 83.02238464355469 57.4902229309082 83.93114471435547 52.91435241699219 87.27658081054688 50.52589797973633 C 88.65013122558594 49.54388809204102 90.23392486572266 49.07154083251953 91.80312347412109 49.07154083251953 C 94.23047637939453 49.07154083251953 96.62220001220703 50.20259475708008 98.1412353515625 52.32728958129883 L 174.3948364257812 160.9979553222656 C 180.6595458984375 156.9287719726562 194.6203460693359 156.7599029541016 196.6147613525391 156.7599029541016 C 199.2042541503906 156.7599029541016 221.8905639648438 157.0091857910156 221.8985748291016 165.6944580078125 L 221.8985748291016 178.06298828125 C 221.8985748291016 189.1111907958984 209.3122100830078 198.1041870117188 193.8335571289062 198.1034851074219 C 193.8203277587891 198.1034851074219 193.8052520751953 198.1034698486328 193.7920227050781 198.1034698486328 C 193.6998748779297 198.1041564941406 193.6080017089844 198.1044921875 193.5158996582031 198.1044921875 Z M 91.84914398193359 54.85664367675781 C 91.51303863525391 54.85664367675781 91.17395782470703 54.93877410888672 90.86328125 55.10978698730469 C 89.85803985595703 55.65665817260742 89.48812866210938 56.91117858886719 90.03495025634766 57.91643905639648 L 162.1952514648438 171.4685974121094 C 166.56201171875 179.1004028320312 172.9392700195312 185.3731079101562 180.6273803710938 189.6272735595703 C 184.6769104003906 191.455078125 189.065673828125 192.4029693603516 193.507080078125 192.4029693603516 C 193.5992279052734 192.4029693603516 193.6917877197266 192.4025573730469 193.7839660644531 192.4017486572266 C 205.9272918701172 192.4017486572266 216.1727294921875 185.8395233154297 216.1807708740234 178.06298828125 L 216.1807708740234 171.7822265625 C 210.0495452880859 173.69873046875 203.6617889404297 174.6642456054688 197.2440032958984 174.6642456054688 C 197.0369720458984 174.6642456054688 196.829833984375 174.6632385253906 196.6227569580078 174.6612243652344 C 194.1619262695312 174.6612243652344 173.5343627929688 174.4199676513672 171.5480194091797 166.9088134765625 L 93.46886444091797 55.63252639770508 C 93.06392669677734 55.12894058227539 92.46134185791016 54.85664367675781 91.84914398193359 54.85664367675781 Z M 196.6147613525391 168.9112396240234 C 197.5167083740234 168.9690093994141 198.4187469482422 168.9977722167969 199.3196563720703 168.9977722167969 C 204.9411926269531 168.9977569580078 210.5159606933594 167.8777923583984 215.7143249511719 165.6944580078125 C 210.5159606933594 163.5111541748047 204.9412689208984 162.3911743164062 199.3197174072266 162.3911743164062 C 198.4188232421875 162.3911743164062 197.5167083740234 162.4199371337891 196.6147613525391 162.4777069091797 C 195.7127990722656 162.4199371337891 194.8107452392578 162.3911743164062 193.9098358154297 162.3911743164062 C 188.2881317138672 162.3911743164062 182.7123870849609 163.5111541748047 177.5071105957031 165.6944580078125 C 182.7241821289062 167.8757781982422 188.3130950927734 168.9949188232422 193.9477386474609 168.9949188232422 C 194.8359527587891 168.9949188232422 195.7255554199219 168.9671020507812 196.6147613525391 168.9112396240234 Z" stroke="none" fill="#756f86"/></g><g transform="translate(-82.025 -47.074)" fill="none"><path d="M193.128,199.321a38.834,38.834,0,0,1-15.971-3.466l-.1-.048a55.031,55.031,0,0,1-21.448-20.845L83.452,61.45A9.4,9.4,0,0,1,99.062,51l75.425,107.48c6.964-3.538,19.22-3.723,21.745-3.723A81.565,81.565,0,0,1,210.145,156c8.6,1.649,12.972,4.777,12.972,9.3v12.369c0,5.879-3.169,11.379-8.919,15.481a35.912,35.912,0,0,1-20.756,6.168Zm-14.588-6.369a35.656,35.656,0,0,0,14.845,3.152c7.2-.016,13.9-1.97,18.939-5.573,4.881-3.482,7.567-8.05,7.567-12.859V165.3c0-5.38-14.154-7.326-23.667-7.326-5.653,0-16.51.836-21.343,3.981l-1.3.844L96.432,52.861a6.177,6.177,0,0,0-10.262,6.868l72.184,113.552A51.962,51.962,0,0,0,178.54,192.952Zm14.6.667a33.1,33.1,0,0,1-13.559-2.919l-.113-.056a49.592,49.592,0,0,1-19.051-18.762L88.237,58.289a3.677,3.677,0,0,1,6.1-4.061l.064.08,78.248,111.509.072.273c1.271,4.809,14.765,6.562,23.523,6.562a61.759,61.759,0,0,0,19.076-2.807l2.091-.651v8.468c-.008,8.645-10.993,15.939-24,15.947C193.313,193.619,193.225,193.619,193.136,193.619ZM180.961,187.8a29.77,29.77,0,0,0,12.417,2.606h.016c11.066,0,20.78-5.951,20.78-12.73v-4.134a65.143,65.143,0,0,1-17.966,2.34c-5.605,0-23.965-.627-26.53-8.653L91.8,56.214a.453.453,0,0,0-.555-.088.5.5,0,0,0-.225.273.461.461,0,0,0,.024.322l72.12,113.5A46.531,46.531,0,0,0,180.961,187.8Zm17.917-17.58c-.885,0-1.769-.024-2.654-.08a44.324,44.324,0,0,1-19.727-3.345l-3.538-1.48,3.538-1.48a44.324,44.324,0,0,1,19.727-3.345,44.27,44.27,0,0,1,19.719,3.345l3.53,1.48-3.53,1.48A44.2,44.2,0,0,1,198.878,170.217Zm-2.654-3.305.1.008a40.873,40.873,0,0,0,14.218-1.616,40.9,40.9,0,0,0-14.218-1.616l-.1.008-.1-.008A40.874,40.874,0,0,0,181.9,165.3a41.281,41.281,0,0,0,14.218,1.616Z" stroke="none"/><path d="M 193.1284027099609 199.3207397460938 C 187.6598968505859 199.3207397460938 182.1431121826172 198.1224822998047 177.1571197509766 195.8546752929688 L 177.0606079101562 195.8064117431641 C 168.1180114746094 190.9651489257812 160.7033386230469 183.7595672607422 155.61279296875 174.9616851806641 L 83.45248413085938 61.44975662231445 C 80.82276916503906 57.24382400512695 81.92453002929688 51.70293045043945 85.95352935791016 48.82390975952148 C 87.60501098632812 47.64202880859375 89.51274871826172 47.07390975952148 91.40306854248047 47.07390975952148 C 94.33612823486328 47.07390975952148 97.22805023193359 48.44078063964844 99.06187438964844 51.00325775146484 L 174.4872283935547 158.4837646484375 C 181.4515533447266 154.9452972412109 193.7074432373047 154.7603302001953 196.2326202392578 154.7603302001953 C 197.4710540771484 154.7603302001953 203.9850311279297 154.8166198730469 210.1451568603516 155.998779296875 C 218.7500305175781 157.6473846435547 223.1167907714844 160.7756958007812 223.1167907714844 165.3032836914062 L 223.1167907714844 177.6717987060547 C 223.1167907714844 183.5504455566406 219.9482727050781 189.0511322021484 214.1982879638672 193.1525115966797 C 208.6172027587891 197.1332855224609 201.2507629394531 199.3206939697266 193.4420471191406 199.3206939697266 C 193.3294677734375 199.3207397460938 193.2329406738281 199.3207397460938 193.1284027099609 199.3207397460938 Z M 91.40753936767578 50.28909683227539 C 90.16336059570312 50.28909683227539 88.90742492675781 50.66162490844727 87.81924438476562 51.43754196166992 C 85.1734619140625 53.32738876342773 84.44967651367188 56.97038650512695 86.170654296875 59.72877883911133 L 158.3550872802734 173.2809295654297 C 163.1802368164062 181.6123504638672 170.1445770263672 188.3917388916016 178.5403289794922 192.9515228271484 C 183.1057586669922 195.0202178955078 188.1557312011719 196.1046142578125 193.1663055419922 196.1046447753906 C 193.2395324707031 196.1046447753906 193.3125610351562 196.1044158935547 193.3857727050781 196.1039581298828 C 200.5832824707031 196.0878601074219 207.2822265625 194.1336669921875 212.3245239257812 190.5308837890625 C 217.2059783935547 187.0487213134766 219.8919982910156 182.4809265136719 219.8919982910156 177.6718292236328 L 219.8919982910156 165.3033294677734 C 219.8919982910156 159.9232635498047 205.7381744384766 157.9771118164062 196.2245635986328 157.9771118164062 C 190.5710754394531 157.9771118164062 179.7144622802734 158.8134765625 174.8812713623047 161.9578704833984 L 173.5784606933594 162.8022766113281 L 96.43218231201172 52.8609733581543 C 95.23466491699219 51.18445587158203 93.33556365966797 50.28909683227539 91.40753936767578 50.28909683227539 Z M 193.1364593505859 193.6190032958984 C 188.4882507324219 193.6190032958984 183.8078155517578 192.6137390136719 179.5777587890625 190.6997833251953 L 179.4651794433594 190.6434783935547 C 171.5197296142578 186.2525634765625 164.9253234863281 179.7627410888672 160.4138031005859 171.8816223144531 L 88.23744201660156 58.28925704956055 C 87.77100372314453 57.42877960205078 87.65841674804688 56.43158340454102 87.93987274169922 55.49066925048828 C 88.22135162353516 54.54977798461914 88.84860992431641 53.76969146728516 89.70909118652344 53.30327987670898 C 90.26463317871094 52.99973678588867 90.86919403076172 52.85321044921875 91.46778869628906 52.85321044921875 C 92.55027008056641 52.85321044921875 93.61343383789062 53.33223724365234 94.33322143554688 54.22808456420898 L 94.39754486083984 54.30851745605469 L 172.6455993652344 165.8180236816406 L 172.7179565429688 166.0914459228516 C 173.9885864257812 170.9005126953125 187.4829864501953 172.6536712646484 196.2406158447266 172.6536712646484 C 196.4481811523438 172.6557312011719 196.6560821533203 172.6567535400391 196.8634796142578 172.6567535400391 C 203.1406555175781 172.6567535400391 209.3374481201172 171.7153778076172 215.3161163330078 169.8470153808594 L 217.4070281982422 169.1956329345703 L 217.4070281982422 177.6638031005859 C 217.3989868164062 186.3088684082031 206.4136962890625 193.6029052734375 193.4098815917969 193.6109466552734 C 193.3134002685547 193.6190032958984 193.2249145507812 193.6190032958984 193.1364593505859 193.6190032958984 Z M 91.46493530273438 56.06774139404297 C 91.39024353027344 56.06774139404297 91.31483459472656 56.08658218383789 91.2451171875 56.12599563598633 C 91.1083984375 56.19836807250977 91.05211639404297 56.31899642944336 91.01994323730469 56.39941024780273 C 90.99583435058594 56.47982406616211 90.98778533935547 56.59243011474609 91.0440673828125 56.72108459472656 L 163.1641540527344 170.2169799804688 C 167.4183502197266 177.6316070556641 173.5543365478516 183.6871948242188 180.9609680175781 187.796630859375 C 184.7541656494141 189.5043334960938 188.9482727050781 190.4034271240234 193.1052703857422 190.4035034179688 C 193.1962738037109 190.4035034179688 193.2867584228516 190.403076171875 193.3777160644531 190.4022064208984 L 193.3938140869141 190.4022064208984 C 204.4595336914062 190.4022064208984 214.1741638183594 184.4511871337891 214.1741638183594 177.6718292236328 L 214.1741638183594 173.5382843017578 C 208.5168762207031 175.1002349853516 202.6938018798828 175.8812713623047 196.8222503662109 175.8813171386719 C 196.6175231933594 175.8813171386719 196.4133453369141 175.88037109375 196.2085113525391 175.8784790039062 C 190.603271484375 175.8784790039062 172.2434997558594 175.251220703125 169.6781311035156 167.2253723144531 L 91.80000305175781 56.21445465087891 C 91.70982360839844 56.11924743652344 91.58838653564453 56.06774139404297 91.46493530273438 56.06774139404297 Z M 193.5749359130859 170.2172546386719 C 187.7349853515625 170.21728515625 181.8828735351562 169.0471343994141 176.4976806640625 166.7910766601562 L 172.9592437744141 165.3113708496094 L 176.4976806640625 163.8316497802734 C 181.8824920654297 161.5757598876953 187.7354278564453 160.4054565429688 193.5749664306641 160.4054565429688 C 194.4593658447266 160.4054565429688 195.3423919677734 160.4322509765625 196.2245635986328 160.4861907958984 C 197.1063385009766 160.4322662353516 197.9902038574219 160.4054565429688 198.8741760253906 160.4054565429688 C 204.7139739990234 160.4054565429688 210.565185546875 161.5755920410156 215.9433898925781 163.8316497802734 L 219.4738159179688 165.3113708496094 L 215.9433898925781 166.7910766601562 C 210.5713806152344 169.0508728027344 204.7168579101562 170.2169799804688 198.8784027099609 170.2169799804688 C 197.9937896728516 170.2169799804688 197.1091766357422 170.1928253173828 196.2245635986328 170.1365203857422 C 195.3428039550781 170.1904449462891 194.4589233398438 170.2172546386719 193.5749359130859 170.2172546386719 Z M 196.2245635986328 166.9117126464844 L 196.3291168212891 166.9197540283203 C 197.1813354492188 166.9742736816406 198.0367431640625 167.0014343261719 198.8916931152344 167.0014343261719 C 202.8289794921875 167.0014343261719 206.7745361328125 166.4265441894531 210.5472717285156 165.3033294677734 C 206.7681884765625 164.1801910400391 202.8263092041016 163.6052398681641 198.8910675048828 163.6052398681641 C 198.0361785888672 163.6052398681641 197.1816253662109 163.6323699951172 196.3291168212891 163.6869049072266 L 196.2245635986328 163.6949462890625 L 196.1200103759766 163.6869049072266 C 195.2677764892578 163.6323852539062 194.4123840332031 163.6052398681641 193.5574188232422 163.6052398681641 C 189.6201324462891 163.6052398681641 185.6745758056641 164.1801147460938 181.9018707275391 165.3033294677734 C 185.6949462890625 166.4240112304688 189.6522827148438 166.9978942871094 193.6020965576172 166.9979095458984 C 194.4423522949219 166.9979248046875 195.2820739746094 166.9719543457031 196.1200103759766 166.9197540283203 L 196.2245635986328 166.9117126464844 Z" stroke="none" fill="#756f86"/></g></g></g></g></svg>