<svg xmlns="http://www.w3.org/2000/svg" width="349" height="349" viewBox="0 0 349 349"><g transform="translate(-19245 18902)"><rect width="349" height="349" transform="translate(19245 -18902)" fill="none"/><g transform="translate(19291.852 -18855.84)"><g transform="translate(101.427 47.47)"><g transform="translate(-110.447 -47.688)" fill="none" stroke-linecap="round" stroke-linejoin="round"><path d="M136.528,48.98a24.8,24.8,0,1,0,24.8,24.8A24.8,24.8,0,0,0,136.528,48.98Zm0,34.711a9.914,9.914,0,1,1,9.914-9.914A9.915,9.915,0,0,1,136.528,83.691Z" stroke="none"/><path d="M 136.5275726318359 53.97998809814453 C 131.2397613525391 53.97998809814453 126.2682342529297 56.03938293457031 122.5288238525391 59.77880096435547 C 118.7893981933594 63.51822662353516 116.7300109863281 68.48974609375 116.7300109863281 73.77756500244141 C 116.7300109863281 79.06537628173828 118.7893981933594 84.03690338134766 122.5288238525391 87.77631378173828 C 126.2682495117188 91.51573181152344 131.2397613525391 93.57511901855469 136.5275726318359 93.57511901855469 C 141.8153839111328 93.57511901855469 146.7869110107422 91.51573181152344 150.5263366699219 87.77631378173828 C 154.2657470703125 84.03690338134766 156.3251342773438 79.06537628173828 156.3251342773438 73.77756500244141 C 156.3251342773438 68.48974609375 154.2657470703125 63.51822662353516 150.5263366699219 59.77880096435547 C 146.7869110107422 56.03938293457031 141.8153839111328 53.97998809814453 136.5275726318359 53.97998809814453 M 136.5275726318359 88.69144439697266 C 134.5165252685547 88.69144439697266 132.5629119873047 88.29635620117188 130.7209625244141 87.51715850830078 C 128.944580078125 86.76568603515625 127.3502197265625 85.69100189208984 125.982177734375 84.32295227050781 C 124.6141357421875 82.95491027832031 123.5394439697266 81.36055755615234 122.7879791259766 79.58418273925781 C 122.0087585449219 77.74223327636719 121.6136779785156 75.78861236572266 121.6136779785156 73.77756500244141 C 121.6136779785156 71.76652526855469 122.0087585449219 69.81290435791016 122.7879791259766 67.97095489501953 C 123.5394439697266 66.19456481933594 124.6141357421875 64.60021209716797 125.982177734375 63.23217010498047 C 127.3502197265625 61.86412048339844 128.944580078125 60.78943634033203 130.7209625244141 60.03797149658203 C 132.5629119873047 59.25876617431641 134.5165252685547 58.86367797851562 136.5275726318359 58.86367797851562 C 138.5386047363281 58.86367797851562 140.4922332763672 59.25876617431641 142.3341827392578 60.03797149658203 C 144.1105651855469 60.78944396972656 145.7049255371094 61.86412048339844 147.0729675292969 63.23217010498047 C 148.4410095214844 64.60021209716797 149.5157012939453 66.19456481933594 150.2671661376953 67.97095489501953 C 151.04638671875 69.81290435791016 151.4414672851562 71.76652526855469 151.4414672851562 73.77756500244141 C 151.4414672851562 75.78861236572266 151.04638671875 77.74223327636719 150.2671661376953 79.58418273925781 C 149.5157012939453 81.36055755615234 148.4410095214844 82.95492553710938 147.0729675292969 84.32295227050781 C 145.7049255371094 85.69100189208984 144.1105651855469 86.76568603515625 142.3341827392578 87.51715850830078 C 140.4922332763672 88.29635620117188 138.5386047363281 88.69144439697266 136.5275726318359 88.69144439697266 M 136.5275726318359 48.97998809814453 C 150.2222595214844 48.97998809814453 161.3251342773438 60.08287811279297 161.3251342773438 73.77756500244141 C 161.3251342773438 87.47224426269531 150.2222595214844 98.57511901855469 136.5275726318359 98.57511901855469 C 122.8328857421875 98.57511901855469 111.7300109863281 87.47224426269531 111.7300109863281 73.77756500244141 C 111.7300109863281 60.08287048339844 122.8328857421875 48.97998809814453 136.5275726318359 48.97998809814453 Z M 136.5275726318359 83.69144439697266 C 142.0020141601562 83.69144439697266 146.4414672851562 79.25201416015625 146.4414672851562 73.77756500244141 C 146.4414672851562 68.30311584472656 142.0020141601562 63.86367797851562 136.5275726318359 63.86367797851562 C 131.0531158447266 63.86367797851562 126.6136779785156 68.30311584472656 126.6136779785156 73.77756500244141 C 126.6136779785156 79.25201416015625 131.0531158447266 83.69144439697266 136.5275726318359 83.69144439697266 Z" stroke="none" fill="#756f86"/></g><g transform="translate(-110.23 -47.47)" fill="none" stroke-linecap="round" stroke-linejoin="round"><path d="M136.311,99.631a26.081,26.081,0,1,1,26.081-26.081A26.113,26.113,0,0,1,136.311,99.631Zm0-49.587a23.514,23.514,0,1,0,23.514,23.514A23.539,23.539,0,0,0,136.311,50.045Zm0,34.711a11.2,11.2,0,1,1,11.2-11.2A11.207,11.207,0,0,1,136.311,84.756Zm0-19.836a8.631,8.631,0,1,0,8.631,8.631A8.639,8.639,0,0,0,136.311,64.92Z" stroke="none"/><path d="M 136.3106384277344 99.63127899169922 C 121.9316482543945 99.63127899169922 110.2300033569336 87.92963409423828 110.2300033569336 73.55064392089844 C 110.2300033569336 59.1716423034668 121.9316482543945 47.47000122070312 136.3106384277344 47.47000122070312 C 150.6896362304688 47.47000122070312 162.3912811279297 59.1716423034668 162.3912811279297 73.55064392089844 C 162.3912811279297 87.92963409423828 150.6896362304688 99.63127899169922 136.3106384277344 99.63127899169922 Z M 136.3106384277344 50.04470062255859 C 123.3430252075195 50.04470062255859 112.7961502075195 60.59157562255859 112.7961502075195 73.55919647216797 C 112.7961502075195 86.52680969238281 123.3430404663086 97.07368469238281 136.3106384277344 97.07368469238281 C 149.2782592773438 97.07368469238281 159.8251342773438 86.52680206298828 159.8251342773438 73.55919647216797 C 159.8165740966797 60.59158706665039 149.2696990966797 50.04470062255859 136.3106384277344 50.04470062255859 Z M 136.3106384277344 84.75616455078125 C 130.134765625 84.75616455078125 125.1136703491211 79.73506927490234 125.1136703491211 73.55919647216797 C 125.1136703491211 67.38333129882812 130.134765625 62.36223220825195 136.3106384277344 62.36223220825195 C 142.4865112304688 62.36223220825195 147.5075988769531 67.38333129882812 147.5075988769531 73.55919647216797 C 147.5075988769531 79.73506927490234 142.4865112304688 84.75616455078125 136.3106384277344 84.75616455078125 Z M 136.3106384277344 64.91982269287109 C 131.5461578369141 64.91982269287109 127.6798248291016 68.79470825195312 127.6798248291016 73.55064392089844 C 127.6798248291016 78.31513214111328 131.5547180175781 82.18146514892578 136.3106384277344 82.18146514892578 C 141.0665740966797 82.18146514892578 144.9414520263672 78.30657958984375 144.9414520263672 73.55064392089844 C 144.9414520263672 68.79470825195312 141.0665740966797 64.91982269287109 136.3106384277344 64.91982269287109 Z" stroke="none" fill="#756f86"/></g></g><g transform="translate(49.36 101.999)"><g transform="translate(-49.577 -111.436)" fill="none" stroke-linecap="round" stroke-linejoin="round"><path d="M159.092,116.366a10.863,10.863,0,0,0-18.972,7.245v50.134a42.448,42.448,0,0,0-12.395,11.83,42.448,42.448,0,0,0-12.395-11.83V123.611A10.863,10.863,0,0,0,96.358,116.4L79.746,135.073H50.86v14.875H83.091a7.431,7.431,0,0,0,5.551-2.481l11.8-13.293V168A41.755,41.755,0,0,0,93,167.3H90.524a24.8,24.8,0,0,0,0,49.6h74.384a24.8,24.8,0,0,0,0-49.6h-2.481a41.755,41.755,0,0,0-7.442.693V134.175l11.8,13.293a7.431,7.431,0,0,0,5.551,2.481h32.231V135.073H175.686ZM90.533,202.007a9.914,9.914,0,1,1,0-19.828h2.481a27.269,27.269,0,0,1,26.235,19.836H90.533Zm74.384-19.836a9.914,9.914,0,1,1,0,19.828H136.2a27.269,27.269,0,0,1,26.235-19.836h2.481Z" stroke="none"/><path d="M 150.9777526855469 117.731201171875 C 149.5403289794922 117.731201171875 148.1565399169922 118.2589416503906 147.081298828125 119.2172241210938 C 147.0799713134766 119.2184143066406 147.07861328125 119.2196044921875 147.0772705078125 119.2207946777344 C 145.8329162597656 120.327392578125 145.1192626953125 121.9274444580078 145.1192626953125 123.6106567382812 L 145.1192626953125 173.7446746826172 C 145.1192626953125 175.4675140380859 144.2322998046875 177.0689849853516 142.7718963623047 177.9830169677734 C 138.4246826171875 180.7037963867188 134.7454681396484 184.2151489257812 131.8364868164062 188.4195404052734 C 130.9026641845703 189.7691955566406 129.3659362792969 190.5746307373047 127.7247085571289 190.5746307373047 C 126.08349609375 190.5746307373047 124.5467834472656 189.7691802978516 123.6129760742188 188.4195098876953 C 120.7040710449219 184.2151947021484 117.0248718261719 180.7038726806641 112.6775970458984 177.9830169677734 C 111.2172088623047 177.0689849853516 110.3302612304688 175.4675140380859 110.3302612304688 173.7446746826172 L 110.3302612304688 123.6178131103516 C 110.3256378173828 120.3902282714844 107.6985931396484 117.7643890380859 104.4741363525391 117.7643890380859 L 104.4582977294922 117.7643890380859 C 102.7955474853516 117.7643890380859 101.2026214599609 118.4805755615234 100.0879974365234 119.7293243408203 L 100.0879974365234 119.7293243408203 L 83.48199462890625 138.3960876464844 C 82.533203125 139.4626312255859 81.17378234863281 140.0727691650391 79.74627685546875 140.0727691650391 L 55.86000061035156 140.0727691650391 L 55.86000061035156 144.9479217529297 L 83.09085083007812 144.9479217529297 C 83.78750610351562 144.9479217529297 84.44941711425781 144.6544952392578 84.90768432617188 144.1427154541016 L 96.70791625976562 130.8545989990234 C 97.67579650878906 129.7646789550781 99.0455322265625 129.1744232177734 100.4476470947266 129.1744232177734 C 101.0427551269531 129.1744232177734 101.6439971923828 129.2808685302734 102.2223510742188 129.5006103515625 C 104.163330078125 130.2380065917969 105.4465637207031 132.0982971191406 105.4465637207031 134.1746368408203 L 105.4465637207031 167.9965057373047 C 105.4465637207031 169.4815368652344 104.7864532470703 170.8897247314453 103.6449890136719 171.8396759033203 C 102.7395324707031 172.5932464599609 101.6057434082031 172.9965515136719 100.4465789794922 172.9965515136719 C 100.1445007324219 172.9965515136719 99.8404541015625 172.9691162109375 99.53855895996094 172.9133758544922 C 97.39047241210938 172.5166778564453 95.18849182128906 172.3115386962891 92.99388122558594 172.3036346435547 L 90.52410888671875 172.3036346435547 C 85.23629760742188 172.3036346435547 80.26478576660156 174.3630065917969 76.52537536621094 178.1024322509766 C 72.78594970703125 181.8418731689453 70.7265625 186.8133850097656 70.7265625 192.1011962890625 C 70.7265625 197.3890380859375 72.78594970703125 202.3605651855469 76.52537536621094 206.0999603271484 C 80.26478576660156 209.8393859863281 85.23629760742188 211.8987731933594 90.52410888671875 211.8987731933594 L 164.9082641601562 211.8987731933594 C 170.1960906982422 211.8987731933594 175.1675872802734 209.8393859863281 178.9070129394531 206.0999603271484 C 182.6464538574219 202.3605651855469 184.7058258056641 197.3890380859375 184.7058258056641 192.1011962890625 C 184.7058258056641 186.8133697509766 182.6464538574219 181.8418731689453 178.9070129394531 178.1024322509766 C 175.1676177978516 174.3630065917969 170.1960906982422 172.3036346435547 164.9082641601562 172.3036346435547 L 162.4385070800781 172.3036346435547 C 160.2438812255859 172.3115386962891 158.0419006347656 172.5166778564453 155.8938293457031 172.9133758544922 C 155.5917663574219 172.9691467285156 155.2880401611328 172.9965515136719 154.9857940673828 172.9965515136719 C 153.8268127441406 172.9965515136719 152.6927490234375 172.5931549072266 151.7873992919922 171.8396759033203 C 150.6459503173828 170.8897247314453 149.98583984375 169.4815368652344 149.98583984375 167.9965057373047 L 149.98583984375 134.1746368408203 C 149.98583984375 132.0982971191406 151.2690734863281 130.2380065917969 153.2100524902344 129.5006103515625 C 153.7885131835938 129.2808227539062 154.3895111083984 129.1744232177734 154.9847412109375 129.1744232177734 C 156.38671875 129.1744232177734 157.7566528320312 129.7647705078125 158.7244720458984 130.8545989990234 L 170.5244750976562 144.1424102783203 C 170.9827270507812 144.6543731689453 171.644775390625 144.9478912353516 172.3415679931641 144.9478912353516 L 199.5724182128906 144.9478912353516 L 199.5724182128906 140.0727691650391 L 175.6861114501953 140.0727691650391 C 174.2561340332031 140.0727691650391 172.8946228027344 139.4605102539062 171.9456787109375 138.3907775878906 L 155.3582458496094 119.6914672851562 C 154.2481842041016 118.4457550048828 152.6517486572266 117.7313232421875 150.9782104492188 117.731201171875 C 150.9781494140625 117.731201171875 150.9778289794922 117.731201171875 150.9777526855469 117.731201171875 M 165.2772216796875 177.1744384765625 C 167.1613464355469 177.2188415527344 168.9916381835938 177.6119079589844 170.7234191894531 178.344482421875 C 172.4998016357422 179.0959625244141 174.0941619873047 180.170654296875 175.4622192382812 181.5386962890625 C 176.8302612304688 182.9067535400391 177.9049377441406 184.5011138916016 178.6564025878906 186.2774810791016 C 179.4356079101562 188.1194152832031 179.8307189941406 190.0730285644531 179.8307189941406 192.0840759277344 C 179.8307189941406 194.0951232910156 179.4356079101562 196.0487518310547 178.6564331054688 197.8907012939453 C 177.9049377441406 199.6670837402344 176.8302612304688 201.2614440917969 175.4622192382812 202.6294860839844 C 174.0941619873047 203.9975280761719 172.4998016357422 205.0722351074219 170.7234191894531 205.8236999511719 C 168.8814697265625 206.6028900146484 166.9278564453125 206.9979858398438 164.9168090820312 206.9979858398438 L 136.2015991210938 206.9979858398438 C 134.6344299316406 206.9979858398438 133.1578979492188 206.2631988525391 132.212890625 205.0129852294922 C 131.2678833007812 203.7627868652344 130.9637145996094 202.141845703125 131.3912048339844 200.6341094970703 C 132.3586120605469 197.2221069335938 133.86669921875 194.0171051025391 135.8736267089844 191.1081237792969 C 137.8319244384766 188.2696228027344 140.2217712402344 185.7740631103516 142.9767456054688 183.6907501220703 C 145.7320404052734 181.6072235107422 148.7843017578125 179.9876708984375 152.0486755371094 178.8771514892578 C 155.3947296142578 177.7388153076172 158.8896179199219 177.1616516113281 162.4362182617188 177.1616516113281 L 164.9168090820312 177.1616516113281 C 165.0379943847656 177.1616516113281 165.158203125 177.1659698486328 165.2772216796875 177.1744384765625 M 119.2478942871094 207.0151062011719 L 90.53268432617188 207.0151062011719 C 90.41133117675781 207.0151062011719 90.29095458984375 207.0107727050781 90.17176818847656 207.0022888183594 C 88.28790283203125 206.9577941894531 86.45762634277344 206.5647277832031 84.72605895996094 205.8322448730469 C 82.94969177246094 205.0807800292969 81.35533142089844 204.006103515625 79.98727416992188 202.6380615234375 C 78.61923217773438 201.27001953125 77.54454040527344 199.6756591796875 76.79306030273438 197.8992767333984 C 76.01387023925781 196.0573272705078 75.6187744140625 194.1036987304688 75.6187744140625 192.0926513671875 C 75.6187744140625 190.0816040039062 76.01387023925781 188.1279907226562 76.79306030273438 186.2860412597656 C 77.54454040527344 184.5096588134766 78.61923217773438 182.9152984619141 79.98727416992188 181.5472564697266 C 81.35533142089844 180.1792297363281 82.94969177246094 179.1045379638672 84.72605895996094 178.3530578613281 C 86.5679931640625 177.5738677978516 88.52162170410156 177.1787719726562 90.53266906738281 177.1787719726562 L 93.01327514648438 177.1787719726562 C 96.55990600585938 177.1787719726562 100.0547637939453 177.7559356689453 103.4008026123047 178.8942718505859 C 106.6652069091797 180.0047912597656 109.7174530029297 181.6243438720703 112.4727630615234 183.7078857421875 C 115.2277374267578 185.7911834716797 117.6175689697266 188.2867431640625 119.5758819580078 191.125244140625 C 121.5827789306641 194.0342254638672 123.0908813476562 197.2392272949219 124.0582733154297 200.6512145996094 C 124.4857788085938 202.1589660644531 124.1816101074219 203.7799072265625 123.2365875244141 205.0301055908203 C 122.2915954589844 206.2803192138672 120.8150634765625 207.0151062011719 119.2478942871094 207.0151062011719 M 150.9784851074219 112.7312164306641 C 153.969970703125 112.7314147949219 156.9480133056641 113.9597015380859 159.0916595458984 116.3655548095703 L 175.6861114501953 135.0727691650391 L 204.5724182128906 135.0727691650391 L 204.5724182128906 149.9478912353516 L 172.3415679931641 149.9478912353516 C 170.22021484375 149.9478912353516 168.2014923095703 149.0497436523438 166.7901153564453 147.4672698974609 L 154.98583984375 134.1746368408203 L 154.98583984375 167.9965057373047 C 157.4407653808594 167.5431518554688 159.9299468994141 167.3121948242188 162.4276580810547 167.3036346435547 L 164.9082641601562 167.3036346435547 C 178.6029663085938 167.3036346435547 189.7058258056641 178.4065093994141 189.7058258056641 192.1011962890625 C 189.7058258056641 205.7959136962891 178.6029510498047 216.8987731933594 164.9082641601562 216.8987731933594 L 90.52410888671875 216.8987731933594 C 76.82945251464844 216.8987731933594 65.7265625 205.7959136962891 65.7265625 192.1011962890625 C 65.7265625 178.4065093994141 76.82945251464844 167.3036346435547 90.52410888671875 167.3036346435547 L 93.00473022460938 167.3036346435547 C 95.50244140625 167.3121948242188 97.99160766601562 167.5431518554688 100.4465637207031 167.9965057373047 L 100.4465637207031 134.1746368408203 L 88.64228820800781 147.4673004150391 C 87.23089599609375 149.0497436523438 85.21220397949219 149.9479217529297 83.09085083007812 149.9479217529297 L 50.86000061035156 149.9479217529297 L 50.86000061035156 135.0727691650391 L 79.74627685546875 135.0727691650391 L 96.35783386230469 116.3997802734375 C 98.4193115234375 114.0902557373047 101.3618316650391 112.7643890380859 104.4582977294922 112.7643890380859 C 104.4637908935547 112.7643890380859 104.4686584472656 112.7643737792969 104.4741516113281 112.7643737792969 C 110.4628295898438 112.7643737792969 115.3216705322266 117.6199035644531 115.3302612304688 123.6106567382812 L 115.3302612304688 173.7446746826172 C 120.2230224609375 176.8069458007812 124.4400939941406 180.8272552490234 127.7247314453125 185.5746307373047 C 131.0094299316406 180.8272552490234 135.2264404296875 176.8069458007812 140.1192626953125 173.7446746826172 L 140.1192626953125 123.6106567382812 C 140.1192626953125 120.5055999755859 141.4365234375 117.5459899902344 143.7546081542969 115.4845123291016 C 145.8263854980469 113.6381072998047 148.4073028564453 112.7310485839844 150.9784851074219 112.7312164306641 Z M 164.9168090820312 201.9979858398438 C 170.3912658691406 201.9979858398438 174.8307189941406 197.5585327148438 174.8307189941406 192.0840759277344 C 174.8307189941406 186.6096496582031 170.3912658691406 182.1701965332031 164.9168090820312 182.1701965332031 L 164.9168090820312 182.1616516113281 L 162.4362182617188 182.1616516113281 C 150.2384490966797 182.1616516113281 139.529052734375 190.2621307373047 136.2015991210938 201.9979858398438 L 164.9168090820312 201.9979858398438 Z M 119.2478942871094 202.0151062011719 C 115.9204406738281 190.2792510986328 105.2110595703125 182.1787719726562 93.01327514648438 182.1787719726562 L 90.53266906738281 182.1787719726562 C 85.0582275390625 182.1787719726562 80.6187744140625 186.6181945800781 80.6187744140625 192.0926513671875 C 80.6187744140625 197.5671081542969 85.0582275390625 202.0065307617188 90.53268432617188 202.0065307617188 L 90.53268432617188 202.0151062011719 L 119.2478942871094 202.0151062011719 Z" stroke="none" fill="#756f86"/></g><g transform="translate(-49.36 -111.218)" fill="none" stroke-linecap="round" stroke-linejoin="round"><path d="M164.7,217.946H90.316a26.081,26.081,0,0,1,0-52.161H92.8a43.7,43.7,0,0,1,6.159.462V137.317l-9.563,10.761a8.649,8.649,0,0,1-6.518,2.908H50.643A1.281,1.281,0,0,1,49.36,149.7V134.828a1.281,1.281,0,0,1,1.283-1.283H78.956l16.227-18.237a12.148,12.148,0,0,1,21.214,8.066v49.433a43.51,43.51,0,0,1,11.111,10.342,43.51,43.51,0,0,1,11.111-10.342V123.375a12.142,12.142,0,0,1,21.2-8.1h0l16.227,18.262h28.313a1.281,1.281,0,0,1,1.283,1.283v14.875a1.281,1.281,0,0,1-1.283,1.283H172.133a8.732,8.732,0,0,1-6.509-2.908L156.061,137.3v28.929a43.58,43.58,0,0,1,6.15-.462H164.7a26.089,26.089,0,0,1,0,52.178ZM92.788,168.359H90.316a23.514,23.514,0,0,0,0,47.029H164.7a23.514,23.514,0,0,0,0-47.029h-2.481a40.74,40.74,0,0,0-7.2.676,1.28,1.28,0,0,1-1.514-1.257V133.956a1.287,1.287,0,0,1,.83-1.2,1.274,1.274,0,0,1,1.411.351l11.8,13.293a6.151,6.151,0,0,0,4.585,2.044H203.09V136.137h-27.6a1.271,1.271,0,0,1-.958-.428l-16.612-18.69a9.58,9.58,0,0,0-16.731,6.381v50.134a1.286,1.286,0,0,1-.6,1.086,41.007,41.007,0,0,0-12.027,11.471,1.334,1.334,0,0,1-2.113,0,41.007,41.007,0,0,0-12.027-11.471,1.266,1.266,0,0,1-.6-1.086V123.4a9.579,9.579,0,0,0-16.731-6.355L80.479,135.718a1.271,1.271,0,0,1-.958.428H51.926v12.309H82.882a6.16,6.16,0,0,0,4.593-2.053l11.8-13.284a1.274,1.274,0,0,1,1.411-.351,1.287,1.287,0,0,1,.83,1.2v33.822A1.28,1.28,0,0,1,100,169.044,39.221,39.221,0,0,0,92.788,168.359ZM164.7,203.071H135.985a1.291,1.291,0,0,1-1.24-1.634,28.669,28.669,0,0,1,27.466-20.769h2.481a11.2,11.2,0,0,1,.009,22.4ZM137.738,200.5h26.953a8.631,8.631,0,1,0,0-17.262h-2.481A26.087,26.087,0,0,0,137.738,200.5Zm-18.716,2.566H90.316a11.2,11.2,0,1,1,0-22.394H92.8a28.662,28.662,0,0,1,27.466,20.769,1.255,1.255,0,0,1-.214,1.121A1.305,1.305,0,0,1,119.022,203.071ZM90.316,183.234a8.631,8.631,0,0,0,0,17.262h26.953A26.1,26.1,0,0,0,92.8,183.226H90.316Z" stroke="none"/><path d="M 164.6998901367188 217.9458465576172 L 90.31577301025391 217.9458465576172 C 75.936767578125 217.9458465576172 64.23513031005859 206.2441864013672 64.23513031005859 191.8651885986328 C 64.23513031005859 177.4862060546875 75.936767578125 165.7845458984375 90.31577301025391 165.7845458984375 L 92.79636383056641 165.7845458984375 C 94.84929656982422 165.7931213378906 96.91931915283203 165.9470977783203 98.95512390136719 166.2464447021484 L 98.95512390136719 137.3173828125 L 89.39193725585938 148.0781097412109 C 87.73916625976562 149.9268035888672 85.41596221923828 150.9864196777344 82.90425872802734 150.9864501953125 C 82.89410400390625 150.9864501953125 82.88407897949219 150.9864349365234 82.87390899658203 150.9864044189453 L 50.6430778503418 150.9864044189453 C 49.93310165405273 150.9864044189453 49.36000823974609 150.4132995605469 49.36000823974609 149.7033233642578 L 49.36000823974609 134.8282165527344 C 49.36000823974609 134.1182403564453 49.93310165405273 133.5451354980469 50.6430778503418 133.5451354980469 L 78.95626831054688 133.5451354980469 L 95.18289184570312 115.3083801269531 C 97.48386383056641 112.7251129150391 100.7856521606445 111.2453079223633 104.2414093017578 111.2453079223633 C 107.457649230957 111.2538528442383 110.5370330810547 112.5027084350586 112.829460144043 114.7951354980469 C 115.1218872070312 117.0875701904297 116.3878402709961 120.1327133178711 116.3964157104492 123.374641418457 L 116.3964157104492 172.8072357177734 C 120.6989822387695 175.5957794189453 124.4284591674805 179.0686340332031 127.5078201293945 183.1488037109375 C 130.5872192382812 179.0686340332031 134.3166961669922 175.5957794189453 138.6192626953125 172.8072357177734 L 138.6192626953125 123.3746185302734 C 138.6107177734375 119.9103317260742 140.0990753173828 116.5999984741211 142.6823120117188 114.2904510498047 C 144.9913177490234 112.2305450439453 147.8787536621094 111.2175750732422 150.7548065185547 111.2175750732422 C 154.1010284423828 111.2175750732422 157.4321746826172 112.5876846313477 159.82421875 115.2741394042969 L 176.0508422851562 133.5365753173828 L 204.3640289306641 133.5365753173828 C 205.0740051269531 133.5365753173828 205.6471099853516 134.1096801757812 205.6471099853516 134.8196411132812 L 205.6471099853516 149.6947631835938 C 205.6471099853516 150.4047393798828 205.0740051269531 150.9778594970703 204.3640289306641 150.9778594970703 L 172.1331939697266 150.9778594970703 C 169.6440277099609 150.9778594970703 167.2745971679688 149.9171600341797 165.6237182617188 148.0695495605469 L 156.0605316162109 137.3002624511719 L 156.0605316162109 166.2293243408203 C 158.0963439941406 165.929931640625 160.1578216552734 165.7759704589844 162.2107391357422 165.7674255371094 L 164.6999053955078 165.7674255371094 C 179.0789184570312 165.7674255371094 190.7805480957031 177.4690856933594 190.7805480957031 191.8480682373047 C 190.7805480957031 206.2270660400391 179.0788879394531 217.9458465576172 164.6998901367188 217.9458465576172 Z M 90.31577301025391 168.3592529296875 C 77.34815216064453 168.3592529296875 66.80126953125 178.9061431884766 66.80126953125 191.8737640380859 C 66.80126953125 204.8413848876953 77.34815216064453 215.3882598876953 90.31577301025391 215.3882598876953 L 164.6998901367188 215.3882598876953 C 177.6675109863281 215.3882598876953 188.2143859863281 204.8413848876953 188.2143859863281 191.8737640380859 C 188.2143859863281 178.9061431884766 177.6675109863281 168.3592529296875 164.6998901367188 168.3592529296875 L 162.2192993164062 168.3592529296875 C 159.8156433105469 168.3678131103516 157.3863830566406 168.5987854003906 155.0169525146484 169.0350036621094 C 154.9401245117188 169.0489654541016 154.8628692626953 169.0558166503906 154.7861938476562 169.0558166503906 C 154.4872894287109 169.0558319091797 154.1963043212891 168.951904296875 153.96484375 168.7612762451172 C 153.6740112304688 168.5132293701172 153.5029296875 168.1539764404297 153.5029296875 167.777587890625 L 153.5029296875 133.9557037353516 C 153.5029296875 133.4253997802734 153.8365478515625 132.9463806152344 154.3326721191406 132.7582092285156 C 154.4803161621094 132.7022094726562 154.6340789794922 132.6749877929688 154.7864074707031 132.6749877929688 C 155.1459350585938 132.6749877929688 155.4977111816406 132.8265228271484 155.7440490722656 133.1089324951172 L 167.54833984375 146.4015655517578 C 168.7116546630859 147.7017517089844 170.3796539306641 148.4459228515625 172.1331939697266 148.4459228515625 L 172.1417388916016 148.4459228515625 L 203.0895385742188 148.4459228515625 L 203.0895385742188 136.1369781494141 L 175.4862976074219 136.1369781494141 C 175.1184844970703 136.1369781494141 174.7677764892578 135.9830017089844 174.5282745361328 135.7092590332031 L 157.9167175292969 117.0191421508789 C 156.0260925292969 114.8985061645508 153.3980865478516 113.8168258666992 150.7594299316406 113.8168258666992 C 148.4915161132812 113.8168258666992 146.2157897949219 114.6157455444336 144.3930969238281 116.2407379150391 C 142.3487396240234 118.0627136230469 141.1854400634766 120.6716156005859 141.1854400634766 123.4003067016602 L 141.1854400634766 173.5343017578125 C 141.1854400634766 173.9791107177734 140.9544525146484 174.3897094726562 140.5866546630859 174.6206665039062 C 135.8135986328125 177.6059417724609 131.7676696777344 181.4637298583984 128.5599822998047 186.0913543701172 C 128.3204650878906 186.4377746582031 127.9120178222656 186.6109924316406 127.5035705566406 186.6109924316406 C 127.0951232910156 186.6109924316406 126.6866760253906 186.4377746582031 126.4471740722656 186.0913543701172 C 123.2394866943359 181.4637298583984 119.1935348510742 177.6059417724609 114.4204864501953 174.6206665039062 C 114.0441055297852 174.3897094726562 113.8217239379883 173.9791107177734 113.8217239379883 173.5343017578125 L 113.8217239379883 123.4003067016602 C 113.8217239379883 120.8427124023438 112.820915222168 118.4390640258789 111.0075073242188 116.6342086791992 C 109.1940994262695 114.8293533325195 106.8246765136719 113.8371124267578 104.2328643798828 113.8371124267578 C 101.5041961669922 113.8371124267578 98.90383911132812 115.0089950561523 97.09043884277344 117.044807434082 L 80.47888946533203 135.7178344726562 C 80.23936462402344 135.9915466308594 79.888671875 136.1455230712891 79.52084350585938 136.1455230712891 L 51.92615127563477 136.1455230712891 L 51.92615127563477 148.4544677734375 L 82.87393951416016 148.4544677734375 L 82.88248443603516 148.4544677734375 C 84.63600921630859 148.4544677734375 86.30400848388672 147.7103118896484 87.47589111328125 146.4015655517578 L 99.27162933349609 133.1174774169922 C 99.5179443359375 132.8350982666016 99.86978149414062 132.6835174560547 100.2292709350586 132.6835174560547 C 100.3816299438477 132.6835174560547 100.5353317260742 132.7107391357422 100.6830062866211 132.7667541503906 C 101.1791229248047 132.9549255371094 101.5127487182617 133.4339447021484 101.5127487182617 133.9642791748047 L 101.5127487182617 167.7861328125 C 101.5127487182617 168.1710510253906 101.3416519165039 168.5303344726562 101.0508193969727 168.7698364257812 C 100.8215789794922 168.9653625488281 100.5338287353516 169.0652313232422 100.2379150390625 169.0652313232422 C 100.1584320068359 169.0652313232422 100.0783920288086 169.0580291748047 99.99869537353516 169.0435485839844 C 97.62929534912109 168.5902099609375 95.20000457763672 168.3678131103516 92.78781890869141 168.3592529296875 L 90.31577301025391 168.3592529296875 Z M 164.6998901367188 203.0707397460938 L 135.9846801757812 203.0707397460938 C 135.5826568603516 203.0707397460938 135.206298828125 202.8825378417969 134.9582214355469 202.5574951171875 C 134.7101745605469 202.2324523925781 134.6417388916016 201.8218536376953 134.744384765625 201.4369506835938 C 138.2086791992188 189.2135162353516 149.50830078125 180.6682281494141 162.2107391357422 180.6682281494141 L 164.6913452148438 180.6682281494141 C 170.8672180175781 180.6682281494141 175.8883209228516 185.6893310546875 175.8883209228516 191.8651885986328 C 175.8968658447266 198.0410614013672 170.8757629394531 203.0707397460938 164.6998901367188 203.0707397460938 Z M 162.1906433105469 183.2429351806641 C 151.2148132324219 183.2429351806641 141.3972625732422 190.2626953125 137.7382049560547 200.5045623779297 L 164.6913452148438 200.5045623779297 C 169.455810546875 200.5045623779297 173.3221435546875 196.6296844482422 173.3221435546875 191.8737640380859 C 173.3221435546875 187.1092529296875 169.447265625 183.2429504394531 164.6913452148438 183.2429504394531 L 162.2107238769531 183.2429504394531 C 162.2046813964844 183.2429504394531 162.1966705322266 183.2429351806641 162.1906433105469 183.2429351806641 Z M 119.0224151611328 203.0707397460938 L 90.31577301025391 203.0707397460938 C 84.13988494873047 203.0707397460938 79.11878967285156 198.0496215820312 79.11878967285156 191.8737640380859 C 79.11878967285156 185.6979064941406 84.13988494873047 180.6767883300781 90.31574249267578 180.6767883300781 L 92.79636383056641 180.6767883300781 C 105.5073623657227 180.6767883300781 116.7984161376953 189.2220611572266 120.2627182006836 201.4454956054688 C 120.3739395141602 201.8304290771484 120.2969360351562 202.2495727539062 120.0488891601562 202.5660705566406 C 119.8008193969727 202.8825378417969 119.4244613647461 203.0707397460938 119.0224151611328 203.0707397460938 Z M 90.31577301025391 183.2257995605469 L 90.31577301025391 183.234375 C 85.55126953125 183.234375 81.6849365234375 187.1092529296875 81.6849365234375 191.8651885986328 C 81.6849365234375 196.6296844482422 85.559814453125 200.4960174560547 90.31574249267578 200.4960174560547 L 117.2688674926758 200.4960174560547 C 113.6163864135742 190.2485198974609 103.7794876098633 183.2257995605469 92.79636383056641 183.2257995605469 L 90.31577301025391 183.2257995605469 Z" stroke="none" fill="#756f86"/></g></g></g></g></svg>