<svg xmlns="http://www.w3.org/2000/svg" width="349" height="349" viewBox="0 0 349 349"><g transform="translate(-19245 19661)"><rect width="349" height="349" transform="translate(19245 -19661)" fill="none"/><g transform="translate(16.894 -1131.855)"><g transform="translate(19302.5 -18416.5)"><g transform="translate(76.89 76.889)"><g fill="none" stroke="#756f86" stroke-width="7"><circle cx="23.656" cy="23.656" r="23.656" stroke="none"/><circle cx="23.656" cy="23.656" r="27.156" fill="none"/></g></g><g transform="translate(36.378 91.674)"><g fill="none" stroke="#756f86" stroke-width="7"><circle cx="8.871" cy="8.871" r="8.871" stroke="none"/><circle cx="8.871" cy="8.871" r="12.371" fill="none"/></g></g><g transform="translate(0 91.675)" fill="none" stroke="#756f86" stroke-width="7"><circle cx="8.871" cy="8.871" r="8.871" stroke="none"/><circle cx="8.871" cy="8.871" r="12.371" fill="none"/></g><g transform="translate(91.675 0)" fill="none" stroke="#756f86" stroke-width="7"><circle cx="8.871" cy="8.871" r="8.871" stroke="none"/><circle cx="8.871" cy="8.871" r="12.371" fill="none"/></g><g transform="translate(91.675 36.369)"><g fill="none" stroke="#756f86" stroke-width="7"><circle cx="8.871" cy="8.871" r="8.871" stroke="none"/><circle cx="8.871" cy="8.871" r="12.371" fill="none"/></g></g><g transform="translate(52.349 52.632)"><g fill="none" stroke="#756f86" stroke-width="7"><circle cx="8.871" cy="8.871" r="8.871" stroke="none"/><circle cx="8.871" cy="8.871" r="12.371" fill="none"/></g></g><g transform="translate(26.914 26.904)" fill="none" stroke="#756f86" stroke-width="7"><circle cx="8.871" cy="8.871" r="8.871" stroke="none"/><circle cx="8.871" cy="8.871" r="12.371" fill="none"/></g><g transform="translate(156.435 26.904)" fill="none" stroke="#756f86" stroke-width="7"><circle cx="8.871" cy="8.871" r="8.871" stroke="none"/><circle cx="8.871" cy="8.871" r="12.371" fill="none"/></g><g transform="translate(7.1 56.482)" fill="none" stroke="#756f86" stroke-width="7"><circle cx="8.871" cy="8.871" r="8.871" stroke="none"/><circle cx="8.871" cy="8.871" r="12.371" fill="none"/></g><g transform="translate(56.483 6.799)"><g fill="none" stroke="#756f86" stroke-width="7"><circle cx="8.871" cy="8.871" r="8.871" stroke="none"/><circle cx="8.871" cy="8.871" r="12.371" fill="none"/></g></g><g transform="translate(126.866 6.799)" fill="none" stroke="#756f86" stroke-width="7"><circle cx="8.871" cy="8.871" r="8.871" stroke="none"/><circle cx="8.871" cy="8.871" r="12.371" fill="none"/></g><g transform="translate(156.435 26.904)" fill="none" stroke="#756f86" stroke-width="7"><circle cx="8.871" cy="8.871" r="8.871" stroke="none"/><circle cx="8.871" cy="8.871" r="12.371" fill="none"/></g><g transform="translate(174.477 56.482)" fill="none" stroke="#756f86" stroke-width="7"><circle cx="8.871" cy="8.871" r="8.871" stroke="none"/><circle cx="8.871" cy="8.871" r="12.371" fill="none"/></g><g transform="translate(174.477 56.482)" fill="none" stroke="#756f86" stroke-width="7"><circle cx="8.871" cy="8.871" r="8.871" stroke="none"/><circle cx="8.871" cy="8.871" r="12.371" fill="none"/></g><g transform="translate(189.091 91.675)" fill="none" stroke="#756f86" stroke-width="7"><circle cx="8.871" cy="8.871" r="8.871" stroke="none"/><circle cx="8.871" cy="8.871" r="12.371" fill="none"/></g><g transform="translate(131 52.632)"><g transform="translate(0)" fill="none" stroke="#756f86" stroke-width="7"><circle cx="8.871" cy="8.871" r="8.871" stroke="none"/><circle cx="8.871" cy="8.871" r="12.371" fill="none"/></g></g><g transform="translate(150.771 91.676)"><g transform="translate(0 0)" fill="none" stroke="#756f86" stroke-width="7"><circle cx="8.871" cy="8.871" r="8.871" stroke="none"/><circle cx="8.871" cy="8.871" r="12.371" fill="none"/></g></g></g></g></g></svg>