<svg xmlns="http://www.w3.org/2000/svg" width="349" height="349" viewBox="0 0 349 349"><g transform="translate(-18030 18523)"><rect width="349" height="349" transform="translate(18030 -18523)" fill="none"/><path d="M69.393,73.824c-4.06-11.909-.812-27.878,7.849-38.974,8.39-10.826,21.111-15.969,35.727-14.615,13.533,1.083,18.675,9.473,20.57,14.345,3.248,7.849,1.895,17.593-3.248,23.276-2.707,2.977-5.954,4.872-9.2,6.766a42.58,42.58,0,0,0-5.142,3.248,15.71,15.71,0,0,0-5.142,7.308,35.948,35.948,0,0,0-8.12-1.624,24.243,24.243,0,0,1,8.39-12.179c1.895-1.353,4.06-2.707,5.954-3.789a38.709,38.709,0,0,0,7.308-5.142c2.707-2.977,4.06-9.2,1.624-14.886-1.624-3.789-5.142-8.39-13.8-9.2C97,27,88.339,34.037,83.738,39.992c-8.12,10.014-9.473,23.276-6.766,31.125A50.106,50.106,0,0,0,81.843,81.4,26.154,26.154,0,0,0,76.7,88.439,61.482,61.482,0,0,1,69.393,73.824ZM167.641,76.8c-11.1-8.661-27.066-11.909-38.974-7.849a61.482,61.482,0,0,0-14.615,7.308,22.524,22.524,0,0,1,7.037,5.142,50.1,50.1,0,0,1,10.285-4.872c7.849-2.707,21.382-1.353,31.4,6.5,5.954,4.6,12.991,13.533,11.638,28.419-.812,8.661-5.413,12.45-9.2,13.8-5.684,2.165-11.909.812-14.886-1.624a31.562,31.562,0,0,1-5.142-7.308,44.506,44.506,0,0,0-3.789-5.954,25.457,25.457,0,0,0-12.179-8.39,21.721,21.721,0,0,1-1.624,8.12,15.71,15.71,0,0,1,7.308,5.142,42.58,42.58,0,0,1,3.248,5.142c1.895,3.248,3.789,6.5,6.766,9.2,5.684,4.872,15.427,6.225,23.276,3.248,4.872-1.895,12.991-7.037,14.345-20.57C183.61,97.912,178.467,85.191,167.641,76.8Zm-41.681,37.08a22.524,22.524,0,0,1-5.142,7.037A50.105,50.105,0,0,1,125.69,131.2c2.707,7.849,1.353,21.382-6.5,31.4-4.6,5.954-13.533,12.991-28.689,11.638-8.661-.812-12.45-5.413-13.8-9.2-2.165-5.684-.812-11.909,1.624-14.886,1.624-1.895,4.33-3.519,7.308-5.142a44.5,44.5,0,0,0,5.954-3.789,25.457,25.457,0,0,0,8.39-12.179,21.72,21.72,0,0,1-8.12-1.624,15.71,15.71,0,0,1-5.142,7.308c-1.624,1.083-3.248,2.165-5.142,3.248-3.248,1.895-6.5,3.789-9.2,6.766-4.872,5.684-6.225,15.427-3.248,23.276,1.895,4.872,7.037,12.991,20.57,14.345,1.353,0,2.977.271,4.33.271,12.721,0,23.818-5.142,31.4-14.886,8.661-11.1,11.909-27.066,7.849-38.974A58.394,58.394,0,0,0,125.96,113.881ZM88.61,125.79a22.524,22.524,0,0,1-7.037-5.142,50.1,50.1,0,0,1-10.285,4.872c-7.849,2.707-21.382,1.353-31.4-6.5-5.954-4.6-12.991-13.533-11.638-28.689.812-8.661,5.413-12.45,9.2-13.8,5.684-2.165,11.909-.812,14.886,1.624,1.895,1.624,3.519,4.33,5.142,7.308a44.505,44.505,0,0,0,3.789,5.954,25.457,25.457,0,0,0,12.18,8.39,21.72,21.72,0,0,1,1.624-8.12,15.71,15.71,0,0,1-7.308-5.142C66.687,84.921,65.6,83.3,64.521,81.4c-1.895-3.248-3.789-6.5-6.766-9.2-5.684-4.872-15.427-6.225-23.276-3.248-4.872,1.895-12.991,7.037-14.345,20.57-1.353,14.615,3.789,27.336,14.615,35.727,11.1,8.661,27.066,11.909,38.974,7.849A58.393,58.393,0,0,0,88.61,125.79Zm12.721-46.823a22.464,22.464,0,1,1-22.464,22.464A22.583,22.583,0,0,1,101.331,78.966Zm0,8.12a14.345,14.345,0,1,0,14.345,14.345A14.266,14.266,0,0,0,101.331,87.086Z" transform="translate(18097.338 -18458.107)" fill="none" stroke="#756f86" stroke-width="5"/></g></svg>