<svg xmlns="http://www.w3.org/2000/svg" width="349" height="349" viewBox="0 0 349 349"><g transform="translate(-18837 18523)"><rect width="349" height="349" transform="translate(18837 -18523)" fill="none"/><g transform="translate(17493.557 -18801.479)"><path d="M261.38,121.14H43.409A18.425,18.425,0,0,0,25,139.543V199.06a18.425,18.425,0,0,0,18.409,18.4H261.38a18.425,18.425,0,0,0,18.409-18.4V139.543A18.425,18.425,0,0,0,261.38,121.14ZM87.66,207.906v-5.929a5.046,5.046,0,0,1,5.041-5.041H212.11a5.046,5.046,0,0,1,5.041,5.041v5.929Zm182.593-8.824a8.857,8.857,0,0,1-8.824,8.824H226.708v-5.929a14.615,14.615,0,0,0-14.6-14.6H92.679a14.615,14.615,0,0,0-14.6,14.6v5.929H43.409a8.857,8.857,0,0,1-8.824-8.824V139.543a8.857,8.857,0,0,1,8.824-8.824H261.38a8.857,8.857,0,0,1,8.824,8.824Z" transform="translate(1366 289.154)" fill="none" stroke="#756f86" stroke-width="5"/><path d="M269.272,148.53H85.626a4.776,4.776,0,0,0,0,9.552H269.272a4.776,4.776,0,0,0,0-9.552Z" transform="translate(1340.951 284.939)" fill="none" stroke="#756f86" stroke-width="5"/><path d="M269.272,182.7H85.626a4.776,4.776,0,0,0,0,9.552H269.272a4.776,4.776,0,0,0,0-9.552Z" transform="translate(1340.951 269.614)" fill="none" stroke="#756f86" stroke-width="5"/></g></g></svg>