<svg xmlns="http://www.w3.org/2000/svg" width="349" height="349" viewBox="0 0 349 349"><g transform="translate(-18837 19282)"><rect width="349" height="349" transform="translate(18837 -19282)" fill="none"/><g transform="translate(18886.875 -19249.781)"><g fill="none"><path d="M8.081,91.4a3.94,3.94,0,0,0,.854,2.5c1.777,2.788,5.942,3.589,13.094,3.589h.061c1.176,0,3.764,1.1,6.316,3.624,2,1.986,5.332,6.273,5.184,13.765-.375,18.348,9.7,25.883,35.9,26.441,15.865.331,17.18,8.9,18.13,23.88.322,5.07.653,10.359,2,15.176,3.581,12.807-3.581,24.036-5.55,26.772-11.5,4.792-15.124,7.78-14.279,11.639.819,3.746,5.349,4.661,12.842,4.661,2.274,0,4.809-.078,7.606-.192l.47-.017c13.164-.523,16.535-28.305,16.274-38.368-.139-5.123,2.239-15.612,4.713-24.96a116.578,116.578,0,0,0,22.024,2.161c23.279,0,40.084-7.17,46.993-10.716,3.206,6.717,7.1,13.19,10.254,18.409,5.767,9.548,3.354,29.508,1.525,38.638-9.383,2.561-14.854,5.219-13.774,9.827,1.559,6.708,17.25,4.931,20.264,4.3,8.093-1.681,8.224-5.933,7.9-7.684-.819-4.461,4.809-20.735,9.061-30.858l.488-1.176-.383-1.211c-3.694-11.6-2.431-13.2-.148-16.1,3.11-3.938,7.266-9.252,7.179-27.992a66.855,66.855,0,0,1,3.92,9.949c4.7,16.44,7.057,19.916,10.3,19.916a6.19,6.19,0,0,0,.793-.061c3.023-.444,4.391-3.537,4.33-9.749-.418-33.036-23.148-51.985-27.129-55.06-5.419-8.181-12.876-11.334-19.811-14.262-4.217-1.777-8.2-3.459-11.465-6.2-9.9-8.311-24.725-18.077-39.117-7.048-6.743,5.166-9.54,4.861-16.988,4.016-2.291-.253-4.914-.549-8.05-.723-9.775-.54-23.008,9.914-34.648,19.149-5.123,4.06-10.925,8.668-13.042,9.235a9.22,9.22,0,0,1-7.71-1.9c-3.589-2.692-5.715-7.3-5.837-12.659-.235-10.237-3.25-15.856-5.123-18.382.47-3.546-.078-8.7-4.26-11.962-2.631-2.047-4.835-1.455-5.915-.923-2.6,1.272-3.615,4.644-3.99,7.7-3.633.523-5.794,2.5-7.475,4.025-2.065,1.873-3.319,3.023-7.431,2.239C13.4,72.7,7.985,79.644,6.7,83.451a7.409,7.409,0,0,0,.017,5.811A7.074,7.074,0,0,0,8.081,91.4Z" stroke="none"/><path d="M 46.29367065429688 69.3388671875 C 46.29165649414062 69.35490417480469 46.28965759277344 69.37106323242188 46.28765869140625 69.38728332519531 L 45.63658142089844 74.70213317871094 L 40.33659362792969 75.46475219726562 C 38.91316223144531 75.6695556640625 38.07650756835938 76.37762451171875 36.55197143554688 77.76008605957031 C 34.66905212402344 79.46824645996094 31.82359313964844 82.04963684082031 26.74880981445312 82.04963684082031 C 25.71270751953125 82.04963684082031 24.52247619628906 81.94317626953125 23.12431335449219 81.67655944824219 C 22.19012451171875 81.49874877929688 21.31581115722656 81.41278076171875 20.49996948242188 81.41270446777344 C 14.84097290039062 81.41270446777344 13.3533935546875 85.64024353027344 13.07192993164062 86.4884033203125 L 15.08085632324219 88.53128051757812 L 15.08085632324219 89.93072509765625 C 15.97854614257812 90.17097473144531 17.94599914550781 90.4862060546875 22.08981323242188 90.4862060546875 C 25.5543212890625 90.4862060546875 29.75631713867188 92.59797668457031 33.344970703125 96.14985656738281 C 36.75239562988281 99.54243469238281 40.77500915527344 105.5690155029297 40.58824157714844 115.0182800292969 C 40.37220764160156 125.5985565185547 42.37431335449219 133.7378234863281 69.63801574707031 134.3179779052734 C 92.70831298828125 134.7993621826172 93.761474609375 151.4078979492188 94.61231994628906 164.8262939453125 C 94.91146850585938 169.5323181152344 95.22080993652344 174.3985900878906 96.36692810058594 178.4875946044922 C 100.7695922851562 194.2342834472656 92.42092895507812 207.5328979492188 89.75732421875 211.2337036132812 L 88.59881591796875 212.8432922363281 L 86.76820373535156 213.6060485839844 C 84.07717895507812 214.7273254394531 82.06930541992188 215.6556091308594 80.57237243652344 216.4132080078125 C 81.18618774414062 216.4332580566406 81.87203979492188 216.4447021484375 82.63839721679688 216.4447021484375 C 84.82759094238281 216.4447021484375 87.26828002929688 216.3678283691406 90.43673706054688 216.2411346435547 C 95.57304382324219 216.0371704101562 100.3252410888672 197.9217529296875 99.9910888671875 185.0582122802734 C 99.94065856933594 183.2048950195312 99.78720092773438 177.5649719238281 104.9347839355469 158.1168212890625 L 106.6072845458984 151.7977447509766 L 113.0259399414062 153.0342864990234 C 120.032470703125 154.3840942382812 126.9969329833984 155.0684814453125 133.7257690429688 155.0684814453125 C 155.7685546875 155.0684814453125 171.6970062255859 148.1147155761719 177.5221252441406 145.1250152587891 L 183.9321594238281 141.8351287841797 L 187.0357055664062 148.33740234375 C 190.1598510742188 154.8827819824219 194.0921936035156 161.3895568847656 196.9643249511719 166.1420593261719 C 204.7255859375 178.9915466308594 200.7607421875 202.7873229980469 199.3607025146484 209.7743530273438 L 198.5112762451172 214.0134429931641 L 194.3405151367188 215.1519775390625 C 192.942626953125 215.5335693359375 191.7515411376953 215.8885192871094 190.7369384765625 216.2154541015625 C 190.8101806640625 216.2158966064453 190.8841705322266 216.2161254882812 190.9588928222656 216.2161254882812 C 193.9552459716797 216.2161254882812 196.734619140625 215.8424682617188 197.5637359619141 215.6676025390625 C 198.7139282226562 215.4286193847656 199.4381713867188 215.1606140136719 199.8686828613281 214.9581298828125 C 199.3441314697266 206.7323303222656 206.5396575927734 188.4398498535156 208.9952697753906 182.4734191894531 C 205.5783081054688 171.3674926757812 205.9303283691406 166.85107421875 210.4130859375 161.1536254882812 C 212.9739685058594 157.9112091064453 216.1610870361328 153.8759002685547 216.0851287841797 137.5330505371094 L 229.368896484375 134.4161376953125 C 232.0065460205078 139.7898254394531 233.4563903808594 144.5685119628906 233.7362823486328 145.527099609375 C 234.0823059082031 146.738525390625 234.4102172851562 147.8570861816406 234.7208862304688 148.8903198242188 C 231.0869293212891 124.7297210693359 214.6135864257812 110.8131866455078 211.0173950195312 108.0353698730469 L 210.1005096435547 107.3271636962891 L 209.460693359375 106.3612823486328 C 205.2033081054688 99.93412780761719 199.1606292724609 97.38343811035156 192.7665863037109 94.68447875976562 C 188.2611236572266 92.78547668457031 183.6023254394531 90.82182312011719 179.5186157226562 87.39151000976562 C 174.2343139648438 82.95378112792969 166.324462890625 77.05406188964844 158.6758117675781 77.05406188964844 C 155.3335571289062 77.05406188964844 152.2213134765625 78.19401550292969 149.1605072021484 80.5396728515625 C 143.5780487060547 84.81666564941406 139.298583984375 86.48301696777344 133.8972015380859 86.48301696777344 C 131.965087890625 86.48301696777344 129.8124389648438 86.25944519042969 126.8863906860352 85.92825317382812 C 124.7658157348633 85.69416809082031 122.3477783203125 85.42489624023438 119.1281280517578 85.25608825683594 C 111.8171234130859 85.25608825683594 98.95758056640625 95.458984375 89.42623901367188 103.0211639404297 C 81.12281799316406 109.6019744873047 77.15278625488281 112.5746307373047 74.00685119628906 113.4160919189453 C 72.84031677246094 113.7323303222656 71.61616516113281 113.8926696777344 70.36846923828125 113.8926696777344 C 66.89004516601562 113.8926696777344 63.30192565917969 112.6383209228516 60.26512145996094 110.3607025146484 C 54.94834899902344 106.3731384277344 51.80093383789062 99.77621459960938 51.62989807128906 92.26289367675781 C 51.43046569824219 83.58277893066406 48.94258117675781 79.31893920898438 47.8822021484375 77.88862609863281 L 46.19320678710938 75.61039733886719 L 46.56620788574219 72.79905700683594 C 46.64312744140625 72.21922302246094 46.76844787597656 70.74919128417969 46.29367065429688 69.3388671875 M 45.50605773925781 60.32530212402344 C 46.56053161621094 60.32530212402344 47.84233093261719 60.66650390625 49.24520874023438 61.75813293457031 C 53.42697143554688 65.01643371582031 53.97586059570312 70.17398071289062 53.50540161132812 73.71974182128906 C 55.37846374511719 76.24624633789062 58.39285278320312 81.86550903320312 58.6280517578125 92.10212707519531 C 58.75001525878906 97.46002197265625 60.87577819824219 102.0687103271484 64.46511840820312 104.7607116699219 C 66.31312561035156 106.1467132568359 68.42092895507812 106.8926696777344 70.36845397949219 106.8926696777344 C 70.99169921875 106.8926696777344 71.59867858886719 106.8162384033203 72.17527770996094 106.6599426269531 C 74.29228210449219 106.0936737060547 80.09451293945312 101.4850158691406 85.2171630859375 97.4251708984375 C 96.56658935546875 88.42041015625 109.4317016601562 78.25608825683594 119.1281127929688 78.25608825683594 C 119.3757476806641 78.25608825683594 119.6215209960938 78.26272583007812 119.8649291992188 78.27616882324219 C 123.0012817382812 78.45039367675781 125.6235885620117 78.74659729003906 127.9148559570312 78.99925231933594 C 130.2889709472656 79.26860046386719 132.1898498535156 79.48301696777344 133.8971862792969 79.48301696777344 C 137.5466003417969 79.48301696777344 140.3094024658203 78.50263977050781 144.9033203125 74.98301696777344 C 149.5089416503906 71.45352172851562 154.1568450927734 70.05406188964844 158.6758270263672 70.05406188964844 C 168.2783355712891 70.05406188964844 177.2904968261719 76.37940979003906 184.0203247070312 82.03102111816406 C 187.2873229980469 84.77532958984375 191.2687072753906 86.45674133300781 195.4853515625 88.23402404785156 C 202.4201202392578 91.16123962402344 209.8776245117188 94.31501770019531 215.2965087890625 102.4955902099609 C 219.2778930664062 105.5709381103516 242.0075531005859 124.5195922851562 242.4257354736328 157.5556335449219 C 242.4866943359375 163.7672882080078 241.1189727783203 166.8600463867188 238.0958862304688 167.3043518066406 C 237.8258209228516 167.3392486572266 237.5644378662109 167.3653564453125 237.3030853271484 167.3653564453125 C 234.0621948242188 167.3653564453125 231.7012329101562 163.8892517089844 227.0054626464844 147.4496765136719 C 226.9793090820312 147.3625183105469 225.6550903320312 142.7364349365234 223.0850524902344 137.5005187988281 C 223.1721649169922 156.2400970458984 219.0165100097656 161.554443359375 215.9063568115234 165.4922790527344 C 213.623779296875 168.3934020996094 212.3605499267578 169.9876708984375 216.0544281005859 181.5921020507812 L 216.437744140625 182.8031005859375 L 215.9498901367188 183.9792175292969 C 211.6984252929688 194.1026000976562 206.0704345703125 210.3766784667969 206.8893890380859 214.8372192382812 C 207.2117309570312 216.5883178710938 207.0810546875 220.8398284912109 198.9875793457031 222.521240234375 C 197.7769775390625 222.7766571044922 194.5221099853516 223.2161254882812 190.9588928222656 223.2161254882812 C 185.6498107910156 223.2161254882812 179.6565246582031 222.2403411865234 178.723388671875 218.2262115478516 C 177.6431274414062 213.6175537109375 183.1142425537109 210.9603576660156 192.4971313476562 208.3990478515625 C 194.3266296386719 199.2688293457031 196.7398529052734 179.3095550537109 190.9725036621094 169.7611694335938 C 187.8187408447266 164.5426635742188 183.9244689941406 158.0696411132812 180.7184295654297 151.3526763916016 C 173.8097839355469 154.8984832763672 157.0043182373047 162.0684814453125 133.7257690429688 162.0684814453125 C 126.9129333496094 162.0684814453125 119.5251617431641 161.4150543212891 111.7017364501953 159.9078979492188 C 109.2275085449219 169.2558898925781 106.84912109375 179.7451782226562 106.9885101318359 184.8678283691406 C 107.2498931884766 194.9302368164062 103.8783569335938 222.7129058837891 90.7144775390625 223.2356262207031 L 90.24400329589844 223.2530517578125 C 87.44743347167969 223.3663330078125 84.91227722167969 223.4447021484375 82.63839721679688 223.4447021484375 C 75.14608764648438 223.4447021484375 70.61581420898438 222.5299377441406 69.79689025878906 218.7837829589844 C 68.95181274414062 214.9243621826172 72.57600402832031 211.9361267089844 84.07589721679688 207.1445159912109 C 86.04481506347656 204.408935546875 93.20613098144531 193.1791381835938 89.62547302246094 180.3724365234375 C 88.27508544921875 175.5546722412109 87.94404602050781 170.2665100097656 87.6217041015625 165.1960906982422 C 86.67208862304688 150.2200927734375 85.35655212402344 141.6474761962891 69.49197387695312 141.3164367675781 C 43.28616333007812 140.7588195800781 33.215087890625 133.2229461669922 33.58970642089844 114.8753967285156 C 33.73777770996094 107.383056640625 30.40109252929688 103.0967407226562 28.40605163574219 101.1103973388672 C 25.8533935546875 98.58393859863281 23.26593017578125 97.4862060546875 22.08981323242188 97.4862060546875 C 22.0723876953125 97.4862060546875 22.05497741699219 97.4862060546875 22.02882385253906 97.4862060546875 C 14.87623596191406 97.4862060546875 10.71189880371094 96.68470764160156 8.93463134765625 93.89686584472656 C 8.551315307617188 93.27828979492188 8.080856323242188 92.72944641113281 8.080856323242188 91.396484375 C 7.566848754882812 90.873779296875 7.070281982421875 90.08967590332031 6.721771240234375 89.26202392578125 C 6.172927856445312 88.05105590820312 5.719894409179688 86.00370788574219 6.704360961914062 83.45109558105469 C 7.822540283203125 80.12704467773438 12.09391784667969 74.41209411621094 20.50131225585938 74.4127197265625 C 21.72319030761719 74.41281127929688 23.03379821777344 74.53363037109375 24.433349609375 74.800048828125 C 25.32785034179688 74.97061157226562 26.08697509765625 75.04963684082031 26.74879455566406 75.04963684082031 C 29.12940979003906 75.04963684082031 30.24911499023438 74.02668762207031 31.86470031738281 72.56105041503906 C 33.54612731933594 71.03648376464844 35.70674133300781 69.05882263183594 39.33963012695312 68.53608703613281 C 39.7142333984375 65.47816467285156 40.73355102539062 62.10662841796875 43.32974243164062 60.83467102050781 C 43.83403015136719 60.58660888671875 44.58290100097656 60.32530212402344 45.50605773925781 60.32530212402344 Z" stroke="none" fill="#756f86"/></g></g></g></svg>