<svg xmlns="http://www.w3.org/2000/svg" width="349" height="349" viewBox="0 0 349 349"><g transform="translate(-19653 18902)"><rect width="349" height="349" transform="translate(19653 -18902)" fill="none"/><g transform="translate(19696.99 -18857.35)"><g transform="translate(-0.251 -0.249)" fill="none"><path d="M175.081,50.97a30.783,30.783,0,0,0-30.428,26.457H64.826a8.818,8.818,0,0,0-8.816,8.816v5.169a8.825,8.825,0,0,0,2.58,6.236l52.923,52.923a8.526,8.526,0,0,0,1.828,1.216v49.128H78.059a4.408,4.408,0,1,0,0,8.816H157.44a4.408,4.408,0,1,0,0-8.816H122.158V151.788a8.748,8.748,0,0,0,1.828-1.216l40.005-40.005a30.843,30.843,0,1,0,11.09-59.6ZM117.75,144.336,86.123,112.71h63.253ZM158.2,103.893H77.3L64.826,91.413V86.244H170.673v5.169Zm16.88,0a21.983,21.983,0,0,1-4.006-.4l5.834-5.834a8.825,8.825,0,0,0,2.58-6.236V86.252a8.818,8.818,0,0,0-8.816-8.816h-17.2a22.054,22.054,0,1,1,21.6,26.457Z" stroke="none"/><path d="M 175.1508026123047 53.96987915039062 L 175.1508483886719 53.96987915039062 L 175.0863647460938 53.969970703125 C 168.4015960693359 53.98143005371094 161.9427337646484 56.40290832519531 156.8995666503906 60.788330078125 C 151.85693359375 65.17333984375 148.5625610351562 71.23226928710938 147.6233062744141 77.8489990234375 L 147.2572937011719 80.42735290527344 L 144.653076171875 80.42735290527344 L 64.82618713378906 80.42735290527344 C 61.61912536621094 80.42735290527344 59.00997924804688 83.0364990234375 59.00997924804688 86.24356079101562 L 59.00997924804688 91.41258239746094 C 59.00997924804688 92.94624328613281 59.63014221191406 94.44601440429688 60.71144104003906 95.52734375 L 113.5550231933594 148.3709259033203 C 113.8907775878906 148.654052734375 114.2650756835938 148.8982391357422 114.6688537597656 149.0974273681641 L 116.3415832519531 149.9226531982422 L 116.3415832519531 151.7878570556641 L 116.3415832519531 200.9154663085938 L 116.3415832519531 203.9154663085938 L 113.3415832519531 203.9154663085938 L 78.05926513671875 203.9154663085938 C 77.28282165527344 203.9154663085938 76.65113830566406 204.5471343994141 76.65113830566406 205.3235626220703 C 76.65113830566406 206.0999908447266 77.28282165527344 206.7316589355469 78.05926513671875 206.7316589355469 L 157.4400939941406 206.7316589355469 C 158.2165222167969 206.7316589355469 158.8482055664062 206.0999908447266 158.8482055664062 205.3235626220703 C 158.8482055664062 204.5471343994141 158.2165222167969 203.9154663085938 157.4400939941406 203.9154663085938 L 122.1577758789062 203.9154663085938 L 119.1577758789062 203.9154663085938 L 119.1577758789062 200.9154663085938 L 119.1577758789062 151.7878570556641 L 119.1577758789062 149.9226531982422 L 120.8305053710938 149.0974273681641 C 121.2198944091797 148.9053497314453 121.5968780517578 148.6584777832031 121.9523162841797 148.3629302978516 L 161.8697204589844 108.4455261230469 L 163.2508544921875 107.0643615722656 L 165.0727233886719 107.7686309814453 C 168.30078125 109.0164947509766 171.6753540039062 109.6492004394531 175.1026916503906 109.6492004394531 C 177.8677368164062 109.6492004394531 180.6161499023438 109.2354278564453 183.2715148925781 108.4193878173828 C 185.9046936035156 107.6101531982422 188.3978881835938 106.4206848144531 190.6818695068359 104.8840179443359 C 195.4185333251953 101.6971588134766 199.0158386230469 97.18751525878906 201.0849304199219 91.8426513671875 C 202.4419250488281 88.33726501464844 203.0711364746094 84.67245483398438 202.9551391601562 80.94999694824219 C 202.8430786132812 77.35317993164062 202.0440979003906 73.85179138183594 200.5804138183594 70.54310607910156 C 199.1168212890625 67.23464965820312 197.0631713867188 64.28726196289062 194.4764862060547 61.78286743164062 C 191.8016967773438 59.19314575195312 188.6688079833984 57.1917724609375 185.1652526855469 55.83442687988281 C 181.9366149902344 54.59721374511719 178.5673522949219 53.96992492675781 175.1508026123047 53.96987915039062 M 175.0812377929688 106.8934478759766 L 175.0715026855469 106.8934478759766 L 175.0617980957031 106.8933868408203 C 173.5666809082031 106.8836975097656 172.03515625 106.7302703857422 170.5097045898438 106.4373168945312 L 164.9535980224609 105.3703765869141 L 168.9541473388672 101.3698425292969 L 174.7879028320312 95.53608703613281 C 175.8692016601562 94.45478820800781 176.4893493652344 92.95501708984375 176.4893493652344 91.42134094238281 L 176.4893493652344 86.2523193359375 C 176.4893493652344 83.04524230957031 173.8801879882812 80.43611145019531 170.6731262207031 80.43611145019531 L 153.47802734375 80.43611145019531 L 149.8049163818359 80.43611145019531 L 150.5384521484375 76.83699035644531 C 151.1294403076172 73.93736267089844 152.2101135253906 71.19976806640625 153.7505187988281 68.70024108886719 C 155.2387390136719 66.28533935546875 157.1168518066406 64.15345764160156 159.3326721191406 62.36383056640625 C 163.7831115722656 58.76947021484375 169.3681335449219 56.78994750976562 175.0589599609375 56.78994750976562 C 176.7415161132812 56.78994750976562 178.4371337890625 56.962158203125 180.0971984863281 57.30145263671875 C 183.4091491699219 57.97645568847656 186.4913482666016 59.28135681152344 189.2582092285156 61.17988586425781 C 191.9294738769531 63.01278686523438 194.1933746337891 65.31802368164062 195.9870758056641 68.03153991699219 C 197.7809753417969 70.74542236328125 199.014892578125 73.73208618164062 199.654541015625 76.90853881835938 C 200.3171691894531 80.19935607910156 200.3097534179688 83.54811096191406 199.63232421875 86.86241149902344 C 199.0471496582031 89.72247314453125 197.9808654785156 92.43016052246094 196.4631195068359 94.91024780273438 C 194.9863739013672 97.32331848144531 193.1233825683594 99.45597839355469 190.9259033203125 101.2489471435547 C 188.7283477783203 103.0419769287109 186.2649383544922 104.4392852783203 183.6040954589844 105.4021148681641 C 180.8692779541016 106.3917083740234 178.0017700195312 106.8934478759766 175.0812377929688 106.8934478759766 M 159.4442596435547 106.8934478759766 L 158.2010192871094 106.8934478759766 L 77.29832458496094 106.8934478759766 L 76.05508422851562 106.8934478759766 L 75.17625427246094 106.0140228271484 L 62.70411682128906 93.53315734863281 L 61.82618713378906 92.65461730957031 L 61.82618713378906 91.41258239746094 L 61.82618713378906 86.24356079101562 L 61.82618713378906 83.24356079101562 L 64.82618713378906 83.24356079101562 L 170.6731262207031 83.24356079101562 L 173.6731262207031 83.24356079101562 L 173.6731262207031 86.24356079101562 L 173.6731262207031 91.41258239746094 L 173.6731262207031 92.65461730957031 L 172.7951965332031 93.53315734863281 L 160.3230743408203 106.0140228271484 L 159.4442596435547 106.8934478759766 M 117.7496643066406 148.5787048339844 L 115.6283569335938 146.4573822021484 L 84.00196838378906 114.8309936523438 L 78.88064575195312 109.7096710205078 L 86.12327575683594 109.7096710205078 L 149.3760681152344 109.7096710205078 L 156.6187133789062 109.7096710205078 L 151.4974060058594 114.8309936523438 L 119.8709869384766 146.4573822021484 L 117.7496643066406 148.5787048339844 M 175.1508636474609 50.96989440917969 C 178.9406433105469 50.96992492675781 182.7034606933594 51.67800903320312 186.241455078125 53.03410339355469 C 202.1246185302734 59.18269348144531 210.0312194824219 77.04252624511719 203.8826293945312 92.92567443847656 C 199.1488189697266 105.1540832519531 187.4734802246094 112.6492004394531 175.1026916503906 112.6492004394531 C 171.4053802490234 112.6492004394531 167.6457824707031 111.9796295166016 163.9910278320312 110.5668334960938 L 123.9857635498047 150.5721435546875 C 123.4259796142578 151.0531768798828 122.8137512207031 151.4642486572266 122.1577758789062 151.7878570556641 L 122.1577758789062 200.9154663085938 L 157.4400939941406 200.9154663085938 C 159.8715515136719 200.9154663085938 161.8482055664062 202.8921051025391 161.8482055664062 205.3235626220703 C 161.8482055664062 207.7550201416016 159.8715515136719 209.7316589355469 157.4400939941406 209.7316589355469 L 78.05926513671875 209.7316589355469 C 75.6278076171875 209.7316589355469 73.65113830566406 207.7550201416016 73.65113830566406 205.3235626220703 C 73.65113830566406 202.8921051025391 75.6278076171875 200.9154663085938 78.05926513671875 200.9154663085938 L 113.3415832519531 200.9154663085938 L 113.3415832519531 151.7878570556641 C 112.6855926513672 151.4642486572266 112.0646209716797 151.0531768798828 111.5135955810547 150.5721435546875 L 58.59011840820312 97.64865112304688 C 56.93710327148438 95.99560546875 56.00997924804688 93.74783325195312 56.00997924804688 91.41258239746094 L 56.00997924804688 86.24356079101562 C 56.00997924804688 81.38063049316406 59.95452880859375 77.42735290527344 64.82618713378906 77.42735290527344 L 144.653076171875 77.42735290527344 C 146.8046569824219 62.27012634277344 159.7666015625 50.99623107910156 175.0812377929688 50.969970703125 C 175.1045074462891 50.96992492675781 175.1275939941406 50.96989440917969 175.1508636474609 50.96989440917969 Z M 175.0812377929688 103.8934478759766 C 185.5592651367188 103.8934478759766 194.5941162109375 96.5203857421875 196.6932067871094 86.26106262207031 C 199.1333923339844 74.32244873046875 191.4279479980469 62.67245483398438 179.4980773925781 60.24101257324219 C 178.0079345703125 59.93644714355469 176.5227508544922 59.78994750976562 175.0589599609375 59.78994750976562 C 164.7953186035156 59.78994750976562 155.6060028076172 66.99530029296875 153.47802734375 77.43611145019531 L 170.6731262207031 77.43611145019531 C 175.5360412597656 77.43611145019531 179.4893493652344 81.38067626953125 179.4893493652344 86.2523193359375 L 179.4893493652344 91.42134094238281 C 179.4893493652344 93.756591796875 178.562255859375 96.00436401367188 176.9092102050781 97.65740966796875 L 171.0754699707031 103.4911499023438 C 172.3961486816406 103.7447662353516 173.7343444824219 103.8847198486328 175.0812377929688 103.8934478759766 Z M 158.2010192871094 103.8934478759766 L 170.6731262207031 91.41258239746094 L 170.6731262207031 86.24356079101562 L 64.82618713378906 86.24356079101562 L 64.82618713378906 91.41258239746094 L 77.29832458496094 103.8934478759766 L 158.2010192871094 103.8934478759766 Z M 86.12327575683594 112.7096710205078 L 117.7496643066406 144.3360595703125 L 149.3760681152344 112.7096710205078 L 86.12327575683594 112.7096710205078 Z" stroke="none" fill="#756f86"/></g><g fill="none"><path d="M157.189,211.24H77.809a6.157,6.157,0,1,1,0-12.315h33.533V152.57a9.515,9.515,0,0,1-1.224-.918l-.087-.079L57.106,98.65a10.513,10.513,0,0,1-3.1-7.478V86A10.578,10.578,0,0,1,64.575,75.437h78.349A32.7,32.7,0,0,1,174.83,48.98h.035a32.591,32.591,0,1,1-10.67,63.384l-39.306,39.3a10.323,10.323,0,0,1-1.224.91v46.355H157.2a6.157,6.157,0,1,1-.009,12.315Zm-79.381-8.825a2.659,2.659,0,1,0,0,5.318h79.381a2.659,2.659,0,1,0,0-5.318H120.158V150.454l.98-.481a6.536,6.536,0,0,0,1.408-.927l40.766-40.766,1.058.411a29.094,29.094,0,1,0,10.5-56.23h-.026a29.184,29.184,0,0,0-28.7,24.962l-.21,1.5H64.575a7.075,7.075,0,0,0-7.067,7.067v5.169a7.026,7.026,0,0,0,2.073,5l52.88,52.88a6.878,6.878,0,0,0,1.408.927l.98.481v51.961Zm39.69-55.853L81.648,110.711h71.7ZM90.1,114.209l27.4,27.4,27.4-27.4Zm84.734-8.816h-.017a23.809,23.809,0,0,1-4.321-.437l-3.227-.63,8.16-8.151a7.026,7.026,0,0,0,2.073-5V86a7.075,7.075,0,0,0-7.067-7.067H151.084l.429-2.1a23.8,23.8,0,1,1,23.317,28.556Zm-.184-3.507h.192a20.3,20.3,0,1,0-19.355-26.457h14.939a10.578,10.578,0,0,1,10.565,10.565v5.169a10.528,10.528,0,0,1-3.1,7.478Zm-15.971,3.507H76.322l-13.5-13.5V84.245H172.172v7.644Zm-80.9-3.5h79.451l11.449-11.449V87.752H66.325v2.694Z" stroke="none"/><path d="M 157.1893310546875 211.2401733398438 L 77.80850982666016 211.2401733398438 C 74.41497039794922 211.2401733398438 71.65114593505859 208.4763488769531 71.65114593505859 205.0828247070312 C 71.65114593505859 201.6892852783203 74.41497039794922 198.9254913330078 77.80850982666016 198.9254913330078 L 111.3415603637695 198.9254913330078 L 111.3415603637695 152.5704193115234 C 110.9130096435547 152.2992858886719 110.5019226074219 151.9931640625 110.1171035766602 151.6520843505859 L 110.0296249389648 151.5733489990234 L 57.10617065429688 98.64989471435547 C 55.11203384399414 96.65576171875 54.00999069213867 93.99689483642578 54.00999069213867 91.171875 L 54.00999069213867 86.00283050537109 C 54.00999069213867 80.17782592773438 58.75046539306641 75.43737030029297 64.57544708251953 75.43737030029297 L 142.9242095947266 75.43737030029297 C 145.8104858398438 60.27139663696289 159.2622222900391 49.00625991821289 174.8304901123047 48.98000717163086 C 174.8392333984375 48.98000717163086 174.8567352294922 48.98000717163086 174.8654937744141 48.98000717163086 C 178.8974914550781 48.98000717163086 182.8595275878906 49.71469116210938 186.6204223632812 51.17532730102539 C 194.7369232177734 54.31521224975586 201.1479187011719 60.42882537841797 204.6726531982422 68.38791656494141 C 208.1973724365234 76.34698486328125 208.4072875976562 85.20691680908203 205.2673797607422 93.32344055175781 C 200.2759094238281 106.2323913574219 187.9083251953125 114.1608352661133 174.82861328125 114.1609115600586 C 171.2922058105469 114.1609344482422 167.7039184570312 113.5813827514648 164.1950836181641 112.3639831542969 L 124.8894882202148 151.6607971191406 C 124.5046463012695 151.9931640625 124.0935821533203 152.2992858886719 123.6650085449219 152.5703887939453 L 123.6650085449219 198.9254608154297 L 157.1980743408203 198.9254608154297 C 160.5916290283203 198.9254608154297 163.3554229736328 201.6892852783203 163.3554229736328 205.0828094482422 C 163.3554229736328 208.4763336181641 160.5916290283203 211.2401733398438 157.1893310546875 211.2401733398438 Z M 77.80850982666016 202.4152374267578 C 76.33912658691406 202.4152374267578 75.14965057373047 203.6047058105469 75.14965057373047 205.0740814208984 C 75.14965057373047 206.5434417724609 76.33912658691406 207.7329254150391 77.80850982666016 207.7329254150391 L 157.1893463134766 207.7329254150391 C 158.6587219238281 207.7329254150391 159.8482208251953 206.5434417724609 159.8482208251953 205.0740814208984 C 159.8482208251953 203.6047058105469 158.6587219238281 202.4152374267578 157.1893463134766 202.4152374267578 L 120.1577835083008 202.4152374267578 L 120.1577835083008 150.4538269042969 L 121.1373748779297 149.9727783203125 C 121.644645690918 149.7278900146484 122.116943359375 149.4130249023438 122.5455093383789 149.0456848144531 L 163.3117218017578 108.2794876098633 L 164.3700103759766 108.6905517578125 C 167.8070678710938 110.0183715820312 171.3471527099609 110.6479644775391 174.8280029296875 110.6479644775391 C 186.5026702880859 110.6479644775391 197.5361480712891 103.5742340087891 201.996337890625 92.04646301269531 C 204.7951202392578 84.79585266113281 204.6114501953125 76.89798736572266 201.4715423583984 69.78730773925781 C 198.3316497802734 62.67662048339844 192.6028594970703 57.22771453857422 185.3609924316406 54.420166015625 C 182.0024261474609 53.11698532104492 178.4689483642578 52.46100997924805 174.8654937744141 52.46100997924805 C 174.8567657470703 52.46100997924805 174.8480072021484 52.46100997924805 174.8392639160156 52.46100997924805 C 160.4954376220703 52.48723602294922 148.1544952392578 63.2188720703125 146.1428833007812 77.42276000976562 L 145.9329376220703 78.9271240234375 L 64.57544708251953 78.9271240234375 C 60.67462539672852 78.9271240234375 57.50848770141602 82.10200500488281 57.50848770141602 85.99407958984375 L 57.50848770141602 91.16310119628906 C 57.50848770141602 93.05230712890625 58.24317169189453 94.82778167724609 59.58135223388672 96.16596221923828 L 112.4610824584961 149.0456848144531 C 112.8896484375 149.4130249023438 113.361946105957 149.7191619873047 113.8692398071289 149.9728088378906 L 114.8488082885742 150.4538421630859 L 114.8488082885742 202.4152374267578 L 77.80850982666016 202.4152374267578 Z M 117.4989242553711 146.5617523193359 L 81.64810180664062 110.7109375 L 153.3497467041016 110.7109375 L 117.4989242553711 146.5617523193359 Z M 90.09696960449219 114.2094192504883 L 117.4989242553711 141.6113739013672 L 144.90087890625 114.2094192504883 L 90.09696960449219 114.2094192504883 Z M 174.8304901123047 105.3932342529297 L 174.8130187988281 105.3932342529297 C 173.3611297607422 105.375732421875 171.9092407226562 105.2358016967773 170.4923553466797 104.9559173583984 L 167.2649841308594 104.3261871337891 L 175.4252471923828 96.17469024658203 C 176.763427734375 94.83650970458984 177.4981079101562 93.06103515625 177.4981079101562 91.17185211181641 L 177.4981079101562 86.00283050537109 C 177.4981079101562 82.10200500488281 174.3231964111328 78.93587493896484 170.4311218261719 78.93587493896484 L 151.08447265625 78.93587493896484 L 151.5130615234375 76.83676147460938 C 153.810546875 65.57907867431641 163.7543487548828 57.79404449462891 174.8233642578125 57.79404449462891 C 176.3958282470703 57.79404449462891 177.9891967773438 57.95087432861328 179.5884704589844 58.27725982666016 C 185.8157653808594 59.54544067382812 191.1772155761719 63.1663932800293 194.6844482421875 68.47534942626953 C 198.1916961669922 73.7843017578125 199.4161682128906 80.13410186767578 198.1479644775391 86.36139678955078 C 195.9001922607422 97.38166809082031 186.0956726074219 105.3932342529297 174.8304901123047 105.3932342529297 Z M 174.8232879638672 61.28507995605469 C 166.0841674804688 61.28507995605469 158.168212890625 66.96597290039062 155.4838256835938 75.42861938476562 L 170.4223937988281 75.42861938476562 C 176.2474060058594 75.42861938476562 180.9878540039062 80.16907501220703 180.9878540039062 85.99407958984375 L 180.9878540039062 91.16310119628906 C 180.9878540039062 93.98814392089844 179.8858337402344 96.63825988769531 177.8916931152344 98.64114379882812 L 174.6468353271484 101.885986328125 C 174.7080841064453 101.885986328125 174.7780151367188 101.885986328125 174.8392333984375 101.885986328125 C 184.4425964355469 101.885986328125 192.8040313720703 95.05516815185547 194.7194366455078 85.64423370361328 C 195.8039855957031 80.32650756835938 194.7544250488281 74.91259765625 191.7632141113281 70.39078521728516 C 188.7720184326172 65.86898803710938 184.1977233886719 62.78157806396484 178.8887634277344 61.6970329284668 C 177.5254821777344 61.41902160644531 176.1638488769531 61.28507995605469 174.8232879638672 61.28507995605469 Z M 158.6761932373047 105.3932342529297 L 76.32164764404297 105.3932342529297 L 62.82619476318359 91.88903045654297 L 62.82619476318359 84.24482727050781 L 172.171630859375 84.24482727050781 L 172.171630859375 91.88903045654297 L 158.6761932373047 105.3932342529297 Z M 66.32469177246094 87.75205230712891 L 66.32469177246094 90.44591522216797 L 77.77353668212891 101.8947372436523 L 157.2243347167969 101.8947372436523 L 168.6731414794922 90.44591522216797 L 168.6731414794922 87.75205230712891 L 66.32469177246094 87.75205230712891 Z" stroke="none" fill="#756f86"/></g></g></g></svg>