<svg xmlns="http://www.w3.org/2000/svg" width="349" height="349" viewBox="0 0 349 349"><g transform="translate(-17257 18523)"><rect width="349" height="349" transform="translate(17257 -18523)" fill="none"/><path d="M113.255,9H50.813A28.423,28.423,0,0,0,23,37.882V150.654c0,14.714,10.932,26.848,24.05,28.27v9.358H66.729v-8.745H97.338v8.745h19.677v-9.358c13.118-1.443,24.05-13.577,24.05-28.27V37.882A28.423,28.423,0,0,0,113.255,9Zm0,4.373a24.05,24.05,0,0,1,23.438,24.509V78.963H33.934v-58.2a24.531,24.531,0,0,1,16.879-7.39ZM29.561,26.6V78.963H27.375V37.882C27.375,33.815,27.375,29.967,29.561,26.6ZM27.375,83.336h2.186v78.6c-2.186-3.367-2.186-7.215-2.186-11.282ZM62.357,183.909H51.425v-4.373H62.357Zm50.286,0H101.711v-4.373h10.932Zm.612-8.745H50.813a24.531,24.531,0,0,1-16.879-7.39V83.336H136.693v67.318a24.05,24.05,0,0,1-23.438,24.509ZM132.32,33.05H119.2V74.591H132.32Zm-4.373,37.168h-4.373v-32.8h4.373Zm4.373,17.491H119.2v54.659H132.32ZM127.947,138h-4.373V92.082h4.373Z" transform="translate(17349.922 -18447.086)" fill="#756f86" stroke="#756f86" stroke-width="3"/></g></svg>