<svg xmlns="http://www.w3.org/2000/svg" width="349" height="349" viewBox="0 0 349 349"><g transform="translate(-17644 18523)"><rect width="349" height="349" transform="translate(17644 -18523)" fill="none"/><g transform="translate(17728.908 -18438.086)"><path d="M178.21,99.888l-34.427-70.42a25.207,25.207,0,0,0-15.061-12.931l-7.321-2.29-5-12.5A2.876,2.876,0,0,0,113.808,0H64.659A2.929,2.929,0,0,0,62.07,1.751l-5,12.5-7.319,2.29A25.205,25.205,0,0,0,34.685,29.469L.258,99.888a2.961,2.961,0,0,0,.844,3.468l20.223,14.993a2.793,2.793,0,0,0,1.662.548,2.87,2.87,0,0,0,.661-.079,2.789,2.789,0,0,0,1.845-1.484L44.6,78.241v5.919a21.681,21.681,0,0,0,3,11.01,11.121,11.121,0,0,0,0,21.652,21.681,21.681,0,0,0-3,11.009v47.9a2.789,2.789,0,1,0,5.579,0v-47.9a16.133,16.133,0,0,1,4-10.678h4.371v30.683a2.789,2.789,0,0,0,2.789,2.789H75.287a2.789,2.789,0,0,0,2.789-2.789V133.889H89.234a2.789,2.789,0,0,0,2.789-2.789V117.153h8.368V175.73a2.789,2.789,0,1,0,5.579,0V117.153h5.579V175.73a2.789,2.789,0,1,0,5.579,0V117.153h7.16a16.133,16.133,0,0,1,4,10.678v47.9a2.789,2.789,0,1,0,5.579,0v-47.9a21.681,21.681,0,0,0-3-11.01,11.121,11.121,0,0,0,0-21.652,21.681,21.681,0,0,0,3-11.01V78.241l19.112,39.092a2.789,2.789,0,0,0,1.845,1.484,2.869,2.869,0,0,0,.661.079,2.793,2.793,0,0,0,1.662-.548l20.223-14.993A2.939,2.939,0,0,0,178.21,99.888Zm-64.722-90.4,2.753,6.873L95.51,56.484,92.371,50.4ZM76.436,19.526h25.595l-12.8,24.8Zm28.474-5.579H73.557L69.238,5.579h39.99ZM64.979,9.493c25.884,50.151,37.336,72.343,44.052,85.345h-6.3c-28.761-55.715,3.631,6.963-40.506-78.472ZM44.887,64.959l-22.933,46.91L6.289,100.255,39.7,31.92A19.612,19.612,0,0,1,51.412,21.86l6.347-1.986c42.652,82.558,12.393,24.01,38.694,74.964H54.2a16.127,16.127,0,0,1-4.02-10.678V66.184a2.789,2.789,0,0,0-5.3-1.226Zm5.3,46.615a5.579,5.579,0,0,1,0-11.157h8.368v11.157ZM72.5,145.047H64.129v-44.63H72.5ZM86.444,128.31H78.076V117.153h8.368ZM133.863,106a5.585,5.585,0,0,1-5.579,5.579H78.076V100.417h50.208A5.585,5.585,0,0,1,133.863,106Zm22.65,5.873L133.58,64.959a2.791,2.791,0,0,0-5.3,1.234V84.16a16.127,16.127,0,0,1-4.02,10.678h-8.954c-3.646-7.056-10.69-20.7-16.662-32.273l22.058-42.692,6.35,1.986a19.614,19.614,0,0,1,11.715,10.06l33.406,68.335Z" transform="translate(-0.014)" fill="#756f86"/></g></g></svg>