<svg xmlns="http://www.w3.org/2000/svg" width="349" height="349" viewBox="0 0 349 349"><g transform="translate(-17257 19282)"><rect width="349" height="349" transform="translate(17257 -19282)" fill="none"/><g transform="translate(17339.766 -19210.223)"><path d="M96.731,21.575q36.978,0,73.953.006c12.472.013,17.689,4.95,17.7,16.726.02,30.087-.128,60.178.128,90.262.057,6.706-2.744,11.512-8.888,13.536-9.379,3.091-19,6.125-28.777,7.4-32.731,4.26-65.623,4.071-98.471,1.006-12.812-1.194-25.485-3.283-37.185-8.906-6.97-3.35-10.655-8.079-10.554-16.075.363-29.324.131-58.658.2-87.988.024-9.947,6.1-15.839,16.517-15.88,25.126-.093,50.255-.029,75.381-.029Zm76.389,15.031H20.644v86.621H173.119Z" transform="translate(-4.629 53.175)" fill="none" stroke="#756f86" stroke-width="7"/><path d="M135.922,7.094c-.334-2.273-2.793-5.285-4.722-5.721-1.514-.336-3.861,2.487-5.381,4.387-1.556,1.94-2.263,4.8-3.851,6.682-7.3,8.667-14.812,17.093-22.163,25.7-1.527,1.785-2.874,3.77-4.179,5.647C90.258,37.212,82.672,33.106,74.25,33.106a27.463,27.463,0,0,0-20.733,9.9c-9.7-11.121-19.222-22-28.653-32.975C24,9.031,24.041,7.009,23.189,5.974c-1.54-1.87-3.478-4.69-5.175-4.624-1.713.067-4.053,2.824-4.825,5C12.1,9.434,13.768,12,16.545,13.337c1.488.713,3.214,1.253,4.307,2.487Q35.018,31.8,48.892,48.118a3.1,3.1,0,0,1,.479.88A38.142,38.142,0,0,0,44.787,66.96H103.7a38.185,38.185,0,0,0-4.478-17.781,8.168,8.168,0,0,1,1.273-1.807c8.936-10,17.628-20.287,26.532-30.321,1.427-1.608,3.735-2.173,5.188-3.762C133.829,11.529,136.189,8.9,135.922,7.094Z" transform="translate(17.542 -1.346)" fill="none" stroke="#756f86" stroke-width="7"/><g transform="translate(59.506 100.429)"><path d="M57.476,50.88h-4.37c-1.237-10.493-7.126-16.472-17.725-17.7V28.916C46.836,28.313,56.948,38.331,57.476,50.88Z" transform="translate(7.39 -28.89)" fill="none" stroke="#756f86" stroke-width="3"/><path d="M48.476,44.787H44.2c-.647-5.123-3.536-8.075-8.816-8.781v-4.2C42.157,30.967,48.876,37.568,48.476,44.787Z" transform="translate(7.964 -23.267)" fill="none" stroke="#756f86" stroke-width="3"/><path d="M56.008,38.527a.51.51,0,0,1,0,.1c-.047.453-.515.756-.853,1a10.894,10.894,0,0,1-1.359.787,7.364,7.364,0,0,1-3.321.9,6.531,6.531,0,0,1-2.9-1.143,24.979,24.979,0,0,0-2.549-1.115,15.858,15.858,0,0,0-5.582-1.14c-4.28-.013-6.26,2.833-5.8,6.751.722,6.145,3.992,11.093,7.654,15.782A59.545,59.545,0,0,0,55.6,73.671a29.875,29.875,0,0,0,10.84,4.761,9.471,9.471,0,0,0,3.421.053,5,5,0,0,0,4.373-5.026c.144-3.355-1.006-6.317-2.421-9.231-.372-.762-.815-1.49-1.2-2.246-.878-1.74-.141-3.358.64-4.811,1.253-2.334,1.371-2.693,3.046-.137a46.3,46.3,0,0,1,5.382,10.99A20.551,20.551,0,0,1,80.8,76.841a11,11,0,0,1-4.979,7.935A31.851,31.851,0,0,1,66.3,89.349a34.533,34.533,0,0,1-15.351.993,32.962,32.962,0,0,1-14.829-6.554A41.267,41.267,0,0,1,24.244,69.775a46.415,46.415,0,0,1-2.808-8.16,25.691,25.691,0,0,1-.322-10.462,38.8,38.8,0,0,1,2.512-8.406,25.482,25.482,0,0,1,5.117-8.022c2.483-2.774,5.71-3.533,9.237-3.336A30.333,30.333,0,0,1,50.663,35.3c.918.494,1.824,1.009,2.727,1.531.706.406,1.437.768,2.134,1.19C55.765,38.174,55.993,38.255,56.008,38.527Z" transform="translate(-20.736 -27.174)" fill="none" stroke="#756f86" stroke-width="4"/><path d="M42.621,56.614c.341-2.53.722-5.054.99-7.591.053-.49-.328-1.028-.512-1.54-.012-.031-.069-.044-.087-.075C41,44.287,38.073,45.974,35.477,46a49.7,49.7,0,0,1-5.4.175c-1.056-.106-1.621-1.275-1.771-2.368a2.654,2.654,0,0,1,1.281-2.693,4.349,4.349,0,0,1,1.753-.534c2.846-.366,5.7-.662,8.544-1.04a1.421,1.421,0,0,0,.8-.678,8.791,8.791,0,0,1,3.655-3.608,7.127,7.127,0,1,1,5.9,12.977,1.291,1.291,0,0,0-.822,1.228q-.45,4.348-.981,8.691a2.968,2.968,0,0,1-3.249,2.593,2.855,2.855,0,0,1-2.5-2.927c-.006-.4,0-.79,0-1.187C42.662,56.62,42.64,56.617,42.621,56.614Z" transform="translate(-5.59 -18.883)" fill="none" stroke="#756f86" stroke-width="4"/></g></g></g></svg>