<svg width="874" height="198" xmlns="http://www.w3.org/2000/svg">
 <style type="text/css">.st0{fill:#007EF5;}
	.st1{fill:#0E58A0;}</style>

 <g>
  <title>background</title>
  <rect fill="none" id="canvas_background" height="200" width="876" y="-1" x="-1"/>
 </g>
 <g>
  <title>Layer 1</title>
  <g id="svg_1">
   <g id="svg_2">
    <path id="svg_3" d="m346.07,31.85c-36.58,-36.58 -96.09,-36.58 -132.67,0l-65.95,65.95c0,0 0,0 0,0l-14.19,14.19l-9.92,9.92c-12.76,12.76 -33.48,12.81 -46.24,0.05c-12.71,-12.71 -12.71,-33.48 0.05,-46.24c12.71,-12.71 33.42,-12.76 46.18,0l6.77,6.77l43.24,-43.24l-6.77,-6.77c-36.58,-36.58 -96.09,-36.58 -132.67,0c-36.58,36.58 -36.58,96.09 0,132.67c36.58,36.58 96.09,36.58 132.67,0l65.95,-65.95c0,0 0,0 0,0l14.19,-14.19l9.92,-9.92c12.76,-12.76 33.48,-12.81 46.24,-0.05c12.71,12.71 12.71,33.48 -0.05,46.24c-12.71,12.71 -33.42,12.76 -46.18,0l-6.77,-6.77l-43.24,43.24l6.77,6.77c36.58,36.58 96.09,36.58 132.67,0s36.58,-96.09 0,-132.67z" class="st0"/>
   </g>
   <polygon id="svg_4" points="398.1300048828125,197.58001708984375 398.1300048828125,197.58001708984375 398.1300048828125,197.58001708984375 " class="st0"/>
   <path id="svg_5" d="m495.93,64.95c-10.82,-9.58 -26.53,-14.44 -46.69,-14.44c-11.39,0 -22.1,2.29 -31.82,6.8c-9.8,4.55 -18.05,11.12 -24.53,19.52l-3.3,4.28l28.28,22.22c-0.7,0.28 -1.39,0.57 -2.07,0.88c-8.47,3.78 -15.26,9.3 -20.17,16.39c-4.98,7.19 -7.5,15.56 -7.5,24.88c0,13.96 4.83,25.45 14.36,34.15c9.39,8.58 21.45,12.92 35.86,12.92c8.73,0 16.6,-1.75 23.39,-5.19c3.15,-1.59 6.04,-3.43 8.65,-5.48l0,6.8l42.13,0l0,-81.43c0.01,-18.31 -5.58,-32.54 -16.59,-42.3zm-45.96,67.62c6.97,0 13.75,1.29 20.21,3.84c-0.65,5.06 -2.78,9.51 -6.45,13.5c-4.36,4.75 -10.21,7.06 -17.87,7.06c-5.21,0 -9.12,-1.12 -11.62,-3.34c-2.38,-2.11 -3.48,-4.69 -3.48,-8.13c-0.01,-6.39 2.27,-12.93 19.21,-12.93zm-16.58,-42.06c4.62,-2.28 9.47,-3.43 14.4,-3.43c7.21,0 12.92,1.7 16.97,5.04c3.24,2.68 5.02,5.86 5.51,9.9c-7.98,-2.23 -17.05,-3.35 -27.07,-3.35c-8.62,0 -16.7,1.41 -24.08,4.19l2.66,-3.27c3.03,-3.72 6.93,-6.78 11.61,-9.08z" class="st0"/>
   <path id="svg_6" d="m591.89,50.26c2.19,-2.08 5.16,-3.1 9.07,-3.1c2.55,0 4.79,0.26 6.65,0.77c2.1,0.58 4.61,1.48 7.45,2.67l7.57,3.18l0,-43.2l-3.83,-1.2c-6.16,-1.93 -13.47,-2.91 -21.72,-2.91c-14.94,0 -27.28,4.54 -36.67,13.48c-9.47,9.02 -14.28,21.46 -14.28,36.98l0,1.32l-22.02,0l0,38.02l22.02,0l0,96.3l42.62,0l0,-96.3l30.25,0l0,-38.02l-30.24,0c0.11,-3.48 1.14,-6.1 3.13,-7.99z" class="st0"/>
   <path id="svg_7" d="m738.88,64.95c-10.82,-9.58 -26.53,-14.44 -46.69,-14.44c-11.39,0 -22.1,2.29 -31.82,6.8c-9.8,4.55 -18.05,11.12 -24.52,19.52l-3.3,4.28l28.28,22.22c-0.7,0.28 -1.39,0.57 -2.07,0.88c-8.47,3.78 -15.26,9.3 -20.17,16.4c-4.98,7.19 -7.5,15.56 -7.5,24.88c0,13.96 4.83,25.46 14.36,34.15c9.39,8.57 21.45,12.92 35.86,12.92c8.73,0 16.6,-1.75 23.39,-5.19c3.15,-1.59 6.04,-3.42 8.65,-5.48l0,6.8l42.13,0l0,-81.43c0,-18.31 -5.59,-32.55 -16.6,-42.31zm-45.96,67.62c6.96,0 13.75,1.29 20.21,3.84c-0.65,5.06 -2.78,9.51 -6.45,13.51c-4.37,4.75 -10.21,7.06 -17.88,7.06c-5.21,0 -9.12,-1.12 -11.62,-3.34c-2.38,-2.11 -3.48,-4.69 -3.48,-8.13c0,-6.4 2.28,-12.94 19.22,-12.94zm-16.58,-42.06c4.62,-2.28 9.47,-3.43 14.41,-3.43c7.21,0 12.91,1.7 16.97,5.04c3.24,2.68 5.02,5.86 5.5,9.9c-7.98,-2.23 -17.04,-3.35 -27.07,-3.35c-8.62,0 -16.7,1.41 -24.07,4.19l2.66,-3.27c3.02,-3.72 6.92,-6.77 11.6,-9.08z" class="st0"/>
   <path id="svg_8" d="m863.97,57.65c-5.28,-2 -11.14,-3.02 -17.42,-3.02c-8.69,0 -16.78,2.17 -24.06,6.44c-2.96,1.74 -5.63,3.69 -7.99,5.84l0,-8.65l-40.68,0l0,134.32l42.62,0l0,-66.92c0,-9.12 2.29,-16.39 7.01,-22.21c4.43,-5.48 10.33,-8.14 18.02,-8.14c2.93,0 5.72,0.31 8.27,0.94c2.74,0.67 6.24,1.78 10.4,3.32l7.35,2.72l0,-43.31l-3.52,-1.33z" class="st0"/>
  </g>
 </g>
</svg>