<?xml version="1.0" encoding="utf-8"?>
<!-- Generator: Adobe Illustrator 25.2.1, SVG Export Plug-In . SVG Version: 6.00 Build 0)  -->
<svg version="1.1" id="Layer_1" xmlns="http://www.w3.org/2000/svg" xmlns:xlink="http://www.w3.org/1999/xlink" x="0px" y="0px"
	 viewBox="0 0 1080 1080" style="enable-background:new 0 0 1080 1080;" xml:space="preserve" height="200px" >
<style type="text/css">
	.st0{fill:#007EF5;}
	.st1{fill:#0E58A0;}
</style>
<g>
	<g>
		<path class="st0" d="M425.68,493.91c-31.09-31.09-81.69-31.09-112.78,0l-56.06,56.06c0,0,0,0,0,0l-12.06,12.06l-8.43,8.43
			c-10.85,10.85-28.46,10.89-39.31,0.04c-10.8-10.8-10.8-28.46,0.04-39.31c10.8-10.8,28.42-10.85,39.26,0l5.75,5.75l36.76-36.76
			l-5.75-5.75c-31.09-31.09-81.69-31.09-112.78,0c-31.09,31.09-31.09,81.69,0,112.78c31.09,31.09,81.69,31.09,112.78,0l56.06-56.06
			c0,0,0,0,0,0l12.06-12.06l8.43-8.43c10.85-10.85,28.46-10.89,39.31-0.04c10.8,10.8,10.8,28.46-0.04,39.31
			c-10.8,10.8-28.42,10.85-39.26,0l-5.75-5.75l-36.76,36.76l5.75,5.75c31.09,31.09,81.69,31.09,112.78,0S456.78,525,425.68,493.91z"
			/>
	</g>
	<polygon class="st0" points="473.63,635.55 473.63,635.55 473.63,635.55 	"/>
	<path class="st0" d="M571.43,502.92c-10.82-9.58-26.53-14.44-46.69-14.44c-11.39,0-22.1,2.29-31.82,6.8
		c-9.8,4.55-18.05,11.12-24.53,19.52l-3.3,4.28l28.28,22.22c-0.7,0.28-1.39,0.57-2.07,0.88c-8.47,3.78-15.26,9.3-20.17,16.39
		c-4.98,7.19-7.5,15.56-7.5,24.88c0,13.96,4.83,25.45,14.36,34.15c9.39,8.58,21.45,12.92,35.86,12.92c8.73,0,16.6-1.75,23.39-5.19
		c3.15-1.59,6.04-3.43,8.65-5.48v6.8h42.13v-81.43C588.03,526.91,582.44,512.68,571.43,502.92z M525.47,570.54
		c6.97,0,13.75,1.29,20.21,3.84c-0.65,5.06-2.78,9.51-6.45,13.5c-4.36,4.75-10.21,7.06-17.87,7.06c-5.21,0-9.12-1.12-11.62-3.34
		c-2.38-2.11-3.48-4.69-3.48-8.13C506.25,577.08,508.53,570.54,525.47,570.54z M508.89,528.48c4.62-2.28,9.47-3.43,14.4-3.43
		c7.21,0,12.92,1.7,16.97,5.04c3.24,2.68,5.02,5.86,5.51,9.9c-7.98-2.23-17.05-3.35-27.07-3.35c-8.62,0-16.7,1.41-24.08,4.19
		l2.66-3.27C500.31,533.84,504.21,530.78,508.89,528.48z"/>
	<path class="st0" d="M667.39,488.23c2.19-2.08,5.16-3.1,9.07-3.1c2.55,0,4.79,0.26,6.65,0.77c2.1,0.58,4.61,1.48,7.45,2.67
		l7.57,3.18v-43.2l-3.83-1.2c-6.16-1.93-13.47-2.91-21.72-2.91c-14.94,0-27.28,4.54-36.67,13.48c-9.47,9.02-14.28,21.46-14.28,36.98
		v1.32h-22.02v38.02h22.02v96.3h42.62v-96.3h30.24v-38.02h-30.24C664.37,492.74,665.4,490.12,667.39,488.23z"/>
	<path class="st0" d="M814.38,502.92c-10.82-9.58-26.53-14.44-46.69-14.44c-11.39,0-22.1,2.29-31.82,6.8
		c-9.8,4.55-18.05,11.12-24.52,19.52l-3.3,4.28l28.28,22.22c-0.7,0.28-1.39,0.57-2.07,0.88c-8.47,3.78-15.26,9.3-20.17,16.4
		c-4.98,7.19-7.5,15.56-7.5,24.88c0,13.96,4.83,25.46,14.36,34.15c9.39,8.57,21.45,12.92,35.86,12.92c8.73,0,16.6-1.75,23.39-5.19
		c3.15-1.59,6.04-3.42,8.65-5.48v6.8h42.13v-81.43C830.98,526.91,825.39,512.68,814.38,502.92z M768.42,570.54
		c6.96,0,13.75,1.29,20.21,3.84c-0.65,5.06-2.78,9.51-6.45,13.51c-4.37,4.75-10.21,7.06-17.88,7.06c-5.21,0-9.12-1.12-11.62-3.34
		c-2.38-2.11-3.48-4.69-3.48-8.13C749.2,577.08,751.48,570.54,768.42,570.54z M751.84,528.48c4.62-2.28,9.47-3.43,14.41-3.43
		c7.21,0,12.91,1.7,16.97,5.04c3.24,2.68,5.02,5.86,5.5,9.9c-7.98-2.23-17.04-3.35-27.07-3.35c-8.62,0-16.7,1.41-24.07,4.19
		l2.66-3.27C743.26,533.84,747.16,530.78,751.84,528.48z"/>
	<path class="st0" d="M939.47,495.61c-5.28-2-11.14-3.02-17.42-3.02c-8.69,0-16.78,2.17-24.06,6.44c-2.96,1.74-5.63,3.69-7.99,5.84
		v-8.65h-40.68v134.32h42.62v-66.92c0-9.12,2.29-16.39,7.01-22.21c4.43-5.48,10.33-8.14,18.02-8.14c2.93,0,5.72,0.31,8.27,0.94
		c2.74,0.67,6.24,1.78,10.4,3.32l7.35,2.72v-43.31L939.47,495.61z"/>
</g>
</svg>
