<?xml version="1.0" encoding="utf-8"?>
<!-- Generator: Adobe Illustrator 25.2.1, SVG Export Plug-In . SVG Version: 6.00 Build 0)  -->
<svg version="1.1" id="Layer_1" xmlns="http://www.w3.org/2000/svg" xmlns:xlink="http://www.w3.org/1999/xlink" x="0px" y="0px"
	 viewBox="0 0 300 100" style="enable-background:new 0 0 300 100;" xml:space="preserve">
<style type="text/css">
	.st0{fill:#00B8DC;}
</style>
<g>
	<path class="st0" d="M107.89,31.36c-11.46-11.46-30.09-11.46-41.55,0L45.68,52.01c0,0,0,0,0,0l-4.44,4.44l-3.11,3.11
		c-4,4-10.48,4.01-14.48,0.02c-3.98-3.98-3.98-10.48,0.02-14.48c3.98-3.98,10.47-4,14.46,0l2.12,2.12L53.8,33.67l-2.12-2.12
		c-11.46-11.46-30.09-11.46-41.55,0c-11.46,11.46-11.46,30.09,0,41.55c11.46,11.46,30.09,11.46,41.55,0l20.65-20.65c0,0,0,0,0,0
		l4.44-4.44l3.11-3.11c4-4,10.48-4.01,14.48-0.02c3.98,3.98,3.98,10.48-0.02,14.48c-3.98,3.98-10.47,4-14.46,0l-2.12-2.12
		L64.22,70.79l2.12,2.12c11.46,11.46,30.09,11.46,41.55,0C119.34,61.45,119.34,42.81,107.89,31.36z"/>
	<polygon class="st0" points="125.55,83.54 125.55,83.54 125.55,83.54 	"/>
	<path class="st0" d="M161.58,34.68c-3.99-3.53-9.77-5.32-17.2-5.32c-4.2,0-8.14,0.84-11.72,2.51c-3.61,1.68-6.65,4.1-9.04,7.19
		l-1.22,1.58l10.42,8.19c-0.26,0.1-0.51,0.21-0.76,0.32c-3.12,1.39-5.62,3.43-7.43,6.04c-1.83,2.65-2.76,5.73-2.76,9.17
		c0,5.14,1.78,9.38,5.29,12.58c3.46,3.16,7.9,4.76,13.21,4.76c3.21,0,6.11-0.64,8.62-1.91c1.16-0.59,2.22-1.26,3.19-2.02v2.5h15.52
		v-30C167.69,43.52,165.64,38.27,161.58,34.68z M144.65,59.59c2.57,0,5.06,0.47,7.45,1.41c-0.24,1.87-1.02,3.5-2.38,4.98
		c-1.61,1.75-3.76,2.6-6.58,2.6c-1.92,0-3.36-0.41-4.28-1.23c-0.88-0.78-1.28-1.73-1.28-3C137.57,62,138.41,59.59,144.65,59.59z
		 M138.54,44.1c1.7-0.84,3.49-1.26,5.31-1.26c2.65,0,4.76,0.62,6.25,1.86c1.19,0.99,1.85,2.16,2.03,3.65
		c-2.94-0.82-6.28-1.24-9.97-1.24c-3.17,0-6.15,0.52-8.87,1.54l0.98-1.2C135.38,46.07,136.82,44.94,138.54,44.1z"/>
	<path class="st0" d="M196.93,29.26c0.81-0.77,1.9-1.14,3.34-1.14c0.94,0,1.77,0.1,2.45,0.28c0.77,0.21,1.7,0.55,2.74,0.99
		l2.79,1.17V14.65l-1.41-0.44c-2.27-0.71-4.96-1.07-8-1.07c-5.5,0-10.05,1.67-13.51,4.97c-3.49,3.32-5.26,7.91-5.26,13.62v0.48
		h-8.11v14.01h8.11v35.48h15.7V46.22h11.14V32.21h-11.14C195.82,30.93,196.2,29.96,196.93,29.26z"/>
	<path class="st0" d="M251.08,34.68c-3.99-3.53-9.77-5.32-17.2-5.32c-4.2,0-8.14,0.84-11.72,2.51c-3.61,1.68-6.65,4.1-9.03,7.19
		l-1.22,1.58l10.42,8.18c-0.26,0.1-0.51,0.21-0.76,0.32c-3.12,1.39-5.62,3.43-7.43,6.04c-1.83,2.65-2.76,5.73-2.76,9.17
		c0,5.14,1.78,9.38,5.29,12.58c3.46,3.16,7.9,4.76,13.21,4.76c3.21,0,6.11-0.64,8.62-1.91c1.16-0.59,2.22-1.26,3.19-2.02v2.5h15.52
		v-30C257.2,43.52,255.14,38.27,251.08,34.68z M234.15,59.59c2.57,0,5.06,0.47,7.45,1.41c-0.24,1.87-1.02,3.5-2.37,4.98
		c-1.61,1.75-3.76,2.6-6.59,2.6c-1.92,0-3.36-0.41-4.28-1.23c-0.88-0.78-1.28-1.73-1.28-3C227.07,62,227.91,59.59,234.15,59.59z
		 M228.04,44.1c1.7-0.84,3.49-1.26,5.31-1.26c2.65,0,4.76,0.62,6.25,1.86c1.19,0.99,1.85,2.16,2.03,3.65
		c-2.94-0.82-6.28-1.24-9.97-1.24c-3.17,0-6.15,0.52-8.87,1.54l0.98-1.2C224.88,46.07,226.32,44.94,228.04,44.1z"/>
	<path class="st0" d="M297.17,31.99c-1.95-0.74-4.1-1.11-6.42-1.11c-3.2,0-6.18,0.8-8.86,2.37c-1.09,0.64-2.07,1.36-2.94,2.15v-3.19
		h-14.99v49.48h15.7V57.04c0-3.36,0.84-6.04,2.58-8.18c1.63-2.02,3.8-3,6.64-3c1.08,0,2.11,0.12,3.05,0.34
		c1.01,0.25,2.3,0.66,3.83,1.22l2.71,1V32.48L297.17,31.99z"/>
</g>
</svg>
