<svg id="ac_unit-24px" xmlns="http://www.w3.org/2000/svg" width="21.323" height="21.323" viewBox="0 0 21.323 21.323">
  <path id="Контур_9224" data-name="Контур 9224" d="M0,0H21.323V21.323H0Z" fill="none"/>
  <path id="Контур_9225" data-name="Контур 9225" d="M19.769,10h-3.7l2.879-2.879L17.69,5.856,13.55,10H11.773V8.219l4.14-4.14L14.652,2.826,11.773,5.7V2H10V5.7L7.117,2.826,5.856,4.079,10,8.219V10H8.219l-4.14-4.14L2.826,7.117,5.7,10H2v1.777H5.7L2.826,14.652l1.253,1.262,4.14-4.14H10V13.55l-4.14,4.14,1.262,1.253L10,16.064v3.7h1.777v-3.7l2.879,2.879,1.262-1.253-4.14-4.14V11.773H13.55l4.14,4.14,1.253-1.262-2.879-2.879h3.7Z" transform="translate(-0.223 -0.223)" fill="#756f86"/>
</svg>
