<svg id="apartment-24px" xmlns="http://www.w3.org/2000/svg" width="21.158" height="21.746" viewBox="0 0 21.158 21.746">
  <g id="Сгруппировать_3017" data-name="Сгруппировать 3017" transform="translate(0 0)">
    <rect id="Прямоугольник_461" data-name="Прямоугольник 461" width="21.158" height="21.746" fill="none"/>
  </g>
  <g id="Сгруппировать_3018" data-name="Сгруппировать 3018" transform="translate(2.311 2.959)">
    <path id="Контур_9226" data-name="Контур 9226" d="M15.438,10.108V3H6.554V6.554H3V18.992h7.108V15.438h1.777v3.554h7.108V10.108ZM6.554,17.215H4.777V15.438H6.554Zm0-3.554H4.777V11.885H6.554Zm0-3.554H4.777V8.331H6.554Zm3.554,3.554H8.331V11.885h1.777Zm0-3.554H8.331V8.331h1.777Zm0-3.554H8.331V4.777h1.777Zm3.554,7.108H11.885V11.885h1.777Zm0-3.554H11.885V8.331h1.777Zm0-3.554H11.885V4.777h1.777Zm3.554,10.661H15.438V15.438h1.777Zm0-3.554H15.438V11.885h1.777Z" transform="translate(-3 -3)" fill="#756f86"/>
  </g>
</svg>
