<svg xmlns="http://www.w3.org/2000/svg" width="85.76" height="68.051" viewBox="0 0 85.76 68.051">
  <g id="bed" transform="translate(0 -52.862)">
    <g id="Сгруппировать_3326" data-name="Сгруппировать 3326" transform="translate(0 52.862)">
      <path id="Контур_9371" data-name="Контур 9371" d="M85.76,91.6a7.446,7.446,0,0,0-4.051-6.67A21.586,21.586,0,0,0,71.9,82.965H28.867a8.608,8.608,0,0,0-2.026-4.1l-6.1-6.784a8.981,8.981,0,0,0-6.11-2.87l-1.1-.078a4.313,4.313,0,0,0-1.679.222V65.773a4.4,4.4,0,0,0-1.375-3.195,5.926,5.926,0,1,0-9.1,0A4.4,4.4,0,0,0,0,65.773v53.464a1.675,1.675,0,0,0,1.675,1.675H7.456A1.675,1.675,0,0,0,9.124,119.4c.2-2.109,1.315-7.9,4.078-10.5h4.485a1.675,1.675,0,1,0,0-3.35H3.35V90.8H25.707v4.365a4.689,4.689,0,0,0,4.684,4.684H81.076a4.7,4.7,0,0,0,1.333-.193v5.891H32.426a1.675,1.675,0,1,0,0,3.35H72.558c2.753,2.591,3.875,8.389,4.078,10.5a1.675,1.675,0,0,0,1.668,1.517h5.781a1.675,1.675,0,0,0,1.675-1.675Zm-73.9-16.763c.025-.714-.073-1.451.515-1.976s1.3-.355,2.02-.3a5.579,5.579,0,0,1,3.856,1.769l6.1,6.784a5.712,5.712,0,0,1,1.336,4.315A2.08,2.08,0,0,1,25.1,87.1a2.169,2.169,0,0,1-1.641.322,5.713,5.713,0,0,1-4.15-1.784l-6.1-6.784a5.669,5.669,0,0,1-1.352-4.022ZM3.35,87.449V65.773a1.06,1.06,0,0,1,1.059-1.059H7.443A1.06,1.06,0,0,1,8.5,65.773V87.449H3.35Zm8.5-5.09,4.579,5.09H11.852ZM5.926,56.212A2.576,2.576,0,1,1,3.35,58.788,2.579,2.579,0,0,1,5.926,56.212ZM6,117.563H3.35V108.9H8.967A25.522,25.522,0,0,0,6,117.563ZM30.391,96.5a1.335,1.335,0,0,1-1.333-1.333V86.315H71.9a18.358,18.358,0,0,1,8.281,1.6A4.11,4.11,0,0,1,82.41,91.6v3.558s0,0,0,.007A1.335,1.335,0,0,1,81.076,96.5H30.391Zm49.372,21.065a25.53,25.53,0,0,0-2.97-8.667H82.41v8.667Z" transform="translate(0 -52.862)" fill="#746d84"/>
      <path id="Контур_9372" data-name="Контур 9372" d="M142.834,368.45a1.674,1.674,0,1,0-.906,2.188A1.69,1.69,0,0,0,142.834,368.45Z" transform="translate(-116.23 -314.732)" fill="#746d84"/>
    </g>
  </g>
</svg>
