<svg id="dry_cleaning-24px" xmlns="http://www.w3.org/2000/svg" width="21.158" height="21.746" viewBox="0 0 21.158 21.746">
  <g id="Сгруппировать_3025" data-name="Сгруппировать 3025" transform="translate(0 0)">
    <rect id="Прямоугольник_464" data-name="Прямоугольник 464" width="21.158" height="21.746" fill="none"/>
  </g>
  <g id="Сгруппировать_3026" data-name="Сгруппировать 3026" transform="translate(2.628 2.069)">
    <path id="Контур_9233" data-name="Контур 9233" d="M17.713,10.316,11.885,7.721V6.442A.891.891,0,0,0,11,5.554h0a.888.888,0,1,1,.888-.888h1.777a2.665,2.665,0,1,0-3.554,2.505v.56L4.279,10.325A2.127,2.127,0,0,0,3,12.279v.009a2.146,2.146,0,0,0,2.15,2.15h1.4v5.331h8.885V14.438h1.4a2.146,2.146,0,0,0,2.15-2.15v-.009A2.149,2.149,0,0,0,17.713,10.316Zm-.871,2.346h-1.4v-.888H6.554v.888H5.15a.377.377,0,0,1-.373-.382A.361.361,0,0,1,5,11.942l6-2.665,6,2.665a.383.383,0,0,1,.222.346A.375.375,0,0,1,16.842,12.661Z" transform="translate(-3 -1.998)" fill="#756f86"/>
  </g>
</svg>
