<svg id="google-plus" xmlns="http://www.w3.org/2000/svg" width="34" height="34" viewBox="0 0 34 34">
  <circle id="ellipse" cx="17" cy="17" r="17" fill="#e83b46"/>
  <path id="google-plus-icon" d="M7.106,6.251V8.772h4.083a3.944,3.944,0,0,1-4.083,3.176,4.616,4.616,0,0,1,0-9.225A4.265,4.265,0,0,1,9.979,3.831l1.966-1.916A6.907,6.907,0,0,0,7.106,0a7.313,7.313,0,0,0,0,14.62c4.184,0,6.907-2.974,6.907-7.159a9.789,9.789,0,0,0-.1-1.21Zm15.477,0H20.516V4.184H18.449V6.251H16.382V8.318h2.067v2.067h2.067V8.318h2.067Z" transform="translate(6.348 10)" fill="#fff"/>
</svg>
