<svg id="group-24px" xmlns="http://www.w3.org/2000/svg" width="21.323" height="21.323" viewBox="0 0 21.323 21.323">
  <path id="Контур_9234" data-name="Контур 9234" d="M0,0H21.323V21.323H0Z" fill="none"/>
  <path id="Контур_9235" data-name="Контур 9235" d="M14.327,10.331a2.665,2.665,0,1,0-2.665-2.665A2.654,2.654,0,0,0,14.327,10.331Zm-7.108,0A2.665,2.665,0,1,0,4.554,7.665,2.654,2.654,0,0,0,7.219,10.331Zm0,1.777C5.149,12.108,1,13.147,1,15.217v2.221H13.438V15.217C13.438,13.147,9.289,12.108,7.219,12.108Zm7.108,0c-.258,0-.551.018-.862.044a3.749,3.749,0,0,1,1.75,3.065v2.221h5.331V15.217C20.546,13.147,16.4,12.108,14.327,12.108Z" transform="translate(-0.112 -0.558)" fill="#756f86"/>
</svg>
