<svg id="Icon_Home" data-name="Icon/Home" xmlns="http://www.w3.org/2000/svg" xmlns:xlink="http://www.w3.org/1999/xlink" width="32" height="32" viewBox="0 0 32 32">
  <defs>
    <clipPath id="clip-path">
      <path id="Mask" d="M19.635,23H4.365a1.094,1.094,0,0,1-1.091-1.1V13.143H1.093a1.1,1.1,0,0,1-.771-1.869L11.229.32a1.088,1.088,0,0,1,1.542,0L23.678,11.274a1.1,1.1,0,0,1-.772,1.869H20.725V21.9A1.094,1.094,0,0,1,19.635,23ZM10.909,12.048H13.09a2.189,2.189,0,0,1,2.182,2.19V20.81h3.272V12.048a1.094,1.094,0,0,1,1.091-1.1h.639L12,2.644,3.725,10.952h.638a1.1,1.1,0,0,1,1.092,1.1V20.81H8.727V14.238A2.188,2.188,0,0,1,10.909,12.048Zm0,2.19V20.81H13.09V14.238Z" transform="translate(-0.176 -0.176)"/>
    </clipPath>
  </defs>
  <path id="Grid" d="M0,0H32V32H0Z" fill="none"/>
  <path id="Mask-2" data-name="Mask" d="M19.635,23H4.365a1.094,1.094,0,0,1-1.091-1.1V13.143H1.093a1.1,1.1,0,0,1-.771-1.869L11.229.32a1.088,1.088,0,0,1,1.542,0L23.678,11.274a1.1,1.1,0,0,1-.772,1.869H20.725V21.9A1.094,1.094,0,0,1,19.635,23ZM10.909,12.048H13.09a2.189,2.189,0,0,1,2.182,2.19V20.81h3.272V12.048a1.094,1.094,0,0,1,1.091-1.1h.639L12,2.644,3.725,10.952h.638a1.1,1.1,0,0,1,1.092,1.1V20.81H8.727V14.238A2.188,2.188,0,0,1,10.909,12.048Zm0,2.19V20.81H13.09V14.238Z" transform="translate(4 4)"/>
  <g id="Icon_Home-2" data-name="Icon/Home" transform="translate(4.176 4.176)" clip-path="url(#clip-path)">
    <path id="Icon_Fill_Accent" data-name="Icon/🖌 Fill/Accent" d="M0,0H32V32H0Z" transform="translate(-4.176 -4.176)" fill="#1eabae"/>
  </g>
</svg>
