<svg xmlns="http://www.w3.org/2000/svg" xmlns:xlink="http://www.w3.org/1999/xlink" width="31.888" height="31.888" viewBox="0 0 31.888 31.888">
  <defs>
    <clipPath id="clip-path">
      <path id="Mask" d="M9.276,22.9,3.544,18.171a2.1,2.1,0,0,1-.708-1.116L.065,6.138a2.136,2.136,0,0,1,1.253-2.49L9.822.159a2.13,2.13,0,0,1,1.614,0l8.5,3.489a2.136,2.136,0,0,1,1.253,2.49L18.421,17.055a2.1,2.1,0,0,1-.708,1.116L11.981,22.9a2.124,2.124,0,0,1-2.7,0ZM2.125,5.615,4.9,16.532l5.731,4.727,5.732-4.727L19.132,5.615l-8.5-3.489Zm7.44,10.33V6.378A1.063,1.063,0,0,1,11.037,5.4l4.654,1.934a1.063,1.063,0,0,1-.816,1.963L11.692,7.971v7.974a1.063,1.063,0,0,1-2.127,0Z" transform="translate(0)"/>
    </clipPath>
  </defs>
  <g id="Icon_Shield" data-name="Icon/Shield" transform="translate(0 -0.001)">
    <path id="Grid" d="M0,0H31.888V31.888H0Z" transform="translate(0 0.001)" fill="none"/>
    <path id="Mask-2" data-name="Mask" d="M9.276,22.9,3.544,18.171a2.1,2.1,0,0,1-.708-1.116L.065,6.138a2.136,2.136,0,0,1,1.253-2.49L9.822.159a2.13,2.13,0,0,1,1.614,0l8.5,3.489a2.136,2.136,0,0,1,1.253,2.49L18.421,17.055a2.1,2.1,0,0,1-.708,1.116L11.981,22.9a2.124,2.124,0,0,1-2.7,0ZM2.125,5.615,4.9,16.532l5.731,4.727,5.732-4.727L19.132,5.615l-8.5-3.489Zm7.44,10.33V6.378A1.063,1.063,0,0,1,11.037,5.4l4.654,1.934a1.063,1.063,0,0,1-.816,1.963L11.692,7.971v7.974a1.063,1.063,0,0,1-2.127,0Z" transform="translate(5.449 4.252)"/>
    <g id="Icon_Shield-2" data-name="Icon/Shield" transform="translate(5.449 4.252)" clip-path="url(#clip-path)">
      <path id="Icon_Fill_Accent" data-name="Icon/🖌 Fill/Accent" d="M0,0H31.888V31.888H0Z" transform="translate(-5.448 -4.252)" fill="#1eabae"/>
    </g>
  </g>
</svg>
