<svg id="Icon_Watch" data-name="Icon/Watch" xmlns="http://www.w3.org/2000/svg" xmlns:xlink="http://www.w3.org/1999/xlink" width="32.438" height="32.438" viewBox="0 0 32.438 32.438">
  <defs>
    <clipPath id="clip-path">
      <path id="Mask" d="M5.4,23.787a1.126,1.126,0,0,1-1.066-.982l-.8-4.51a7.572,7.572,0,0,1,0-12.8l.8-4.51A1.126,1.126,0,0,1,5.4,0H9.742a1.128,1.128,0,0,1,1.066.982l.8,4.51a7.571,7.571,0,0,1,0,12.8l-.8,4.51a1.128,1.128,0,0,1-1.066.982Zm.89-2.443H8.852l.367-2.062a7.646,7.646,0,0,1-3.3,0ZM9.218,4.5,8.852,2.444H6.286L5.92,4.5a7.646,7.646,0,0,1,3.3,0Z" transform="translate(0 0)"/>
    </clipPath>
  </defs>
  <path id="Grid" d="M0,0H32.438V32.438H0Z" fill="none"/>
  <path id="Mask-2" data-name="Mask" d="M5.4,23.787a1.126,1.126,0,0,1-1.066-.982l-.8-4.51a7.572,7.572,0,0,1,0-12.8l.8-4.51A1.126,1.126,0,0,1,5.4,0H9.742a1.128,1.128,0,0,1,1.066.982l.8,4.51a7.571,7.571,0,0,1,0,12.8l-.8,4.51a1.128,1.128,0,0,1-1.066.982Zm.89-2.443H8.852l.367-2.062a7.646,7.646,0,0,1-3.3,0ZM9.218,4.5,8.852,2.444H6.286L5.92,4.5a7.646,7.646,0,0,1,3.3,0Z" transform="translate(8.65 4.325)"/>
  <g id="Icon_Watch-2" data-name="Icon/Watch" transform="translate(8.65 4.325)" clip-path="url(#clip-path)">
    <path id="Icon_Fill_Accent" data-name="Icon/🖌 Fill/Accent" d="M0,0H32.438V32.438H0Z" transform="translate(-8.65 -4.325)" fill="#1eabae"/>
  </g>
</svg>
