<svg xmlns="http://www.w3.org/2000/svg" xmlns:xlink="http://www.w3.org/1999/xlink" width="31.888" height="31.888" viewBox="0 0 31.888 31.888">
  <defs>
    <clipPath id="clip-path">
      <path id="Mask" d="M9.566,21.259a2.125,2.125,0,0,1-1.055-.28l-7.44-4.251a2.126,2.126,0,0,1,0-3.692l.49-.279-.49-.28a2.126,2.126,0,0,1,0-3.692l.491-.28-.491-.28a2.126,2.126,0,0,1,0-3.692L8.511.281a2.125,2.125,0,0,1,2.11,0l7.44,4.251a2.126,2.126,0,0,1,0,3.692l-.491.28.491.28a2.126,2.126,0,0,1,0,3.692l-.49.279.49.28a2.126,2.126,0,0,1,0,3.692l-7.44,4.251A2.125,2.125,0,0,1,9.566,21.259ZM3.7,13.98h0l-1.577.9,7.441,4.251,7.441-4.251-1.578-.9-4.807,2.747a2.133,2.133,0,0,1-2.11,0L3.7,13.98Zm0-4.251h0l-1.578.9,7.441,4.252,7.441-4.252-1.578-.9-4.807,2.747a2.129,2.129,0,0,1-2.11,0L3.7,9.728Zm5.862-7.6h0L2.126,6.378l7.441,4.251,7.441-4.251L9.566,2.126Z" transform="translate(0 0)"/>
    </clipPath>
  </defs>
  <g id="Icon_Layers" data-name="Icon/Layers" transform="translate(0 0.001)">
    <path id="Grid" d="M0,0H31.888V31.888H0Z" transform="translate(0 -0.001)" fill="none"/>
    <path id="Mask-2" data-name="Mask" d="M9.566,21.259a2.125,2.125,0,0,1-1.055-.28l-7.44-4.251a2.126,2.126,0,0,1,0-3.692l.49-.279-.49-.28a2.126,2.126,0,0,1,0-3.692l.491-.28-.491-.28a2.126,2.126,0,0,1,0-3.692L8.511.281a2.125,2.125,0,0,1,2.11,0l7.44,4.251a2.126,2.126,0,0,1,0,3.692l-.491.28.491.28a2.126,2.126,0,0,1,0,3.692l-.49.279.49.28a2.126,2.126,0,0,1,0,3.692l-7.44,4.251A2.125,2.125,0,0,1,9.566,21.259ZM3.7,13.98h0l-1.577.9,7.441,4.251,7.441-4.251-1.578-.9-4.807,2.747a2.133,2.133,0,0,1-2.11,0L3.7,13.98Zm0-4.251h0l-1.578.9,7.441,4.252,7.441-4.252-1.578-.9-4.807,2.747a2.129,2.129,0,0,1-2.11,0L3.7,9.728Zm5.862-7.6h0L2.126,6.378l7.441,4.251,7.441-4.251L9.566,2.126Z" transform="translate(6.378 5.314)"/>
    <g id="Icon_Layers-2" data-name="Icon/Layers" transform="translate(6.378 5.314)" clip-path="url(#clip-path)">
      <path id="Icon_Fill_Accent" data-name="Icon/🖌 Fill/Accent" d="M0,0H31.888V31.888H0Z" transform="translate(-6.378 -5.314)" fill="#1eabae"/>
    </g>
  </g>
</svg>
