<svg id="Icon_Marker" data-name="Icon/Marker" xmlns="http://www.w3.org/2000/svg" xmlns:xlink="http://www.w3.org/1999/xlink" width="22.889" height="22.889" viewBox="0 0 22.889 22.889">
  <defs>
    <clipPath id="clip-path">
      <path id="Mask" d="M2.285,12.885A15.786,15.786,0,0,1,0,6.292,6.238,6.238,0,0,1,6.167,0a6.238,6.238,0,0,1,6.167,6.292,15.786,15.786,0,0,1-2.285,6.593c-1.118,1.97-2.725,4.075-3.883,4.075S3.4,14.854,2.285,12.885ZM1.542,6.292a14.493,14.493,0,0,0,2.022,5.719C4.6,13.9,5.84,15.418,6.167,15.418s1.562-1.519,2.6-3.407a14.493,14.493,0,0,0,2.022-5.719,4.7,4.7,0,0,0-4.626-4.75A4.7,4.7,0,0,0,1.542,6.292Zm1.542-.125A3.084,3.084,0,1,1,6.167,9.251,3.084,3.084,0,0,1,3.083,6.167Z" fill="#756f86"/>
    </clipPath>
  </defs>
  <path id="Grid" d="M0,0H22.889V22.889H0Z" fill="none"/>
  <path id="Mask-2" data-name="Mask" d="M2.285,12.885A15.786,15.786,0,0,1,0,6.292,6.238,6.238,0,0,1,6.167,0a6.238,6.238,0,0,1,6.167,6.292,15.786,15.786,0,0,1-2.285,6.593c-1.118,1.97-2.725,4.075-3.883,4.075S3.4,14.854,2.285,12.885ZM1.542,6.292a14.493,14.493,0,0,0,2.022,5.719C4.6,13.9,5.84,15.418,6.167,15.418s1.562-1.519,2.6-3.407a14.493,14.493,0,0,0,2.022-5.719,4.7,4.7,0,0,0-4.626-4.75A4.7,4.7,0,0,0,1.542,6.292Zm1.542-.125A3.084,3.084,0,1,1,6.167,9.251,3.084,3.084,0,0,1,3.083,6.167Z" transform="translate(5.159 3.084)"/>
  <g id="Icon_Marker-2" data-name="Icon/Marker" transform="translate(5.159 3.084)" clip-path="url(#clip-path)">
    <g id="Color" transform="translate(-5.159 -3.084)">
      <path id="Icon_Fill_Dark" data-name="Icon/🖌 Fill/Dark" d="M0,0H22.889V22.889H0Z" fill="#756f86"/>
    </g>
  </g>
</svg>
