<svg id="Icon_Comment" data-name="Icon/Comment" xmlns="http://www.w3.org/2000/svg" xmlns:xlink="http://www.w3.org/1999/xlink" width="31.08" height="31.08" viewBox="0 0 31.08 31.08">
  <defs>
    <clipPath id="clip-path">
      <path id="Mask" d="M16.147,20.113,12.61,16.576h-9.5A3.112,3.112,0,0,1,0,13.468V3.108A3.111,3.111,0,0,1,3.108,0H19.684a3.111,3.111,0,0,1,3.108,3.108v10.36a3.112,3.112,0,0,1-3.108,3.109v2.072A2.062,2.062,0,0,1,17.6,20.724,2.036,2.036,0,0,1,16.147,20.113Z" transform="translate(0)"/>
    </clipPath>
  </defs>
  <path id="Grid" d="M0,0H31.08V31.08H0Z" fill="none"/>
  <path id="Mask-2" data-name="Mask" d="M16.147,20.113,12.61,16.576h-9.5A3.112,3.112,0,0,1,0,13.468V3.108A3.111,3.111,0,0,1,3.108,0H19.684a3.111,3.111,0,0,1,3.108,3.108v10.36a3.112,3.112,0,0,1-3.108,3.109v2.072A2.062,2.062,0,0,1,17.6,20.724,2.036,2.036,0,0,1,16.147,20.113Z" transform="translate(4.144 6.216)"/>
  <g id="Icon_Comment-2" data-name="Icon/Comment" transform="translate(4.144 6.216)" clip-path="url(#clip-path)">
    <path id="Icon_Fill_Accent" data-name="Icon/🖌 Fill/Accent" d="M0,0H31.08V31.08H0Z" transform="translate(-4.144 -6.216)" fill="#1eabae"/>
  </g>
</svg>
