<svg xmlns="http://www.w3.org/2000/svg" width="60.318" height="58.024" viewBox="0 0 60.318 58.024">
  <g id="noun_guide_3106191" transform="translate(1.1 0.39)">
    <path id="Контур_9376" data-name="Контур 9376" d="M45.263,6.851V3.019A2.3,2.3,0,0,0,42.969.71H9.053A9.078,9.078,0,0,0,.015,9.521,1.468,1.468,0,0,0,0,9.763V46.546a1.846,1.846,0,0,0,.03.287c-.015.211-.03.422-.03.649a9.06,9.06,0,0,0,9.052,9.052H42.969a2.3,2.3,0,0,0,2.293-2.293V35.577a14.452,14.452,0,0,0,0-28.727ZM42.245,46.063,8.872,45.988H8.856A1.548,1.548,0,0,0,7.242,47.5a1.441,1.441,0,0,0,.513,1.1,1.68,1.68,0,0,0,1.1.407l33.389.075v4.436H9.053a6.035,6.035,0,1,1,0-12.07l33.192.045ZM44.463,32.65c-.272.015-.558.03-.83.03-.2-.015-.392,0-.573-.015h-.03a11.46,11.46,0,0,1,.015-22.888c.181-.015.362-.015.543-.015.287,0,.588.015.86.03a11.458,11.458,0,0,1,.015,22.858Z" transform="translate(0 0)" fill="none" stroke="#756f86" stroke-width="2.2"/>
    <circle id="Эллипс_1172" data-name="Эллипс 1172" cx="1.509" cy="1.509" r="1.509" transform="translate(42.14 14.42)" fill="none" stroke="#756f86" stroke-width="2.2"/>
    <path id="Контур_9377" data-name="Контур 9377" d="M27.612,12.249A1.5,1.5,0,0,0,26.1,13.758v6.5a1.509,1.509,0,1,0,3.017,0v-6.5a1.513,1.513,0,0,0-1.509-1.509Z" transform="translate(16.037 7.089)" fill="none" stroke="#756f86" stroke-width="2.2"/>
  </g>
</svg>
