<svg xmlns="http://www.w3.org/2000/svg" width="13.08" height="11.732" viewBox="0 0 13.08 11.732">
  <path id="recommend-icon" d="M13.022,4.006A3.5,3.5,0,0,0,9.606.914,5.218,5.218,0,0,0,6.584,2.058,5.185,5.185,0,0,0,3.549.9,3.5,3.5,0,0,0,.133,4.02c-.536,2.809,1.2,6.551,6.3,8.584a.358.358,0,0,0,.169.028.709.709,0,0,0,.169-.028c5.068-2.089,6.8-5.816,6.254-8.6ZM6.584,11.672C2.109,9.822.57,6.589,1.022,4.189A2.648,2.648,0,0,1,3.549,1.818,4.494,4.494,0,0,1,6.288,3a.448.448,0,0,0,.579,0A4.525,4.525,0,0,1,9.606,1.846a2.62,2.62,0,0,1,2.513,2.344c.466,2.372-1.073,5.591-5.534,7.482Zm0,0" transform="translate(-0.039 -0.9)" fill="#f05e6f"/>
</svg>
