<svg xmlns="http://www.w3.org/2000/svg" width="33.096" height="34.015" viewBox="0 0 33.096 34.015">
  <g id="sports_esports-24px" transform="translate(0)">
    <g id="Сгруппировать_3032" data-name="Сгруппировать 3032" transform="translate(0 0)">
      <rect id="Прямоугольник_468" data-name="Прямоугольник 468" width="33.096" height="34.015" fill="none"/>
    </g>
    <g id="Сгруппировать_3034" data-name="Сгруппировать 3034" transform="translate(2.788 7.408)">
      <g id="Сгруппировать_3033" data-name="Сгруппировать 3033">
        <path id="Контур_9245" data-name="Контур 9245" d="M29.057,20.412,27.542,9.767A5.554,5.554,0,0,0,22.039,5H9.448a5.554,5.554,0,0,0-5.5,4.767L2.43,20.412a3.537,3.537,0,0,0,3.5,4.044h0a3.523,3.523,0,0,0,2.5-1.042l3.141-3.127h8.338l3.127,3.127a3.547,3.547,0,0,0,2.5,1.042h0A3.54,3.54,0,0,0,29.057,20.412Zm-14.7-7.074H11.575v2.779h-1.39V13.338H7.405v-1.39h2.779V9.169h1.39v2.779h2.779Zm5.559-1.39a1.39,1.39,0,1,1,1.39-1.39A1.394,1.394,0,0,1,19.913,11.949Zm2.779,4.169a1.39,1.39,0,1,1,1.39-1.39A1.394,1.394,0,0,1,22.692,16.118Z" transform="translate(-2.394 -5)" fill="#756f86"/>
      </g>
    </g>
  </g>
</svg>
