<svg xmlns="http://www.w3.org/2000/svg" width="76.768" height="74.563" viewBox="0 0 76.768 74.563">
  <g id="street-sign" transform="translate(-53.469 -7.5)">
    <path id="Контур_9373" data-name="Контур 9373" d="M129.51,22.766l-4.746-7.119a1.191,1.191,0,0,0-.988-.528H96.6V9.187A1.187,1.187,0,0,0,95.413,8H88.294a1.186,1.186,0,0,0-1.187,1.187v5.933H74.055a1.187,1.187,0,0,0-1.187,1.187V30.544a1.187,1.187,0,0,0,1.187,1.187H87.107v4.746H59.93a1.191,1.191,0,0,0-.988.528L54.2,44.123a1.188,1.188,0,0,0,0,1.317l4.746,7.119a1.191,1.191,0,0,0,.988.528H87.107v26.1H75.242a1.187,1.187,0,0,0,0,2.373h28.476a1.187,1.187,0,0,0,0-2.373H96.6v-26.1h13.052a1.187,1.187,0,0,0,1.187-1.187V37.663a1.187,1.187,0,0,0-1.187-1.187H96.6V31.73h27.177a1.191,1.191,0,0,0,.988-.528l4.746-7.119a1.189,1.189,0,0,0,0-1.317ZM89.48,10.373h4.746v4.746H89.48ZM94.226,79.19H89.48v-26.1h4.746Zm14.238-40.341V50.714h-47.9L56.61,44.782l3.956-5.933ZM89.48,36.476V31.73h4.746v4.746Zm33.661-7.119h-47.9V17.492h47.9l3.956,5.933Z" fill="#756f86" stroke="#756f86" stroke-width="1"/>
    <path id="Контур_9374" data-name="Контур 9374" d="M354.373,488h-1.187a1.187,1.187,0,0,0,0,2.373h1.187a1.187,1.187,0,1,0,0-2.373Z" transform="translate(-243.095 -408.81)" fill="#756f86" stroke="#756f86" stroke-width="1"/>
  </g>
</svg>
