<svg xmlns="http://www.w3.org/2000/svg" width="24.17" height="36.48" viewBox="0 0 24.17 36.48">
  <path id="Контур_9385" data-name="Контур 9385" d="M39.806,12.405A3.705,3.705,0,1,1,36.1,8.7,3.7,3.7,0,0,1,39.806,12.405Zm-9.44,4.764a1.416,1.416,0,0,0-1.235-1.809c-.529,0-1.632-.044-2.47-.044s-1.588.132-1.809.882l-3.529,9.749a1.4,1.4,0,0,0,.926,1.764l2.691,1.1a1.394,1.394,0,0,0,1.809-.882ZM44.7,25.727l-.353-.176V20.786H43.026v4.1l-2.911-1.367L36.5,18.493a3.007,3.007,0,0,0-3.352-1.764c-1.588.221-2.161,1.985-2.558,3.926l-1.059,5.161h0l-.882,4.014a1.655,1.655,0,0,0-.044.441l-.926,4.588-5.426,6.837a1.719,1.719,0,0,0,.309,2.47,1.839,1.839,0,0,0,1.059.4,1.8,1.8,0,0,0,1.412-.662l5.646-7.19A2.123,2.123,0,0,0,31.028,36l.882-4.058,3.4,4.5.353,7.058a1.743,1.743,0,0,0,1.72,1.676h.132a1.772,1.772,0,0,0,1.676-1.853l-.4-7.631a1.541,1.541,0,0,0-.353-.97l-3.22-4.279,1.5-7.1,1.412,1.985a2.312,2.312,0,0,0,.485.441l4.367,2.073V44.65H44.3V28.2a1.2,1.2,0,0,0,.97-.75A1.233,1.233,0,0,0,44.7,25.727Z" transform="translate(-21.262 -8.7)" fill="#756f86"/>
</svg>
