<svg xmlns="http://www.w3.org/2000/svg" width="73.486" height="74.563" viewBox="0 0 73.486 74.563">
  <g id="tour-guide_1_" data-name="tour-guide (1)" transform="translate(-3.25 0.5)">
    <path id="Контур_9375" data-name="Контур 9375" d="M60.484,64.539a1.078,1.078,0,0,0-1.521.1l-4.443,5.081a2.558,2.558,0,0,1-3.733.127l-3.424-3.423V64.163a1.078,1.078,0,1,0-2.155,0v8.323a1.078,1.078,0,0,0,2.155,0V69.473l1.9,1.9a4.713,4.713,0,0,0,6.879-.233l4.443-5.081a1.078,1.078,0,0,0-.1-1.521ZM15.731,63.085a1.078,1.078,0,0,0-1.078,1.078v8.323a1.078,1.078,0,0,0,2.155,0V64.163A1.078,1.078,0,0,0,15.731,63.085Zm59.679-46-7.223-5.869A1.652,1.652,0,0,0,65.493,12.5V26.348s0,0,0,.006V43.832L54.643,56.206l-3.437-6.417a11.324,11.324,0,0,0-8.1-5.795L37.2,43.026a1.826,1.826,0,0,1-1.536-1.807V39.945a13.467,13.467,0,0,0,2.347-1.873,13.3,13.3,0,0,0,3.918-9.46v-.468h.415a3.94,3.94,0,0,0,2.637-6.872,3.478,3.478,0,0,0,.448-3.1,3.42,3.42,0,0,0-1.838-2c-.113-.05-.227-.1-.341-.148V8.267A8.277,8.277,0,0,0,34.979,0H22.121a8.277,8.277,0,0,0-8.267,8.267v7.757c-.114.049-.227.1-.34.148a3.414,3.414,0,0,0-1.393,5.1,3.94,3.94,0,0,0,2.64,6.871h.415v.468A13.382,13.382,0,0,0,21.44,39.939v1.5a1.794,1.794,0,0,1-1.366,1.744l-8.948,2.207A9.679,9.679,0,0,0,3.75,54.8V72.486a1.078,1.078,0,1,0,2.155,0V54.8a7.528,7.528,0,0,1,5.737-7.323l6.931-1.709a11.758,11.758,0,0,0,20.146-.313l4.038.662a9.155,9.155,0,0,1,6.549,4.685L52.784,57.3a2.1,2.1,0,0,0,3.423.392l7.38-8.417,4.688,4.689.014.012-6.009,6.873A1.078,1.078,0,0,0,63.9,62.268l9.9-11.327a5.543,5.543,0,0,0-.7-7.874,5.456,5.456,0,0,0-5.456-.8v-15.4l7.762-6.306a2.236,2.236,0,0,0,0-3.471ZM44.131,24.2a1.809,1.809,0,0,1-1.79,1.79h-.415v-3.27a3.432,3.432,0,0,0,1.2-.128,1.8,1.8,0,0,1,1,1.608Zm-28.956,1.79H14.76a1.79,1.79,0,0,1-.792-3.4,3.448,3.448,0,0,0,1.207.129v3.268Zm.267-5.522a1.289,1.289,0,0,1-1.654-.593,1.264,1.264,0,0,1,.6-1.732A34.89,34.89,0,0,1,33.26,15.46a1.078,1.078,0,1,0,.29-2.135,37.045,37.045,0,0,0-17.542,1.847v-6.9a6.119,6.119,0,0,1,6.112-6.112H34.979a6.119,6.119,0,0,1,6.112,6.112v6.9q-1.237-.445-2.5-.8a1.078,1.078,0,1,0-.584,2.075,35.027,35.027,0,0,1,4.7,1.7,1.27,1.27,0,0,1,.6,1.728,1.284,1.284,0,0,1-1.656.6,33.279,33.279,0,0,0-26.215,0Zm1.888,8.145v-6.6a30.262,30.262,0,0,1,22.44,0v6.6a11.22,11.22,0,1,1-22.44,0ZM28.55,49.156A9.583,9.583,0,0,1,20.8,45.215a4.032,4.032,0,0,0,2.8-4.176,13.4,13.4,0,0,0,9.911,0,3.984,3.984,0,0,0,2.915,4.014A9.541,9.541,0,0,1,28.55,49.156Zm43.208-4.406a3.352,3.352,0,0,1,.425,4.773L69.71,52.351l-4.7-4.7,2.189-2.5a3.306,3.306,0,0,1,4.558-.405Zm2.293-25.868-6.4,5.2V13.554l6.4,5.2a.092.092,0,0,1,0,.125ZM34.483,27.8a1.078,1.078,0,0,0,1.078-1.078V24.344a1.078,1.078,0,1,0-2.155,0v2.374A1.078,1.078,0,0,0,34.483,27.8ZM22.617,23.267a1.078,1.078,0,0,0-1.078,1.078v2.374a1.078,1.078,0,0,0,2.155,0V24.344A1.078,1.078,0,0,0,22.617,23.267Zm9.251,9.888a1.078,1.078,0,0,0-1.463-.426,3.851,3.851,0,0,1-3.71,0,1.078,1.078,0,0,0-1.037,1.89,6.037,6.037,0,0,0,2.829.742,6.2,6.2,0,0,0,2.954-.742A1.078,1.078,0,0,0,31.868,33.155Z" fill="#756f86" stroke="#756f86" stroke-width="1"/>
  </g>
</svg>
