<svg xmlns="http://www.w3.org/2000/svg" width="50" height="35.25" viewBox="0 0 50 35.25">
  <g id="Page-1" transform="translate(0.5 0.5)">
    <g id="_020---Train" data-name="020---Train" transform="translate(0 0)">
      <path id="Shape" d="M2.446,34.25H46.482A2.446,2.446,0,0,0,48.929,31.8v-.815a2.446,2.446,0,0,0-2.446-2.446H40.561A4.468,4.468,0,0,0,41.569,26.1H42.4a6.524,6.524,0,0,0,5.429-10.142l-8.7-13.048A6.51,6.51,0,0,0,33.7,0H2.446A2.446,2.446,0,0,0,0,2.446V25.28a.815.815,0,0,0,.815.815H22.038a4.468,4.468,0,0,0,1.008,2.446H2.446A2.446,2.446,0,0,0,0,30.988V31.8A2.446,2.446,0,0,0,2.446,34.25ZM37.1,28.542A2.849,2.849,0,0,1,34.292,26.1h5.627A2.849,2.849,0,0,1,37.1,28.542ZM32.64,26.1a4.468,4.468,0,0,0,1.008,2.446H29.96A4.468,4.468,0,0,0,30.968,26.1ZM43.927,13.048H32.619a.815.815,0,0,1-.815-.815V6.524a.815.815,0,0,1,.815-.815h6.415Zm-42.3,5.708H4.077v.815a2.446,2.446,0,0,0,2.446,2.446h5.708a2.446,2.446,0,0,0,2.446-2.446v-.815H33.435a.815.815,0,0,0,0-1.631H14.679V6.524a2.446,2.446,0,0,0-2.446-2.446H6.524A2.446,2.446,0,0,0,4.077,6.524v10.6H1.631V2.446a.815.815,0,0,1,.815-.815H33.7A4.882,4.882,0,0,1,37.767,3.81l.179.267H32.619a2.446,2.446,0,0,0-2.446,2.446v5.708a2.446,2.446,0,0,0,2.446,2.446h12.4l1.452,2.179c.059.086.1.179.154.267H37.512a.815.815,0,0,0,0,1.631h9.714A4.9,4.9,0,0,1,42.4,24.464H1.631Zm11.417.815a.815.815,0,0,1-.815.815H6.524a.815.815,0,0,1-.815-.815V6.524a.815.815,0,0,1,.815-.815h5.708a.815.815,0,0,1,.815.815ZM23.69,26.1h5.627a2.84,2.84,0,0,1-5.627,0ZM1.631,30.988a.815.815,0,0,1,.815-.815H46.482a.815.815,0,0,1,.815.815V31.8a.815.815,0,0,1-.815.815H2.446a.815.815,0,0,1-.815-.815Z" transform="translate(0 0)" fill="#756f86" stroke="#707070" stroke-width="1"/>
      <path id="Shape-2" data-name="Shape" d="M29.155,5H23.446A2.446,2.446,0,0,0,21,7.446v5.708A2.446,2.446,0,0,0,23.446,15.6h5.708A2.446,2.446,0,0,0,31.6,13.155V7.446A2.446,2.446,0,0,0,29.155,5Zm.815,8.155a.815.815,0,0,1-.815.815H23.446a.815.815,0,0,1-.815-.815V7.446a.815.815,0,0,1,.815-.815h5.708a.815.815,0,0,1,.815.815Z" transform="translate(-3.875 -0.923)" fill="#756f86" stroke="#707070" stroke-width="1"/>
      <path id="Shape-3" data-name="Shape" d="M12.262,9H9.815a.815.815,0,0,0,0,1.631h2.446a.815.815,0,0,0,0-1.631Z" transform="translate(-1.661 -1.661)" fill="#756f86" stroke="#707070" stroke-width="1"/>
      <path id="Shape-4" data-name="Shape" d="M12.262,13H9.815a.815.815,0,0,0,0,1.631h2.446a.815.815,0,0,0,0-1.631Z" transform="translate(-1.661 -2.399)" fill="#756f86" stroke="#707070" stroke-width="1"/>
    </g>
  </g>
</svg>
