<svg xmlns="http://www.w3.org/2000/svg" width="33.353" height="33.353" viewBox="0 0 33.353 33.353">
  <g id="wifi-24px" transform="translate(0)">
    <path id="Контур_9251" data-name="Контур 9251" d="M0,0H33.353V33.353H0Z" transform="translate(0)" fill="none"/>
    <path id="Контур_9252" data-name="Контур 9252" d="M1,10.774l2.779,2.779a17.69,17.69,0,0,1,25.015,0l2.779-2.779A21.632,21.632,0,0,0,1,10.774ZM12.118,21.892l4.169,4.169,4.169-4.169A5.888,5.888,0,0,0,12.118,21.892ZM6.559,16.333l2.779,2.779a9.83,9.83,0,0,1,13.9,0l2.779-2.779A13.773,13.773,0,0,0,6.559,16.333Z" transform="translate(0.39 1.733)" fill="#756f86"/>
  </g>
</svg>
