<svg xmlns="http://www.w3.org/2000/svg" width="74.074" height="74.063" viewBox="0 0 74.074 74.063">
  <g id="Сгруппировать_3320" data-name="Сгруппировать 3320" transform="translate(0.251 0.251)">
    <path id="Контур_9337" data-name="Контур 9337" d="M321.043,112.919a3.7,3.7,0,0,1-2.48,2.459,3.892,3.892,0,0,1-.919.12q-25.75.008-51.5.005c-.846,0-1.326-.386-1.311-1.076a1,1,0,0,1,.95-1.065,5.452,5.452,0,0,1,.715-.01h50.492a5.661,5.661,0,0,0,.788-.021,1.234,1.234,0,0,0,1.091-1.227,1.217,1.217,0,0,0-1.07-1.175,3.29,3.29,0,0,0-.642-.026H251.37c-.167,0-.334-.01-.5.005a1.217,1.217,0,1,0,0,2.433c.188.016.381.005.574.005h9.481c.861,0,1.331.365,1.347,1.039.021.71-.459,1.107-1.352,1.112q-4.989,0-9.982,0a3.374,3.374,0,1,1,.031-6.745c2.918-.005,5.842,0,8.761,0h.861v-52.1c0-.24-.005-.48,0-.72.026-.966.4-1.337,1.363-1.342,2.177-.005,4.359,0,6.537,0h.861v-.9c0-3.4.01-6.8-.01-10.2a1.761,1.761,0,0,1,.689-1.551h5.461c.449.4.8.846.543,1.483-.261.658-.835.684-1.441.674-1-.021-1.994-.005-2.986-.005V54.543h3.6a3.213,3.213,0,0,0,.036-.324c.068-1.989,17.96-1.749,18.023-.611.016.3,0,.606,0,.929h3.644V44.091h-.872q-8.082,0-16.159.005c-.611,0-1.159-.052-1.41-.715-.256-.679.141-1.076.616-1.441h19.4a1.773,1.773,0,0,1,.689,1.551c-.021,3.378-.01,6.751-.01,10.129v.971h7.4c.961,0,1.352.376,1.363,1.342.016,1.363.016,2.731,0,4.093-.01.851-.412,1.31-1.1,1.31s-1.1-.454-1.107-1.3c-.016-1.07-.005-2.146-.005-3.258H293.273c0,.418.016.794-.005,1.169-.057,1.159-18,1.248-18.012-.47v-.694H262.866v10.51h42.853c0-.658-.01-1.295.005-1.932.005-.282-.042-.653.115-.83a1.814,1.814,0,0,1,1.023-.694c.318-.01.741.371.945.684a2.08,2.08,0,0,1,.125,1.049q.008,21.082.005,42.159v1.018h.815c2.657,0,5.32.084,7.972-.026,2.094-.089,3.571.606,4.328,2.61C321.043,111.864,321.043,112.391,321.043,112.919Zm-50.962-4.2v-7.033c0-1.237.329-1.556,1.582-1.556h25.275c1.149,0,1.5.345,1.5,1.488.005,2.1,0,4.213.005,6.317,0,.256.021.506.031.757h7.194V73.866H262.856v34.85C265.262,108.721,267.622,108.721,270.081,108.721Zm35.576-39.162h-42.78v2.062h42.78Zm-28.444,39.157h14.081v-6.38H277.213Zm10.781-51.129c1-.005,1.994,0,3.059,0V54.006c-.658,0-1.253-.026-1.843.005-3.091.172-7.309-.005-8.87-.005h-2.819v3.582h2.908C281.912,57.592,286.653,57.6,287.994,57.587Zm-13.084,51.134v-6.4h-2.574v6.4Zm18.7-6.4v6.375h2.574V102.32Z" transform="translate(-247.481 -41.941)" fill="#756f86" stroke="#756f86" stroke-width="0.5"/>
    <path id="Контур_9338" data-name="Контур 9338" d="M287.807,106.427c1.2,0,2.391-.01,3.592.005.95.01,1.352.412,1.357,1.368.01,2.224.016,4.453,0,6.678-.005.908-.423,1.337-1.321,1.342q-3.665.024-7.325,0a1.171,1.171,0,0,1-1.321-1.342q-.023-3.336,0-6.678c.005-.982.413-1.363,1.431-1.373C285.41,106.422,286.606,106.427,287.807,106.427Zm2.684,7.147v-4.866h-5.44v4.866Z" transform="translate(-264.35 -72.758)" fill="#756f86" stroke="#756f86" stroke-width="0.5"/>
    <path id="Контур_9339" data-name="Контур 9339" d="M313.359,106.427c1.2,0,2.391-.01,3.592.005,1,.01,1.389.4,1.394,1.41q.016,3.266,0,6.537c-.005,1.039-.4,1.446-1.436,1.451q-3.556.016-7.111,0c-1.029-.005-1.425-.412-1.425-1.457q-.016-3.266,0-6.537c.005-1.008.392-1.394,1.394-1.4C310.968,106.416,312.163,106.427,313.359,106.427Zm2.725,7.147V108.7h-5.445v4.871Z" transform="translate(-276.579 -72.758)" fill="#756f86" stroke="#756f86" stroke-width="0.5"/>
    <path id="Контур_9340" data-name="Контур 9340" d="M338.954,106.424c1.2,0,2.391-.01,3.592,0,1,.01,1.394.4,1.394,1.4q.016,3.3,0,6.6c-.005.95-.418,1.373-1.357,1.378q-3.626.023-7.252,0c-.945-.005-1.352-.428-1.357-1.378q-.016-3.3,0-6.6c.005-1.013.392-1.4,1.394-1.41C336.562,106.413,337.758,106.424,338.954,106.424Zm-2.731,7.137h5.445V108.69h-5.445Z" transform="translate(-288.813 -72.755)" fill="#756f86" stroke="#756f86" stroke-width="0.5"/>
    <path id="Контур_9341" data-name="Контур 9341" d="M287.81,130.367c1.175,0,2.344-.005,3.519,0,1.039.01,1.425.4,1.431,1.446q.016,3.266,0,6.537c-.005.992-.412,1.41-1.4,1.415-2.391.01-4.788.016-7.179,0-.982-.005-1.389-.423-1.389-1.42q-.016-3.3,0-6.6c.005-.955.407-1.357,1.357-1.368C285.367,130.356,286.588,130.367,287.81,130.367Zm2.694,2.266h-5.44V137.5h5.44Z" transform="translate(-264.354 -84.199)" fill="#756f86" stroke="#756f86" stroke-width="0.5"/>
    <path id="Контур_9342" data-name="Контур 9342" d="M313.4,130.367c1.2,0,2.391-.01,3.592.005.95.01,1.352.412,1.357,1.368.01,2.224.016,4.453,0,6.678-.005.908-.423,1.337-1.321,1.342q-3.665.024-7.325,0a1.171,1.171,0,0,1-1.321-1.342q-.024-3.336,0-6.678c.005-.982.412-1.363,1.425-1.373C311,130.362,312.2,130.367,313.4,130.367Zm2.689,7.147v-4.871h-5.451v4.871Z" transform="translate(-276.58 -84.199)" fill="#756f86" stroke="#756f86" stroke-width="0.5"/>
    <path id="Контур_9343" data-name="Контур 9343" d="M339.012,130.366c1.175,0,2.344-.005,3.519,0,1,.01,1.4.4,1.41,1.389q.016,3.3,0,6.6c-.005.987-.412,1.394-1.41,1.4-2.391.01-4.788.016-7.179,0-.95-.005-1.368-.423-1.373-1.363q-.024-3.336,0-6.678c.005-.95.418-1.342,1.373-1.352C336.569,130.355,337.791,130.366,339.012,130.366Zm2.652,7.158v-4.9h-5.419v4.9Z" transform="translate(-288.814 -84.198)" fill="#756f86" stroke="#756f86" stroke-width="0.5"/>
    <path id="Контур_9344" data-name="Контур 9344" d="M292.57,115.666h-5.44V110.8h5.44Z" transform="translate(-266.43 -74.85)" fill="#fff" stroke="#756f86" stroke-width="0.5"/>
    <path id="Контур_9345" data-name="Контур 9345" d="M318.165,115.661H312.72V110.79h5.445Z" transform="translate(-278.66 -74.845)" fill="#fff" stroke="#756f86" stroke-width="0.5"/>
    <path id="Контур_9346" data-name="Контур 9346" d="M338.29,115.641V110.77h5.445v4.871Z" transform="translate(-290.88 -74.835)" fill="#fff" stroke="#756f86" stroke-width="0.5"/>
    <path id="Контур_9347" data-name="Контур 9347" d="M292.59,134.71v4.866h-5.44V134.71Z" transform="translate(-266.44 -86.276)" fill="#fff" stroke="#756f86" stroke-width="0.5"/>
    <path id="Контур_9348" data-name="Контур 9348" d="M318.161,139.6H312.71V134.73h5.451Z" transform="translate(-278.655 -86.286)" fill="#fff" stroke="#756f86" stroke-width="0.5"/>
    <path id="Контур_9349" data-name="Контур 9349" d="M343.749,139.6H338.33v-4.9h5.419Z" transform="translate(-290.899 -86.271)" fill="#fff" stroke="#756f86" stroke-width="0.5"/>
  </g>
</svg>
