<svg xmlns="http://www.w3.org/2000/svg" width="80.5" height="40.246" viewBox="0 0 80.5 40.246">
  <g id="Сгруппировать_3322" data-name="Сгруппировать 3322" transform="translate(-0.001 0)">
    <path id="Контур_9362" data-name="Контур 9362" d="M446.13,104.373a9.523,9.523,0,0,1,2.115-4.391,8.147,8.147,0,0,1,5.916-2.825,5.051,5.051,0,0,0,4.4-2.417c.778-1.211,1.593-2.4,2.386-3.592a8.537,8.537,0,0,1,7.587-4.067q11.7.039,23.408,0a9.285,9.285,0,0,1,6.078,2.136c4.161,3.347,8.339,6.668,12.5,10.015a5.583,5.583,0,0,0,3.535,1.258,22.33,22.33,0,0,1,5.06.4c3.681.945,5.717,3.671,6.84,7.143a11.233,11.233,0,0,1,.365,6.412,7.866,7.866,0,0,1-5.832,5.874,1.1,1.1,0,0,0-.914.872,8.355,8.355,0,0,1-13.941,3.707,8.217,8.217,0,0,1-2.344-4.266h-.945q-15.985,0-31.971-.016a1,1,0,0,0-1.175.856,8.359,8.359,0,0,1-15.967-.078,1.5,1.5,0,0,0-1.128-1.164,8.264,8.264,0,0,1-5.8-6.323,2.88,2.88,0,0,0-.162-.418C446.13,110.446,446.13,107.412,446.13,104.373Zm73.622,12.563a4.2,4.2,0,0,0,3.112-2.8,8.882,8.882,0,0,0-.976-7.018,5.69,5.69,0,0,0-4.407-3.175,23.577,23.577,0,0,0-3.216-.063,8.926,8.926,0,0,1-5.869-2.036c-4.115-3.321-8.266-6.6-12.38-9.921a5.977,5.977,0,0,0-3.869-1.472q-11.827.008-23.648,0a5.341,5.341,0,0,0-4.783,2.632c-.8,1.253-1.655,2.48-2.48,3.723a7.721,7.721,0,0,1-4.558,3.378,18.75,18.75,0,0,1-2.867.4,4.869,4.869,0,0,0-4.2,4.151c-.11,2.767-.1,5.55,0,8.318A4.5,4.5,0,0,0,453,116.894c2.052-4.543,4.783-6.563,8.594-6.365a8.593,8.593,0,0,1,7.874,6.673h33.8c1.1-3.89,3.817-6.407,7.592-6.621C515.429,110.331,518.248,112.79,519.752,116.936Zm-58.563,6.986a4.992,4.992,0,1,0-4.992-5A5.028,5.028,0,0,0,461.189,123.922Zm50.2-.005a4.988,4.988,0,1,0-4.9-5.08A5.022,5.022,0,0,0,511.393,123.917Z" transform="translate(-446.129 -87.08)" fill="#756f86"/>
    <path id="Контур_9363" data-name="Контур 9363" d="M520.1,106.626h14.448c1.5,0,2.355.642,2.329,1.734-.026,1.076-.851,1.676-2.3,1.681H519.02c-1.671,0-2.271-.6-2.276-2.266-.005-1.937-.016-3.874.005-5.811.016-1.258.616-1.958,1.64-1.984a1.636,1.636,0,0,1,1.713,1.734C520.116,103.305,520.1,104.9,520.1,106.626Z" transform="translate(-479.869 -93.244)" fill="#756f86"/>
    <path id="Контур_9364" data-name="Контур 9364" d="M482.67,106.61h7.106c1.128,0,2.25-.016,3.378.01a1.713,1.713,0,0,1,1.7,1.039,1.439,1.439,0,0,1-.292,1.739,2.553,2.553,0,0,1-1.462.6c-4.344.047-8.688.042-13.038.016a1.691,1.691,0,0,1-1.582-2.569c1.034-2.141,2.1-4.266,3.185-6.386a1.69,1.69,0,0,1,2.339-.94,1.732,1.732,0,0,1,.658,2.5C484.038,103.9,483.385,105.174,482.67,106.61Z" transform="translate(-461.48 -93.222)" fill="#756f86"/>
    <path id="Контур_9365" data-name="Контур 9365" d="M526.541,125.62c.574,0,1.154-.026,1.728.005a1.693,1.693,0,0,1,1.645,1.593,1.611,1.611,0,0,1-1.5,1.692,33.439,33.439,0,0,1-3.759-.01,1.569,1.569,0,0,1-1.441-1.66,1.686,1.686,0,0,1,1.53-1.619c.052-.005.1-.01.157-.01.543.005,1.1.005,1.645.01Z" transform="translate(-482.962 -105.492)" fill="#756f86"/>
  </g>
</svg>
