<svg id="Сгруппировать_3037" data-name="Сгруппировать 3037" xmlns="http://www.w3.org/2000/svg" width="22.235" height="22.235" viewBox="0 0 22.235 22.235">
  <g id="Сгруппировать_3036" data-name="Сгруппировать 3036">
    <path id="Контур_9246" data-name="Контур 9246" d="M22.983,22.983,21.51,24.456l-.987-.987L22,22l-2.7-2.7-1.473,1.473-.987-.987,1.473-1.473-2.7-2.7-1.473,1.473-.987-.987,1.473-1.473-2.71-2.71-1.473,1.473-.987-.987,1.473-1.473-2.7-2.7L6.766,9.712l-.987-.987L7.252,7.252,4,4V23.456a2.788,2.788,0,0,0,2.779,2.779H26.235ZM8.169,22.066v-8l8,8Z" transform="translate(-4 -4)" fill="#756f86"/>
  </g>
</svg>
