<svg xmlns="http://www.w3.org/2000/svg" width="72.996" height="47.229" viewBox="0 0 72.996 47.229">
  <g id="Сгруппировать_3323" data-name="Сгруппировать 3323" transform="translate(0.249 0.249)">
    <path id="Контур_9366" data-name="Контур 9366" d="M518.154,251.589a25.906,25.906,0,0,1-1.364,2.268,1.012,1.012,0,0,1-1.551.158,1.044,1.044,0,0,1-.009-1.569,2.986,2.986,0,0,0,.815-2.324c-.042-.778-.009-1.555-.009-2.338,0-.475-.214-.8-.694-.81-1.057-.028-2.109-.009-3.208-.009.862,3.548.433,7.1.475,10.617.065,5.472.019,10.948.019,16.42,0,1.6-.624,2.217-2.226,2.221-4.438,0-8.871.009-13.309-.009a.877.877,0,0,0-.931.6,7.111,7.111,0,0,1-12.955.009.879.879,0,0,0-.941-.61c-2.338.028-4.671.014-7.008.009-.876,0-1.383-.4-1.374-1.071s.522-1.052,1.4-1.052c2.38,0,4.764,0,7.218,0a7.281,7.281,0,0,1,2.99-5.975,6.989,6.989,0,0,1,4.578-1.369c3.711.177,6.007,2.645,6.794,7.3h5.285c-.074-.168-.13-.331-.214-.48q-5.337-9.2-10.687-18.394a1.051,1.051,0,0,0-.736-.475q-21.235-.035-42.47-.014c-.047,0-.093.014-.2.028v19.321h4.042a7.292,7.292,0,0,1,2.994-5.923,6.943,6.943,0,0,1,4.648-1.364,7.24,7.24,0,0,1,6.72,7.339c1.215,0,2.436-.014,3.656,0,.9.014,1.486.82,1.038,1.513a1.566,1.566,0,0,1-1.085.582c-1.341.07-2.682.028-4.037.028a7.25,7.25,0,0,1-3.6,4.051,7.08,7.08,0,0,1-9.607-3.409.949.949,0,0,0-1.052-.657c-1.346.042-2.692.023-4.033.009a1.736,1.736,0,0,1-1.858-1.858q-.007-16.778,0-33.552a1.808,1.808,0,0,1,1.965-1.928c1.011-.023,2.021,0,3.12,0,0-.647-.014-1.229,0-1.811a2.734,2.734,0,0,1,2.752-2.738q4.533-.028,9.062,0a3.237,3.237,0,0,1,2.622,1.323c.7.889,1.411,1.774,2.068,2.7a1.2,1.2,0,0,0,1.118.545q11.358-.021,22.72-.009c1.122,0,1.672.345,1.7,1.066.023.74-.554,1.118-1.709,1.118H447.85v11.474h1.793v-.75c0-2.24,0-4.484,0-6.724a1.738,1.738,0,0,1,1.961-1.956q16.918-.007,33.836-.009a2.172,2.172,0,0,1,2.03,1.257q8.41,14.529,16.83,29.049a1.224,1.224,0,0,0,1.271.717c1.6-.047,3.2-.014,4.862-.014v-3.12c-.629,0-1.234.014-1.839,0a2.314,2.314,0,0,1-2.305-2.3c-.023-.917-.023-1.839,0-2.761a2.312,2.312,0,0,1,2.361-2.31c.582-.009,1.169,0,1.8,0v-2.375h-.8c-2.286,0-4.578-.028-6.864.009a4.088,4.088,0,0,1-3.884-2.217c-2.561-4.452-5.155-8.885-7.73-13.328-.862-1.485-.2-2.6,1.537-2.6h14.185a8.8,8.8,0,0,0-5.081-2c-1.555-.07-3.115-.033-4.671-.047a3.233,3.233,0,0,1-.7-.056.988.988,0,0,1-.847-.992.923.923,0,0,1,.833-1.062c3.837-.14,7.716-.461,11.12,1.942a11.551,11.551,0,0,1,3.3,3.451.83.83,0,0,0,.838.47c.941-.028,1.891.042,2.831-.019a3.284,3.284,0,0,1,3.651,2.119C518.154,248.473,518.154,250.029,518.154,251.589Zm-7.716,7.493c.019-.177.037-.289.037-.4,0-2.734.014-5.467-.009-8.2a10.021,10.021,0,0,0-.9-4.033c-.382-.857-.843-1.406-1.891-1.215a8.271,8.271,0,0,1-1.481.014h-3.385v13.84C505.366,259.081,507.862,259.081,510.438,259.081ZM467.13,245.3h-8.68v7.227h8.68Zm2.226-.023v7.251h8.717v-7.251Zm20.294,7.265a1.105,1.105,0,0,0-.061-.214q-1.39-2.417-2.789-4.824c-.438-.75-.745-1.76-1.4-2.137s-1.69-.121-2.561-.126-1.723,0-2.584,0v7.3Zm10.925-7.255H493.4c2.389,4.112,4.722,8.14,7.06,12.163a1.134,1.134,0,0,0,.112-.047Zm-5.919,28.672a4.974,4.974,0,1,0-5,4.922A5.016,5.016,0,0,0,494.656,273.96Zm-40.565-.172a4.983,4.983,0,1,0,5.015-4.89A4.994,4.994,0,0,0,454.091,273.787Zm2.11-21.235V245.3h-4.368v7.251Zm-3.241-13.719h11.968c-.433-.563-.829-1.024-1.155-1.527a1.837,1.837,0,0,0-1.732-.852c-2.356.028-4.713.009-7.069.009-2.226,0-2.226,0-2.068,2.249C452.9,238.736,452.917,238.755,452.959,238.834Zm57.483,26.907c-.568,0-1.108-.033-1.635.019a.6.6,0,0,0-.377.438,18.867,18.867,0,0,0,0,2.179c.009.168.219.447.359.456a16.281,16.281,0,0,0,1.653.023Z" transform="translate(-445.671 -234.313)" fill="#756f86" stroke="#756f86" stroke-width="0.5"/>
    <path id="Контур_9367" data-name="Контур 9367" d="M481.79,257.91v7.227h-8.68V257.91Z" transform="translate(-460.332 -246.921)" fill="#fff" stroke="#756f86" stroke-width="0.5"/>
    <path id="Контур_9368" data-name="Контур 9368" d="M496.53,257.86h8.717v7.251H496.53Z" transform="translate(-472.846 -246.894)" fill="#fff" stroke="#756f86" stroke-width="0.5"/>
    <path id="Контур_9369" data-name="Контур 9369" d="M533.22,315.581a3.21,3.21,0,0,1,3.209-3.241,3.239,3.239,0,1,1,0,6.478A3.216,3.216,0,0,1,533.22,315.581Zm4.317.033A1.059,1.059,0,0,0,536.5,314.5a1.079,1.079,0,1,0-.065,2.156A1.054,1.054,0,0,0,537.537,315.614Z" transform="translate(-492.45 -276.004)" fill="#756f86" stroke="#756f86" stroke-width="0.5"/>
    <path id="Контур_9370" data-name="Контур 9370" d="M467.49,315.576a3.205,3.205,0,0,1,3.218-3.236,3.241,3.241,0,1,1,0,6.482A3.218,3.218,0,0,1,467.49,315.576Zm3.241,1.08a1.078,1.078,0,0,0,.009-2.156,1.078,1.078,0,1,0-.009,2.156Z" transform="translate(-457.329 -276.004)" fill="#756f86" stroke="#756f86" stroke-width="0.5"/>
  </g>
</svg>
