<svg id="Сгруппировать_3029" data-name="Сгруппировать 3029" xmlns="http://www.w3.org/2000/svg" width="27.794" height="19.456" viewBox="0 0 27.794 19.456">
  <g id="Сгруппировать_3028" data-name="Сгруппировать 3028">
    <rect id="Прямоугольник_466" data-name="Прямоугольник 466" width="7.355" height="3.677" transform="translate(5.528 2.705)" fill="none"/>
    <rect id="Прямоугольник_467" data-name="Прямоугольник 467" width="6.435" height="3.677" transform="translate(15.641 2.705)" fill="none"/>
    <path id="Контур_9236" data-name="Контур 9236" d="M27.015,11.949V7.779A2.788,2.788,0,0,0,24.235,5H7.559A2.788,2.788,0,0,0,4.779,7.779v4.169A2.788,2.788,0,0,0,2,14.728v6.949H3.848l.931,2.779h1.39L7.1,21.676H24.708l.917,2.779h1.39l.931-2.779h1.848V14.728A2.788,2.788,0,0,0,27.015,11.949Zm-12.507,0H7.559V7.779h6.949Zm9.728,0H17.287V7.779h6.949Z" transform="translate(-2 -5)" fill="#756f86"/>
  </g>
</svg>
