<svg xmlns="http://www.w3.org/2000/svg" width="104.934" height="41.14" viewBox="0 0 104.934 41.14">
  <g id="Сгруппировать_3321" data-name="Сгруппировать 3321" transform="translate(-0.001 0)">
    <path id="Контур_9354" data-name="Контур 9354" d="M349.987,265.51c-2.093.753-3.965,1.43-5.838,2.107a7.512,7.512,0,0,1-.912.318,1.6,1.6,0,0,1-1.983-1.05,1.579,1.579,0,0,1,.96-2.031c.677-.29,1.375-.532,2.342-.9a15.915,15.915,0,0,0-7.972.891Q315.921,272.4,295.237,279.9q-9.047,3.3-18.093,6.6l-.712.249c-.794.269-1.354.76-1.181,1.665a1.415,1.415,0,0,0,1.686,1.154c3.3-.214,6.625-.242,9.893-.7,5.43-.767,10.819-1.817,16.221-2.756a5.014,5.014,0,0,0,.7-.249c-1.409-.926-2.667-1.769-3.945-2.591a1.673,1.673,0,0,1-.891-1.8,1.708,1.708,0,0,1,1.693-1.382c7.9-1.085,15.8-2.121,23.682-3.3a25.69,25.69,0,0,0,4.573-1.554c2.459-.877,4.09-.111,4.995,2.363.325.877.663,1.741.96,2.632a3.312,3.312,0,0,1-2.079,4.435c-2.646,1.009-5.306,1.99-7.979,2.922a4.973,4.973,0,0,1-6.252-2.4c-.366-.67-.7-.587-1.271-.394-4.615,1.561-9.2,3.275-13.879,4.594a94.854,94.854,0,0,1-18.9,2.984c-2.439.18-4.877.345-7.316.421-2.846.09-4.387-1.112-5.161-3.869-.035-.131-.076-.269-.138-.47-1.112.394-2.183.788-3.261,1.154a1.633,1.633,0,1,1-1.112-3.047c.933-.366,1.886-.7,2.826-1.043.9-.332,1.8-.656,2.791-1.029-.3-.359-.511-.636-.746-.891q-4.777-5.347-9.561-10.7c-1.389-1.561-1.1-2.667.864-3.371,1.485-.539,2.984-1.029,4.449-1.624a7.448,7.448,0,0,1,7.178.691c4.2,2.632,8.477,5.14,12.684,7.765a6.285,6.285,0,0,0,5.927.594q21.264-7.8,42.577-15.475c5.085-1.831,10.052-1.092,14.839,1.161a3.279,3.279,0,0,1,1.554,4.636,14.234,14.234,0,0,1-7.793,7.378c-1.831.725-3.7,1.375-5.554,2.038-1.126.4-2.017.069-2.356-.815-.366-.967.09-1.824,1.244-2.252,1.782-.663,3.579-1.285,5.354-1.969a11.068,11.068,0,0,0,5.789-5.085C349.676,266.283,349.773,265.993,349.987,265.51Zm-83.551,6.535c3.268,3.655,6.459,7.24,9.679,10.8a.953.953,0,0,0,.829.207c3.226-1.147,6.439-2.328,9.8-3.558-.38-.269-.622-.47-.884-.629-3.427-2.093-6.86-4.173-10.294-6.266-4.442-2.708-3.668-2.66-8.9-.7A1.931,1.931,0,0,0,266.436,272.045ZM330.56,278.1c-2.722.988-5.389,1.941-8.035,2.929a1.76,1.76,0,0,0-1.243,2.363,1.816,1.816,0,0,0,2.556,1.016c2.466-.877,4.919-1.769,7.378-2.667a3.285,3.285,0,0,0,.56-.332C331.369,280.28,330.975,279.216,330.56,278.1Zm-13.416,3.212c-.021-.062-.034-.131-.055-.193-3.9.546-7.786,1.085-11.779,1.644,1.52,1.534,2.984,2.218,4.946,1.112a23.412,23.412,0,0,1,3.413-1.271C314.83,282.18,315.983,281.738,317.144,281.309Z" transform="translate(-248.321 -260.436)" fill="#756f86"/>
    <path id="Контур_9355" data-name="Контур 9355" d="M256.9,303.589c-.269.276-.649.974-1.216,1.188-3.71,1.43-7.454,2.77-11.2,4.1a1.634,1.634,0,1,1-1.057-3.088q5.544-2.052,11.116-4.041C255.767,301.316,256.852,302.021,256.9,303.589Z" transform="translate(-242.239 -273.168)" fill="#756f86"/>
    <path id="Контур_9356" data-name="Контур 9356" d="M261.239,314.022c-.463-.477-1.119-.87-1.34-1.437a1.461,1.461,0,0,1,1.009-1.969c2.01-.753,4.035-1.471,6.059-2.211.7-.256,1.4-.58,2.121-.767a1.522,1.522,0,0,1,1.941.926,1.4,1.4,0,0,1-.691,2.01c-2.86,1.133-5.769,2.148-8.663,3.206a1.071,1.071,0,0,1-.214.028C261.384,313.883,261.315,313.953,261.239,314.022Z" transform="translate(-247.663 -275.006)" fill="#756f86"/>
    <path id="Контур_9357" data-name="Контур 9357" d="M289.462,313.926c-.256.249-.629.884-1.174,1.105-2.121.864-4.283,1.61-6.446,2.356a1.614,1.614,0,0,1-1.188-3c2.2-.85,4.415-1.672,6.653-2.418C288.439,311.6,289.5,312.44,289.462,313.926Z" transform="translate(-253.82 -276.341)" fill="#756f86"/>
    <path id="Контур_9358" data-name="Контур 9358" d="M351.671,278.559a1.642,1.642,0,1,1-1.693-1.589A1.638,1.638,0,0,1,351.671,278.559Z" transform="translate(-275.055 -265.547)" fill="#756f86"/>
    <path id="Контур_9359" data-name="Контур 9359" d="M357.83,275.177a1.589,1.589,0,0,1,1.617-1.637,1.613,1.613,0,1,1,.055,3.226A1.608,1.608,0,0,1,357.83,275.177Z" transform="translate(-277.974 -264.487)" fill="#756f86"/>
    <path id="Контур_9360" data-name="Контур 9360" d="M368.918,270.1a1.612,1.612,0,1,1-.145,3.219,1.612,1.612,0,0,1,.145-3.219Z" transform="translate(-280.889 -263.423)" fill="#756f86"/>
    <path id="Контур_9361" data-name="Контур 9361" d="M307.625,292.34a1.686,1.686,0,0,1,1.658,1.637,1.628,1.628,0,0,1-1.547,1.617,1.556,1.556,0,0,1-1.686-1.554A1.639,1.639,0,0,1,307.625,292.34Z" transform="translate(-261.966 -270.299)" fill="#756f86"/>
  </g>
</svg>
